<?xml version="1.0" encoding="UTF-8"?>
<svg xmlns="http://www.w3.org/2000/svg" viewBox="0 0 500 500">
  <defs>
    <style>
      .cls-1 {
        fill: #11b75c;
      }

      .cls-2 {
        fill: #a3a3a3;
      }

      .cls-2, .cls-3, .cls-4, .cls-5, .cls-6, .cls-7 {
        stroke: #263238;
        stroke-linecap: round;
        stroke-linejoin: round;
      }

      .cls-8 {
        opacity: .7;
      }

      .cls-8, .cls-3 {
        fill: #fff;
      }

      .cls-4 {
        fill: #d6d6d6;
      }

      .cls-5 {
        fill: none;
      }

      .cls-6 {
        fill: #263238;
      }

      .cls-7 {
        fill: #248f59;
      }
    </style>
  </defs>
  <g id="Background_Simple" data-name="Background Simple">
    <path class="cls-1" d="M380.7,30.77S75.33,84.6,12.91,121.59c-32,18.97,62.4,343.06,84.31,351.54,21.91,8.49,328.75-3.18,345.49-14.23,16.74-11.05,47.54-385.71,42.41-407.68-5.13-21.97-30.06-36.4-104.43-20.46Z"/>
    <path class="cls-8" d="M380.7,30.77S75.33,84.6,12.91,121.59c-32,18.97,62.4,343.06,84.31,351.54,21.91,8.49,328.75-3.18,345.49-14.23,16.74-11.05,47.54-385.71,42.41-407.68-5.13-21.97-30.06-36.4-104.43-20.46Z"/>
  </g>
  <g id="Puzzle">
    <g>
      <path class="cls-6" d="M388.79,214.91v90.03c-4.45,.7-15.17,2.38-19.84,3.16-5.95,1-18.34,0-15.37-5.95,2.98-5.95,3.48-19.34-8.43-20.33-11.9-.99-13.39,7.44-8.92,15.37,4.46,7.93-2.48,11.9-12.4,11.4-6.13-.31-17.57-.8-29.28-.44,2.18-17.49,4.77-36.47,2.51-38.74-3.97-3.97-13.39,4.47-18.84,1.99-5.46-2.48-8.92-15.37-2.98-19.34,5.95-3.97,11.9,.99,17.35,1.49,5.46,.49,6.45-1,7.44-6.95,.58-3.46-.86-20.18-2.46-34.16,24.47,.07,37.53-1.43,36.18,4.9-1.49,6.94-5.96,17.35,2.48,21.32,8.43,3.97,15.86,.99,16.86-6.45,.99-7.44-6.95-14.38-1.99-18.35,2.72-2.18,20.53-.47,37.69,1.03Z"/>
      <path class="cls-7" d="M178.56,351.73c-1.49,8.92,6.94,14.87,12.39,11.89,5.46-2.97,13.88-5.45,13.88,3.48,0,4.6-.53,18.18-1.03,30.24H114.59v-90.58c3.34,.34,8.17,.29,14.38-1.15,12.89-2.97,22.32-5.95,21.33,2.48-1,8.43-6.45,20.83,5.45,21.83,11.9,.99,15.37-5.46,14.38-13.89-.99-8.43,1.49-14.38,9.42-13.38,4.02,.5,14.92,2.02,25.6,3.46,.76,14.16,1.9,27.82,1.68,31.25-.5,7.44-5.46,8.43-12.4,6.45-6.94-1.99-14.37-.99-15.86,7.93Z"/>
      <path class="cls-7" d="M299.88,246.79c-1,5.95-1.99,7.44-7.45,6.95-5.45-.5-11.41-5.46-17.36-1.49-5.95,3.97-2.48,16.87,2.98,19.35,5.45,2.48,14.88-5.96,18.85-1.99,2.27,2.27-.33,21.26-2.51,38.76-7.23,.22-14.57,.78-20.81,1.93-16.37,2.98-15.38-5.46-11.91-12.9,3.48-7.44-.49-15.88-13.39-13.89-12.9,1.98-8.44,9.92-5.96,17.36,2.48,7.44-6.45,8.93-13.39,8.44-3.43-.25-13.62-1.58-24-2.99-.89-16.56-1.27-33.81,1.68-36.21,5.46-4.47,8.43,3.97,15.38,2.98,6.95-1,8.93-5.46,7.44-15.38-1.49-9.93-8.43-8.94-15.88-5.96-7.44,2.98-11.9,0-12.4-8.43-.29-4.83,1.05-18.56,2.44-30.84,5.82,.4,11.24,.57,15.41,.07,12.41-1.48,25.8-1.98,26.3,4.47,.5,6.45-5.46,10.42-4.47,16.37,1,5.96,13.4,9.43,19.85,3.97,6.45-5.46-3.97-15.87,.5-22.32,4.46-6.45-.5-2.98,28.77-2.49,2.6,.04,5.08,.06,7.47,.06,1.6,13.98,3.04,30.71,2.46,34.17Z"/>
    </g>
  </g>
  <g id="Hand_6" data-name="Hand 6">
    <g>
      <path class="cls-3" d="M240.09,464.74s-1.08-9-4.32-21.25c-3.24-12.25-10.8-24.13-10.8-29.89s11.88-39.62,13.33-41.78c1.44-2.16,9.36-15.13,11.52-14.41s3.24,3.96,3.24,3.96c0,0,5.04-6.48,7.92-5.4,2.88,1.08,2.16,3.24,2.16,3.24,0,0,5.76-.72,7.2,1.8,1.44,2.52,.36,5.76,.36,5.76,0,0,5.4,3.6,5.4,7.56s-2.52,33.13-2.52,35.29,2.88,18.01,1.08,28.45c-1.8,10.44-3.6,16.21-3.6,16.21l1.8,11.16-32.77-.72Z"/>
      <path class="cls-6" d="M311.94,368.38c-5.96,.5-8.43-6.94-13.89-3.47-5.46,3.47-5.46,5.46-4.96,14.87,.36,6.78,1.74,16.11,2.49,20.83h-91.78c.51-12.06,1.03-25.64,1.03-30.24,0-8.92-8.43-6.45-13.88-3.48-5.46,2.98-13.88-2.97-12.39-11.89,1.49-8.92,8.92-9.92,15.86-7.93,6.95,1.98,11.9,.99,12.4-6.45,.22-3.43-.92-17.09-1.68-31.25,10.38,1.41,20.56,2.74,23.99,2.99,6.94,.49,15.86-1,13.38-8.43-2.48-7.44-6.94-15.37,5.96-17.35,12.89-1.99,16.86,6.45,13.38,13.88-3.47,7.44-4.46,15.87,11.9,12.89,6.24-1.14,13.57-1.7,20.8-1.93-1.63,13.11-3.02,25.37-1.96,29.2,2.49,8.92,7.44,9.41,12.4,7.44,4.96-1.98,13.88-2.48,15.37,5.95,1.49,8.43-2.48,13.89-8.43,14.38Z"/>
      <path class="cls-3" d="M236.85,422.96s.36-10.44,1.8-15.13c1.44-4.68,4.32-13.33,4.68-18.37,.36-5.04-1.44-13.69,2.52-12.97s7.2,5.4,8.28,11.52c1.08,6.12-2.16,15.49-1.8,18.01,.36,2.52,7.2,9.72,7.92,16.21,.72,6.48-.36,14.05-.72,15.85"/>
      <polygon class="cls-3" points="236.13 460.06 279.71 460.06 279.71 480.59 236.13 478.79 236.13 460.06"/>
      <rect class="cls-6" x="234.69" y="478.79" width="50.42" height="21.82"/>
    </g>
  </g>
  <g id="Hand_5" data-name="Hand 5">
    <g>
      <path class="cls-7" d="M399.05,311.95l-10.87,91.77-92.56-10.97c-.19-4.77-.46-14.2-.02-20.97,.61-9.41,.85-11.38,6.67-14.18,5.83-2.8,7.41,4.87,13.39,5.08,5.96,.21,10.54-4.74,10.06-13.29-.49-8.54-9.41-9.1-14.56-7.71-5.16,1.38-10.02,.31-11.44-8.84-.6-3.92,2.22-15.94,5.38-28.76,11.67,1.01,22.97,2.85,29.02,3.88,9.8,1.66,17.15-1.46,13.66-9.86-3.5-8.41-1.03-16.6,10.67-14.21,11.7,2.38,9.63,15.62,5.97,21.18-3.65,5.56,8.54,8.01,14.56,7.71,4.72-.22,15.57-.63,20.07-.8Z"/>
      <g>
        <path class="cls-4" d="M417.67,328.41s10.67,3.85,16.02,2.67c5.35-1.19,9.82-3.59,9.82-3.59l-10.07-8.27-12.08,4.3-3.68,4.89Z"/>
        <path class="cls-4" d="M499.8,282.94c-13.84,4.44-25.05,8.7-26.94,9.3-4.12,1.3-24.04-.09-29.17-.91-5.13-.82-28-11.54-31.63-10.92-3.63,.62-4.04-.12-6.33,1.99-2.29,2.11-21.5,20.69-22.64,23.14-1.14,2.45-8.22,20.86-8.92,25.26-.7,4.4-.98,8.49,.63,9.72,1.61,1.23,3.49,1.69,5.24,.61,1.75-1.07,2.68-3.63,3.83-6.08,1.14-2.45,.97-4.66,.97-4.66,0,0,9.65,6.88,11.43,7.01,1.78,.13,4.7-1.65,4.7-1.65,0,0,2.87,.84,4.45,.86,1.57,.03,11.24-.23,13.99-1.45s5-4.01,5.03-5.59c.03-1.57-.5-4.37-.5-4.37l8.07-2.54s12.01,9.96,20.9,8.9c8.89-1.06,16.35-4.45,17.46-5.33s4.6-1.97,4.6-1.97l24.85-2.84v-38.52Z"/>
        <path class="cls-5" d="M415.84,312.29s-12.04,10.4-11.6,12.35c.44,1.95,1.89,6.02,3.44,7.62,1.55,1.6,3.93,3.63,5.92,3.88s5.12-1.44,5.68-3.53-.11-3.1-.11-3.1"/>
        <path class="cls-5" d="M416.56,331.72s6.79-4.4,7.35-6.49"/>
        <path class="cls-5" d="M407.28,302.8s-15.27,8.98-15.37,11.98c-.1,2.99,.92,13.98,2,15.73,0,0,2.86,4.67,7.05,5.26"/>
        <path class="cls-5" d="M403.93,292.72s-18.08,10.57-19.51,11.54c-1.43,.97-2.6,5-2.35,8.57,.26,3.57,.8,11.93,1.08,13.93,.28,2,.74,2.9,1.67,3.65"/>
        <path class="cls-5" d="M420.38,285.28s-3.28-1.58-5.72,.06c-2.44,1.64-3.88,3.14-3.88,3.14"/>
        <path class="cls-5" d="M427.31,294.58c-.61-1.32-5.19-.83-6.43,1.68"/>
        <path class="cls-5" d="M431.34,304.62s-2.31-.14-3.64,1.15l-1.33,1.29"/>
      </g>
    </g>
  </g>
  <g id="Hand_4" data-name="Hand 4">
    <path class="cls-7" d="M400.3,96.81l7.12,92.97c-17.22-.18-35.11-.52-37.65,1.85-4.64,4.33,3.8,10.65,3.38,18.14-.43,7.49-7.61,11.03-16.32,7.71-8.71-3.31-5.05-14.04-4.1-21.07,.86-6.41-12.04-3.92-36.45-2.13-1.9-9.91-3.79-18.41-4.5-19.6-1.71-2.86-3.38-11.68,.8-15.48,4.19-3.81,12.59,2.01,16.92,.2,4.34-1.83,5.14-4.37,4.99-12.82-.15-8.44-8.63-8.79-13.31-4.95-4.68,3.84-12.55,4.94-13.46-6.93-.66-8.64,.31-23.48,.9-30.9l91.68-7.02Z"/>
    <g>
      <path class="cls-3" d="M495.82-.12c-19.47,18.15-44.95,41.88-47.32,43.94-3.88,3.37-30.61,4.74-32.41,4.84-1.8,.1-9.57-1.73-9.57-1.73,0,0-8.11,1.98-9.27,2.13-1.17,.15-19.29,5.47-21.46,5.41-2.17-.06-6.67,.18-6.31,1.88,.36,1.7,.31,2.33,2.26,3.4,1.95,1.07,6.82,.98,6.82,.98,0,0-12.26,6.99-15.12,7.5s-8.84,.12-8.48,3.35c.36,3.23,6.07,3.73,8.56,3.05,2.49-.68,18.97-6.27,18.97-6.27,0,0-11.04,7.73-14.75,9.2-3.71,1.47-9.7,2.6-10.65,3.29-.96,.68-2.79,9.99,7.91,6.07,10.71-3.92,21.85-11.39,21.85-11.39,0,0-5.11,5.69-5.38,7.33-.22,1.34-2.22,10.88-3.51,15.85l9.88-.79c2.25-4.06,4.29-8.77,4.66-9.62,.48-1.11,12-9.95,12-9.95l5.84-3.84s5.95,6.54,5.79,8.44c-.17,1.9-1.88,6.87-3.64,9.41s-5.11,7.23-9.35,8.9c-4.24,1.68-9.26,10.7-9.05,12.77,.2,2.06,3.99,8.54,7.12,4.85,3.14-3.69,23.86-22.6,31.81-25.75,7.95-3.14,21.07-12.61,25.27-18.26,4.21-5.65,8.03-8.38,8.03-8.38l33.63-17.05V-.12h-4.16Z"/>
      <path class="cls-3" d="M386.87,75.52s8.5-6.42,14.67-14.07"/>
      <path class="cls-3" d="M382.5,68.36s10.3-6.52,14.93-12.64"/>
      <path class="cls-3" d="M378.57,60.72s13.25-3.7,18.83-8.97"/>
    </g>
  </g>
  <g id="Hand_3" data-name="Hand 3">
    <g>
      <path class="cls-3" d="M289.17,117.3c-.72-3.24-2.52-5.76-2.52-5.76,0,0,1.8,.72,.36-3.6-1.44-4.32-14.05-20.17-14.05-20.17,0,0,2.52-18.01,.72-25.21-1.8-7.2-5.04-11.52-5.04-11.52l1.01-50.49h-33.65c.06,17.81,10.88,41.38,2.39,68.14-1.67,5.25-5.76,19.81-3.96,25.21,1.8,5.4,13.33,27.37,15.85,29.17,2.52,1.8,25.57,12.25,29.53,11.89,3.96-.36,3.24-4.32,2.88-5.76l-.36-1.44s5.76,1.44,6.12-1.44c.36-2.88-2.16-5.04-2.16-5.04,0,0,3.6-.72,2.88-3.96Z"/>
      <path class="cls-6" d="M322.1,148.33c-.5,8.43-1.49,10.91-5.96,12.4-4.46,1.48-12.39-4.97-16.86-1.49-4.46,3.47-3.47,12.39-1.98,15.37,.62,1.25,1.85,9.86,3,19.89-2.38,0-4.87-.02-7.46-.06-29.25-.49-24.29-3.96-28.75,2.49-4.47,6.45,5.95,16.85-.5,22.31-6.45,5.46-18.84,1.99-19.84-3.97-.99-5.95,4.97-9.91,4.47-16.36-.5-6.45-13.88-5.95-26.28-4.47-4.17,.5-9.58,.33-15.41-.07,1.03-9.19,2.1-17.56,2.51-20.75,.99-7.44,1.99-13.89-1.49-16.86-3.47-2.98-15.86,5.45-20.33,3.47-4.46-1.99-5.46-17.36,.99-22.81,6.45-5.46,13.39,1.98,16.37,1.48,2.97-.49,4.46,0,4.96-7.44,.38-5.8-1.94-21.24-2.98-27.76h93.01c-1.15,7.36-3.25,22.07-3.25,30.74,0,11.9,7.93,11.4,12.89,7.93,4.96-3.48,13.38-2.48,12.89,5.95Z"/>
      <path class="cls-3" d="M249.91,85.25s6.12,23.05,6.84,24.85,3.96,7.2,5.76,10.44c1.8,3.24,7.56-.36,8.28-5.04s-6.48-16.21-6.48-16.21l-1.08-8.64s6.84-8.28,6.84-15.85-7.2-15.85-7.2-15.85"/>
    </g>
  </g>
  <g id="Hand_2" data-name="Hand 2">
    <g>
      <path class="cls-2" d="M70.03,97.12s15.65,.29,18.51,.29,26.95-10.62,31.04-10.21,29.81,14.7,31.45,16.34c1.63,1.63,13.89,20.42,12.66,23.28-1.23,2.86-4.9,3.68-4.9,3.68l-2.86-1.23s-1.63,2.04-4.49,2.45c-2.86,.41-6.13-1.23-6.13-1.23,0,0-2.86,1.63-5.31,1.63s-5.31-2.86-5.31-2.86h-5.72s2.86,3.27,2.45,4.49c-.41,1.23-2.45,2.45-5.31,1.23-2.86-1.23-5.72-4.9-5.72-4.9l-12.66-6.13s-7.76,2.86-14.7,3.27c-6.94,.41-17.97-3.27-17.97-3.27l-15.4-5.34,10.37-21.5Z"/>
      <path class="cls-7" d="M195.1,178.52c-.42,3.18-1.48,11.55-2.51,20.75-11.45-.77-24.47-2.4-32.69-1.41-12.39,1.48-4.46,11.4-5.95,18.84-1.49,7.44-6.45,11.9-14.87,7.93-8.43-3.97-4.97-10.91-.5-18.85,4.47-7.93-3.47-6.94-13.39-6.45-6.53,.33-16.07,1.09-21.82,1.57V108.6h89.25c1.03,6.53,3.36,21.97,2.98,27.76-.5,7.44-1.99,6.95-4.96,7.44-2.98,.5-9.92-6.94-16.37-1.48-6.45,5.45-5.45,20.82-.99,22.81,4.47,1.98,16.86-6.45,20.33-3.47,3.48,2.97,2.48,9.41,1.49,16.86Z"/>
      <path class="cls-2" d="M117.53,99.46s8.98,4.08,12.66,5.72c3.68,1.63,10.21,4.9,10.21,4.9,0,0,8.98,6.13,10.21,6.53,1.23,.41,1.23,3.68-4.08,4.9s-14.29-5.31-15.93-5.72c-1.63-.41-12.25,2.45-13.89,2.45s-11.44,3.68-18.38,3.27c-6.94-.41-11.03-4.08-12.66-6.94"/>
      <polygon class="cls-3" points="77.44 87.95 57.83 125.41 45.25 120.69 67.71 83.12 77.44 87.95"/>
      <polygon class="cls-7" points="-.03 40.01 -.03 104.99 45.88 127.9 69.75 81.49 -.03 40.01"/>
    </g>
  </g>
  <g id="Hand_1" data-name="Hand 1">
    <g>
      <path class="cls-3" d="M105.57,316.33c-.36-3.21-1.83-5.73-5.01-7.87-3.18-2.14-26.31-17.85-27.1-18.26-.8-.41-5.22,.84-5.22,.84,0,0-24.9,13.6-36.66,17.86-11.77,4.26-20.81,14.96-21.92,15.64-.28,.17-1.42,1.15-9.43,7.59v47.66l30.59-34.76s9.81,.02,12.73-1.24c2.92-1.27,9.69-6.59,11.22-8.57,1.53-1.98,3.94-2.75,6.86-4.02,2.92-1.26,4.73-2.34,4.73-2.34,0,0,7.16,3.69,8.05,4.41,.89,.71-.55,4-.55,4,0,0-6.33,2.02-8.05,2.9-1.71,.88-4.14,2.65-3.96,4.26,.18,1.6,3.67,2.65,3.67,2.65,0,0-.65,3.7,1.13,5.62s2.4,.23,5.83-1.53c3.43-1.76,20.65-10.25,20.65-10.25,0,0,1.56,3.32,4.16,3.66,2.6,.33,2.66-4.67,3.94-10.56,1.27-5.89,4.69-14.46,4.33-17.67Z"/>
      <path class="cls-5" d="M72.31,302.2s1.54,5.33-.42,9.61"/>
      <path class="cls-5" d="M81.7,303.52s1.85,4.23-.09,7.01"/>
      <path class="cls-5" d="M93.33,326.39l1.08,1.32s-3.49,6.76-1.27,13.2"/>
      <path class="cls-5" d="M87.61,327.22l-.97,5.29s-5.78,5.83-7.29,6.32c-1.51,.48-12.15,3.05-13.82,8.24"/>
      <path class="cls-5" d="M73.87,337.26l3.23-2.36,2.76-4.37s-3.89-1.25-3.95-4.05"/>
      <path class="cls-5" d="M79.36,338.83s-4.23,2.35-3.17,5.67,3.86,3.75,3.86,3.75"/>
      <path class="cls-6" d="M192.08,280.59c-6.74,1.96-10.87-5.97-15.64-.77-2.57,2.79,.24,19.81,3.46,36.06-10.78,.09-21.78,.12-25.83,.2-8,.13-9.61,6.38-7.43,14.58,2.17,8.21-.35,15.08-12.27,15.79-11.91,.7-8.28-12.34-8.48-20.83-.21-8.48-9.12-4.2-21.46,.57-5.95,2.3-10.72,3.04-14.07,3.17l-13.14-91.87c5.62-1.29,14.96-3.39,21.37-4.64,9.75-1.89,17.47-3.99,14.17,4.49-3.3,8.49-5.75,15.85,3.16,18.59,8.9,2.73,13.18-2.39,13.6-9.96,.42-7.57-8.84-16.27,3.22-19.49,8-2.14,21.12-2.37,32.56-3.23,.36,12.34,.98,26.12,1.95,30.86,1.69,8.27,6.52,10.59,13.46,6.59,6.95-4,13.67-5.96,16.55,3.65,2.88,9.6,1.55,14.3-5.18,16.27Z"/>
      <path class="cls-3" d="M61.49,310.48s3.77,2.95,10.4,1.33c6.63-1.62,13.03-.84,19.24-1.16,6.21-.32,14.5,1.18,14.45,5.69-.06,4.5-4.8,7.35-10.72,8.58s-22.32-.18-25.86,2.28c-3.53,2.46-9.89,5.98-14.22,8.03-4.33,2.05-9.74,2.28-16.85,2.39"/>
    </g>
  </g>
</svg>