<?xml version="1.0" encoding="UTF-8"?>
<svg id="Layer_1" data-name="Layer 1" xmlns="http://www.w3.org/2000/svg" viewBox="0 0 89.26 87.72">
  <defs>
    <style>
      .cls-1 {
        fill: #4a6788;
      }
    </style>
  </defs>
  <path class="cls-1" d="M58.39,60.89l-5.24,5.48-1.61-2.19c-.52-.71-1.53-.86-2.24-.34-.71,.52-.86,1.53-.34,2.24l2.74,3.72c.28,.38,.71,.62,1.19,.65,.03,0,.07,0,.1,0,.44,0,.85-.18,1.16-.49l6.56-6.85c.61-.64,.59-1.65-.05-2.26-.64-.61-1.65-.59-2.26,.05Z"/>
  <path class="cls-1" d="M38.77,42.04l-5.24,5.48-1.61-2.19c-.52-.71-1.53-.86-2.24-.34-.71,.52-.86,1.53-.34,2.24l2.74,3.72c.28,.38,.71,.62,1.19,.65,.03,0,.07,0,.1,0,.44,0,.85-.18,1.16-.49l6.56-6.85c.61-.64,.59-1.65-.05-2.26-.64-.61-1.65-.59-2.26,.05Z"/>
  <path class="cls-1" d="M76.13,22.4h-5.09v-4.83c0-2.2-2.11-3.99-4.7-3.99s-4.7,1.79-4.7,3.99v4.83h-11.93v-4.83c0-2.2-2.11-3.99-4.7-3.99s-4.7,1.79-4.7,3.99v4.83h-11.93v-4.83c0-2.2-2.11-3.99-4.7-3.99s-4.7,1.79-4.7,3.99v4.83h-5.09c-3.11,0-5.64,2.53-5.64,5.64v43.6c0,3.11,2.53,5.65,5.64,5.65h62.24c3.11,0,5.64-2.53,5.64-5.65V28.05c0-3.11-2.53-5.64-5.64-5.64ZM11.45,39.25h14.13v15.65H11.45v-15.65Zm16.42,0h16.02v15.65H27.87v-15.65Zm18.31,0h16.02v15.65h-16.02v-15.65Zm18.31,0h14.08v15.65h-14.08v-15.65Zm.35-16.84v-4.83c0-.32,.6-.79,1.5-.79s1.5,.48,1.5,.79v11.39c0,.32-.6,.79-1.5,.79s-1.5-.48-1.5-.79v-6.56Zm-21.33,0v-4.83c0-.32,.6-.79,1.5-.79s1.5,.48,1.5,.79v11.39c0,.32-.6,.79-1.5,.79s-1.5-.48-1.5-.79v-6.56Zm-21.33,0v-4.83c0-.32,.6-.79,1.5-.79s1.5,.48,1.5,.79v11.39c0,.32-.6,.79-1.5,.79s-1.5-.48-1.5-.79v-6.56Zm-10.74,5.64c0-1.35,1.1-2.44,2.44-2.44h5.09v3.36c0,2.2,2.11,3.99,4.7,3.99s4.7-1.79,4.7-3.99v-3.36h11.93v3.36c0,2.2,2.11,3.99,4.7,3.99s4.7-1.79,4.7-3.99v-3.36h11.93v3.36c0,2.2,2.11,3.99,4.7,3.99s4.7-1.79,4.7-3.99v-3.36h5.09c1.35,0,2.44,1.1,2.44,2.44v8H11.45v-8Zm0,43.6v-14.47h14.13v16.91H13.9c-1.35,0-2.44-1.1-2.44-2.44Zm16.42-14.47h16.02v16.91H27.87v-16.91Zm18.31,0h16.02v16.91h-16.02v-16.91Zm32.39,14.47c0,1.35-1.1,2.44-2.44,2.44h-11.64v-16.91h14.08v14.47Z"/>
</svg>