<?xml version="1.0" encoding="UTF-8"?>
<svg id="Objects" xmlns="http://www.w3.org/2000/svg" viewBox="0 0 203.69 202.33">
  <defs>
    <style>
      .cls-1 {
        fill: #4a6788;
      }

      .cls-2 {
        fill: #3a55a5;
      }
    </style>
  </defs>
  <path class="cls-2" d="M69.72,139.61c1.45,0,2.62-1.17,2.62-2.62h0c-.04-1.42-1.19-2.55-2.62-2.55h0c-1.39,.04-2.51,1.16-2.55,2.55h-.07c0,1.45,1.17,2.62,2.62,2.62Z"/>
  <path class="cls-2" d="M69.72,124.85c1.45,0,2.62-1.17,2.62-2.62h0c-.04-1.42-1.19-2.55-2.62-2.55h0c-1.39,.04-2.51,1.16-2.55,2.55h-.07c0,1.45,1.17,2.62,2.62,2.62Z"/>
  <path class="cls-2" d="M64.96,129.61c0-1.25-.87-2.29-2.04-2.55,.06,1.68,.19,3.34,.39,4.99,.97-.39,1.65-1.33,1.65-2.43Z"/>
  <path class="cls-2" d="M69.72,110.08c1.45,0,2.62-1.17,2.62-2.62h0c-.04-1.42-1.19-2.55-2.62-2.55h0c-1.39,.04-2.51,1.16-2.55,2.55h-.07c0,1.45,1.17,2.62,2.62,2.62Z"/>
  <path class="cls-2" d="M64.96,114.84c0-.83-.39-1.57-.99-2.05-.28,1.48-.51,2.98-.68,4.49,.98-.38,1.67-1.33,1.67-2.44Z"/>
  <path class="cls-2" d="M84.49,169.14c1.45,0,2.62-1.17,2.62-2.62h0c-.04-1.42-1.19-2.55-2.62-2.55h0c-1.39,.04-2.51,1.16-2.55,2.55h-.07c0,1.45,1.17,2.62,2.62,2.62Z"/>
  <path class="cls-2" d="M72.34,151.76h0c-.04-1.42-1.19-2.55-2.62-2.55h0c-.61,.02-1.17,.24-1.61,.61,.67,1.53,1.39,3.03,2.17,4.5,1.18-.26,2.06-1.3,2.06-2.56Z"/>
  <path class="cls-2" d="M81.87,151.76c0,1.45,1.17,2.62,2.62,2.62,.06,0,.11,0,.16,0-.86-1.2-1.67-2.45-2.43-3.72-.17,.34-.27,.71-.28,1.11h-.07Z"/>
  <path class="cls-2" d="M79.72,159.14c0-1.45-1.17-2.62-2.62-2.62s-2.62,1.17-2.62,2.62,1.17,2.62,2.62,2.62,2.62-1.17,2.62-2.62Z"/>
  <path class="cls-2" d="M74.48,144.37c0,1.45,1.17,2.62,2.62,2.62,1.08,0,2-.65,2.4-1.58-.51-1.13-.97-2.29-1.4-3.46-.31-.13-.65-.2-1.01-.2-1.45,0-2.62,1.17-2.62,2.62Z"/>
  <path class="cls-2" d="M75.57,131.73c-.18-1.29-.31-2.59-.4-3.9-.43,.47-.7,1.09-.7,1.77,0,.88,.43,1.65,1.09,2.13Z"/>
  <path class="cls-2" d="M74.48,114.84c0,.9,.46,1.7,1.15,2.17,.24-1.6,.55-3.18,.94-4.73-1.19,.25-2.08,1.3-2.08,2.56Z"/>
  <path class="cls-2" d="M72.34,92.7h0c0-.37-.1-.72-.24-1.04-.72,1.19-1.41,2.4-2.05,3.64,1.3-.16,2.3-1.26,2.3-2.6Z"/>
  <path class="cls-2" d="M77.1,97.46c-1.45,0-2.62,1.17-2.62,2.62s1.17,2.62,2.62,2.62,2.62-1.17,2.62-2.62-1.17-2.62-2.62-2.62Z"/>
  <path class="cls-2" d="M77.1,87.93c1.45,0,2.62-1.17,2.62-2.62,0-.98-.53-1.83-1.33-2.28-1.13,1.3-2.2,2.65-3.23,4.04,.48,.52,1.17,.86,1.93,.86Z"/>
  <path class="cls-2" d="M96.63,166.52c0,.72,.29,1.38,.77,1.85,.12,.12,.25,.23,.39,.32,.42,.28,.92,.45,1.46,.45,.45,0,.88-.12,1.25-.32-1.3-.76-2.57-1.58-3.8-2.45,0,.05,0,.1,0,.15h-.07Z"/>
  <path class="cls-2" d="M91.87,171.29c-1.45,0-2.62,1.17-2.62,2.62s1.17,2.62,2.62,2.62,2.62-1.17,2.62-2.62-1.17-2.62-2.62-2.62Z"/>
  <path class="cls-2" d="M90.9,161.57c-.5-.48-.99-.96-1.46-1.46,.27,.67,.8,1.2,1.46,1.46Z"/>
  <path class="cls-2" d="M84.49,90.14h0c-1.39,.04-2.51,1.16-2.55,2.55h-.07c0,1.38,1.07,2.51,2.42,2.61,.84-1.2,1.72-2.35,2.65-3.47-.38-.99-1.33-1.69-2.45-1.69Z"/>
  <path class="cls-2" d="M87.11,77.93h0c-.02-.92-.52-1.72-1.26-2.17-.51,.42-1.01,.85-1.5,1.29l2.33,2.33c.28-.42,.44-.91,.44-1.45Z"/>
  <path class="cls-2" d="M97.4,79.78c.12,.12,.25,.23,.39,.32,.42,.28,.92,.45,1.46,.45,1.45,0,2.62-1.17,2.62-2.62h0c-.04-1.42-1.19-2.55-2.62-2.55h0c-1.39,.04-2.51,1.16-2.55,2.55h-.07c0,.72,.29,1.38,.77,1.85Z"/>
  <path class="cls-2" d="M91.87,82.69c-.54,0-1.04,.16-1.45,.44l2.56,2.56c.46-.39,.92-.78,1.39-1.15-.33-1.07-1.33-1.85-2.5-1.85Z"/>
  <path class="cls-2" d="M94.49,70.55c0-.27-.04-.53-.11-.77-1.45,.85-2.87,1.76-4.25,2.72,.46,.41,1.07,.67,1.75,.67,1.45,0,2.62-1.17,2.62-2.62Z"/>
  <path class="cls-2" d="M101.87,181.29h0c-.04-1.42-1.19-2.55-2.62-2.55h0c-1.19,.03-2.19,.86-2.47,1.98,1.48,.78,3,1.51,4.54,2.17,.34-.44,.55-1,.55-1.6Z"/>
  <path class="cls-2" d="M114.02,183.91c1.45,0,2.62-1.17,2.62-2.62h0c-.04-1.42-1.19-2.55-2.62-2.55h0c-1.39,.04-2.51,1.16-2.55,2.55h-.07c0,1.45,1.17,2.62,2.62,2.62Z"/>
  <path class="cls-2" d="M104.01,173.91c0,1.45,1.17,2.62,2.62,2.62s2.62-1.17,2.62-2.62c0-.4-.09-.77-.25-1.11-1.13-.41-2.24-.85-3.33-1.33-.97,.38-1.66,1.33-1.66,2.44Z"/>
  <path class="cls-2" d="M111.4,63.16c0,1.45,1.17,2.62,2.62,2.62s2.62-1.17,2.62-2.62h0c-.01-.45-.13-.87-.34-1.23-1.62,.26-3.22,.58-4.8,.96-.01,.09-.02,.18-.02,.28h-.07Z"/>
  <path class="cls-2" d="M106.63,67.93c-1.45,0-2.62,1.17-2.62,2.62s1.17,2.62,2.62,2.62,2.62-1.17,2.62-2.62-1.17-2.62-2.62-2.62Z"/>
  <path class="cls-2" d="M128.78,183.91c1.45,0,2.62-1.17,2.62-2.62h0c-.04-1.42-1.19-2.55-2.62-2.55h0c-1.39,.04-2.51,1.16-2.55,2.55h-.07c0,1.45,1.17,2.62,2.62,2.62Z"/>
  <path class="cls-2" d="M121.4,186.05c-1.06,0-1.98,.63-2.39,1.54,1.62,.19,3.25,.31,4.91,.37-.31-1.1-1.32-1.91-2.52-1.91Z"/>
  <path class="cls-2" d="M121.4,176.53c.74,0,1.41-.31,1.89-.81-1.38-.08-2.75-.22-4.1-.4,.47,.73,1.28,1.21,2.21,1.21Z"/>
  <path class="cls-2" d="M121.4,67.93c-1.45,0-2.62,1.17-2.62,2.62s1.17,2.62,2.62,2.62,2.62-1.17,2.62-2.62-1.17-2.62-2.62-2.62Z"/>
  <path class="cls-2" d="M126.23,63.16h-.07c0,1.45,1.17,2.62,2.62,2.62s2.62-1.17,2.62-2.62h0c-.02-.75-.35-1.42-.87-1.88-1.08-.07-2.17-.12-3.26-.13-.61,.47-1.01,1.19-1.03,2.01Z"/>
  <path class="cls-2" d="M143.55,183.91c1.45,0,2.62-1.17,2.62-2.62h0c-.04-1.42-1.19-2.55-2.62-2.55h0c-1.39,.04-2.51,1.16-2.55,2.55h-.07c0,1.45,1.17,2.62,2.62,2.62Z"/>
  <path class="cls-2" d="M136.16,186.05c-1.05,0-1.96,.62-2.38,1.52,1.45-.17,2.89-.39,4.31-.66-.48-.53-1.17-.86-1.94-.86Z"/>
  <path class="cls-2" d="M136.16,176.53c1.32,0,2.41-.98,2.59-2.25-1.59,.4-3.2,.72-4.84,.97,.46,.77,1.29,1.28,2.25,1.28Z"/>
  <path class="cls-2" d="M140.93,63.16c0,1.45,1.17,2.62,2.62,2.62,1.06,0,1.97-.63,2.38-1.53-1.61-.52-3.24-.99-4.91-1.38-.01,.1-.02,.2-.03,.3h-.07Z"/>
  <path class="cls-2" d="M136.16,67.93c-1.45,0-2.62,1.17-2.62,2.62s1.17,2.62,2.62,2.62,2.62-1.17,2.62-2.62-1.17-2.62-2.62-2.62Z"/>
  <path class="cls-2" d="M155.69,166.52c0,1.45,1.17,2.62,2.62,2.62s2.62-1.17,2.62-2.62h0c-.03-1.2-.87-2.2-2-2.48-1.02,.85-2.08,1.65-3.16,2.42,0,.02,0,.04,0,.06h-.07Z"/>
  <path class="cls-2" d="M150.93,176.53c1.45,0,2.62-1.17,2.62-2.62s-1.17-2.62-2.62-2.62-2.62,1.17-2.62,2.62,1.17,2.62,2.62,2.62Z"/>
  <path class="cls-2" d="M158.31,80.55c1.45,0,2.62-1.17,2.62-2.62h0c-.04-1.42-1.19-2.55-2.62-2.55h0c-1.39,.04-2.51,1.16-2.55,2.55h-.07c0,1.45,1.17,2.62,2.62,2.62Z"/>
  <path class="cls-2" d="M143.55,75.38h0c-.53,.02-1.02,.19-1.43,.47,1.34,.44,2.66,.93,3.95,1.47-.3-1.12-1.32-1.94-2.53-1.94Z"/>
  <path class="cls-2" d="M150.93,73.17c1.45,0,2.62-1.17,2.62-2.62s-1.17-2.62-2.62-2.62-2.62,1.17-2.62,2.62,1.17,2.62,2.62,2.62Z"/>
  <path class="cls-2" d="M158.31,178.74h0c-1.19,.03-2.18,.86-2.47,1.96,1.1-.58,2.19-1.2,3.26-1.84-.25-.08-.52-.12-.79-.12Z"/>
  <path class="cls-2" d="M165.69,171.29c-1.45,0-2.62,1.17-2.62,2.62,0,.7,.28,1.34,.73,1.81,1.4-1.03,2.76-2.12,4.08-3.26-.47-.7-1.27-1.17-2.18-1.17Z"/>
  <path class="cls-2" d="M173.08,154.38c1.45,0,2.62-1.17,2.62-2.62h0c-.04-1.42-1.19-2.55-2.62-2.55h0c-1.39,.04-2.51,1.16-2.55,2.55h-.07c0,1.45,1.17,2.62,2.62,2.62Z"/>
  <path class="cls-2" d="M165.69,161.76c1.45,0,2.62-1.17,2.62-2.62,0-1.25-.87-2.29-2.04-2.55-.96,1.2-1.97,2.35-3.03,3.46,.37,1,1.33,1.72,2.46,1.72Z"/>
  <path class="cls-2" d="M173.08,95.32c1.45,0,2.62-1.17,2.62-2.62h0c-.04-1.42-1.19-2.55-2.62-2.55h0c-1.39,.04-2.51,1.16-2.55,2.55h-.07c0,1.45,1.17,2.62,2.62,2.62Z"/>
  <path class="cls-2" d="M168.31,85.31c0-1.45-1.17-2.62-2.62-2.62s-2.62,1.17-2.62,2.62,1.17,2.62,2.62,2.62,2.62-1.17,2.62-2.62Z"/>
  <path class="cls-2" d="M173.08,163.97h0c-1.39,.04-2.51,1.16-2.55,2.55h-.07c0,.96,.52,1.8,1.3,2.26,1.18-1.22,2.32-2.48,3.4-3.78-.48-.63-1.23-1.03-2.08-1.03Z"/>
  <path class="cls-2" d="M177.84,159.14c0,.6,.21,1.16,.55,1.6,.94-1.35,1.83-2.73,2.66-4.15-.19-.04-.39-.07-.59-.07-1.45,0-2.62,1.17-2.62,2.62Z"/>
  <path class="cls-2" d="M177.84,144.37c0,1.45,1.17,2.62,2.62,2.62s2.62-1.17,2.62-2.62-1.17-2.62-2.62-2.62-2.62,1.17-2.62,2.62Z"/>
  <path class="cls-2" d="M177.84,129.61c0,1.45,1.17,2.62,2.62,2.62s2.62-1.17,2.62-2.62-1.17-2.62-2.62-2.62-2.62,1.17-2.62,2.62Z"/>
  <path class="cls-2" d="M175.7,107.46h0c-.03-1.23-.9-2.24-2.06-2.49,.56,1.34,1.06,2.71,1.51,4.11,.35-.45,.56-1.01,.56-1.62Z"/>
  <path class="cls-2" d="M183.08,114.84c0-1.45-1.17-2.62-2.62-2.62s-2.62,1.17-2.62,2.62,1.17,2.62,2.62,2.62,2.62-1.17,2.62-2.62Z"/>
  <path class="cls-2" d="M185.29,107.46h-.07c0,1.45,1.17,2.62,2.62,2.62,.07,0,.15,0,.22-.01-.39-1.65-.84-3.27-1.35-4.87-.82,.43-1.39,1.27-1.42,2.26Z"/>
  <path class="cls-2" d="M177.84,100.08c0,1.45,1.17,2.62,2.62,2.62s2.62-1.17,2.62-2.62-1.17-2.62-2.62-2.62-2.62,1.17-2.62,2.62Z"/>
  <path class="cls-2" d="M187.84,134.44h0c-1.39,.04-2.51,1.16-2.55,2.55h-.07c0,1.45,1.17,2.62,2.62,2.62,.03,0,.06,0,.09,0,.4-1.62,.73-3.26,1-4.93-.33-.15-.7-.24-1.09-.24Z"/>
  <path class="cls-2" d="M187.84,119.67h0c-1.39,.04-2.51,1.16-2.55,2.55h-.07c0,1.45,1.17,2.62,2.62,2.62,.74,0,1.41-.31,1.89-.81-.01-1.24-.06-2.47-.14-3.68-.46-.42-1.08-.68-1.75-.68Z"/>
  <path class="cls-1" d="M78.77,71.48l-12.86-12.86,1.33-20.74c.07-1.13-.34-2.23-1.14-3.03L44.98,13.73c-.75-.75-1.76-1.15-2.78-1.15-.47,0-.93,.08-1.39,.25-1.44,.55-2.44,1.89-2.53,3.43l-1.22,19.11-19.11,1.22c-1.54,.1-2.88,1.09-3.43,2.53-.54,1.44-.19,3.07,.9,4.17l21.12,21.12c.8,.8,1.91,1.21,3.03,1.14l20.83-1.33,12.82,12.82c-11.31,12.62-18.21,29.29-18.21,47.53,0,39.31,31.98,71.3,71.3,71.3s71.3-31.98,71.3-71.3-31.98-71.3-71.3-71.3c-18.25,0-34.91,6.89-47.53,18.21Zm48.49-10.33c1.09,.02,2.18,.06,3.26,.13,3.59,.24,7.09,.77,10.5,1.58,1.66,.4,3.3,.86,4.91,1.38,19.3,6.3,34.56,21.61,40.78,40.95,.51,1.6,.97,3.22,1.35,4.87,.78,3.33,1.3,6.77,1.53,10.28,.08,1.22,.13,2.45,.14,3.68,0,.18,0,.36,0,.54,0,3.44-.28,6.81-.81,10.1-.27,1.67-.6,3.31-1,4.93-1.47,6.04-3.82,11.75-6.89,16.98-.83,1.42-1.72,2.81-2.66,4.15-1.02,1.46-2.1,2.89-3.23,4.26-1.08,1.31-2.22,2.57-3.4,3.78-1.24,1.28-2.53,2.5-3.88,3.67-1.31,1.14-2.67,2.23-4.08,3.26-1.52,1.11-3.08,2.17-4.7,3.15-1.07,.65-2.15,1.26-3.26,1.84-5.49,2.9-11.46,5.02-17.75,6.21-1.42,.27-2.86,.49-4.31,.66-2.46,.29-4.95,.44-7.49,.44-.8,0-1.59-.02-2.38-.05-1.65-.06-3.29-.19-4.91-.37-6.21-.71-12.15-2.33-17.69-4.71-1.55-.67-3.06-1.39-4.54-2.17-11.25-5.94-20.51-15.17-26.5-26.4-.78-1.47-1.51-2.97-2.17-4.5-2.42-5.56-4.07-11.53-4.8-17.77-.19-1.64-.32-3.31-.39-4.99-.03-.82-.05-1.65-.05-2.48,0-2.47,.15-4.9,.42-7.29,.17-1.51,.4-3.01,.68-4.49,1.17-6.2,3.24-12.08,6.07-17.5,.65-1.24,1.33-2.45,2.05-3.64,.96-1.57,1.99-3.1,3.08-4.58,1.02-1.39,2.1-2.74,3.23-4.04,.13-.14,.25-.29,.38-.43l8.65,8.65c-.16,.19-.33,.39-.49,.58-.93,1.12-1.81,2.28-2.65,3.47-3.54,5.07-6.19,10.8-7.71,16.97-.38,1.55-.7,3.13-.94,4.73-.37,2.47-.56,5-.56,7.56,0,1.09,.04,2.18,.11,3.26,.08,1.31,.22,2.61,.4,3.9,.5,3.53,1.35,6.95,2.53,10.22,.42,1.17,.89,2.33,1.4,3.46,.8,1.8,1.71,3.54,2.71,5.23,.76,1.28,1.57,2.52,2.43,3.72,1.46,2.03,3.06,3.95,4.79,5.74,.48,.5,.97,.98,1.46,1.46,1.81,1.74,3.76,3.34,5.81,4.8,1.23,.87,2.49,1.69,3.8,2.45,1.67,.98,3.39,1.86,5.17,2.64,1.09,.48,2.2,.93,3.33,1.33,3.26,1.17,6.66,2.02,10.18,2.51,1.35,.19,2.72,.32,4.1,.4,1,.06,2,.09,3.01,.09,2.59,0,5.13-.19,7.61-.57,1.64-.25,3.26-.57,4.84-.97,6.19-1.55,11.94-4.23,17.01-7.81,1.09-.77,2.14-1.57,3.16-2.42,1.51-1.25,2.95-2.59,4.31-4,1.06-1.11,2.07-2.26,3.03-3.46,7.04-8.78,11.26-19.91,11.26-32.01,0-5.4-.84-10.61-2.4-15.5-.44-1.4-.95-2.77-1.51-4.11-5.18-12.45-15.13-22.43-27.56-27.65-1.29-.54-2.61-1.03-3.95-1.47-4.98-1.62-10.3-2.5-15.82-2.5-12.06,0-23.17,4.19-31.93,11.2-.47,.38-.94,.76-1.39,1.15l-2.56-2.56-3.75-3.75-2.33-2.33c.5-.44,1-.87,1.5-1.29,1.38-1.15,2.81-2.23,4.28-3.26,1.38-.96,2.8-1.87,4.25-2.72,5.27-3.08,11.02-5.43,17.12-6.89,1.58-.38,3.18-.7,4.8-.96,3.26-.52,6.61-.79,10.01-.79,.32,0,.64,0,.96,.01Zm-.96,20.05c23.91,0,43.37,19.46,43.37,43.37s-19.46,43.37-43.37,43.37-43.37-19.46-43.37-43.37c0-10.55,3.78-20.22,10.06-27.75l9.7,9.7c-3.84,5.01-6.13,11.26-6.13,18.05,0,16.39,13.34,29.73,29.73,29.73s29.73-13.34,29.73-29.73-13.34-29.73-29.73-29.73c-6.78,0-13.04,2.29-18.05,6.13l-9.7-9.7c7.53-6.28,17.2-10.06,27.75-10.06Zm0,21.5c5.74,0,10.96,2.22,14.87,5.85,.44,.41,.87,.84,1.27,1.28,3.56,3.89,5.73,9.07,5.73,14.74,0,3.86-1.01,7.48-2.77,10.64-.84,1.5-1.84,2.88-2.99,4.14-1.22,1.33-2.6,2.51-4.12,3.5-1.43,.94-2.99,1.73-4.63,2.31-2.3,.83-4.78,1.28-7.36,1.28-1.04,0-2.06-.08-3.05-.22-1.5-.21-2.96-.57-4.35-1.08-6.08-2.2-10.92-7.01-13.14-13.08-.49-1.35-.86-2.75-1.08-4.21-.16-1.07-.25-2.17-.25-3.29,0-2.56,.44-5.01,1.25-7.29,.59-1.66,1.37-3.22,2.32-4.67,.1-.16,.21-.31,.31-.46l8.19,8.19c-.09,.2-.17,.4-.24,.61-.38,1.05-.59,2.17-.63,3.33,0,.1,0,.19,0,.29,0,5.9,4.78,10.68,10.68,10.68,.23,0,.45,0,.67-.02,.99-.06,1.94-.26,2.84-.57,1.79-.62,3.36-1.71,4.57-3.12,1.1-1.27,1.9-2.81,2.3-4.49,.19-.79,.29-1.62,.29-2.47,0-5.9-4.78-10.68-10.68-10.68-.82,0-1.61,.09-2.37,.27-.65,.15-1.27,.35-1.87,.61l-2.12-2.12-3.75-3.75-2.32-2.32c.57-.4,1.16-.77,1.77-1.11,3.15-1.77,6.79-2.78,10.65-2.78ZM45.42,27.74l.15-2.3,3.16,3.16,3.95,3.95,3.44,3.44,3.17,3.17-1.11,17.34-8.29,.53-4.44,.28-4.61,.3-13.71-13.71,5.07-.32,1.56-.1,7.26-.46c1.97-.13,3.54-1.7,3.67-3.67l.74-11.58Z"/>
  <path class="cls-2" d="M114.02,139.61c1.45,0,2.62-1.17,2.62-2.62h0c-.04-1.42-1.19-2.55-2.62-2.55h0c-1.39,.04-2.51,1.16-2.55,2.55h-.07c0,1.45,1.17,2.62,2.62,2.62Z"/>
  <path class="cls-2" d="M109.25,129.61c0-1.45-1.17-2.62-2.62-2.62-.78,0-1.47,.34-1.95,.88,.22,1.45,.58,2.86,1.08,4.21,.27,.1,.57,.15,.88,.15,1.45,0,2.62-1.17,2.62-2.62Z"/>
  <path class="cls-2" d="M109.25,114.84c0-.94-.5-1.77-1.25-2.23-.95,1.45-1.73,3.01-2.32,4.67,.29,.11,.61,.18,.95,.18,1.45,0,2.62-1.17,2.62-2.62Z"/>
  <path class="cls-2" d="M126.16,136.99c0,1.45,1.17,2.62,2.62,2.62s2.62-1.17,2.62-2.62h0c-.03-1.05-.67-1.94-1.58-2.34-.9,.31-1.85,.51-2.84,.57-.45,.46-.73,1.08-.74,1.76h-.07Z"/>
  <path class="cls-2" d="M124.02,144.37c0-1.45-1.17-2.62-2.62-2.62s-2.62,1.17-2.62,2.62c0,.27,.04,.53,.12,.78,1.39,.5,2.85,.86,4.35,1.08,.48-.47,.77-1.13,.77-1.85Z"/>
  <path class="cls-2" d="M114.02,119.67h0c-1.39,.04-2.51,1.16-2.55,2.55h-.07c0,1.45,1.17,2.62,2.62,2.62,.61,0,1.17-.21,1.62-.56,.03-1.17,.25-2.29,.63-3.33-.46-.76-1.29-1.27-2.24-1.27Z"/>
  <path class="cls-2" d="M116.64,107.46h0c-.02-.8-.4-1.51-.98-1.98-.61,.34-1.2,.71-1.77,1.11l2.32,2.32c.28-.42,.44-.91,.44-1.45Z"/>
  <path class="cls-2" d="M128.78,110.08c1.45,0,2.62-1.17,2.62-2.62h0c-.04-1.42-1.19-2.55-2.62-2.55h0c-1.39,.04-2.51,1.16-2.55,2.55h-.07c0,1.45,1.17,2.62,2.62,2.62Z"/>
  <path class="cls-2" d="M121.4,112.22c-.54,0-1.04,.16-1.45,.44l2.12,2.12c.6-.26,1.22-.46,1.87-.61-.3-1.12-1.32-1.95-2.53-1.95Z"/>
  <path class="cls-2" d="M136.16,141.75c-1.45,0-2.62,1.17-2.62,2.62,0,.28,.04,.54,.12,.79,1.64-.59,3.19-1.37,4.63-2.31-.48-.66-1.25-1.1-2.13-1.1Z"/>
  <path class="cls-2" d="M143.55,124.85c1.45,0,2.62-1.17,2.62-2.62h0c-.04-1.42-1.19-2.55-2.62-2.55h0c-1.39,.04-2.51,1.16-2.55,2.55h-.07c0,1.45,1.17,2.62,2.62,2.62Z"/>
  <path class="cls-2" d="M138.78,129.61c0-1.27-.9-2.32-2.1-2.57-.4,1.69-1.2,3.22-2.3,4.49,.47,.43,1.09,.69,1.77,.69,1.45,0,2.62-1.17,2.62-2.62Z"/>
  <path class="cls-2" d="M142.44,109.83c-.41-.44-.83-.87-1.27-1.28,.26,.56,.71,1.02,1.27,1.28Z"/>
  <path class="cls-2" d="M138.78,114.84c0-1.45-1.17-2.62-2.62-2.62s-2.62,1.17-2.62,2.62,1.17,2.62,2.62,2.62,2.62-1.17,2.62-2.62Z"/>
  <path class="cls-2" d="M143.55,134.44h0c-1.39,.04-2.51,1.16-2.55,2.55h-.07c0,1.04,.61,1.94,1.49,2.36,1.15-1.25,2.16-2.64,2.99-4.14-.47-.48-1.13-.77-1.86-.77Z"/>
  <path class="cls-2" d="M40.19,51.02c1.45,0,2.62-1.17,2.62-2.62h0c-.04-1.42-1.19-2.55-2.62-2.55h0c-1.39,.04-2.51,1.16-2.55,2.55h-.07c0,1.45,1.17,2.62,2.62,2.62Z"/>
  <path class="cls-2" d="M33.75,43.46l-1.56,.1c.2,.05,.41,.08,.62,.08,.33,0,.65-.06,.94-.18Z"/>
  <path class="cls-2" d="M54.95,51.02c1.45,0,2.62-1.17,2.62-2.62h0c-.04-1.42-1.19-2.55-2.62-2.55h0c-1.39,.04-2.51,1.16-2.55,2.55h-.07c0,1.45,1.17,2.62,2.62,2.62Z"/>
  <path class="cls-2" d="M47.57,53.16c-1.45,0-2.62,1.17-2.62,2.62,0,.57,.18,1.09,.49,1.52l4.44-.28c.2-.37,.31-.79,.31-1.24,0-1.45-1.17-2.62-2.62-2.62Z"/>
  <path class="cls-2" d="M52.33,33.63c0,1.45,1.17,2.62,2.62,2.62,.42,0,.81-.1,1.16-.27l-3.44-3.44c-.16,.33-.26,.7-.27,1.09h-.07Z"/>
  <path class="cls-2" d="M47.57,43.64c1.45,0,2.62-1.17,2.62-2.62s-1.17-2.62-2.62-2.62-2.62,1.17-2.62,2.62,1.17,2.62,2.62,2.62Z"/>
  <path class="cls-2" d="M47.57,28.87c.42,0,.81-.1,1.16-.27l-3.16-3.16-.15,2.3c.47,.68,1.26,1.13,2.15,1.13Z"/>
</svg>