<?xml version="1.0" encoding="UTF-8"?>
<svg id="Layer_1" data-name="Layer 1" xmlns="http://www.w3.org/2000/svg" viewBox="0 0 85.08 82.28">
  <defs>
    <style>
      .cls-1 {
        fill: #4a6788;
      }
    </style>
  </defs>
  <path class="cls-1" d="M8.71,75.36H57.65c.05,0,.1,0,.16,0,.02,0,.04,0,.07,0,.03,0,.06,0,.09-.01,.03,0,.05-.01,.08-.02,.03,0,.05-.01,.08-.02,.02,0,.05-.02,.07-.03,.02,0,.05-.02,.07-.03,.02,0,.05-.02,.07-.03,.02-.01,.05-.02,.07-.04,.02-.01,.04-.02,.06-.04,.02-.01,.05-.03,.07-.04,.02-.01,.04-.03,.07-.05,.02-.01,.04-.03,.06-.05,.02-.02,.05-.04,.07-.06,.01-.01,.03-.02,.04-.04l15.96-15.68s0,0,0,0c.03-.03,.05-.05,.08-.08,.01-.01,.02-.02,.03-.03,.03-.04,.06-.08,.09-.12,.02-.03,.04-.06,.06-.09,.01-.02,.02-.03,.03-.05,.01-.03,.03-.05,.04-.08,.01-.02,.02-.04,.03-.06,0-.02,.02-.05,.03-.07,0-.03,.02-.05,.03-.08,0-.02,.01-.04,.02-.07,0-.03,.02-.06,.02-.08,.01-.05,.02-.1,.02-.15,0-.01,0-.03,0-.04,0-.04,0-.08,0-.12,0,0,0,0,0,0V8.98c0-.88-.72-1.6-1.6-1.6H24.67s-.03,0-.05,0c-.03,0-.07,0-.1,0-.02,0-.05,0-.07,0-.03,0-.06,0-.08,.01-.03,0-.05,.01-.08,.02-.03,0-.05,.01-.08,.02-.02,0-.05,.02-.07,.03-.02,0-.05,.02-.07,.03-.02,0-.05,.02-.07,.03-.02,.01-.05,.02-.07,.04-.02,.01-.04,.02-.06,.04-.02,.01-.05,.03-.07,.04-.02,.01-.04,.03-.07,.05-.02,.02-.04,.03-.06,.05-.02,.02-.05,.04-.07,.06-.01,.01-.03,.02-.04,.04L7.59,23.52s0,0,0,0c-.03,.03-.05,.05-.08,.08-.01,.01-.02,.02-.03,.03-.03,.04-.06,.08-.09,.12-.02,.03-.04,.06-.06,.09-.01,.02-.02,.03-.03,.05-.01,.03-.03,.05-.04,.08-.01,.02-.02,.04-.03,.06,0,.02-.02,.05-.03,.07,0,.03-.02,.05-.03,.08,0,.02-.01,.04-.02,.07,0,.03-.02,.06-.02,.08-.01,.05-.02,.1-.02,.15,0,.01,0,.03,0,.04,0,.04,0,.08,0,.12,0,0,0,0,0,0v49.1c0,.88,.72,1.6,1.6,1.6Zm47.33-3.2H10.32V26.26h15.19v24.72l4.22-2.93,3.24,2.93,3.18-3.05,4.95,3.05V26.26h14.95v45.9Zm3.2-46.84l12.75-12.91V57.41l-12.75,12.53V25.32Zm-2.27-2.26h-13.98l12.24-12.48h14.07l-12.32,12.48ZM25.33,10.58h14.19l-12.67,12.48H12.63l12.7-12.48Z"/>
  <path class="cls-1" d="M29.1,59.23H12.26c-.32,0-.57,.26-.57,.57v9.66c0,.32,.26,.57,.57,.57H29.1c.32,0,.57-.26,.57-.57v-9.66c0-.32-.26-.57-.57-.57Zm-.57,9.66H12.83v-8.52h15.7v8.52Z"/>
  <rect class="cls-1" x="13.78" y="61.38" width=".9" height="6.59"/>
  <rect class="cls-1" x="26.72" y="61.38" width=".76" height="6.59"/>
  <rect class="cls-1" x="15.33" y="61.38" width=".9" height="6.59"/>
  <rect class="cls-1" x="18.75" y="61.38" width=".9" height="6.59"/>
  <rect class="cls-1" x="21.93" y="61.38" width=".76" height="6.59"/>
  <rect class="cls-1" x="23.23" y="61.38" width=".76" height="6.59"/>
  <rect class="cls-1" x="20.24" y="61.38" width="1.26" height="6.59"/>
  <rect class="cls-1" x="16.68" y="61.38" width="1.45" height="6.59"/>
  <rect class="cls-1" x="24.62" y="61.38" width="1.45" height="6.59"/>
</svg>