<?xml version="1.0" encoding="UTF-8"?>
<svg id="Objects" xmlns="http://www.w3.org/2000/svg" viewBox="0 0 278.6 228.69">
  <defs>
    <style>
      .cls-1 {
        fill: #4a6788;
      }

      .cls-2 {
        fill: #3a55a5;
      }

      .cls-3 {
        fill: none;
      }
    </style>
  </defs>
  <path class="cls-2" d="M197.37,103.49h0c1.39-.04,2.51-1.16,2.54-2.56h.07s0-.03,0-.05l-4.84,1.36c.46,.75,1.29,1.24,2.23,1.24Z"/>
  <path class="cls-2" d="M189.99,105.71c-1.45,0-2.62,1.18-2.62,2.62,0,1.45,1.18,2.62,2.62,2.62s2.62-1.18,2.62-2.62c0-1.45-1.18-2.62-2.62-2.62Z"/>
  <path class="cls-2" d="M175.23,110.98c1.45,0,2.62-1.18,2.62-2.62,0-.42-.1-.82-.28-1.18l-4.95,1.39c.11,1.35,1.24,2.41,2.61,2.41Z"/>
  <path class="cls-2" d="M253.78,86.07h0c0,.2,.03,.4,.08,.59l.18-.95-.25,.07c-.01,.1-.02,.19-.02,.29Z"/>
  <path class="cls-2" d="M249.02,90.84c-.47,0-.92,.13-1.3,.35l.51,.51c1.33,1.32,2.43,1.79,3.02,1.79,.13,0,.25-.04,.38-.11-.04-1.41-1.2-2.54-2.62-2.54Z"/>
  <g>
    <path class="cls-3" d="M261.84,16.24c-.5,0-1.04,.06-1.6,.16l-67.98,13.04c-2.02,.39-3.12,1.16-3.29,1.71-.17,.55,.31,1.81,1.77,3.26l14.83,14.77c1.54,1.53,1.54,4.02,0,5.56l-56.33,56.53c-.74,.74-1.73,1.15-2.78,1.16-1.04,0-2.04-.41-2.78-1.15l-12.85-12.8c-2.97-2.96-6.92-4.59-11.12-4.58-4.2,0-8.14,1.65-11.11,4.62l-38.75,38.89,3.97-1.11,17.7-4.97,5.02-1.41,17.66-4.96,4.54-1.28,19.11-5.36,2.07-.58,10.75-3.02,3.89-1.09,18.03-5.06,4.95-1.39,17.57-4.93,4.84-1.36,5.57-1.56,22.3-22.38c1.53-1.54,4.02-1.54,5.56,0l11.41,11.37,8.97-2.52,.25-.07,11.96-63.57c.36-1.92,.09-3.54-.76-4.56-.92-1.1-2.35-1.33-3.4-1.33Z"/>
    <path class="cls-2" d="M182.62,113.11c-1.45,0-2.62,1.18-2.62,2.62h0c.04,1.42,1.2,2.55,2.62,2.55h0c1.39-.04,2.51-1.16,2.54-2.56h.07c0-1.45-1.18-2.62-2.62-2.62Z"/>
    <path class="cls-2" d="M170.36,114.97c-.05-.16-.12-.32-.2-.47-.08-.15-.18-.29-.28-.42-.11-.13-.23-.25-.36-.35-.06-.05-.13-.1-.2-.15-.42-.28-.92-.45-1.47-.44h0c-.54,0-1.05,.17-1.46,.45-.7,.47-1.15,1.27-1.15,2.17h0c.04,1.42,1.2,2.55,2.62,2.55h0c1.39-.04,2.51-1.16,2.54-2.56h.07c0-.27-.04-.53-.12-.78Z"/>
    <path class="cls-2" d="M170.38,129.73c-.05-.16-.12-.32-.2-.47-.08-.15-.18-.29-.28-.42-.11-.13-.23-.25-.36-.35-.06-.05-.13-.1-.2-.15-.42-.28-.92-.45-1.47-.44h0c-.54,0-1.05,.17-1.46,.45-.7,.47-1.15,1.27-1.15,2.17h0c.04,1.42,1.2,2.55,2.62,2.55h0c1.39-.04,2.51-1.16,2.54-2.56h.07c0-.27-.04-.53-.12-.78Z"/>
    <path class="cls-2" d="M175.25,120.5c-1.45,0-2.62,1.18-2.62,2.62,0,1.45,1.18,2.62,2.62,2.62s2.62-1.18,2.62-2.62c0-1.45-1.18-2.62-2.62-2.62Z"/>
    <path class="cls-2" d="M153.11,127.92c-1.45,0-2.62,1.18-2.62,2.62h0c.04,1.42,1.2,2.55,2.62,2.55h0c1.39-.04,2.51-1.16,2.54-2.56h.07c0-1.45-1.18-2.62-2.62-2.62Z"/>
    <path class="cls-2" d="M163.11,123.14c0-1.45-1.18-2.62-2.62-2.62-1.45,0-2.62,1.18-2.62,2.62,0,1.45,1.18,2.62,2.62,2.62,1.45,0,2.62-1.18,2.62-2.62Z"/>
    <path class="cls-2" d="M153.14,142.69c-1.45,0-2.62,1.18-2.62,2.62h0c.04,1.42,1.2,2.55,2.62,2.55h0c1.39-.04,2.51-1.16,2.54-2.56h.07c0-1.45-1.18-2.62-2.62-2.62Z"/>
    <path class="cls-2" d="M160.51,135.29c-1.45,0-2.62,1.18-2.62,2.62,0,1.45,1.18,2.62,2.62,2.62,1.45,0,2.62-1.18,2.62-2.62s-1.18-2.62-2.62-2.62Z"/>
    <path class="cls-2" d="M150.47,115.78h0c.04,1.42,1.2,2.55,2.62,2.55h0c1.39-.04,2.51-1.16,2.54-2.56h.07c0-.89-.45-1.67-1.13-2.15l-3.89,1.09c-.14,.33-.23,.69-.23,1.07Z"/>
    <path class="cls-2" d="M145.73,125.8c1.45,0,2.62-1.18,2.62-2.62,0-1.45-1.18-2.62-2.62-2.62-1.45,0-2.62,1.18-2.62,2.62,0,1.45,1.18,2.62,2.62,2.62Z"/>
    <path class="cls-2" d="M138.37,142.72c-1.45,0-2.62,1.18-2.62,2.62h0c.04,1.42,1.2,2.55,2.62,2.55h0c1.39-.04,2.51-1.16,2.54-2.56h.07c0-1.45-1.18-2.62-2.62-2.62Z"/>
    <path class="cls-2" d="M143.13,137.95c0,1.45,1.18,2.62,2.62,2.62,1.45,0,2.62-1.18,2.62-2.62,0-1.45-1.18-2.62-2.62-2.62-1.45,0-2.62,1.18-2.62,2.62Z"/>
    <path class="cls-2" d="M145.77,150.09c-1.09,0-2.02,.66-2.41,1.6,1.04,.21,2.11,.32,3.19,.32,.58,0,1.15-.04,1.72-.1-.34-1.06-1.33-1.83-2.5-1.82Z"/>
    <path class="cls-2" d="M138.33,118.36h0c.62-.02,1.18-.25,1.62-.62l-2.07,.58c.15,.03,.3,.04,.45,.04Z"/>
    <path class="cls-2" d="M123.58,127.98c-1.45,0-2.62,1.18-2.62,2.62h0c.04,1.42,1.2,2.55,2.62,2.55h0c1.39-.04,2.51-1.16,2.54-2.56h.07c0-1.45-1.18-2.62-2.62-2.62Z"/>
    <path class="cls-2" d="M130.96,125.82c1.45,0,2.62-1.18,2.62-2.62,0-1.45-1.18-2.62-2.62-2.62-1.45,0-2.62,1.18-2.62,2.62,0,1.45,1.18,2.62,2.62,2.62Z"/>
    <path class="cls-2" d="M138.36,133.12h0c1.39-.04,2.51-1.16,2.54-2.56h.07c0-1.45-1.18-2.62-2.62-2.62-1.45,0-2.62,1.18-2.62,2.62h0c.04,1.42,1.2,2.55,2.62,2.55Z"/>
    <path class="cls-2" d="M130.98,135.35c-1.45,0-2.62,1.18-2.62,2.62s1.18,2.62,2.62,2.62c1.45,0,2.62-1.18,2.62-2.62,0-1.45-1.18-2.62-2.62-2.62Z"/>
    <path class="cls-2" d="M108.82,128c-1.45,0-2.62,1.18-2.62,2.62h0c.04,1.42,1.2,2.55,2.62,2.55h0c1.39-.04,2.51-1.16,2.54-2.56h.07c0-1.45-1.18-2.62-2.62-2.62Z"/>
    <path class="cls-2" d="M116.2,125.85c1.29,0,2.36-.94,2.57-2.17l-4.54,1.28c.48,.55,1.18,.89,1.97,.89Z"/>
    <path class="cls-2" d="M113.6,138s0,.04,0,.06l2.68-2.69s-.04,0-.06,0c-1.45,0-2.62,1.18-2.62,2.62Z"/>
    <path class="cls-2" d="M106.23,145.39h0s0,.04,0,.06l2.67-2.68s-.04,0-.06,0c-1.45,0-2.62,1.18-2.62,2.62Z"/>
    <path class="cls-2" d="M94.08,142.8c-1.45,0-2.62,1.18-2.62,2.62h0c.04,1.42,1.2,2.55,2.62,2.55h0c1.39-.04,2.51-1.16,2.54-2.56h.07c0-1.45-1.18-2.62-2.62-2.62Z"/>
    <path class="cls-2" d="M104.07,138.01c0-1.45-1.18-2.62-2.62-2.62s-2.62,1.18-2.62,2.62c0,1.45,1.18,2.62,2.62,2.62s2.62-1.18,2.62-2.62Z"/>
    <path class="cls-2" d="M98.86,152.79s0,.04,0,.06l2.68-2.69s-.04,0-.06,0c-1.45,0-2.62,1.18-2.62,2.62Z"/>
    <path class="cls-2" d="M94.06,133.2h0c1.39-.04,2.51-1.16,2.54-2.56h.07c0-.25-.04-.5-.11-.73l-5.02,1.41c.32,1.09,1.33,1.88,2.52,1.88Z"/>
    <path class="cls-2" d="M86.69,140.67c1.45,0,2.62-1.18,2.62-2.62,0-1.45-1.18-2.62-2.62-2.62-1.45,0-2.62,1.18-2.62,2.62,0,1.45,1.18,2.62,2.62,2.62Z"/>
    <path class="cls-2" d="M91.49,160.19h0s0,.04,0,.06l2.67-2.68s-.04,0-.06,0c-1.45,0-2.62,1.18-2.62,2.62Z"/>
    <path class="cls-2" d="M79.34,157.59c-1.45,0-2.62,1.18-2.62,2.62h0c.04,1.42,1.2,2.55,2.62,2.55h0c1.39-.04,2.51-1.16,2.54-2.56h.07c0-1.45-1.18-2.62-2.62-2.62Z"/>
    <path class="cls-2" d="M84.09,152.82c0,1.45,1.18,2.62,2.62,2.62,1.45,0,2.62-1.18,2.62-2.62,0-1.45-1.18-2.62-2.62-2.62s-2.62,1.18-2.62,2.62Z"/>
    <path class="cls-2" d="M84.12,167.58s0,.04,0,.06l2.68-2.69s-.04,0-.06,0c-1.45,0-2.62,1.18-2.62,2.62Z"/>
    <path class="cls-2" d="M71.93,140.69c1.45,0,2.62-1.18,2.62-2.62,0-.69-.27-1.31-.7-1.77l-3.97,1.11-.56,.56s0,.07,0,.11c0,1.45,1.18,2.62,2.62,2.62Z"/>
    <path class="cls-2" d="M79.32,147.99h0c1.39-.04,2.51-1.16,2.54-2.56h.07c0-1.45-1.18-2.62-2.62-2.62-1.45,0-2.62,1.18-2.62,2.62h0c.04,1.42,1.2,2.55,2.62,2.55Z"/>
    <path class="cls-2" d="M74.57,152.83c0-1.45-1.18-2.62-2.62-2.62-1.45,0-2.62,1.18-2.62,2.62,0,1.45,1.18,2.62,2.62,2.62s2.62-1.18,2.62-2.62Z"/>
    <path class="cls-2" d="M76.75,174.98h0s0,.04,0,.06l2.67-2.68s-.04,0-.06,0c-1.45,0-2.62,1.18-2.62,2.62Z"/>
    <path class="cls-2" d="M64.6,172.38c-1.45,0-2.62,1.18-2.62,2.62h0c.04,1.42,1.2,2.55,2.62,2.55h0c1.39-.04,2.51-1.16,2.54-2.56h.07c0-1.45-1.18-2.62-2.62-2.62Z"/>
    <path class="cls-2" d="M69.35,167.61c0,1.45,1.18,2.62,2.62,2.62,1.45,0,2.62-1.18,2.62-2.62s-1.18-2.62-2.62-2.62-2.62,1.18-2.62,2.62Z"/>
    <path class="cls-2" d="M69.38,182.37s0,.04,0,.06l2.68-2.69s-.04,0-.06,0c-1.45,0-2.62,1.18-2.62,2.62Z"/>
    <path class="cls-2" d="M61.93,145.47h0c.04,1.42,1.2,2.55,2.62,2.55h0c1.39-.04,2.51-1.16,2.54-2.56h.07c0-1.45-1.18-2.62-2.62-2.62-.04,0-.07,0-.11,0l-2.5,2.51s0,.07,0,.11Z"/>
    <path class="cls-2" d="M57.19,155.48c1.45,0,2.62-1.18,2.62-2.62,0-1.45-1.18-2.62-2.62-2.62-.04,0-.07,0-.11,0l-2.51,2.51s0,.07,0,.11c0,1.45,1.18,2.62,2.62,2.62Z"/>
    <path class="cls-2" d="M64.58,162.79h0c1.39-.04,2.51-1.16,2.54-2.56h.07c0-1.45-1.18-2.62-2.62-2.62-1.45,0-2.62,1.18-2.62,2.62h0c.04,1.42,1.2,2.55,2.62,2.55Z"/>
    <path class="cls-2" d="M59.83,167.62c0-1.45-1.18-2.62-2.62-2.62-1.45,0-2.62,1.18-2.62,2.62,0,1.45,1.18,2.62,2.62,2.62,1.45,0,2.62-1.18,2.62-2.62Z"/>
    <path class="cls-2" d="M62.01,189.77h0s0,.04,0,.06l2.67-2.68s-.04,0-.06,0c-1.45,0-2.62,1.18-2.62,2.62Z"/>
    <path class="cls-2" d="M49.86,187.17c-1.45,0-2.62,1.18-2.62,2.62h0c.04,1.42,1.2,2.55,2.62,2.55h0c1.39-.04,2.51-1.16,2.54-2.56h.07c0-1.45-1.18-2.62-2.62-2.62Z"/>
    <path class="cls-2" d="M54.61,182.4c0,1.45,1.18,2.62,2.62,2.62,1.45,0,2.62-1.18,2.62-2.62,0-1.45-1.18-2.62-2.62-2.62-1.45,0-2.62,1.18-2.62,2.62Z"/>
    <path class="cls-2" d="M54.64,197.16s0,.04,0,.06l2.68-2.69s-.04,0-.06,0c-1.45,0-2.62,1.18-2.62,2.62Z"/>
    <path class="cls-2" d="M47.19,160.26h0c.04,1.42,1.2,2.55,2.62,2.55h0c1.39-.04,2.51-1.16,2.54-2.56h.07c0-1.45-1.18-2.62-2.62-2.62-.04,0-.07,0-.1,0l-2.51,2.51s0,.07,0,.11Z"/>
    <path class="cls-2" d="M42.45,170.28c1.45,0,2.62-1.18,2.62-2.62,0-1.45-1.18-2.62-2.62-2.62-.04,0-.07,0-.1,0l-2.51,2.51s0,.07,0,.11c0,1.45,1.18,2.62,2.62,2.62Z"/>
    <path class="cls-2" d="M49.84,177.58h0c1.39-.04,2.51-1.16,2.54-2.56h.07c0-1.45-1.18-2.62-2.62-2.62-1.45,0-2.62,1.18-2.62,2.62h0c.04,1.42,1.2,2.55,2.62,2.55Z"/>
    <path class="cls-2" d="M45.09,182.42c0-1.45-1.18-2.62-2.62-2.62s-2.62,1.18-2.62,2.62c0,1.45,1.18,2.62,2.62,2.62,1.45,0,2.62-1.18,2.62-2.62Z"/>
    <path class="cls-2" d="M47.27,204.56h0s0,.04,0,.06l2.67-2.68s-.04,0-.06,0c-1.45,0-2.62,1.18-2.62,2.62Z"/>
    <path class="cls-2" d="M35.12,201.96c-1.45,0-2.62,1.18-2.62,2.62h0c.04,1.42,1.2,2.55,2.62,2.55h0c1.39-.04,2.51-1.16,2.54-2.56h.07c0-1.45-1.18-2.62-2.62-2.62Z"/>
    <path class="cls-2" d="M39.88,197.19c0,1.45,1.18,2.62,2.62,2.62s2.62-1.18,2.62-2.62c0-1.45-1.18-2.62-2.62-2.62-1.45,0-2.62,1.18-2.62,2.62Z"/>
    <path class="cls-2" d="M39.91,211.85c.49-.39,.96-.8,1.41-1.25l1.26-1.27s-.04,0-.06,0c-1.41,0-2.56,1.12-2.61,2.52Z"/>
    <path class="cls-2" d="M32.45,175.06h0c.04,1.42,1.2,2.55,2.62,2.55h0c1.39-.04,2.51-1.16,2.54-2.56h.07c0-1.45-1.18-2.62-2.62-2.62-.04,0-.07,0-.11,0l-2.51,2.51s0,.07,0,.11Z"/>
    <path class="cls-2" d="M27.71,185.07c1.45,0,2.62-1.18,2.62-2.62s-1.18-2.62-2.62-2.62c-.04,0-.07,0-.11,0l-2.51,2.51s0,.07,0,.11c0,1.45,1.18,2.62,2.62,2.62Z"/>
    <path class="cls-2" d="M35.1,192.37h0c1.39-.04,2.51-1.16,2.54-2.56h.07c0-1.45-1.18-2.62-2.62-2.62-1.45,0-2.62,1.18-2.62,2.62h0c.04,1.42,1.2,2.55,2.62,2.55Z"/>
    <path class="cls-2" d="M20.36,201.99c-1.45,0-2.62,1.18-2.62,2.62h0c.04,1.42,1.2,2.55,2.62,2.55h0c1.39-.04,2.51-1.16,2.54-2.56h.07c0-1.45-1.18-2.62-2.62-2.62Z"/>
    <path class="cls-2" d="M30.35,197.21c0-1.45-1.18-2.62-2.62-2.62s-2.62,1.18-2.62,2.62c0,1.45,1.18,2.62,2.62,2.62,1.45,0,2.62-1.18,2.62-2.62Z"/>
    <path class="cls-2" d="M27.75,209.36c-1.45,0-2.62,1.18-2.62,2.62,0,1.45,1.18,2.62,2.62,2.62s2.62-1.18,2.62-2.62c0-1.45-1.18-2.62-2.62-2.62Z"/>
    <path class="cls-2" d="M20.34,192.4h0c1.39-.04,2.51-1.16,2.54-2.56h.07c0-1.45-1.18-2.62-2.62-2.62-.04,0-.07,0-.11,0l-1.18,1.18c-.48,.48-.92,.99-1.33,1.52,.08,1.38,1.22,2.47,2.62,2.47Z"/>
    <path class="cls-2" d="M15.59,197.23c0-.64-.23-1.23-.62-1.68-.32,1.24-.49,2.52-.5,3.83,.68-.47,1.12-1.26,1.12-2.15Z"/>
    <path class="cls-1" d="M261.83,8.38c-1,0-2.03,.1-3.06,.3l-67.98,13.04c-4.82,.92-8.22,3.52-9.32,7.13-1.1,3.61,.26,7.66,3.73,11.13l12.04,12-50.78,50.96-10.07-10.03c-4.46-4.45-10.39-6.89-16.69-6.88-6.3,.01-12.22,2.47-16.66,6.94L13.48,182.86c-4.45,4.46-6.89,10.39-6.88,16.69,.01,6.3,2.47,12.22,6.94,16.66,4.46,4.45,10.39,6.89,16.69,6.88,6.3-.01,12.22-2.47,16.66-6.94l72.92-73.19,10.07,10.03c4.46,4.45,10.39,6.89,16.69,6.88,6.3-.01,12.22-2.47,16.66-6.94l67.42-67.66,12.04,12c2.68,2.68,5.65,4.09,8.59,4.08h0c3.78,0,8.3-2.57,9.65-9.74l12.8-68.02c.8-4.26-.06-8.18-2.44-11.04-2.24-2.69-5.6-4.17-9.46-4.17Zm4.17,13.75l-11.96,63.57-.18,.95-.66,3.51c-.31,1.64-.92,2.86-1.56,3.22-.13,.07-.25,.11-.38,.11-.59,0-1.7-.47-3.02-1.79l-.51-.51-2.9-2.89-11.41-11.37c-1.54-1.53-4.03-1.53-5.56,0l-22.3,22.38-47.89,48.06c-2.55,2.56-5.84,4.14-9.39,4.53-.57,.06-1.14,.1-1.72,.1-1.08,0-2.15-.11-3.19-.32-2.98-.61-5.73-2.07-7.93-4.27l-12.85-12.8c-.74-.74-1.74-1.15-2.78-1.15-1.04,0-2.04,.42-2.78,1.16l-.74,.75-2.68,2.69-4.69,4.71-2.67,2.68-4.7,4.71-2.68,2.69-4.69,4.71-2.67,2.68-4.7,4.71-2.68,2.69-4.69,4.71-2.67,2.68-4.7,4.71-2.68,2.69-4.69,4.71-2.67,2.68-4.7,4.71-2.68,2.69-4.69,4.71-2.67,2.68-4.7,4.71-1.26,1.27c-.45,.45-.92,.87-1.41,1.25-2.75,2.18-6.13,3.36-9.69,3.37-4.2,0-8.15-1.62-11.12-4.58-2.97-2.96-4.62-6.91-4.62-11.11,0-.05,0-.1,0-.15,0-1.31,.18-2.6,.5-3.83,.53-2.04,1.46-3.94,2.76-5.62,.41-.53,.85-1.04,1.33-1.52l1.18-1.18,4.86-4.88,2.51-2.51,4.86-4.88,2.51-2.51,4.86-4.88,2.51-2.51,4.86-4.88,2.51-2.51,4.86-4.88,2.51-2.51,4.86-4.88,2.5-2.51,4.86-4.88,.56-.56,38.75-38.89c2.96-2.97,6.91-4.62,11.11-4.62,4.2,0,8.15,1.62,11.12,4.58l12.85,12.8c.74,.74,1.74,1.15,2.78,1.15,1.04,0,2.04-.42,2.78-1.16l56.33-56.53c1.53-1.54,1.53-4.03,0-5.56l-14.83-14.77c-1.46-1.45-1.94-2.71-1.77-3.26,.17-.55,1.27-1.32,3.29-1.71l67.98-13.04c.56-.11,1.09-.16,1.6-.16,1.04,0,2.48,.23,3.4,1.33,.85,1.02,1.12,2.64,.76,4.56Z"/>
  </g>
</svg>