<?xml version="1.0" encoding="UTF-8"?>
<svg id="object" xmlns="http://www.w3.org/2000/svg" viewBox="0 0 148.76 236.64">
  <defs>
    <style>
      .cls-1 {
        fill: #88ba7d;
      }
    </style>
  </defs>
  <path class="cls-1" d="M98.6,230.04c-5.37,2.73-11.06,4.91-16.93,6.6v-43l35.96-35.96c1.61-1.62,1.61-4.25,0-5.86-.8-.8-1.87-1.21-2.92-1.21s-2.13,.4-2.93,1.21l-30.1,30.1v-50.32l35.96-35.97c1.61-1.61,1.61-4.24,0-5.86-.8-.8-1.87-1.21-2.92-1.21s-2.13,.4-2.93,1.21l-30.1,30.11V60.94c0-2.01-.82-3.83-2.14-5.15-1.31-1.33-3.14-2.14-5.15-2.14-4.02,0-7.3,3.28-7.3,7.29v58.95l-30.1-30.1c-.8-.8-1.87-1.21-2.92-1.21s-2.13,.4-2.93,1.21c-1.61,1.62-1.61,4.25,0,5.86l35.96,35.96v50.32l-30.1-30.09c-.8-.8-1.87-1.21-2.92-1.21s-2.13,.4-2.93,1.21c-1.61,1.61-1.61,4.24,0,5.86l35.96,35.95v43.01c-5.87-1.69-11.56-3.88-16.93-6.6C-37.68,185.46,2.4,40.11,74.38,0c71.99,40.11,112.05,185.46,24.22,230.04Z"/>
</svg>