<?xml version="1.0" encoding="UTF-8"?>
<svg id="object" xmlns="http://www.w3.org/2000/svg" viewBox="0 0 409.98 348.7">
  <defs>
    <style>
      .cls-1 {
        fill: #6dba7a;
      }
    </style>
  </defs>
  <path class="cls-1" d="M24.16,330.55c4.28,4.27,10.2,6.73,16.25,6.73H364.88c6.05,0,11.97-2.45,16.25-6.73,4.27-4.28,6.73-10.19,6.73-16.24V124.31H17.43v190c0,6.05,2.46,11.97,6.73,16.25ZM313.28,139.72h53.02v47.17h-53.02v-47.17Zm0,60.22h53.02v47.17h-53.02v-47.17Zm-68.58-60.22h53.03v47.17h-53.03v-47.17Zm0,60.22h53.03v47.17h-53.03v-47.17Zm0,60.21h53.03v47.17h-53.03v-47.17Zm-68.57-120.43h53.03v47.17h-53.03v-47.17Zm0,60.22h53.03v47.17h-53.03v-47.17Zm0,60.21h53.03v47.17h-53.03v-47.17Zm-68.57-120.43h53.03v47.17h-53.03v-47.17Zm0,60.22h53.03v47.17h-53.03v-47.17Zm0,60.21h53.03v47.17h-53.03v-47.17Zm-68.57-60.21h53.03v47.17H39v-47.17Zm0,60.21h53.03v47.17H39v-47.17Z"/>
  <rect class="cls-1" x="17.43" y="102.41" width="370.42" height="13.6"/>
  <path class="cls-1" d="M55.53,37.02h-15.11c-6.05,0-11.97,2.45-16.25,6.73-4.27,4.28-6.73,10.19-6.73,16.24v26.7H387.86v-26.7c0-6.04-2.46-11.96-6.73-16.24-4.27-4.28-10.2-6.73-16.24-6.73h-38.97v30.07c0,5.61-4.55,10.16-10.17,10.16h-21.42c-5.62,0-10.16-4.55-10.16-10.16v-30.07H121.13v30.07c0,5.61-4.56,10.16-10.16,10.16h-21.43c-5.62,0-10.16-4.55-10.16-10.16v-30.07h-23.87Z"/>
  <polygon class="cls-1" points="89.55 67.09 110.97 67.09 110.97 37.02 110.97 10.56 89.55 10.56 89.55 37.02 89.55 67.09"/>
  <polygon class="cls-1" points="294.33 67.09 315.74 67.09 315.74 37.02 315.74 10.56 294.33 10.56 294.33 37.02 294.33 67.09"/>
</svg>