<?xml version="1.0" encoding="UTF-8"?>
<svg id="Objects" xmlns="http://www.w3.org/2000/svg" viewBox="0 0 240.24 311.84">
  <defs>
    <style>
      .cls-1 {
        fill: #4a6788;
      }

      .cls-2 {
        fill: #3a55a5;
      }

      .cls-3 {
        fill: none;
      }
    </style>
  </defs>
  <polygon class="cls-3" points="107.68 22.84 107.68 64.5 156.7 64.5 156.7 43.67 156.7 22.84 107.68 22.84"/>
  <path class="cls-3" d="M164.56,68.43c0,2.17-1.76,3.93-3.93,3.93h-40.09v37.85l6.8-6.8c1.53-1.53,4.02-1.53,5.56,0,1.53,1.53,1.53,4.02,0,5.56l-6.8,6.8,6.8,6.8c1.53,1.53,1.53,4.02,0,5.56-.77,.77-1.77,1.15-2.78,1.15s-2.01-.38-2.78-1.15l-6.8-6.8v76.69c12.9-8.87,23.25-19.15,30.8-30.58,8.26-12.52,13.17-26.51,14.64-41.7l-7.83,7.83c-1.53,1.53-4.02,1.53-5.56,0-1.53-1.53-1.53-4.02,0-5.56l15-15c.4-.4,.89-.73,1.45-.93,.73-.27,1.5-.31,2.22-.14,0,0,0,0,0,0,0,0,0,0,0,0,0,0,0,0,0,0,0,0,0,0,0,0,0,0,0,0,0,0,0,0,0,0,0,0,.04,0,.09,.02,.13,.03,0,0,0,0,0,0,0,0,0,0,0,0,0,0,0,0,0,0,0,0,0,0,0,0h0s0,0,0,0c.73,.2,1.4,.62,1.92,1.22h0s0,0,0,0c0,0,0,0,0,0,0,0,0,0,0,0,0,0,0,0,0,0,0,0,0,0,0,0,0,0,0,0,0,0,0,0,0,0,0,0s0,0,0,0c0,0,0,0,0,0,0,0,0,0,0,0l12.73,15.02c.63,.74,.93,1.64,.93,2.54,0,1.11-.47,2.22-1.39,3-1.66,1.4-4.14,1.2-5.54-.46l-6.26-7.39c-1.54,16.73-6.91,32.15-16.04,45.94-8.71,13.17-20.82,24.85-35.99,34.73-.43,.28-.86,.56-1.29,.83v64.58h77.43V47.6h-33.41v20.83Zm4.9,168.97c1.53,1.53,1.53,4.02,0,5.56-.77,.77-1.77,1.15-2.78,1.15s-2.01-.38-2.78-1.15l-6.8-6.8-6.8,6.8c-.77,.77-1.77,1.15-2.78,1.15s-2.01-.38-2.78-1.15c-1.53-1.53-1.53-4.02,0-5.56l6.8-6.8-6.8-6.8c-1.53-1.53-1.53-4.02,0-5.56,1.53-1.53,4.02-1.53,5.56,0l6.8,6.8,6.8-6.8c1.53-1.53,4.02-1.53,5.56,0,1.53,1.53,1.53,4.02,0,5.56l-6.8,6.8,6.8,6.8Z"/>
  <path class="cls-2" d="M117.83,75.43c-1.45,0-2.62,1.17-2.62,2.62h0c.04,1.42,1.19,2.55,2.62,2.55h0c1.39-.04,2.51-1.16,2.55-2.55h.07c0-1.45-1.17-2.62-2.62-2.62Z"/>
  <path class="cls-2" d="M117.83,90.19c-1.45,0-2.62,1.17-2.62,2.62h0c.04,1.42,1.19,2.55,2.62,2.55h0c1.39-.04,2.51-1.16,2.55-2.55h.07c0-1.45-1.17-2.62-2.62-2.62Z"/>
  <path class="cls-2" d="M119.65,109.33c.44-.46,.71-1.07,.73-1.75h.07c0-1.45-1.17-2.62-2.62-2.62-.7,0-1.34,.28-1.81,.73l3.63,3.63Z"/>
  <path class="cls-2" d="M117.08,124.79c.24,.07,.49,.11,.75,.11h0c1.39-.04,2.51-1.16,2.55-2.55h.07c0-.28-.05-.55-.13-.8l-3.25,3.25Z"/>
  <path class="cls-2" d="M117.83,134.49c-1.45,0-2.62,1.17-2.62,2.62h0c.04,1.42,1.19,2.55,2.62,2.55h0c1.39-.04,2.51-1.16,2.55-2.55h.07c0-1.45-1.17-2.62-2.62-2.62Z"/>
  <path class="cls-2" d="M117.83,149.26c-1.45,0-2.62,1.17-2.62,2.62h0c.04,1.42,1.19,2.55,2.62,2.55h0c1.39-.04,2.51-1.16,2.55-2.55h.07c0-1.45-1.17-2.62-2.62-2.62Z"/>
  <path class="cls-2" d="M117.83,164.02c-1.45,0-2.62,1.17-2.62,2.62h0c.04,1.42,1.19,2.55,2.62,2.55h0c1.39-.04,2.51-1.16,2.55-2.55h.07c0-1.45-1.17-2.62-2.62-2.62Z"/>
  <path class="cls-2" d="M117.83,178.79c-1.45,0-2.62,1.17-2.62,2.62h0c.04,1.42,1.19,2.55,2.62,2.55h0c1.39-.04,2.51-1.16,2.55-2.55h.07c0-1.45-1.17-2.62-2.62-2.62Z"/>
  <path class="cls-2" d="M117.83,193.55c-1.45,0-2.62,1.17-2.62,2.62h0c.04,1.42,1.19,2.55,2.62,2.55h0c1.39-.04,2.51-1.16,2.55-2.55h.07c0-1.45-1.17-2.62-2.62-2.62Z"/>
  <path class="cls-2" d="M117.83,223.08c-1.45,0-2.62,1.17-2.62,2.62h0c.04,1.42,1.19,2.55,2.62,2.55h0c1.39-.04,2.51-1.16,2.55-2.55h.07c0-1.45-1.17-2.62-2.62-2.62Z"/>
  <path class="cls-2" d="M117.83,237.85c-1.45,0-2.62,1.17-2.62,2.62h0c.04,1.42,1.19,2.55,2.62,2.55h0c1.39-.04,2.51-1.16,2.55-2.55h.07c0-1.45-1.17-2.62-2.62-2.62Z"/>
  <path class="cls-2" d="M117.83,252.61c-1.45,0-2.62,1.17-2.62,2.62h0c.04,1.42,1.19,2.55,2.62,2.55h0c1.39-.04,2.51-1.16,2.55-2.55h.07c0-1.45-1.17-2.62-2.62-2.62Z"/>
  <path class="cls-2" d="M120.38,270h.07c0-1.45-1.17-2.62-2.62-2.62s-2.62,1.17-2.62,2.62h0c.02,.83,.43,1.56,1.05,2.03h3.07c.62-.47,1.03-1.2,1.05-2.03Z"/>
  <path class="cls-2" d="M110.45,73.29c.8,0,1.52-.36,2-.93h-3.99c.48,.57,1.2,.93,2,.93Z"/>
  <path class="cls-2" d="M103.06,90.19c-1.45,0-2.62,1.17-2.62,2.62h0c.04,1.42,1.19,2.55,2.62,2.55h0c1.39-.04,2.51-1.16,2.55-2.55h.07c0-1.45-1.17-2.62-2.62-2.62Z"/>
  <path class="cls-2" d="M113.07,85.43c0-1.45-1.17-2.62-2.62-2.62s-2.62,1.17-2.62,2.62,1.17,2.62,2.62,2.62,2.62-1.17,2.62-2.62Z"/>
  <path class="cls-2" d="M103.06,104.96c-1.45,0-2.62,1.17-2.62,2.62h0c.04,1.42,1.19,2.55,2.62,2.55h0c1.39-.04,2.51-1.16,2.55-2.55h.07c0-1.45-1.17-2.62-2.62-2.62Z"/>
  <path class="cls-2" d="M111.9,102.38c.71-.47,1.17-1.27,1.17-2.18,0-1.45-1.17-2.62-2.62-2.62s-2.62,1.17-2.62,2.62c0,1.07,.64,1.99,1.56,2.4,.79-.35,1.68-.42,2.51-.21Z"/>
  <path class="cls-2" d="M103.06,119.73c-1.45,0-2.62,1.17-2.62,2.62h0c.04,1.42,1.19,2.55,2.62,2.55h0c1.39-.04,2.51-1.16,2.55-2.55h.07c0-1.45-1.17-2.62-2.62-2.62Z"/>
  <path class="cls-2" d="M110.45,117.58c1.45,0,2.62-1.17,2.62-2.62s-1.17-2.62-2.62-2.62-2.62,1.17-2.62,2.62,1.17,2.62,2.62,2.62Z"/>
  <path class="cls-2" d="M103.06,134.49c-1.45,0-2.62,1.17-2.62,2.62h0c.04,1.42,1.19,2.55,2.62,2.55h0c1.39-.04,2.51-1.16,2.55-2.55h.07c0-1.45-1.17-2.62-2.62-2.62Z"/>
  <path class="cls-2" d="M108.3,128.23c-.3,.42-.47,.94-.47,1.5,0,1.45,1.17,2.62,2.62,2.62s2.62-1.17,2.62-2.62c0-.34-.07-.66-.18-.96-.6,.34-1.26,.51-1.92,.51-.96,0-1.91-.35-2.66-1.04Z"/>
  <path class="cls-2" d="M103.06,149.26c-1.45,0-2.62,1.17-2.62,2.62h0c.04,1.42,1.19,2.55,2.62,2.55h0c1.39-.04,2.51-1.16,2.55-2.55h.07c0-1.45-1.17-2.62-2.62-2.62Z"/>
  <path class="cls-2" d="M113.07,144.49c0-1.45-1.17-2.62-2.62-2.62s-2.62,1.17-2.62,2.62,1.17,2.62,2.62,2.62,2.62-1.17,2.62-2.62Z"/>
  <path class="cls-2" d="M103.06,164.02c-1.45,0-2.62,1.17-2.62,2.62h0c.04,1.42,1.19,2.55,2.62,2.55h0c1.39-.04,2.51-1.16,2.55-2.55h.07c0-1.45-1.17-2.62-2.62-2.62Z"/>
  <path class="cls-2" d="M110.45,156.64c-1.45,0-2.62,1.17-2.62,2.62s1.17,2.62,2.62,2.62,2.62-1.17,2.62-2.62-1.17-2.62-2.62-2.62Z"/>
  <path class="cls-2" d="M103.06,178.79c-1.45,0-2.62,1.17-2.62,2.62h0c.04,1.42,1.19,2.55,2.62,2.55h0c1.39-.04,2.51-1.16,2.55-2.55h.07c0-1.45-1.17-2.62-2.62-2.62Z"/>
  <path class="cls-2" d="M110.45,171.4c-1.45,0-2.62,1.17-2.62,2.62s1.17,2.62,2.62,2.62,2.62-1.17,2.62-2.62-1.17-2.62-2.62-2.62Z"/>
  <path class="cls-2" d="M103.06,193.55c-1.45,0-2.62,1.17-2.62,2.62h0c.04,1.42,1.19,2.55,2.62,2.55h0c1.39-.04,2.51-1.16,2.55-2.55h.07c0-1.45-1.17-2.62-2.62-2.62Z"/>
  <path class="cls-2" d="M107.83,188.79c0,1.45,1.17,2.62,2.62,2.62s2.62-1.17,2.62-2.62-1.17-2.62-2.62-2.62-2.62,1.17-2.62,2.62Z"/>
  <path class="cls-2" d="M115.22,210.68c0,.08-.01,.17-.01,.25h0c.04,1.42,1.19,2.55,2.62,2.55h0c1.39-.04,2.51-1.16,2.55-2.55h.07c0-1.09-.67-2.03-1.62-2.42-1.2,.75-2.41,1.47-3.6,2.17Z"/>
  <path class="cls-2" d="M103.13,208.32s-.05,0-.07,0c-.88,0-1.66,.44-2.14,1.11,.73-.36,1.47-.73,2.21-1.1Z"/>
  <path class="cls-2" d="M110.45,200.94c-1.45,0-2.62,1.17-2.62,2.62,0,.73,.29,1.38,.77,1.86,1.45-.81,2.91-1.65,4.38-2.53-.3-1.12-1.32-1.94-2.53-1.94Z"/>
  <path class="cls-2" d="M110.45,220.94c1.45,0,2.62-1.17,2.62-2.62s-1.17-2.62-2.62-2.62-2.62,1.17-2.62,2.62,1.17,2.62,2.62,2.62Z"/>
  <path class="cls-2" d="M103.06,237.85c-1.45,0-2.62,1.17-2.62,2.62h0c.04,1.42,1.19,2.55,2.62,2.55h0c1.39-.04,2.51-1.16,2.55-2.55h.07c0-1.45-1.17-2.62-2.62-2.62Z"/>
  <path class="cls-2" d="M113.07,233.09c0-1.45-1.17-2.62-2.62-2.62s-2.62,1.17-2.62,2.62,1.17,2.62,2.62,2.62,2.62-1.17,2.62-2.62Z"/>
  <path class="cls-2" d="M103.06,252.61c-1.45,0-2.62,1.17-2.62,2.62h0c.04,1.42,1.19,2.55,2.62,2.55h0c1.39-.04,2.51-1.16,2.55-2.55h.07c0-1.45-1.17-2.62-2.62-2.62Z"/>
  <path class="cls-2" d="M107.83,247.85c0,1.45,1.17,2.62,2.62,2.62s2.62-1.17,2.62-2.62-1.17-2.62-2.62-2.62-2.62,1.17-2.62,2.62Z"/>
  <path class="cls-2" d="M107.83,262.62c0,1.45,1.17,2.62,2.62,2.62s2.62-1.17,2.62-2.62-1.17-2.62-2.62-2.62-2.62,1.17-2.62,2.62Z"/>
  <path class="cls-2" d="M105.61,270h.07c0-1.45-1.17-2.62-2.62-2.62s-2.62,1.17-2.62,2.62h0c.02,.83,.43,1.56,1.05,2.03h3.07c.62-.47,1.03-1.2,1.05-2.03Z"/>
  <path class="cls-2" d="M95.68,73.29c.8,0,1.52-.36,2-.93h-3.99c.48,.57,1.2,.93,2,.93Z"/>
  <path class="cls-2" d="M103.06,80.6h0c1.39-.04,2.51-1.16,2.55-2.55h.07c0-1.45-1.17-2.62-2.62-2.62s-2.62,1.17-2.62,2.62h0c.04,1.42,1.19,2.55,2.62,2.55Z"/>
  <path class="cls-2" d="M88.3,90.19c-.54,0-1.05,.16-1.46,.45-.14,.09-.27,.2-.39,.32-.47,.47-.77,1.13-.77,1.85h0c.04,1.42,1.19,2.55,2.62,2.55h0c1.39-.04,2.51-1.16,2.55-2.55h.07c0-1.45-1.17-2.62-2.62-2.62Z"/>
  <path class="cls-2" d="M98.3,85.43c0-1.45-1.17-2.62-2.62-2.62s-2.62,1.17-2.62,2.62,1.17,2.62,2.62,2.62,2.62-1.17,2.62-2.62Z"/>
  <path class="cls-2" d="M88.3,104.96c-.54,0-1.05,.16-1.46,.45-.14,.09-.27,.2-.39,.32-.47,.47-.77,1.13-.77,1.85h0c.04,1.42,1.19,2.55,2.62,2.55h0c1.39-.04,2.51-1.16,2.55-2.55h.07c0-1.45-1.17-2.62-2.62-2.62Z"/>
  <path class="cls-2" d="M95.68,97.58c-1.45,0-2.62,1.17-2.62,2.62s1.17,2.62,2.62,2.62,2.62-1.17,2.62-2.62-1.17-2.62-2.62-2.62Z"/>
  <path class="cls-2" d="M88.3,119.73c-.54,0-1.05,.16-1.46,.45-.14,.09-.27,.2-.39,.32-.47,.47-.77,1.13-.77,1.85h0c.04,1.42,1.19,2.55,2.62,2.55h0c1.39-.04,2.51-1.16,2.55-2.55h.07c0-1.45-1.17-2.62-2.62-2.62Z"/>
  <path class="cls-2" d="M95.68,112.34c-1.45,0-2.62,1.17-2.62,2.62s1.17,2.62,2.62,2.62,2.62-1.17,2.62-2.62-1.17-2.62-2.62-2.62Z"/>
  <path class="cls-2" d="M88.3,134.49c-.54,0-1.05,.16-1.46,.45-.14,.09-.27,.2-.39,.32-.47,.47-.77,1.13-.77,1.85h0c.04,1.42,1.19,2.55,2.62,2.55h0c1.39-.04,2.51-1.16,2.55-2.55h.07c0-1.45-1.17-2.62-2.62-2.62Z"/>
  <path class="cls-2" d="M98.3,129.73c0-1.45-1.17-2.62-2.62-2.62s-2.62,1.17-2.62,2.62,1.17,2.62,2.62,2.62,2.62-1.17,2.62-2.62Z"/>
  <path class="cls-2" d="M88.3,149.26c-.54,0-1.05,.17-1.46,.45-.14,.09-.27,.2-.39,.32-.47,.47-.77,1.13-.77,1.85h0c.04,1.42,1.19,2.55,2.62,2.55h0c1.39-.04,2.51-1.16,2.55-2.55h.07c0-1.45-1.17-2.62-2.62-2.62Z"/>
  <path class="cls-2" d="M93.06,144.49c0,1.45,1.17,2.62,2.62,2.62s2.62-1.17,2.62-2.62-1.17-2.62-2.62-2.62-2.62,1.17-2.62,2.62Z"/>
  <path class="cls-2" d="M97.24,161.36c.64-.48,1.06-1.24,1.06-2.11,0-1.45-1.17-2.62-2.62-2.62-.83,0-1.57,.39-2.05,.99,1.39,1.04,2.61,2.31,3.6,3.74Z"/>
  <path class="cls-2" d="M88.3,193.55c-.54,0-1.05,.17-1.46,.45-.14,.09-.27,.2-.39,.32-.47,.47-.77,1.13-.77,1.85h0c.04,1.42,1.19,2.55,2.62,2.55h0c1.39-.04,2.51-1.16,2.55-2.55h.07c0-1.45-1.17-2.62-2.62-2.62Z"/>
  <path class="cls-2" d="M93.06,188.79c0,1.45,1.17,2.62,2.62,2.62s2.62-1.17,2.62-2.62-1.17-2.62-2.62-2.62-2.62,1.17-2.62,2.62Z"/>
  <path class="cls-2" d="M88.3,208.32c-.54,0-1.05,.17-1.46,.45-.14,.09-.27,.2-.39,.32-.47,.47-.77,1.13-.77,1.85h0c.04,1.42,1.19,2.55,2.62,2.55h0c1.39-.04,2.51-1.16,2.55-2.55h.07c0-1.45-1.17-2.62-2.62-2.62Z"/>
  <path class="cls-2" d="M95.68,200.94c-1.45,0-2.62,1.17-2.62,2.62s1.17,2.62,2.62,2.62,2.62-1.17,2.62-2.62-1.17-2.62-2.62-2.62Z"/>
  <path class="cls-2" d="M95.68,220.94c1.03,0,1.92-.6,2.35-1.46-1.05,.47-2.09,.92-3.11,1.35,.24,.07,.49,.11,.76,.11Z"/>
  <path class="cls-2" d="M103.06,228.26h0c1.39-.04,2.51-1.16,2.55-2.55h.07c0-1.45-1.17-2.62-2.62-2.62s-2.62,1.17-2.62,2.62h0c.04,1.42,1.19,2.55,2.62,2.55Z"/>
  <path class="cls-2" d="M88.3,237.85c-.54,0-1.05,.16-1.46,.45-.14,.09-.27,.2-.39,.32-.47,.47-.77,1.13-.77,1.85h0c.04,1.42,1.19,2.55,2.62,2.55h0c1.39-.04,2.51-1.16,2.55-2.55h.07c0-1.45-1.17-2.62-2.62-2.62Z"/>
  <path class="cls-2" d="M98.3,233.09c0-1.45-1.17-2.62-2.62-2.62s-2.62,1.17-2.62,2.62,1.17,2.62,2.62,2.62,2.62-1.17,2.62-2.62Z"/>
  <path class="cls-2" d="M88.3,252.61c-.54,0-1.05,.17-1.46,.45-.14,.09-.27,.2-.39,.32-.47,.47-.77,1.13-.77,1.85h0c.04,1.42,1.19,2.55,2.62,2.55h0c1.39-.04,2.51-1.16,2.55-2.55h.07c0-1.45-1.17-2.62-2.62-2.62Z"/>
  <path class="cls-2" d="M93.06,247.85c0,1.45,1.17,2.62,2.62,2.62s2.62-1.17,2.62-2.62-1.17-2.62-2.62-2.62-2.62,1.17-2.62,2.62Z"/>
  <path class="cls-2" d="M93.06,262.62c0,1.45,1.17,2.62,2.62,2.62s2.62-1.17,2.62-2.62-1.17-2.62-2.62-2.62-2.62,1.17-2.62,2.62Z"/>
  <path class="cls-2" d="M90.85,270h.07c0-1.45-1.17-2.62-2.62-2.62-.54,0-1.05,.17-1.46,.45-.14,.09-.27,.2-.39,.32-.47,.47-.77,1.13-.77,1.85h0c.02,.83,.43,1.56,1.05,2.03h3.07c.62-.47,1.03-1.2,1.05-2.03Z"/>
  <path class="cls-2" d="M73.53,60.66c-1.45,0-2.62,1.17-2.62,2.62h0c.04,1.42,1.19,2.55,2.62,2.55h0c1.39-.04,2.51-1.16,2.55-2.55h.07c0-1.45-1.17-2.62-2.62-2.62Z"/>
  <path class="cls-2" d="M73.53,75.43c-1.45,0-2.62,1.17-2.62,2.62h0c.04,1.42,1.19,2.55,2.62,2.55h0c1.39-.04,2.51-1.16,2.55-2.55h.07c0-1.45-1.17-2.62-2.62-2.62Z"/>
  <path class="cls-2" d="M80.92,73.29c.8,0,1.52-.36,2-.93h-2.47c-.67,0-1.29-.17-1.84-.46,.44,.82,1.31,1.38,2.31,1.38Z"/>
  <path class="cls-2" d="M88.3,80.6h0c1.39-.04,2.51-1.16,2.55-2.55h.07c0-1.45-1.17-2.62-2.62-2.62-.54,0-1.05,.16-1.46,.45-.14,.09-.27,.2-.39,.32-.47,.47-.77,1.13-.77,1.85h0c.04,1.42,1.19,2.55,2.62,2.55Z"/>
  <path class="cls-2" d="M73.53,90.19c-1.45,0-2.62,1.17-2.62,2.62h0c.04,1.42,1.19,2.55,2.62,2.55h0c1.39-.04,2.51-1.16,2.55-2.55h.07c0-1.45-1.17-2.62-2.62-2.62Z"/>
  <path class="cls-2" d="M83.54,85.43c0-1.45-1.17-2.62-2.62-2.62s-2.62,1.17-2.62,2.62,1.17,2.62,2.62,2.62,2.62-1.17,2.62-2.62Z"/>
  <path class="cls-2" d="M83.54,100.2c0-1.45-1.17-2.62-2.62-2.62s-2.62,1.17-2.62,2.62,1.17,2.62,2.62,2.62,2.62-1.17,2.62-2.62Z"/>
  <circle class="cls-2" cx="80.92" cy="114.96" r="2.62"/>
  <path class="cls-2" d="M80.92,132.35c1.45,0,2.62-1.17,2.62-2.62s-1.17-2.62-2.62-2.62-2.62,1.17-2.62,2.62,1.17,2.62,2.62,2.62Z"/>
  <path class="cls-2" d="M73.53,149.26c-1.45,0-2.62,1.17-2.62,2.62h0c.04,1.42,1.19,2.55,2.62,2.55h0c1.39-.04,2.51-1.16,2.55-2.55h.07c0-1.45-1.17-2.62-2.62-2.62Z"/>
  <path class="cls-2" d="M78.3,144.49c0,1.45,1.17,2.62,2.62,2.62s2.62-1.17,2.62-2.62-1.17-2.62-2.62-2.62-2.62,1.17-2.62,2.62Z"/>
  <path class="cls-2" d="M86.83,164.47c-.14,.09-.27,.2-.39,.32-.47,.47-.77,1.13-.77,1.85h0c.04,1.42,1.19,2.55,2.62,2.55h0c1.39-.04,2.51-1.16,2.55-2.55h.07c0-.27-.04-.52-.11-.77-.43-.62-.93-1.17-1.5-1.66-.31-.13-.65-.2-1-.2-.54,0-1.05,.16-1.46,.45Z"/>
  <circle class="cls-2" cx="80.92" cy="174.02" r="2.62"/>
  <path class="cls-2" d="M73.53,193.55c-1.45,0-2.62,1.17-2.62,2.62h0c.04,1.42,1.19,2.55,2.62,2.55h0c1.39-.04,2.51-1.16,2.55-2.55h.07c0-1.45-1.17-2.62-2.62-2.62Z"/>
  <path class="cls-2" d="M78.3,188.79c0,1.45,1.17,2.62,2.62,2.62s2.62-1.17,2.62-2.62c0-.84-.39-1.58-1-2.06-.85-.07-1.68-.21-2.49-.41-1.02,.36-1.75,1.33-1.75,2.47Z"/>
  <path class="cls-2" d="M73.53,208.32c-1.45,0-2.62,1.17-2.62,2.62h0c.04,1.42,1.19,2.55,2.62,2.55h0c1.39-.04,2.51-1.16,2.55-2.55h.07c0-1.45-1.17-2.62-2.62-2.62Z"/>
  <path class="cls-2" d="M78.3,203.56c0,1.45,1.17,2.62,2.62,2.62s2.62-1.17,2.62-2.62-1.17-2.62-2.62-2.62-2.62,1.17-2.62,2.62Z"/>
  <path class="cls-2" d="M86.09,224.3c-.26,.41-.41,.88-.41,1.4h0c.04,1.42,1.19,2.55,2.62,2.55h0c1.39-.04,2.51-1.16,2.55-2.55h.07c0-1.18-.79-2.18-1.87-2.51-1.02,.39-2.01,.76-2.97,1.11Z"/>
  <path class="cls-2" d="M80.92,215.7c-1.45,0-2.62,1.17-2.62,2.62,0,.11,0,.22,.02,.32,1.49-.49,3.11-1.05,4.84-1.67-.46-.76-1.29-1.27-2.24-1.27Z"/>
  <path class="cls-2" d="M74.34,228.1c-.13,.04-.25,.07-.37,.1,.13-.02,.25-.06,.37-.1Z"/>
  <circle class="cls-2" cx="80.92" cy="233.09" r="2.62"/>
  <path class="cls-2" d="M73.53,252.61c-1.45,0-2.62,1.17-2.62,2.62h0c.04,1.42,1.19,2.55,2.62,2.55h0c1.39-.04,2.51-1.16,2.55-2.55h.07c0-1.45-1.17-2.62-2.62-2.62Z"/>
  <circle class="cls-2" cx="80.92" cy="247.85" r="2.62"/>
  <path class="cls-2" d="M78.3,262.62c0,1.45,1.17,2.62,2.62,2.62s2.62-1.17,2.62-2.62-1.17-2.62-2.62-2.62-2.62,1.17-2.62,2.62Z"/>
  <path class="cls-2" d="M76.08,270h.07c0-1.45-1.17-2.62-2.62-2.62s-2.62,1.17-2.62,2.62h0c.02,.83,.43,1.56,1.05,2.03h3.07c.62-.47,1.03-1.2,1.05-2.03Z"/>
  <path class="cls-2" d="M70.91,48.52h0c.04,1.42,1.19,2.55,2.62,2.55h0c1.39-.04,2.51-1.16,2.55-2.55h.07c0-.32-.06-.63-.17-.92h-4.9c-.11,.29-.17,.6-.17,.92Z"/>
  <path class="cls-2" d="M68.77,55.9c0-1.45-1.17-2.62-2.62-2.62s-2.62,1.17-2.62,2.62,1.17,2.62,2.62,2.62,2.62-1.17,2.62-2.62Z"/>
  <path class="cls-2" d="M68.77,70.67c0-1.45-1.17-2.62-2.62-2.62s-2.62,1.17-2.62,2.62,1.17,2.62,2.62,2.62,2.62-1.17,2.62-2.62Z"/>
  <path class="cls-2" d="M66.15,88.05c1.45,0,2.62-1.17,2.62-2.62s-1.17-2.62-2.62-2.62-2.62,1.17-2.62,2.62,1.17,2.62,2.62,2.62Z"/>
  <path class="cls-2" d="M66.15,102.82c1.45,0,2.62-1.17,2.62-2.62s-1.17-2.62-2.62-2.62-2.62,1.17-2.62,2.62,1.17,2.62,2.62,2.62Z"/>
  <path class="cls-2" d="M73.53,110.13h0c1.39-.04,2.51-1.16,2.55-2.55h.07c0-1.45-1.17-2.62-2.62-2.62s-2.62,1.17-2.62,2.62h0c.04,1.42,1.19,2.55,2.62,2.55Z"/>
  <path class="cls-2" d="M66.15,117.58c1.45,0,2.62-1.17,2.62-2.62s-1.17-2.62-2.62-2.62-2.62,1.17-2.62,2.62,1.17,2.62,2.62,2.62Z"/>
  <path class="cls-2" d="M73.53,124.9h0c1.39-.04,2.51-1.16,2.55-2.55h.07c0-1.45-1.17-2.62-2.62-2.62s-2.62,1.17-2.62,2.62h0c.04,1.42,1.19,2.55,2.62,2.55Z"/>
  <path class="cls-2" d="M66.15,132.35c1.45,0,2.62-1.17,2.62-2.62s-1.17-2.62-2.62-2.62-2.62,1.17-2.62,2.62,1.17,2.62,2.62,2.62Z"/>
  <path class="cls-2" d="M73.53,139.66h0c1.39-.04,2.51-1.16,2.55-2.55h.07c0-1.45-1.17-2.62-2.62-2.62s-2.62,1.17-2.62,2.62h0c.04,1.42,1.19,2.55,2.62,2.55Z"/>
  <path class="cls-2" d="M66.15,147.11c1.45,0,2.62-1.17,2.62-2.62s-1.17-2.62-2.62-2.62-2.62,1.17-2.62,2.62,1.17,2.62,2.62,2.62Z"/>
  <path class="cls-2" d="M66.15,161.88c1.45,0,2.62-1.17,2.62-2.62s-1.17-2.62-2.62-2.62-2.62,1.17-2.62,2.62,1.17,2.62,2.62,2.62Z"/>
  <path class="cls-2" d="M66.15,176.64c.98,0,1.84-.54,2.29-1.34-.32-1.06-.54-2.17-.63-3.31-.45-.37-1.03-.59-1.65-.59-1.45,0-2.62,1.17-2.62,2.62s1.17,2.62,2.62,2.62Z"/>
  <path class="cls-2" d="M71.1,180.45c-.12,.3-.18,.62-.18,.95h0c.04,1.42,1.19,2.55,2.62,2.55h0c.34-.01,.67-.08,.96-.21-1.29-.93-2.43-2.04-3.4-3.29Z"/>
  <path class="cls-2" d="M66.15,191.41c1.45,0,2.62-1.17,2.62-2.62s-1.17-2.62-2.62-2.62-2.62,1.17-2.62,2.62,1.17,2.62,2.62,2.62Z"/>
  <path class="cls-2" d="M66.15,206.18c1.45,0,2.62-1.17,2.62-2.62s-1.17-2.62-2.62-2.62-2.62,1.17-2.62,2.62,1.17,2.62,2.62,2.62Z"/>
  <path class="cls-2" d="M58.77,223.08c-1.45,0-2.62,1.17-2.62,2.62h0c.04,1.42,1.19,2.55,2.62,2.55h0c1.39-.04,2.51-1.16,2.55-2.55h.07c0-1.45-1.17-2.62-2.62-2.62Z"/>
  <path class="cls-2" d="M66.15,215.7c-1.45,0-2.62,1.17-2.62,2.62s1.17,2.62,2.62,2.62,2.62-1.17,2.62-2.62-1.17-2.62-2.62-2.62Z"/>
  <path class="cls-2" d="M63.53,233.09c0,1.45,1.17,2.62,2.62,2.62s2.62-1.17,2.62-2.62-1.17-2.62-2.62-2.62-2.62,1.17-2.62,2.62Z"/>
  <path class="cls-2" d="M73.53,243.02h0c1.39-.04,2.51-1.16,2.55-2.55h.07c0-1.45-1.17-2.62-2.62-2.62s-2.62,1.17-2.62,2.62h0c.04,1.42,1.19,2.55,2.62,2.55Z"/>
  <path class="cls-2" d="M58.77,252.61c-1.45,0-2.62,1.17-2.62,2.62h0c.04,1.42,1.19,2.55,2.62,2.55h0c1.39-.04,2.51-1.16,2.55-2.55h.07c0-1.45-1.17-2.62-2.62-2.62Z"/>
  <path class="cls-2" d="M63.53,247.85c0,1.45,1.17,2.62,2.62,2.62s2.62-1.17,2.62-2.62-1.17-2.62-2.62-2.62-2.62,1.17-2.62,2.62Z"/>
  <path class="cls-2" d="M63.53,262.62c0,1.45,1.17,2.62,2.62,2.62s2.62-1.17,2.62-2.62-1.17-2.62-2.62-2.62-2.62,1.17-2.62,2.62Z"/>
  <path class="cls-2" d="M61.32,270h.07c0-1.45-1.17-2.62-2.62-2.62s-2.62,1.17-2.62,2.62h0c.02,.83,.43,1.56,1.05,2.03h3.07c.62-.47,1.03-1.2,1.05-2.03Z"/>
  <path class="cls-2" d="M56.15,48.52h0c.04,1.42,1.19,2.55,2.62,2.55h0c1.39-.04,2.51-1.16,2.55-2.55h.07c0-.32-.06-.63-.17-.92h-4.9c-.11,.29-.17,.6-.17,.92Z"/>
  <circle class="cls-2" cx="51.39" cy="55.9" r="2.62"/>
  <path class="cls-2" d="M58.77,65.84h0c1.39-.04,2.51-1.16,2.55-2.55h.07c0-1.45-1.17-2.62-2.62-2.62s-2.62,1.17-2.62,2.62h0c.04,1.42,1.19,2.55,2.62,2.55Z"/>
  <circle class="cls-2" cx="51.39" cy="70.67" r="2.62"/>
  <path class="cls-2" d="M58.77,80.6h0c1.39-.04,2.51-1.16,2.55-2.55h.07c0-1.45-1.17-2.62-2.62-2.62s-2.62,1.17-2.62,2.62h0c.04,1.42,1.19,2.55,2.62,2.55Z"/>
  <path class="cls-2" d="M48.77,85.43c0,1.45,1.17,2.62,2.62,2.62s2.62-1.17,2.62-2.62-1.17-2.62-2.62-2.62-2.62,1.17-2.62,2.62Z"/>
  <path class="cls-2" d="M58.77,95.37h0c1.39-.04,2.51-1.16,2.55-2.55h.07c0-1.45-1.17-2.62-2.62-2.62s-2.62,1.17-2.62,2.62h0c.04,1.42,1.19,2.55,2.62,2.55Z"/>
  <path class="cls-2" d="M48.77,100.2c0,1.45,1.17,2.62,2.62,2.62s2.62-1.17,2.62-2.62-1.17-2.62-2.62-2.62-2.62,1.17-2.62,2.62Z"/>
  <path class="cls-2" d="M58.77,110.13h0c1.39-.04,2.51-1.16,2.55-2.55h.07c0-1.45-1.17-2.62-2.62-2.62s-2.62,1.17-2.62,2.62h0c.04,1.42,1.19,2.55,2.62,2.55Z"/>
  <circle class="cls-2" cx="51.39" cy="114.96" r="2.62"/>
  <path class="cls-2" d="M58.77,124.9h0c1.39-.04,2.51-1.16,2.55-2.55h.07c0-1.45-1.17-2.62-2.62-2.62s-2.62,1.17-2.62,2.62h0c.04,1.42,1.19,2.55,2.62,2.55Z"/>
  <path class="cls-2" d="M48.77,129.73c0,1.45,1.17,2.62,2.62,2.62s2.62-1.17,2.62-2.62-1.17-2.62-2.62-2.62-2.62,1.17-2.62,2.62Z"/>
  <path class="cls-2" d="M58.77,139.66h0c1.39-.04,2.51-1.16,2.55-2.55h.07c0-1.45-1.17-2.62-2.62-2.62s-2.62,1.17-2.62,2.62h0c.04,1.42,1.19,2.55,2.62,2.55Z"/>
  <path class="cls-2" d="M48.77,144.49c0,1.45,1.17,2.62,2.62,2.62s2.62-1.17,2.62-2.62-1.17-2.62-2.62-2.62-2.62,1.17-2.62,2.62Z"/>
  <path class="cls-2" d="M58.77,154.43h0c1.39-.04,2.51-1.16,2.55-2.55h.07c0-1.45-1.17-2.62-2.62-2.62s-2.62,1.17-2.62,2.62h0c.04,1.42,1.19,2.55,2.62,2.55Z"/>
  <circle class="cls-2" cx="51.39" cy="159.26" r="2.62"/>
  <path class="cls-2" d="M58.77,169.19h0c1.39-.04,2.51-1.16,2.55-2.55h.07c0-1.45-1.17-2.62-2.62-2.62s-2.62,1.17-2.62,2.62h0c.04,1.42,1.19,2.55,2.62,2.55Z"/>
  <circle class="cls-2" cx="51.39" cy="174.02" r="2.62"/>
  <path class="cls-2" d="M58.77,183.96h0c1.39-.04,2.51-1.16,2.55-2.55h.07c0-1.45-1.17-2.62-2.62-2.62s-2.62,1.17-2.62,2.62h0c.04,1.42,1.19,2.55,2.62,2.55Z"/>
  <path class="cls-2" d="M48.77,188.79c0,1.45,1.17,2.62,2.62,2.62s2.62-1.17,2.62-2.62-1.17-2.62-2.62-2.62-2.62,1.17-2.62,2.62Z"/>
  <path class="cls-2" d="M58.77,198.72h0c1.39-.04,2.51-1.16,2.55-2.55h.07c0-1.45-1.17-2.62-2.62-2.62s-2.62,1.17-2.62,2.62h0c.04,1.42,1.19,2.55,2.62,2.55Z"/>
  <path class="cls-2" d="M48.77,203.56c0,1.45,1.17,2.62,2.62,2.62s2.62-1.17,2.62-2.62-1.17-2.62-2.62-2.62-2.62,1.17-2.62,2.62Z"/>
  <path class="cls-2" d="M58.77,213.49h0c1.39-.04,2.51-1.16,2.55-2.55h.07c0-1.45-1.17-2.62-2.62-2.62s-2.62,1.17-2.62,2.62h0c.04,1.42,1.19,2.55,2.62,2.55Z"/>
  <circle class="cls-2" cx="51.39" cy="218.32" r="2.62"/>
  <circle class="cls-2" cx="51.39" cy="233.09" r="2.62"/>
  <path class="cls-2" d="M58.77,243.02h0c1.39-.04,2.51-1.16,2.55-2.55h.07c0-1.45-1.17-2.62-2.62-2.62s-2.62,1.17-2.62,2.62h0c.04,1.42,1.19,2.55,2.62,2.55Z"/>
  <circle class="cls-2" cx="51.39" cy="247.85" r="2.62"/>
  <path class="cls-2" d="M48.77,262.62c0,1.45,1.17,2.62,2.62,2.62s2.62-1.17,2.62-2.62-1.17-2.62-2.62-2.62-2.62,1.17-2.62,2.62Z"/>
  <path class="cls-2" d="M46.55,270h.07c0-1.45-1.17-2.62-2.62-2.62-.32,0-.62,.06-.9,.16v4.49h2.4c.62-.47,1.03-1.2,1.05-2.03Z"/>
  <path class="cls-2" d="M44,51.07h0c1.39-.04,2.51-1.16,2.55-2.55h.07c0-.32-.06-.63-.17-.92h-3.35v3.31c.28,.1,.58,.16,.9,.16Z"/>
  <path class="cls-2" d="M44,65.84h0c1.39-.04,2.51-1.16,2.55-2.55h.07c0-1.45-1.17-2.62-2.62-2.62-.32,0-.62,.06-.9,.16v4.85c.28,.1,.58,.16,.9,.16Z"/>
  <path class="cls-2" d="M44,80.6h0c1.39-.04,2.51-1.16,2.55-2.55h.07c0-1.45-1.17-2.62-2.62-2.62-.32,0-.62,.06-.9,.16v4.85c.28,.1,.58,.16,.9,.16Z"/>
  <path class="cls-2" d="M44,95.37h0c1.39-.04,2.51-1.16,2.55-2.55h.07c0-1.45-1.17-2.62-2.62-2.62-.32,0-.62,.06-.9,.16v4.85c.28,.1,.58,.16,.9,.16Z"/>
  <path class="cls-2" d="M44,110.13h0c1.39-.04,2.51-1.16,2.55-2.55h.07c0-1.45-1.17-2.62-2.62-2.62-.32,0-.62,.06-.9,.16v4.85c.28,.1,.58,.16,.9,.16Z"/>
  <path class="cls-2" d="M44,124.9h0c1.39-.04,2.51-1.16,2.55-2.55h.07c0-1.45-1.17-2.62-2.62-2.62-.32,0-.62,.06-.9,.16v4.85c.28,.1,.58,.16,.9,.16Z"/>
  <path class="cls-2" d="M44,139.66h0c1.39-.04,2.51-1.16,2.55-2.55h.07c0-1.45-1.17-2.62-2.62-2.62-.32,0-.62,.06-.9,.16v4.85c.28,.1,.58,.16,.9,.16Z"/>
  <path class="cls-2" d="M44,154.43h0c1.39-.04,2.51-1.16,2.55-2.55h.07c0-1.45-1.17-2.62-2.62-2.62-.32,0-.62,.06-.9,.16v4.85c.28,.1,.58,.16,.9,.16Z"/>
  <path class="cls-2" d="M44,169.19h0c1.39-.04,2.51-1.16,2.55-2.55h.07c0-1.45-1.17-2.62-2.62-2.62-.32,0-.62,.06-.9,.16v4.85c.28,.1,.58,.16,.9,.16Z"/>
  <path class="cls-2" d="M44,183.96h0c1.39-.04,2.51-1.16,2.55-2.55h.07c0-1.45-1.17-2.62-2.62-2.62-.32,0-.62,.06-.9,.16v4.85c.28,.1,.58,.16,.9,.16Z"/>
  <path class="cls-2" d="M44,198.72h0c1.39-.04,2.51-1.16,2.55-2.55h.07c0-1.45-1.17-2.62-2.62-2.62-.32,0-.62,.06-.9,.16v4.85c.28,.1,.58,.16,.9,.16Z"/>
  <path class="cls-2" d="M44,213.49h0c1.39-.04,2.51-1.16,2.55-2.55h.07c0-1.45-1.17-2.62-2.62-2.62-.32,0-.62,.06-.9,.16v4.85c.28,.1,.58,.16,.9,.16Z"/>
  <path class="cls-2" d="M44,228.26h0c1.39-.04,2.51-1.16,2.55-2.55h.07c0-1.45-1.17-2.62-2.62-2.62-.32,0-.62,.06-.9,.16v4.85c.28,.1,.58,.16,.9,.16Z"/>
  <path class="cls-2" d="M44,243.02h0c1.39-.04,2.51-1.16,2.55-2.55h.07c0-1.45-1.17-2.62-2.62-2.62-.32,0-.62,.06-.9,.16v4.85c.28,.1,.58,.16,.9,.16Z"/>
  <path class="cls-2" d="M44,257.79h0c1.39-.04,2.51-1.16,2.55-2.55h.07c0-1.45-1.17-2.62-2.62-2.62-.32,0-.62,.06-.9,.16v4.85c.28,.1,.58,.16,.9,.16Z"/>
  <path class="cls-2" d="M103.06,31.13c-1.45,0-2.62,1.17-2.62,2.62h0c.04,1.42,1.19,2.55,2.62,2.55h0c1.39-.04,2.51-1.16,2.55-2.55h.07c0-1.45-1.17-2.62-2.62-2.62Z"/>
  <path class="cls-2" d="M103.06,45.9c-1.45,0-2.62,1.17-2.62,2.62h0c.04,1.42,1.19,2.55,2.62,2.55h0c1.39-.04,2.51-1.16,2.55-2.55h.07c0-1.45-1.17-2.62-2.62-2.62Z"/>
  <path class="cls-2" d="M105.68,63.28c0-1.45-1.17-2.62-2.62-2.62s-2.62,1.17-2.62,2.62h0c.01,.44,.13,.86,.33,1.22h4.5c.2-.36,.32-.78,.33-1.22h.07Z"/>
  <path class="cls-2" d="M95.68,28.99c1.45,0,2.62-1.17,2.62-2.62s-1.17-2.62-2.62-2.62-2.62,1.17-2.62,2.62,1.17,2.62,2.62,2.62Z"/>
  <path class="cls-2" d="M88.3,45.9c-.54,0-1.05,.16-1.46,.45-.14,.09-.27,.2-.39,.32-.47,.47-.77,1.13-.77,1.85h0c.04,1.42,1.19,2.55,2.62,2.55h0c1.39-.04,2.51-1.16,2.55-2.55h.07c0-1.45-1.17-2.62-2.62-2.62Z"/>
  <path class="cls-2" d="M93.06,41.14c0,1.45,1.17,2.62,2.62,2.62s2.62-1.17,2.62-2.62-1.17-2.62-2.62-2.62-2.62,1.17-2.62,2.62Z"/>
  <path class="cls-2" d="M90.92,63.28c0-1.45-1.17-2.62-2.62-2.62-.54,0-1.05,.16-1.46,.45-.14,.09-.27,.2-.39,.32-.47,.47-.77,1.13-.77,1.85h0c.01,.44,.13,.86,.33,1.22h4.5c.2-.36,.32-.78,.33-1.22h.07Z"/>
  <path class="cls-2" d="M93.06,55.9c0,1.45,1.17,2.62,2.62,2.62s2.62-1.17,2.62-2.62-1.17-2.62-2.62-2.62-2.62,1.17-2.62,2.62Z"/>
  <path class="cls-2" d="M88.3,36.31h0c1.39-.04,2.51-1.16,2.55-2.55h.07c0-1.45-1.17-2.62-2.62-2.62-.54,0-1.05,.16-1.46,.45-.14,.09-.27,.2-.39,.32-.47,.47-.77,1.13-.77,1.85h0c.04,1.42,1.19,2.55,2.62,2.55Z"/>
  <path class="cls-1" d="M201.9,39.74h-37.34V18.91c0-2.17-1.76-3.93-3.93-3.93H80.45c-2.17,0-3.93,1.76-3.93,3.93v20.83H39.18c-2.17,0-3.93,1.76-3.93,3.93v232.29c0,2.17,1.76,3.93,3.93,3.93H201.9c2.17,0,3.93-1.76,3.93-3.93V43.67c0-2.17-1.76-3.93-3.93-3.93Zm-45.2,3.93v20.83H84.38V22.84h72.32v20.83Zm41.27,228.36H43.11V47.6h33.41v20.83c0,1.51,.85,2.81,2.09,3.47,.55,.29,1.17,.46,1.84,.46h80.18c2.17,0,3.93-1.76,3.93-3.93v-20.83h33.41v224.43Z"/>
  <path class="cls-1" d="M117.73,199.9c-1.59,1.04-3.17,2.03-4.75,2.98-1.47,.88-2.93,1.73-4.38,2.53-1.84,1.03-3.67,2-5.46,2.91-.74,.38-1.48,.74-2.21,1.1-6.53,3.21-12.64,5.69-17.77,7.55-1.73,.63-3.35,1.18-4.84,1.67-6.19,2.04-10.09,2.92-10.19,2.95-2.12,.47-3.46,2.57-2.99,4.68,.41,1.83,2.03,3.08,3.83,3.08,.28,0,.57-.03,.85-.09,.24-.05,1.71-.39,4.14-1.06,.12-.03,.24-.07,.37-.1,2.85-.8,6.89-2.03,11.75-3.8,.96-.35,1.95-.72,2.97-1.11,1.87-.72,3.83-1.5,5.87-2.37,1.02-.43,2.05-.88,3.11-1.35,5.39-2.4,11.23-5.31,17.19-8.8,1.2-.7,2.4-1.42,3.6-2.17,.57-.35,1.14-.71,1.71-1.07,.43-.27,.86-.55,1.29-.83,15.17-9.88,27.28-21.56,35.99-34.73,9.13-13.79,14.5-29.21,16.04-45.94l6.26,7.39c1.4,1.66,3.88,1.86,5.54,.46,.92-.78,1.39-1.88,1.39-3,0-.9-.31-1.8-.93-2.54l-12.73-15.02s0,0,0,0c0,0,0,0,0,0,0,0,0,0,0,0s0,0,0,0c0,0,0,0,0,0,0,0,0,0,0,0,0,0,0,0,0,0,0,0,0,0,0,0,0,0,0,0,0,0,0,0,0,0,0,0h0c-.52-.6-1.19-1.01-1.92-1.22,0,0,0,0,0,0h0s0,0,0,0c0,0,0,0,0,0,0,0,0,0,0,0,0,0,0,0,0,0-.04-.01-.08-.02-.13-.03,0,0,0,0,0,0,0,0,0,0,0,0,0,0,0,0,0,0,0,0,0,0,0,0,0,0,0,0,0,0,0,0,0,0,0,0-.72-.16-1.49-.12-2.22,.14-.56,.2-1.05,.53-1.45,.93l-15,15c-1.53,1.53-1.53,4.02,0,5.56,1.53,1.53,4.02,1.53,5.56,0l7.83-7.83c-1.48,15.19-6.39,29.18-14.64,41.7-7.54,11.43-17.89,21.71-30.8,30.58-.92,.64-1.86,1.26-2.81,1.88Z"/>
  <path class="cls-1" d="M119.65,109.33l-3.63-3.63-2.28-2.28c-.53-.53-1.17-.87-1.84-1.03-.83-.2-1.71-.13-2.51,.21-.44,.19-.85,.46-1.21,.82-1.53,1.53-1.53,4.02,0,5.56l6.8,6.8-6.8,6.8c-1.53,1.53-1.53,4.02,0,5.56,.04,.04,.08,.07,.12,.11,.75,.69,1.7,1.04,2.66,1.04,.66,0,1.33-.17,1.92-.51,.31-.17,.6-.38,.86-.64l3.34-3.34,3.25-3.25,.21-.21h0l6.8,6.8c.77,.77,1.77,1.15,2.78,1.15s2.01-.38,2.78-1.15c1.53-1.53,1.53-4.02,0-5.56l-6.8-6.8,6.8-6.8c1.53-1.53,1.53-4.02,0-5.56-1.53-1.53-4.02-1.53-5.56,0l-6.8,6.8h0s-.89-.89-.89-.89Z"/>
  <path class="cls-1" d="M169.46,218.24c-1.53-1.53-4.02-1.53-5.56,0l-6.8,6.8-6.8-6.8c-1.53-1.53-4.02-1.53-5.56,0-1.53,1.53-1.53,4.02,0,5.56l6.8,6.8-6.8,6.8c-1.53,1.53-1.53,4.02,0,5.56,.77,.77,1.77,1.15,2.78,1.15s2.01-.38,2.78-1.15l6.8-6.8,6.8,6.8c.77,.77,1.77,1.15,2.78,1.15s2.01-.38,2.78-1.15c1.53-1.53,1.53-4.02,0-5.56l-6.8-6.8,6.8-6.8c1.53-1.53,1.53-4.02,0-5.56Z"/>
  <path class="cls-1" d="M71.1,180.45c.97,1.26,2.11,2.37,3.4,3.29,1.65,1.19,3.52,2.07,5.55,2.57,.81,.2,1.64,.34,2.49,.41,.46,.04,.93,.06,1.4,.06,8.93,0,16.2-7.27,16.2-16.2,0-3.43-1.07-6.61-2.9-9.23-1-1.43-2.21-2.69-3.6-3.74-2.7-2.03-6.06-3.23-9.69-3.23-8.93,0-16.2,7.27-16.2,16.2,0,.47,.02,.93,.06,1.39,.1,1.14,.31,2.25,.63,3.31,.57,1.89,1.48,3.63,2.66,5.15Zm12.84-18.19c2.04,0,3.91,.74,5.36,1.96,.57,.48,1.08,1.04,1.5,1.66,.93,1.34,1.47,2.97,1.47,4.72,0,4.6-3.74,8.34-8.34,8.34s-8.34-3.74-8.34-8.34,3.74-8.34,8.34-8.34Z"/>
</svg>