<?xml version="1.0" encoding="UTF-8"?>
<svg id="Object" xmlns="http://www.w3.org/2000/svg" viewBox="0 0 543 728">
  <defs>
    <style>
      .cls-1 {
        fill: #4a6788;
      }

      .cls-2 {
        fill: #3a55a5;
      }
    </style>
  </defs>
  <path class="cls-1" d="M258.15,561.29c-1.11,.94-2.24,1.9-3.41,2.82-2.34,1.89-4.77,3.72-7.25,5.42l-49.81,124.13h-49.83l-56.72-129.29c-2.61-2.09-5.16-4.29-7.61-6.55l-1.05,.9c-55.19,47.73-69.79,121.39-73.61,160.12H331.35c-10.64-113.27-57.78-152.15-69.96-160.4-1.07,.97-2.14,1.89-3.24,2.85Z"/>
  <path class="cls-1" d="M50.55,461.78c0,67.4,54.81,122.24,122.22,122.24s122.23-54.84,122.23-122.24-54.83-122.23-122.23-122.23-122.22,54.84-122.22,122.23Z"/>
  <path class="cls-1" d="M525.59,620.35l.37-2.43c-10.65-25.87-15.9-56.6-21.05-86.33-3.13-18.19-6.14-35.87-10.31-51.66-1.36-6.86-3.47-13.45-6.25-19.66-2.99-7.76-6.48-14.77-10.72-20.75-4.59-6.49-16.99-23.99-45.25-29.81-9.11-2.97-18.8-4.6-28.88-4.6-20.24,0-37.91,6.66-52.41,17.86-13.74,8.68-23.99,21.81-31.65,40.8-4.95,10.71-8.57,22.34-10.65,34.43-.58,3.33-.94,6.59-1.13,9.77-.68,3.97-1.34,8.09-1.92,12.34-2.82,19.95-.79,45.97,3.06,70.67,16.17,25.85,32.31,66.36,37.96,127.87h184.37c-1.34-16.94-5.54-45.89-18.65-74.65,6.14-3.07,9.97-5.6,10.34-5.86l1.05-2.15-1.32-1.99c-.24-.14-20.67-10.71-26.11-25.04,7.16,7.07,15.67,9.98,26.83,12.05l2.31-.84Z"/>
  <path class="cls-1" d="M227.91,263.47h151.56c17.82,0,32.25-14.43,32.25-32.25V55.41c0-17.8-14.43-32.25-32.25-32.25H52.99c-17.82,0-32.25,14.45-32.25,32.25V231.22c0,17.82,14.43,32.25,32.25,32.25H184.22l-4.33,55.23,48.01-55.23Z"/>
  <path class="cls-1" d="M520.74,319.47v-120.32c0-11.15-9.04-20.2-20.18-20.2h-74.25v63.49c0,19.15-15.6,34.72-34.74,34.72h-98v42.31c0,11.15,9.05,20.2,20.2,20.2h99.6l30.03,34.57-2.7-34.57h59.85c11.14,0,20.18-9.05,20.18-20.2Z"/>
  <polygon class="cls-2" points="147.85 693.66 197.68 693.66 185.33 612.49 184.89 612.49 197.02 590.21 148.52 590.21 160.65 612.49 160.21 612.49 147.85 693.66"/>
</svg>