<?xml version="1.0" encoding="UTF-8"?>
<svg id="Illustration" xmlns="http://www.w3.org/2000/svg" xmlns:xlink="http://www.w3.org/1999/xlink" viewBox="0 0 3710 3710">
  <defs>
    <style>
      .cls-1 {
        fill: url(#linear-gradient-2);
      }

      .cls-2 {
        fill: #fff;
      }

      .cls-3 {
        fill: #f4e7a6;
      }

      .cls-4 {
        fill: url(#linear-gradient-17);
      }

      .cls-5 {
        fill: url(#linear-gradient-15);
      }

      .cls-6 {
        fill: url(#linear-gradient-18);
      }

      .cls-7 {
        fill: url(#linear-gradient-28);
      }

      .cls-8 {
        fill: url(#linear-gradient-14);
      }

      .cls-9 {
        fill: url(#linear-gradient-20);
      }

      .cls-10 {
        fill: url(#linear-gradient-6);
      }

      .cls-11 {
        fill: url(#linear-gradient-11);
      }

      .cls-12 {
        fill: url(#linear-gradient-10);
      }

      .cls-13 {
        fill: #91b3fa;
      }

      .cls-14 {
        fill: #fcfafa;
      }

      .cls-15 {
        fill: url(#linear-gradient-16);
      }

      .cls-16 {
        fill: #7d97f4;
      }

      .cls-17 {
        fill: url(#linear-gradient-21);
      }

      .cls-18 {
        fill: url(#linear-gradient-25);
      }

      .cls-19 {
        fill: url(#linear-gradient-5);
      }

      .cls-20 {
        clip-path: url(#clippath);
      }

      .cls-21 {
        fill: url(#linear-gradient-7);
      }

      .cls-22 {
        fill: url(#linear-gradient-24);
      }

      .cls-23 {
        fill: url(#linear-gradient-9);
      }

      .cls-24 {
        fill: url(#linear-gradient-22);
      }

      .cls-25 {
        fill: url(#linear-gradient-3);
      }

      .cls-26 {
        fill: #2cc675;
      }

      .cls-27 {
        fill: url(#linear-gradient);
      }

      .cls-28 {
        fill: url(#linear-gradient-27);
      }

      .cls-29 {
        fill: #bdd0fb;
      }

      .cls-30 {
        fill: url(#linear-gradient-23);
      }

      .cls-31 {
        fill: url(#linear-gradient-19);
      }

      .cls-32 {
        fill: url(#linear-gradient-4);
      }

      .cls-33 {
        fill: url(#linear-gradient-8);
      }

      .cls-34 {
        fill: url(#linear-gradient-12);
      }

      .cls-35 {
        fill: url(#linear-gradient-13);
      }

      .cls-36 {
        fill: url(#linear-gradient-26);
      }
    </style>
    <linearGradient id="linear-gradient" x1="1942.73" y1="2697.34" x2="2362.45" y2="3380.2" gradientUnits="userSpaceOnUse">
      <stop offset="0" stop-color="#4f52ff"/>
      <stop offset="1" stop-color="#4042e2"/>
    </linearGradient>
    <linearGradient id="linear-gradient-2" x1="2004.04" y1="2701.51" x2="2394.71" y2="3337.09" gradientTransform="translate(245.01 -164.33) rotate(4.61)" xlink:href="#linear-gradient"/>
    <linearGradient id="linear-gradient-3" x1="2042.52" y1="2677.86" x2="2433.19" y2="3313.44" gradientTransform="translate(238.08 -164.6) rotate(4.61)" xlink:href="#linear-gradient"/>
    <linearGradient id="linear-gradient-4" x1="2081" y1="2654.21" x2="2471.66" y2="3289.79" gradientTransform="translate(231.15 -164.89) rotate(4.61)" xlink:href="#linear-gradient"/>
    <linearGradient id="linear-gradient-5" x1="2119.47" y1="2630.56" x2="2510.14" y2="3266.14" gradientTransform="translate(224.22 -165.16) rotate(4.61)" xlink:href="#linear-gradient"/>
    <linearGradient id="linear-gradient-6" x1="2229.01" y1="2771.85" x2="2618.41" y2="1492.38" gradientUnits="userSpaceOnUse">
      <stop offset="0" stop-color="#09005d"/>
      <stop offset="1" stop-color="#1a0f91"/>
    </linearGradient>
    <linearGradient id="linear-gradient-7" x1="2215.5" y1="2767.74" x2="2604.9" y2="1488.27" xlink:href="#linear-gradient-6"/>
    <linearGradient id="linear-gradient-8" x1="2186.15" y1="2758.8" x2="2575.55" y2="1479.34" xlink:href="#linear-gradient-6"/>
    <linearGradient id="linear-gradient-9" x1="2176.7" y1="2755.93" x2="2566.1" y2="1476.46" xlink:href="#linear-gradient-6"/>
    <linearGradient id="linear-gradient-10" x1="2175.71" y1="1035.69" x2="2085.56" y2="3487.87" gradientUnits="userSpaceOnUse">
      <stop offset="0" stop-color="#fdf53f"/>
      <stop offset="1" stop-color="#d93c65"/>
    </linearGradient>
    <linearGradient id="linear-gradient-11" x1="2334.73" y1="1897.31" x2="2400.84" y2="3997.88" xlink:href="#linear-gradient-10"/>
    <linearGradient id="linear-gradient-12" x1="1970.54" y1="1908.77" x2="2036.66" y2="4009.35" xlink:href="#linear-gradient-10"/>
    <clipPath id="clippath">
      <path class="cls-29" d="M2145,2714.82c-110.35,0-203.93-46.56-278.16-138.39-67.5-83.51-106.36-188.49-127.07-261.86-24.45-86.57-65.29-166.33-121.41-237.06-105.31-132.73-285.25-412.33-307.14-793.63-11.75-204.64,50.32-385.12,179.48-521.91,147.99-156.73,381.95-250.3,625.83-250.3,26.53,0,53.29,1.12,79.52,3.32,260.68,21.89,507.49,143.95,660.22,326.52,126.52,151.23,183.48,336.72,164.71,536.41-28.97,308.32-199,544.4-336.53,688.16-89.71,93.77-155.84,210.9-191.24,338.71-23.41,84.54-58.24,153.3-103.5,204.38-57.92,65.36-133.5,100.75-224.65,105.17-6.72,.33-13.47,.49-20.06,.49Z"/>
    </clipPath>
    <linearGradient id="linear-gradient-13" x1="1977.27" y1="2746.05" x2="2427.65" y2="2746.05" gradientTransform="translate(3686.08) rotate(-180) scale(1 -1)" xlink:href="#linear-gradient-10"/>
    <linearGradient id="linear-gradient-14" x1="13834.84" y1="2357.33" x2="13939.33" y2="2357.33" gradientTransform="translate(-13062.16)" xlink:href="#linear-gradient-6"/>
    <linearGradient id="linear-gradient-15" x1="13845.44" y1="2308.77" x2="13887.82" y2="2308.77" gradientTransform="translate(-13062.16)" gradientUnits="userSpaceOnUse">
      <stop offset="0" stop-color="#febbba"/>
      <stop offset="1" stop-color="#ff928e"/>
    </linearGradient>
    <linearGradient id="linear-gradient-16" x1="14057.06" y1="2355.66" x2="14221.01" y2="2355.66" gradientTransform="translate(-13062.16)" xlink:href="#linear-gradient-6"/>
    <linearGradient id="linear-gradient-17" x1="14059.55" y1="2289.96" x2="14101.69" y2="2289.96" xlink:href="#linear-gradient-15"/>
    <linearGradient id="linear-gradient-18" x1="13819.11" y1="1916.11" x2="14106.43" y2="1916.11" gradientTransform="translate(-13062.16)" xlink:href="#linear-gradient-6"/>
    <linearGradient id="linear-gradient-19" x1="822.39" y1="1710.33" x2="878.59" y2="1710.33" xlink:href="#linear-gradient"/>
    <linearGradient id="linear-gradient-20" x1="855.16" y1="2380.42" x2="1145.12" y2="1153.15" xlink:href="#linear-gradient"/>
    <linearGradient id="linear-gradient-21" x1="14323.55" y1="1075.17" x2="14480.18" y2="1075.17" xlink:href="#linear-gradient-15"/>
    <linearGradient id="linear-gradient-22" x1="-5401.03" y1="1308.98" x2="-4615.81" y2="1914.51" gradientTransform="translate(-4260.77) rotate(-180) scale(1 -1)" xlink:href="#linear-gradient"/>
    <linearGradient id="linear-gradient-23" x1="14696.2" y1="1090.03" x2="14357.76" y2="1511.08" xlink:href="#linear-gradient-15"/>
    <linearGradient id="linear-gradient-24" x1="14760.37" y1="1141.61" x2="14421.92" y2="1562.66" xlink:href="#linear-gradient-15"/>
    <linearGradient id="linear-gradient-25" x1="14315.45" y1="835.57" x2="13987.67" y2="1437.84" xlink:href="#linear-gradient-15"/>
    <linearGradient id="linear-gradient-26" x1="11893.93" y1="11302.64" x2="11749.07" y2="11494.28" gradientTransform="translate(-15085.59 -1428.5) rotate(-35.22)" xlink:href="#linear-gradient-15"/>
    <linearGradient id="linear-gradient-27" x1="1303.49" y1="717.71" x2="1089.95" y2="1097.58" xlink:href="#linear-gradient-6"/>
    <linearGradient id="linear-gradient-28" x1="11681.77" y1="11454.4" x2="11797.96" y2="11335.19" gradientTransform="translate(-15085.59 -1428.5) rotate(-35.22)" xlink:href="#linear-gradient-15"/>
  </defs>
  <path class="cls-3" d="M2916.9,2845.15c-72.8,75.04-137.95,119.16-187.82,152.46-486.42,324.79-1042.46,231.18-1214.37,199.18-277.36-51.62-511.49-88.04-712.65-269.78-457.1-412.97-434.86-1274.45-85.59-1808.1,41.41-63.28,390.16-580.23,947.4-653.07,13.63-1.78,23.8-2.8,32.71-3.74,86.2-9.13,620.39-57.3,1055.97,307.63,62.35,52.24,162.69,146.46,255.74,290.17,340.23,525.45,341.3,1339.26-91.38,1785.25Z"/>
  <path class="cls-13" d="M475.41,1404.27c84.57,243.32,639.23,1727.32,1613.59,1807.6,29.5,2.43,51.21-27.18,40.07-54.6-70.9-174.51-327.36-713.72-948.29-1193.14-448-345.91-631.15-511.11-691.61-568.71-6.4-6.1-16.65,.51-13.75,8.86Z"/>
  <path class="cls-29" d="M2129.86,3166.46c-2.1,.18-4.27-.35-6.12-1.65-381.53-269.18-716.91-604.75-931.09-838.86-230.09-251.52-385.73-457.58-388.07-472.57-.78-5.04,2.66-9.76,7.7-10.54,4.65-.69,9.09,2.19,10.32,6.66,14.66,32.06,587.14,788.97,1311.78,1300.22,4.17,2.94,5.16,8.7,2.22,12.86-1.63,2.31-4.13,3.65-6.75,3.88ZM822.82,1850.51s0,.01,0,.02c0,0,0-.02,0-.02Z"/>
  <g>
    <path class="cls-13" d="M2303.15,3228.93c211.86,18.7,828.05-18.95,950.22-1060.42,3.47-29.57-34.43-44.64-52.06-20.64-82.56,112.4-230.23,304.25-365.39,372.45-418.74,211.29-549.08,495.69-588.3,626.67-11.61,38.79,15.19,78.39,55.52,81.95Z"/>
    <path class="cls-29" d="M2268.65,3197.91c-.03-.07-.06-.14-.09-.21-2.38-5.89,.46-12.59,6.34-14.97,293.98-119.06,499.16-311.19,619.52-451.41,130.6-152.15,192.33-277.75,192.95-279,2.77-5.71,9.65-8.09,15.36-5.31,5.71,2.78,8.09,9.65,5.32,15.36-.62,1.28-63.34,129.03-195.67,283.34-122.08,142.35-330.27,337.42-628.84,458.34-5.81,2.35-12.42-.39-14.88-6.13Z"/>
  </g>
  <g>
    <path class="cls-27" d="M2404.89,3066.56c-1.32,90.68-117.72,187.32-252.2,187.32s-236.17-70.88-243.51-161.27c-17.51-215.62,109.02-213.37,243.51-213.37s255.47-36.8,252.2,187.32Z"/>
    <ellipse class="cls-1" cx="2163.91" cy="2961.6" rx="340.94" ry="89.11" transform="translate(-231.01 183.49) rotate(-4.61)"/>
    <ellipse class="cls-25" cx="2163.91" cy="2875.35" rx="340.94" ry="89.11" transform="translate(-224.08 183.21) rotate(-4.61)"/>
    <ellipse class="cls-32" cx="2163.91" cy="2789.1" rx="340.94" ry="89.11" transform="translate(-217.15 182.93) rotate(-4.61)"/>
    <ellipse class="cls-19" cx="2163.91" cy="2702.85" rx="340.94" ry="89.11" transform="translate(-210.22 182.65) rotate(-4.61)"/>
    <g>
      <path class="cls-10" d="M2069.9,3059.12c-55.74,0-106.74-4.1-148.88-12.17-2.45-.47-4.05-2.83-3.58-5.27,.47-2.44,2.82-4.05,5.27-3.58,65.94,12.62,154.01,15.41,248,7.83,76.9-6.2,148.82-18.6,207.98-35.87,2.39-.7,4.89,.67,5.59,3.06,.7,2.39-.67,4.89-3.06,5.59-59.74,17.43-132.28,29.95-209.78,36.2-34.91,2.82-69.03,4.21-101.53,4.21Z"/>
      <path class="cls-21" d="M2070.84,2972.8c-72.42,0-137.14-6.81-182.79-19.81-2.39-.68-3.78-3.18-3.1-5.57,.68-2.39,3.17-3.78,5.57-3.1,65.05,18.52,169.79,24.27,280.19,15.37,109.21-8.81,211.05-30.97,272.44-59.28,2.26-1.04,4.94-.06,5.98,2.21,1.04,2.26,.06,4.94-2.21,5.98-62.3,28.73-165.29,51.19-275.49,60.08-34.39,2.77-68.26,4.13-100.6,4.13Z"/>
      <path class="cls-33" d="M2069.91,2886.61c-78.2,0-146.62-8-192.68-23.19-2.37-.78-3.65-3.33-2.87-5.69,.78-2.37,3.32-3.65,5.69-2.87,64.09,21.13,172.75,28.07,290.66,18.57,109.2-8.8,211.05-30.97,272.44-59.28,2.26-1.04,4.94-.05,5.98,2.21,1.04,2.26,.06,4.94-2.21,5.98-62.31,28.73-165.3,51.2-275.49,60.08-34.92,2.82-69.07,4.19-101.52,4.19Z"/>
      <path class="cls-23" d="M2070.51,2800.32c-62.03,0-118.44-5.01-162.3-14.76-2.43-.54-3.96-2.95-3.42-5.38,.54-2.43,2.96-3.97,5.38-3.42,65.95,14.65,160.92,18.45,260.54,10.42,108.23-8.73,209.55-30.65,271.05-58.64,2.26-1.04,4.94-.03,5.97,2.24,1.03,2.26,.03,4.94-2.24,5.97-62.4,28.4-164.85,50.62-274.06,59.42-34.51,2.78-68.48,4.16-100.92,4.16Z"/>
    </g>
    <path class="cls-12" d="M1698.1,2326.33c-22.8-80.74-61.51-156.19-113.66-221.91-111.73-140.82-294.01-427.2-316.45-818.06-32.63-568.52,471.58-853.16,931.68-814.52,460.1,38.64,914.11,381.22,864.41,910.12-30.58,325.43-212.73,572.28-348.35,714.04-86.12,90.02-147.55,200.28-180.8,320.34-40.7,146.95-137.56,330.07-367.78,341.24-297.9,14.44-421.62-263.23-469.06-431.24Z"/>
    <path class="cls-11" d="M2243.25,2644.2l160.99-1047.09c3.33-21.63,13.97-36.16,23.78-32.45,9.81,3.71,15.06,24.26,11.73,45.89-.09,.58-.21,1.29-.31,1.85l-183.38,1037.36c-1.38,7.8-5.34,12.73-8.85,11-3.4-1.67-5.12-9.02-3.97-16.57Z"/>
    <path class="cls-34" d="M2076.14,2652.51l-160.99-1047.09c-3.33-21.63-13.97-36.16-23.78-32.45-9.81,3.71-15.06,24.26-11.73,45.89,.09,.58,.21,1.29,.31,1.85l183.38,1037.36c1.38,7.8,5.34,12.73,8.85,11,3.4-1.67,5.12-9.02,3.97-16.57Z"/>
    <path class="cls-2" d="M2403.09,1507.2c-4.09-6.57-13.55-9.03-21.13-5.49l-89.64,41.89-31.12-88.66c-1.65-4.63-5.46-8.73-10.9-10.97-10.31-4.25-22.64-.45-27.55,8.49l-.16,.29-73.72,134.42-68.41-191.35-.11-.32c-1.67-4.67-5.21-8.87-10.36-11.68-11.47-6.26-26.63-3.28-33.85,6.67l-103.06,141.88c-4.19,5.82-2.75,13.61,3.63,17.91,6.81,4.59,16.62,3.52,21.92-2.38l90.75-101.23,81.7,182.03,.06,.14c1.31,2.91,3.77,5.45,7.2,7.06,7.67,3.59,17.24,1.11,21.38-5.53l78.85-126.52,29.67,63.99,.26,.57c.21,.46,.46,.91,.74,1.36,4.08,6.57,13.54,9.02,21.12,5.48l106.41-49.72c7.58-3.54,10.42-11.75,6.33-18.32Z"/>
    <path class="cls-2" d="M2719.25,1945.64c-1.05,0-2.1-.32-3.01-1-2.24-1.66-2.71-4.83-1.04-7.08,27.74-37.37,53.19-76.03,75.65-114.92,1.39-2.42,4.49-3.25,6.91-1.85,2.42,1.4,3.25,4.49,1.85,6.91-22.65,39.22-48.32,78.21-76.29,115.89-.99,1.34-2.52,2.04-4.06,2.04Z"/>
    <path class="cls-2" d="M2851.69,1718.34c-.67,0-1.35-.13-2.01-.42-2.56-1.11-3.74-4.09-2.62-6.65,90.24-207.83,91.37-396.94,76.43-518.99-16.2-132.35-54.27-216.6-54.65-217.44-1.17-2.54-.05-5.54,2.49-6.7,2.55-1.16,5.54-.05,6.7,2.49,.39,.85,39.01,86.23,55.45,220.01,15.16,123.39,14.08,314.57-77.14,524.66-.83,1.91-2.69,3.04-4.64,3.04Z"/>
  </g>
  <path class="cls-13" d="M1698.1,2326.33c-22.8-80.74-61.51-156.19-113.66-221.91-111.73-140.82-294.01-427.2-316.45-818.06-32.63-568.52,471.58-853.16,931.68-814.52,460.1,38.64,914.11,381.22,864.41,910.12-30.58,325.43-212.73,572.28-348.35,714.04-86.12,90.02-147.55,200.28-180.8,320.34-40.7,146.95-137.56,330.07-367.78,341.24-297.9,14.44-421.62-263.23-469.06-431.24Z"/>
  <g>
    <path class="cls-29" d="M2145,2714.82c-110.35,0-203.93-46.56-278.16-138.39-67.5-83.51-106.36-188.49-127.07-261.86-24.45-86.57-65.29-166.33-121.41-237.06-105.31-132.73-285.25-412.33-307.14-793.63-11.75-204.64,50.32-385.12,179.48-521.91,147.99-156.73,381.95-250.3,625.83-250.3,26.53,0,53.29,1.12,79.52,3.32,260.68,21.89,507.49,143.95,660.22,326.52,126.52,151.23,183.48,336.72,164.71,536.41-28.97,308.32-199,544.4-336.53,688.16-89.71,93.77-155.84,210.9-191.24,338.71-23.41,84.54-58.24,153.3-103.5,204.38-57.92,65.36-133.5,100.75-224.65,105.17-6.72,.33-13.47,.49-20.06,.49Z"/>
    <g class="cls-20">
      <g>
        <g>
          <path class="cls-26" d="M2964.2,1398.89c11.26,17.98,23.13,43.75,20.26,69.52-5.21,46.86-77.08,67.69-140.07,41.65-44.99-18.59-25.71-79.69-11.02-113.09,4.62-10.51-3.22-22.28-14.7-22.28h-162.23v-182.74c0-15.96,16.89-26.22,31.03-18.83,16.95,8.85,39.23,18.24,62.69,21.94,49.46,7.81,98.93-46.86,93.72-98.93-5.21-52.07-54.67-91.12-106.74-88.51-18.01,.9-32.99,8.43-44.89,17.9-13.7,10.9-33.98,.52-33.98-16.98v-159.72h171.62c9.46,0,14.7-11.08,8.6-18.31-82.82-98.3,83.47-193.81,125.14-130.08,31.93,48.84,8.7,104.45-6.72,131.64-4.25,7.49,1.1,16.75,9.72,16.75h166.22v165.21c0,17.52-20.25,27.82-34,16.97-14.33-11.3-32.78-21.31-54.51-23.38-54.67-5.21-85.91,46.86-96.63,88.51-10.72,41.66,36.75,101.53,86.22,93.72,26.67-4.21,54.1-11.99,73.72-18.26,13.74-4.39,27.72,5.96,27.63,20.39l-1.13,182.71h-156.29c-12.42,0-20.25,13.67-13.65,24.2Z"/>
          <path class="cls-14" d="M2901.18,1528.2c-19.6,0-40.13-3.95-59.37-11.9-13.29-5.49-22.61-14.69-27.69-27.35-11.28-28.05,.89-66.97,13.08-94.69,1.25-2.83,.98-5.97-.73-8.59-1.75-2.69-4.6-4.23-7.8-4.23h-168.98v-189.48c0-9.88,5.04-18.83,13.48-23.95,8.43-5.11,18.69-5.43,27.42-.86,21.29,11.11,41.69,18.26,60.62,21.25,19.19,3.03,40.02-4.51,57.15-20.69,20.23-19.11,31.27-46.28,28.81-70.91-4.71-47.16-50.38-84.92-99.69-82.45-14.42,.72-28.23,6.25-41.03,16.44-8.24,6.55-19.31,7.75-28.91,3.13-9.87-4.76-16.01-14.49-16.01-25.39v-166.46h178.36c2.56,0,3.68-1.81,4.04-2.59,.36-.76,1-2.73-.6-4.63-30.81-36.57-26.92-69.63-18.24-90.91,14.79-36.25,56.67-66.54,97.41-70.46,25.24-2.44,45.38,5.84,56.77,23.26,33.61,51.4,10.36,108.93-6.49,138.65-1.16,2.05-.38,3.82,0,4.49,.39,.66,1.53,2.19,3.84,2.19h172.96v171.96c0,10.86-6.1,20.57-15.93,25.33-9.59,4.65-20.7,3.48-28.99-3.06-16.37-12.91-33.52-20.3-50.97-21.96-48.96-4.65-78.8,42.05-89.46,83.48-4.67,18.15,3.35,42.01,20.42,60.79,16.81,18.49,38.57,27.69,58.21,24.58,26.71-4.22,54.29-12.13,72.71-18.02,8.6-2.76,17.72-1.26,25,4.09,7.32,5.38,11.48,13.67,11.43,22.76l-1.17,189.41h-162.99c-3.42,0-6.47,1.8-8.14,4.82-.77,1.39-2.3,5.06,.2,9.05,11.41,18.22,24.36,45.82,21.25,73.85-2,17.99-13,33.76-30.99,44.4-16.46,9.74-37.15,14.64-58.99,14.64Zm-238-160.25h155.49c7.73,0,14.87,3.87,19.09,10.35,4.18,6.42,4.85,14.41,1.78,21.4-9.13,20.75-22.94,59.28-12.91,84.22,3.73,9.29,10.38,15.81,20.33,19.92,36.33,15.01,79.06,14.25,106.34-1.88,10.08-5.96,22.5-16.75,24.45-34.28,2.68-24.17-9-48.79-19.28-65.2h0c-4.37-6.98-4.59-15.49-.57-22.74,4.02-7.27,11.66-11.78,19.94-11.78h149.59l1.08-176.01c.03-4.72-2.13-9.02-5.92-11.8-3.76-2.77-8.47-3.53-12.91-2.11-18.88,6.04-47.16,14.14-74.72,18.49-24.11,3.82-50.42-6.96-70.29-28.83-20.05-22.06-29.27-50.8-23.5-73.23,11.99-46.58,46.47-99.01,103.8-93.55,20.08,1.91,39.61,10.26,58.05,24.8,4.27,3.37,9.78,3.93,14.76,1.52,4.02-1.95,8.32-6.44,8.32-13.2v-158.47h-159.47c-6.46,0-12.26-3.33-15.5-8.89-3.25-5.58-3.28-12.29-.08-17.93,15.34-27.05,36.63-79.21,6.94-124.62-11.49-17.57-32.62-18.33-44.19-17.22-36.12,3.47-73.18,30.18-86.22,62.13-10.44,25.59-4.88,52.26,16.07,77.13,4.51,5.36,5.48,12.64,2.51,19.01-2.98,6.41-9.22,10.39-16.27,10.39h-164.88v152.98c0,6.78,4.33,11.28,8.38,13.24,4.96,2.38,10.44,1.82,14.65-1.54,15.06-11.98,31.46-18.49,48.76-19.35,57.19-2.85,108.28,39.56,113.78,94.57,2.87,28.7-9.76,60.14-32.97,82.05-20.19,19.07-45.17,27.89-68.51,24.21-20.38-3.22-42.17-10.83-64.76-22.62-4.51-2.37-9.83-2.2-14.19,.44-4.37,2.65-6.98,7.29-6.98,12.41v175.99Z"/>
        </g>
        <g>
          <path class="cls-26" d="M2956.92,832.07c15.42-27.19,38.65-82.8,6.72-131.64-41.67-63.73-207.96,31.78-125.14,130.08,6.09,7.23,.86,18.31-8.6,18.31h-171.62v-184.84c0-15.64-16.29-25.91-30.4-19.16-19.85,9.5-47.26,20.32-75.57,24.37-54.67,7.81-87.14-54.67-80.02-106.74,7.12-52.07,69.6-83.31,100.84-78.1,14.51,2.42,33.79,15.1,50.29,27.99,13.98,10.92,34.37,1.05,34.37-16.69v-180.52h165.8c13.6,0,21.29-15.57,13.05-26.39-34.67-45.55-19.39-102.14,28.07-119.4,57.27-20.83,109.34-5.21,117.15,54.67,7.81,59.88-35.68,91.12-35.68,91.12h181.87l-6.55,181.32c-.62,17.27,18.44,27.94,32.9,18.49,18.48-12.08,42.9-24.35,69.58-27.99,57.27-7.81,109.34,39.05,109.34,88.52s-44.26,109.34-114.55,96.32c-25.52-4.73-43.84-10.38-56.81-15.67-13.92-5.67-29.1,4.69-29.1,19.72v172.98h-166.22c-8.62,0-13.97-9.26-9.72-16.75Z"/>
          <path class="cls-14" d="M3139.59,855.56h-172.96c-6.46,0-12.26-3.33-15.5-8.89-3.25-5.58-3.28-12.29-.09-17.93h0c15.34-27.05,36.63-79.21,6.94-124.62-11.49-17.57-32.62-18.33-44.19-17.22-36.12,3.47-73.18,30.18-86.22,62.13-10.44,25.59-4.88,52.26,16.07,77.13,4.51,5.36,5.48,12.64,2.51,19.01-2.98,6.41-9.22,10.39-16.27,10.39h-178.36v-191.58c0-5.09-2.47-9.57-6.76-12.27-4.3-2.71-9.4-3-13.98-.8-18.88,9.03-47.65,20.7-77.53,24.96-21.93,3.13-42.1-3.73-58.33-19.85-22.24-22.11-34.03-60.08-29.33-94.47,3.21-23.48,17.33-45.5,39.74-62.01,22.06-16.25,49.74-25.02,68.89-21.83,13.33,2.22,31.27,12.09,53.33,29.33,4.5,3.52,10.25,4.13,15.36,1.64,5.08-2.48,8.11-7.34,8.11-13.01v-187.27h172.55c3.76,0,7-2.01,8.66-5.37,1.67-3.38,1.31-7.19-.98-10.19-18.5-24.31-24.72-53.22-17.06-79.32,6.89-23.47,24.46-41.88,48.19-50.51,35.62-12.95,68.17-12.21,91.67,2.08,19.11,11.62,31.03,31.69,34.47,58.06,5.45,41.75-12.27,70.29-25.46,85.25h171.95l-6.8,188.31c-.2,5.52,2.54,10.42,7.32,13.12,4.83,2.72,10.48,2.53,15.15-.52,24.57-16.06,48.92-25.83,72.35-29.03,29.46-4.02,59.72,5.35,83.04,25.7,21.58,18.84,33.96,44.17,33.96,69.5,0,30.52-15.08,62.03-39.37,82.22-16.21,13.48-43.78,28.01-83.15,20.73-22.79-4.22-42.35-9.63-58.13-16.06-4.48-1.81-9.35-1.32-13.38,1.39-4.09,2.75-6.43,7.15-6.43,12.09v179.72Zm-218.64-182.5c21.27,0,38.24,8.24,48.33,23.67,33.61,51.4,10.36,108.93-6.49,138.65h0c-1.16,2.05-.38,3.82,0,4.49,.39,.66,1.53,2.19,3.84,2.19h159.47v-166.23c0-9.36,4.63-18.06,12.39-23.28,7.7-5.18,17.41-6.18,26-2.69,14.93,6.09,33.6,11.23,55.49,15.29,34.21,6.33,58.08-6.2,72.07-17.84,20.96-17.43,34.51-45.64,34.51-71.85,0-21.43-10.69-43.06-29.34-59.34-20.38-17.78-46.76-25.99-72.34-22.5-21.44,2.92-43.91,11.99-66.8,26.95-8.83,5.78-20.01,6.15-29.16,.97-9.12-5.15-14.55-14.86-14.17-25.35l6.3-174.33h-195.82l17.01-12.22c1.63-1.18,40.09-29.82,32.93-84.77-2.93-22.49-12.39-38.73-28.1-48.28-19.65-11.95-48.84-12.28-80.06-.93-19.66,7.15-34.18,22.32-39.86,41.63-6.44,21.94-1.03,46.48,14.85,67.34,5.38,7.07,6.28,16.39,2.33,24.35-3.93,7.94-11.88,12.87-20.75,12.87h-159.06v173.78c0,10.78-6.01,20.41-15.69,25.13-9.71,4.74-21.04,3.54-29.58-3.13-19.98-15.62-36.32-24.83-47.25-26.65-15.52-2.58-39.67,5.38-58.68,19.38-19.45,14.33-31.66,33.14-34.37,52.98-4.16,30.41,6.08,63.8,25.47,83.08,9.14,9.08,24.7,19.24,46.91,16.07,28.19-4.03,55.59-15.16,73.62-23.78,8.73-4.17,18.82-3.6,26.99,1.55,8.18,5.15,13.06,14.01,13.06,23.69v178.1h164.88c2.56,0,3.68-1.81,4.04-2.59,.36-.76,1-2.73-.6-4.63-30.81-36.57-26.92-69.63-18.24-90.91,14.79-36.25,56.67-66.54,97.41-70.46,2.88-.28,5.7-.41,8.45-.41Z"/>
        </g>
        <g>
          <path class="cls-26" d="M2977.71,1838.76c15.93-28.41,18.54-69.15-55.73-104.8-107.17-51.44-128.94,45.34-101.61,107.3,6.92,15.69-4.71,33.28-21.86,33.28h-142.06v-153.03c0-15.15-15.44-25.72-29.38-19.8-15.46,6.57-36.55,12.86-62.14,14.03-56.86,2.6-100.15-44.26-91.53-109.34,8.63-65.09,63.99-80.71,90.98-72.9,14.09,4.08,38.57,19.71,58.74,33.73,14.08,9.78,33.34-.31,33.34-17.46v-175.07h162.23c11.48,0,19.32,11.78,14.7,22.28-14.69,33.4-33.97,94.49,11.02,113.09,62.99,26.03,134.86,5.21,140.07-41.65,2.86-25.77-9-51.55-20.26-69.52-6.59-10.53,1.24-24.2,13.65-24.2h156.29l-.98,159.03c-.12,19.11-21.43,29.96-37.3,19.31-14.77-9.91-32.73-18.49-51.53-19.54-46.86-2.6-93.72,33.85-96.47,80.71-2.75,46.86,31.39,106.74,83.46,104.13,24.61-1.23,49.8-14.09,69.53-27.32,15.83-10.61,37.03,.78,36.91,19.83l-.98,163.69h-138.45c-18.38,0-29.61-19.76-20.62-35.79Z"/>
          <path class="cls-14" d="M3143.48,1881.28h-145.15c-10.94,0-20.77-5.62-26.28-15.03-5.59-9.55-5.68-21.07-.22-30.8,8.27-14.74,10.35-28.91,6.17-42.11-6.18-19.57-26.01-37.51-58.94-53.31-37.68-18.08-66.99-18.52-84.8-1.28-22.69,21.97-21.75,67.99-7.72,99.79,4.15,9.41,3.27,20.19-2.36,28.83-5.68,8.71-15.27,13.91-25.67,13.91h-148.81v-159.78c0-4.96-2.48-9.56-6.63-12.31-4.07-2.69-8.95-3.17-13.37-1.28-20.33,8.63-42.02,13.53-64.47,14.56-28.95,1.31-55.19-9.17-73.89-29.55-20.4-22.24-29.15-53.29-24.63-87.42,4.97-37.48,24.14-57.2,39.36-67.14,18.54-12.11,42.16-16.57,60.18-11.35,12.29,3.56,32.72,15.22,60.71,34.66,4.51,3.13,10.1,3.48,14.97,.94,4.87-2.55,7.78-7.36,7.78-12.86v-181.82h168.98c7.73,0,14.87,3.87,19.09,10.35,4.19,6.42,4.85,14.41,1.78,21.4-9.13,20.75-22.94,59.28-12.91,84.22,3.73,9.29,10.38,15.81,20.33,19.92,36.33,15.01,79.06,14.25,106.34-1.88,10.08-5.96,22.5-16.75,24.45-34.28,2.68-24.17-9-48.79-19.28-65.2-4.37-6.98-4.59-15.49-.57-22.74,4.02-7.26,11.66-11.78,19.94-11.78h163.08l-1.02,165.82c-.07,11.36-6.08,21.31-16.07,26.6-10.04,5.32-22.2,4.66-31.72-1.73-16.97-11.38-33.17-17.58-48.14-18.41-44.32-2.47-86.93,32.98-89.37,74.37-1.59,27.02,10.12,58.06,29.13,77.23,9.54,9.62,25.41,20.83,47.27,19.77,19.12-.95,41.98-10.01,66.11-26.18,9.4-6.31,21.43-6.9,31.38-1.55,9.96,5.35,16.1,15.7,16.03,27.02l-1.02,170.39Zm-275.39-168.66c15.04,0,33.71,4.18,56.8,15.26,36.42,17.48,58.62,38.14,65.97,61.41,5.34,16.89,2.89,34.64-7.27,52.77h0c-3.09,5.51-3.05,12.01,.1,17.38,3.11,5.31,8.45,8.36,14.64,8.36h131.74l.94-156.98c.04-6.41-3.3-12.03-8.92-15.06-5.63-3.03-12.17-2.7-17.49,.87-26.53,17.79-51.08,27.36-72.95,28.45-21.2,1.09-41.07-7.15-57.51-23.74-21.88-22.07-34.84-56.43-33.01-87.52,2.89-49.27,51.32-89.96,103.58-87.04,17.43,.97,35.9,7.92,54.91,20.67,5.47,3.67,12.17,4.05,17.9,1.01,5.53-2.93,8.86-8.45,8.9-14.76l.94-152.25h-149.51c-3.42,0-6.47,1.8-8.14,4.82-.77,1.39-2.3,5.06,.2,9.05,11.41,18.22,24.36,45.82,21.25,73.85-2,17.99-13,33.76-30.99,44.4-31.23,18.47-77.69,19.54-118.36,2.74-13.29-5.49-22.61-14.69-27.69-27.35-11.28-28.05,.89-66.97,13.08-94.69,1.25-2.83,.98-5.97-.73-8.59-1.75-2.69-4.6-4.23-7.8-4.23h-155.49v168.33c0,10.46-5.76,19.97-15.02,24.81-9.25,4.84-20.33,4.15-28.91-1.81-26.41-18.34-46.04-29.68-56.77-32.79-11.79-3.41-31.55-1.75-49.05,9.69-12.85,8.4-29.07,25.21-33.37,57.62-3.99,30.1,3.54,57.28,21.2,76.53,15.94,17.38,38.42,26.31,63.33,25.19,20.85-.95,40.97-5.5,59.82-13.5,8.54-3.62,18.29-2.71,26.08,2.45,7.94,5.26,12.68,14.06,12.68,23.56v146.29h135.32c5.82,0,11.19-2.91,14.37-7.79,3.18-4.88,3.66-10.72,1.32-16.03-15.67-35.52-17.25-87.88,10.68-114.92,8.94-8.66,22.7-16.44,43.22-16.44Z"/>
        </g>
        <g>
          <path class="cls-26" d="M1899.97,1336.74c-22.17-32.19-43.84-89.4,36.64-133.14,41.93-22.78,93.72,12.94,99.58,75.43,2.9,30.94-4.11,53.73-11.92,68.87-5.4,10.46,2.51,22.9,14.29,22.9h154.34v170.19c0,16.89,18.31,27.42,32.94,18.97,101.14-58.45,144.06,35.85,142.29,59.46-1.94,26.03-16.28,106.74-76.16,106.74-27.13,0-50.07-8.01-67.06-16.78-14.76-7.62-32.34,2.73-32.34,19.34v146.64h-147.55c-16.67,0-28.28,16.67-22.32,32.24,8.51,22.22,16.9,53.62,14.14,86.71-5.21,62.48-92.74,78.1-137.49,41.65-33.04-26.91-9.17-76.75,9.52-114.53,7.77-15.7-3.97-34.06-21.49-34.06h-178.57v-183.34c0-15.4-16.85-24.87-29.97-16.8-16.31,10.04-37.43,20.93-58.54,25.9-44.26,10.41-75.72-46.86-78.21-93.72-2.49-46.86,31.35-80.7,86.02-83.31,20.63-.98,37.18,5.82,49.8,14.67,13.03,9.14,30.91-.22,30.91-16.14v-173.1h177.97c12.76,0,20.42-14.29,13.19-24.8Z"/>
          <path class="cls-14" d="M1957.88,2062.11c-23.07,0-45.95-7.22-62.78-20.93-37.78-30.77-10.38-86.12,7.74-122.74,2.6-5.25,2.3-11.15-.83-16.18-3.17-5.1-8.63-8.15-14.62-8.15h-185.31v-190.08c0-4.77-2.48-9.01-6.64-11.33-4.14-2.31-9.02-2.2-13.05,.28-21.79,13.41-42.16,22.4-60.53,26.72-15.47,3.63-30.84,.18-44.43-10.01-22.86-17.14-40.15-54.11-42.06-89.92-1.23-23.21,5.75-43.92,20.19-59.89,16.49-18.24,42.15-29.08,72.24-30.51,19.46-.9,37.65,4.42,53.99,15.88,4,2.81,8.98,3.14,13.32,.89,4.37-2.27,6.98-6.57,6.98-11.51v-179.85h184.71c3.49,0,6.54-1.85,8.17-4.94,1.59-3.02,1.39-6.5-.54-9.29h0c-12.93-18.78-26.82-47.53-19.56-77.84,6.07-25.35,25.76-47.23,58.54-65.04,19.06-10.36,41.36-10.23,61.19,.34,26.88,14.33,44.95,44.38,48.33,80.38,3.15,33.65-5.13,58.05-12.64,72.59-1.42,2.76-1.29,5.88,.35,8.58,1.71,2.81,4.68,4.48,7.95,4.48h161.08v176.93c0,5.48,2.84,10.39,7.59,13.13,4.77,2.75,10.46,2.75,15.23,0,51.44-29.72,87.15-20.32,108.05-7.19,31.67,19.89,45.5,57.52,44.34,72.99-3.13,41.96-24.12,112.98-82.88,112.98-24.01,0-47.61-5.9-70.16-17.53-4.93-2.55-10.65-2.36-15.3,.47-4.57,2.79-7.2,7.48-7.2,12.87v153.38h-154.29c-5.74,0-10.9,2.71-14.15,7.43-3.21,4.67-3.9,10.38-1.88,15.65,8.25,21.57,17.48,54.64,14.56,89.68-2.2,26.4-18.56,47.97-44.89,59.17-12.8,5.44-26.83,8.08-40.79,8.08Zm-242.32-181.48h171.82c10.68,0,20.43,5.43,26.08,14.52,5.55,8.95,6.1,19.89,1.46,29.27-21.47,43.39-38.49,84.17-11.31,106.31,22.93,18.68,60.69,23.26,89.78,10.89,12.68-5.39,34.31-18.78,36.73-47.87,2.71-32.5-5.97-63.47-13.72-83.74-3.58-9.35-2.32-19.86,3.36-28.12,5.72-8.31,15.16-13.28,25.26-13.28h140.8v-139.9c0-10.06,5.11-19.18,13.67-24.39,8.71-5.31,19.37-5.66,28.5-.94,20.61,10.64,42.14,16.03,63.98,16.03,61.22,0,69.12-96.39,69.43-100.5,.72-9.64-9.89-42.88-38.07-60.57-25.83-16.22-57.5-13.71-94.13,7.44-8.99,5.2-19.72,5.2-28.72,0-8.98-5.18-14.34-14.45-14.34-24.81v-163.45h-147.59c-8.01,0-15.29-4.1-19.46-10.95-4.09-6.71-4.39-14.86-.82-21.79,6.68-12.94,14.05-34.74,11.19-65.14-2.95-31.47-18.37-57.54-41.24-69.74-15.99-8.52-33.18-8.66-48.4-.39-29.27,15.9-46.73,34.86-51.87,56.33-6.1,25.49,6.18,50.53,17.56,67.05h0c4.74,6.9,5.27,15.79,1.36,23.22-3.94,7.49-11.64,12.15-20.1,12.15h-171.22v166.36c0,9.91-5.46,18.91-14.24,23.47-8.75,4.54-19.21,3.86-27.28-1.81-13.84-9.71-29.17-14.26-45.61-13.45-26.86,1.28-48.61,10.3-62.88,26.08-11.98,13.25-17.77,30.59-16.73,50.13,1.71,32.1,16.79,64.94,36.68,79.85,10.44,7.82,21.63,10.41,33.25,7.67,16.73-3.93,36.29-12.61,56.56-25.08,8.25-5.08,18.24-5.29,26.7-.57,8.48,4.74,13.55,13.38,13.55,23.1v176.59Z"/>
        </g>
        <g>
          <path class="cls-26" d="M2493.62,1350.34c11.31-17.85,20.71-45.62,10.52-83.68-19.53-72.9-85.91-68.99-118.45-54.67-27.41,12.06-59.44,83.23-22.96,133.38,7.71,10.6,.4,25.43-12.7,25.43h-157.13v-184.24c0-16.26-17.05-26.97-31.59-19.7-15.86,7.92-37.52,15.55-64.59,17.81-62.48,5.21-92.1-49.47-89-104.13,2.68-47.42,71.58-106.58,145.87-55.21,14.47,10.01,34.25-.53,34.25-18.13v-162.64h192.65c-59.88,50.38-44.26,124.04,15.62,152.68,59.88,28.64,114.55,5.21,119.75-59.88,2.68-33.51-9.21-55.98-21.37-69.89-6.37-7.29-1.34-18.62,8.34-18.62h155.45v159.72c0,17.51,20.27,27.88,33.98,16.98,11.9-9.47,26.89-17,44.89-17.9,52.07-2.6,101.53,36.45,106.74,88.51,5.21,52.07-44.26,106.74-93.72,98.93-23.45-3.7-45.74-13.09-62.69-21.94-14.14-7.39-31.03,2.88-31.03,18.83v182.74h-149.36c-12.53,0-20.16-13.78-13.45-24.36Z"/>
          <path class="cls-14" d="M2663.18,1381.44h-156.11c-8.4,0-15.82-4.39-19.86-11.73-4.03-7.32-3.76-15.92,.71-22.98h0c9.84-15.52,19.51-41.71,9.7-78.32-6.67-24.91-19.54-42.08-38.24-51.06-24.41-11.71-53.5-6.88-70.99,.81-10.54,4.64-24.78,22.57-31.61,47.87-4.39,16.26-8.75,47.68,11.39,75.36,5.11,7.03,5.85,16.17,1.94,23.85-3.86,7.58-11.56,12.28-20.09,12.28h-163.88v-190.99c0-5.33-2.71-10.19-7.24-12.99-4.53-2.8-9.85-3.05-14.6-.68-20.58,10.28-43.13,16.51-67.04,18.5-26.19,2.2-49.06-5.49-66.18-22.16-20.86-20.32-32.12-53.61-30.11-89.07,1.58-27.87,23.24-57.38,52.68-71.77,19.1-9.33,57.96-20.27,103.75,11.4,4.65,3.22,10.44,3.56,15.49,.92,5.13-2.69,8.19-7.73,8.19-13.5v-169.39h217.88l-14.15,11.9c-26.06,21.93-38.44,49.51-34.86,77.65,3.42,26.89,21.76,50.74,49.05,63.79,29.14,13.94,57.74,15.09,78.46,3.15,18.56-10.68,29.51-30.57,31.66-57.49,2.06-25.75-4.58-47.59-19.73-64.92-4.73-5.42-5.84-12.82-2.88-19.33,2.93-6.46,9.18-10.47,16.31-10.47h162.19v166.46c0,6.78,4.33,11.28,8.38,13.24,4.97,2.39,10.44,1.82,14.65-1.54,15.06-11.98,31.46-18.49,48.76-19.35,57.19-2.85,108.28,39.56,113.78,94.57,2.87,28.7-9.77,60.14-32.97,82.05-20.19,19.07-45.17,27.89-68.51,24.21-20.38-3.22-42.17-10.83-64.76-22.62-4.51-2.37-9.83-2.2-14.19,.44-4.37,2.65-6.98,7.29-6.98,12.41v189.48Zm-163.86-27.5c-1.81,2.85-1.92,6.32-.29,9.27,1.64,2.97,4.65,4.74,8.05,4.74h142.62v-175.99c0-9.88,5.04-18.83,13.48-23.95,8.43-5.11,18.69-5.43,27.42-.86,21.29,11.11,41.69,18.26,60.62,21.25,19.19,3.03,40.02-4.51,57.15-20.69,20.23-19.11,31.27-46.28,28.81-70.91-4.71-47.16-50.38-84.92-99.69-82.45-14.42,.72-28.23,6.25-41.03,16.44-8.24,6.55-19.31,7.75-28.91,3.13-9.87-4.76-16.01-14.49-16.01-25.39v-152.98h-148.7c-2.58,0-3.67,1.79-4.02,2.56-.36,.79-1.01,2.86,.76,4.88,12.12,13.87,25.96,38.11,23.02,74.87-2.49,31.1-16.12,55.29-38.38,68.1-24.64,14.18-57.8,13.21-91.01-2.67-31.44-15.04-52.6-42.8-56.61-74.25-3.49-27.39,6.3-55,27.12-77.77h-169.13v155.9c0,10.71-5.91,20.46-15.41,25.45-9.43,4.95-20.7,4.26-29.42-1.77-40.13-27.75-73.71-18.41-90.16-10.37-25.26,12.35-43.82,37.19-45.14,60.42-1.79,31.62,7.95,61.02,26.06,78.65,14.45,14.07,33.19,20.26,55.65,18.39,22.19-1.85,43.1-7.61,62.13-17.12,8.89-4.44,19.25-3.96,27.72,1.27,8.53,5.28,13.63,14.42,13.63,24.46v177.5h150.39c5.03,0,7.32-3.44,8.07-4.92,1.62-3.19,1.32-6.86-.83-9.8-23.44-32.22-18.52-68.22-13.5-86.81,7.23-26.78,22.98-49.57,39.2-56.71,20.1-8.84,53.71-14.31,82.25-.63,22.41,10.75,37.7,30.85,45.43,59.72,11.07,41.33-.05,71.23-11.34,89.03h0Z"/>
        </g>
        <g>
          <path class="cls-26" d="M1908.87,1921.42c-18.69,37.78-42.56,87.61-9.52,114.53,44.75,36.45,132.28,20.83,137.49-41.65,2.76-33.09-5.64-64.49-14.14-86.71-5.96-15.57,5.64-32.24,22.32-32.24h147.55v181.07c0,16.86,18.14,27.29,32.83,19.03,67.92-38.19,150.97-32.45,142.07,85.46-7.5,99.43-92.07,77.19-138.74,57-14.42-6.24-30.48,4.52-30.48,20.23v168.86h-153.4c-15.52,0-25.41-16.52-18.08-30.21,12.15-22.7,24.03-54.27,15.29-80.51-15.62-46.86-108.36-46.86-142.7-15.62-22.09,20.1-6.25,66.68,7.85,97.33,6.26,13.61-3.67,29.08-18.65,29.08h-179.74v-165.12c0-15.28-16.5-24.56-29.74-16.94-15.98,9.21-37.81,18.01-63.98,19.2-57.27,2.6-73.11-83.31-73-119.75,.1-32.82,46.54-105.74,135.61-43.92,13.14,9.12,31.11-.04,31.11-16.03v-177.15h178.57c17.52,0,29.26,18.36,21.49,34.06Z"/>
          <path class="cls-14" d="M1888.55,2413.82h-186.48v-171.86c0-4.73-2.33-8.78-6.39-11.14-4.11-2.38-9.06-2.36-13.24,.04-21.31,12.28-43.87,19.04-67.04,20.09-16.26,.7-30.7-4.8-42.87-16.46-29.59-28.36-37.26-84.39-37.19-110.05,.07-21.6,16.29-52.37,43.33-66.46,20.41-10.65,54.83-16.32,102.87,17.03,4.14,2.87,9.24,3.2,13.65,.89,4.3-2.25,6.87-6.51,6.87-11.39v-183.89h185.31c10.68,0,20.43,5.43,26.08,14.52,5.55,8.95,6.1,19.89,1.46,29.27h0c-21.47,43.39-38.49,84.17-11.31,106.31,22.93,18.68,60.69,23.26,89.78,10.89,12.68-5.39,34.31-18.78,36.73-47.87,2.71-32.5-5.97-63.47-13.72-83.74-3.58-9.35-2.32-19.86,3.36-28.12,5.72-8.31,15.16-13.28,25.26-13.28h154.29v187.82c0,5.44,2.79,10.32,7.47,13.06,4.75,2.78,10.48,2.82,15.31,.1,44.29-24.91,87.89-28.85,116.62-10.55,18.81,11.97,40.23,39.46,35.47,102.4-2.59,34.35-14.39,58.1-35.07,70.6-32.68,19.75-79.53,6.59-113.07-7.92-4.7-2.03-9.85-1.57-14.15,1.25-4.33,2.84-6.91,7.62-6.91,12.79v175.6h-160.15c-9.68,0-18.43-4.95-23.39-13.24-4.97-8.3-5.21-18.35-.64-26.89,11.22-20.96,22.89-51.02,14.83-75.2-4.56-13.7-17.98-24.08-37.77-29.25-32.5-8.48-74.67-1.09-93.99,16.49-19.47,17.72-2.45,63.69,9.44,89.52,3.9,8.49,3.23,18.24-1.8,26.09-5.03,7.86-13.62,12.55-22.97,12.55Zm-172.99-13.49h172.99c4.8,0,9.03-2.31,11.61-6.34,2.58-4.02,2.91-8.83,.91-13.18-16.4-35.64-30.79-82.81-6.26-105.13,22.68-20.63,69.45-29.23,106.47-19.56,24.35,6.36,41.1,19.86,47.16,38.03,9.58,28.73-3.27,62.53-15.74,85.82-2.31,4.32-2.2,9.4,.32,13.6,2.51,4.19,6.93,6.69,11.82,6.69h146.66v-162.12c0-9.72,4.86-18.72,12.99-24.06,8.05-5.28,18.11-6.16,26.91-2.36,25.08,10.85,71.52,26.42,100.74,8.76,16.73-10.11,26.35-30.32,28.6-60.07,3.36-44.55-6.76-75.68-29.27-90.01-24.11-15.35-63.49-11.16-102.77,10.93-9.05,5.09-19.8,5.02-28.73-.21-8.86-5.18-14.15-14.41-14.15-24.69v-174.33h-140.8c-5.74,0-10.9,2.71-14.15,7.43-3.21,4.67-3.9,10.38-1.88,15.65,8.25,21.57,17.48,54.64,14.56,89.68-2.2,26.4-18.56,47.97-44.89,59.17-33.97,14.44-76.56,9.16-103.58-12.84-37.78-30.77-10.38-86.12,7.74-122.74h0c2.6-5.25,2.3-11.15-.83-16.18-3.17-5.1-8.63-8.15-14.62-8.15h-171.82v170.41c0,9.99-5.27,18.72-14.1,23.34-8.81,4.61-19.39,3.93-27.6-1.76-33.65-23.35-64.4-28.94-88.95-16.15-24.54,12.79-36.03,40.11-36.08,54.54-.08,27.5,8.65,76.9,33.03,100.27,9.53,9.13,20.33,13.32,32.92,12.72,21-.95,41.5-7.11,60.92-18.3,8.39-4.84,18.39-4.85,26.72-.03,8.22,4.75,13.13,13.28,13.13,22.81v158.37Z"/>
        </g>
        <g>
          <path class="cls-26" d="M1428.42,1385.95c-17.71,28.08-37.26,74.57-1.42,107.85,54.67,50.77,134.72,21.48,144.49-37.1,4.94-29.63-5.11-53.63-16.25-70.12-7.22-10.68,.13-25.05,13.02-25.05h140.56v173.1c0,15.92-17.88,25.28-30.91,16.14-12.62-8.85-29.17-15.65-49.8-14.67-54.67,2.6-88.51,36.45-86.02,83.31,2.49,46.86,33.95,104.14,78.21,93.72,21.12-4.97,42.23-15.86,58.54-25.9,13.12-8.07,29.97,1.39,29.97,16.8v183.34h-132.77c-18.41,0-29.94-19.98-20.58-35.84,10.1-17.12,16.18-40.56,7.57-70.71-20.83-72.89-104.13-62.48-145.79-15.62-23.06,25.95-11.77,60.61,2.9,86.38,9.09,15.97-2.25,35.78-20.63,35.78h-152.76v-181.78c0-12.54,13.15-20.79,24.38-15.22,20.21,10.03,50.85,22.39,83.62,25.37,57.27,5.21,67.81-67.69,70.35-114.55,2.3-42.34-67.6-108.05-151.2-45.46-11.21,8.39-27.18,.54-27.18-13.46v-180.74h168.26c12.56,0,20.13,13.8,13.43,24.42Z"/>
          <path class="cls-14" d="M1715.56,1894.11h-139.51c-11.13,0-21.08-5.77-26.59-15.44-5.49-9.61-5.42-21.04,.2-30.56,11.44-19.39,13.76-41.41,6.89-65.43-7.18-25.13-22.74-41.09-44.99-46.16-29.27-6.68-65.99,6.96-89.28,33.17-20.66,23.24-9.38,55.56,3.72,78.57,5.5,9.66,5.46,21.14-.1,30.7-5.52,9.49-15.39,15.16-26.39,15.16h-159.5v-188.52c0-8.27,4.19-15.81,11.22-20.16,6.98-4.34,15.54-4.74,22.9-1.09,19.49,9.67,49.4,21.8,81.24,24.69,12.99,1.2,23.56-1.97,32.41-9.62,17.59-15.21,27.88-48.37,30.6-98.58,.88-16.25-12.1-40.96-37.89-54.76-17.95-9.61-55.15-20.42-102.53,15.06-7.29,5.45-16.84,6.32-24.94,2.26-8.04-4.02-13.03-12.11-13.03-21.12v-187.48h175c8.38,0,15.79,4.37,19.83,11.69,4.05,7.34,3.79,15.96-.69,23.07-18.45,29.24-33.86,70.21-2.53,99.3,24.25,22.52,56.3,29.96,85.74,19.93,25.27-8.62,43.48-29,47.51-53.19,3.79-22.76-1.32-44.71-15.19-65.24-4.79-7.09-5.29-16.14-1.31-23.63,3.97-7.47,11.42-11.93,19.92-11.93h147.3v179.85c0,9.91-5.46,18.91-14.24,23.47-8.75,4.55-19.21,3.86-27.28-1.81-13.84-9.71-29.17-14.26-45.61-13.45-26.86,1.28-48.61,10.3-62.88,26.08-11.98,13.25-17.77,30.59-16.73,50.13,1.71,32.1,16.79,64.94,36.68,79.85,10.44,7.82,21.63,10.41,33.25,7.67,16.73-3.93,36.29-12.61,56.56-25.08,8.25-5.08,18.24-5.29,26.7-.57,8.48,4.74,13.55,13.38,13.55,23.1v190.08Zm-219.18-172.72c6.22,0,12.31,.64,18.17,1.98,26.95,6.14,46.47,25.89,54.96,55.6,7.92,27.73,5.15,53.29-8.24,75.99-3.13,5.3-3.17,11.67-.11,17.02,3.09,5.41,8.66,8.64,14.89,8.64h126.03v-176.59c0-4.77-2.48-9.01-6.64-11.33-4.14-2.31-9.02-2.2-13.05,.28-21.79,13.41-42.16,22.4-60.53,26.72-15.47,3.63-30.84,.18-44.43-10.01-22.86-17.14-40.15-54.11-42.06-89.92-1.23-23.21,5.75-43.92,20.19-59.89,16.49-18.24,42.15-29.08,72.24-30.51,19.46-.9,37.65,4.42,53.99,15.89,4,2.8,8.98,3.13,13.32,.89,4.37-2.27,6.98-6.57,6.98-11.51v-166.36h-133.81c-4.94,0-7.24,3.34-8.01,4.77-1.66,3.12-1.44,6.77,.58,9.76,15.65,23.16,21.63,49.1,17.31,75.01-4.85,29.09-26.48,53.51-56.46,63.73-34.21,11.67-71.32,3.14-99.27-22.8-29.73-27.61-29.63-68.94,.3-116.39,1.82-2.89,1.93-6.39,.29-9.36-1.63-2.96-4.63-4.72-8.02-4.72h-161.52v173.99c0,3.92,2.09,7.31,5.58,9.06,3.57,1.78,7.61,1.42,10.82-.99,38.97-29.19,81.61-35.07,116.98-16.16,27.39,14.65,46.32,42.99,44.99,67.38-2.97,54.77-14.5,90.11-35.25,108.05-11.6,10.03-25.89,14.34-42.45,12.85-33.91-3.09-65.49-15.86-86.01-26.04-3.2-1.59-6.77-1.41-9.8,.47-3.08,1.91-4.84,5.08-4.84,8.71v175.03h146.02c6.15,0,11.66-3.16,14.73-8.45,3.12-5.36,3.13-11.81,.04-17.25-21.92-38.5-22.64-71.07-2.08-94.2,21.85-24.57,54.42-39.33,84.19-39.33Z"/>
        </g>
        <g>
          <path class="cls-35" d="M1411.38,2436.32c-17.37,36.87-16.46,96.5,5.86,115.1,31.24,26.03,157.39,40.96,156.2-41.66-.47-32.45-9-55.26-19.2-70.98-8.87-13.69,.85-31.71,17.17-31.71h137.4v177.66c0,16.1-18.21,25.38-31.25,15.94-16.15-11.68-36.27-23.38-54.66-25.83-39.05-5.21-83.31,41.65-80.7,91.12,2.6,49.46,23.43,106.74,75.5,101.53,23.52-2.35,44.38-12.67,60.18-23.28,13.21-8.86,30.93,.27,30.93,16.18v175.22h-145.79s71.94,136.47-21.31,146.89c-84.96,9.49-139.83-3.44-111.59-112.27,4.54-17.49-8.58-34.62-26.66-34.62h-145.05v-175.28c0-12.05,12.2-20.3,23.34-15.68,16.51,6.84,40.1,14.85,65.18,17.64,46.86,5.21,75.5-33.84,78.1-96.33,2.36-56.62-63.7-89.73-141.99-50.87-11.32,5.62-24.63-2.23-24.63-14.88v-193.14h133.75c15.06,0,25.62,15.62,19.2,29.25Z"/>
          <path class="cls-2" d="M1502.03,3093.51c-29.05,0-56.04-5.37-72.29-24.12-17.63-20.34-20.17-53.47-7.76-101.28,1.51-5.83,.27-11.91-3.41-16.66-3.64-4.71-9.14-7.41-15.08-7.41h-145.05c-4.66,0-8.43-3.77-8.43-8.43v-175.27c0-8.51,4.22-16.41,11.29-21.14,7.03-4.7,15.89-5.57,23.7-2.34,15.13,6.27,38.32,14.32,62.88,17.05,15.84,1.75,29.42-2.11,40.36-11.51,16.85-14.45,26.92-41.73,28.38-76.79,.83-19.79-7.8-36.58-24.29-47.28-26.27-17.06-65.72-15.45-105.53,4.31-8.06,4-17.39,3.59-24.97-1.11-7.41-4.59-11.83-12.56-11.83-21.32v-193.14c0-4.66,3.77-8.43,8.43-8.43h133.75c10.18,0,19.53,5.16,25.01,13.79,5.3,8.36,5.98,18.63,1.82,27.47h0c-16.45,34.91-14.55,89.88,3.63,105.03,19.13,15.94,79.56,27.03,115.04,10.1,18.44-8.8,27.63-23.99,27.33-45.15-.38-26.46-6.38-48.84-17.84-66.52-5.89-9.08-6.33-20.15-1.18-29.63,5.13-9.45,14.64-15.09,25.42-15.09h137.4c4.66,0,8.43,3.77,8.43,8.43v177.66c0,10.63-5.87,20.22-15.32,25.05-9.45,4.83-20.68,3.95-29.3-2.28-19.42-14.06-37-22.46-50.83-24.3-13.85-1.87-29.58,4.33-43.24,16.93-18.46,17.04-29.17,42.1-27.94,65.39,1.95,37.02,13.5,68.03,30.9,82.96,9.94,8.53,21.52,11.99,35.35,10.63,18.49-1.85,37.44-9.21,56.32-21.89,8.79-5.89,20-6.48,29.26-1.54,9.27,4.94,14.8,14.18,14.8,24.72v175.22c0,4.66-3.77,8.43-8.43,8.43h-132.4c11.27,25.11,32.86,82.37,14.04,117.88-8.82,16.65-24.91,26.39-47.8,28.95-13.41,1.5-27.24,2.64-40.63,2.64Zm-235.16-166.33h136.62c11.2,0,21.56,5.08,28.42,13.95,6.89,8.92,9.23,20.29,6.39,31.21-10.91,42.04-9.54,70.17,4.18,86.01,14.62,16.86,44.93,21.72,98.31,15.76,17.26-1.93,28.64-8.5,34.78-20.09,16.6-31.33-8.8-93.27-19.99-114.49-1.38-2.61-1.28-5.76,.24-8.28,1.52-2.53,4.26-4.08,7.22-4.08h137.36v-166.79c0-6.06-4.11-8.91-5.87-9.84-3.82-2.04-8.28-1.79-11.94,.67-21.21,14.24-42.76,22.53-64.04,24.66-18.42,1.85-34.56-3.07-48.01-14.61-30.02-25.76-35.7-74.93-36.75-94.87-1.48-28.17,11.29-58.32,33.34-78.67,17.35-16.01,38.09-23.74,56.89-21.25,16.83,2.25,36.51,11.45,58.49,27.36,3.51,2.54,7.9,2.88,11.74,.92,3.84-1.96,6.13-5.71,6.13-10.04v-169.23h-128.97c-4.5,0-8.47,2.35-10.61,6.28-2.15,3.96-1.96,8.6,.51,12.41,13.21,20.38,20.13,45.77,20.55,75.45,.4,27.93-12.37,48.89-36.93,60.61-42.91,20.48-110.32,6.62-133.1-12.36-26.67-22.23-26.23-86.65-8.09-125.16,1.72-3.64,1.43-7.75-.8-11.26-2.37-3.73-6.4-5.96-10.77-5.96h-125.32v184.71c0,2.92,1.41,5.47,3.86,6.99,2.58,1.6,5.79,1.73,8.59,.34,45.2-22.43,90.88-23.69,122.2-3.36,21.38,13.88,33.02,36.52,31.95,62.13-1.68,40.36-13.52,71.09-34.25,88.88-14.43,12.39-32.83,17.74-53.21,15.47-26.53-2.95-51.33-11.54-67.47-18.22-2.64-1.09-5.51-.8-7.88,.78-2.41,1.61-3.8,4.21-3.8,7.12v166.85Zm144.52-490.86h0Z"/>
        </g>
        <g>
          <path class="cls-26" d="M1420.15,1851.58c-14.67-25.78-25.97-60.44-2.9-86.38,41.65-46.86,124.96-57.27,145.79,15.62,8.61,30.15,2.53,53.59-7.57,70.71-9.35,15.85,2.18,35.84,20.58,35.84h132.77v177.15c0,16-17.97,25.15-31.11,16.03-89.07-61.82-135.51,11.1-135.61,43.92-.11,36.45,15.73,122.36,73,119.75,26.17-1.19,48-9.99,63.98-19.2,13.24-7.62,29.74,1.66,29.74,16.94v165.12h-137.4c-16.31,0-26.04,18.02-17.17,31.71,10.2,15.73,18.73,38.53,19.2,70.98,1.18,82.61-124.96,67.69-156.2,41.66-22.31-18.6-23.23-78.22-5.86-115.1,6.42-13.62-4.14-29.25-19.2-29.25h-133.75v-180.68c0-13.17-14.31-21.27-25.63-14.54-23.02,13.68-58.57,30.83-94.12,32.37-59.88,2.6-67.69-65.08-70.29-117.15-2.3-45.99,82.77-100.09,151.98-54.71,11.34,7.44,26.38-.46,26.38-14.02v-170.97h152.76c18.38,0,29.72-19.81,20.63-35.78Z"/>
          <path class="cls-14" d="M1493.66,2578.74c-33.04,0-66.16-10.01-80.73-22.15-21.36-17.8-29.53-76.7-7.64-123.15,1.97-4.18,1.64-8.87-.9-12.88-2.68-4.22-7.24-6.75-12.2-6.75h-140.49v-187.43c0-3.72-1.92-7.03-5.14-8.86-3.24-1.84-7.09-1.8-10.31,.12-24.09,14.32-60.52,31.71-97.27,33.31-70.89,3.13-75.26-82.45-77.32-123.55-1.13-22.57,15.99-47.38,43.63-63.21,29.65-16.98,76.43-25.24,118.78,2.53,3.28,2.15,7.27,2.34,10.67,.5,1.58-.86,5.27-3.43,5.27-8.88v-177.72h159.5c6.15,0,11.66-3.16,14.73-8.45,3.12-5.37,3.13-11.82,.04-17.25-21.92-38.5-22.64-71.07-2.08-94.2,26.42-29.71,68.5-45.08,102.35-37.35,26.95,6.14,46.47,25.89,54.96,55.6,7.92,27.73,5.15,53.29-8.24,75.99-3.13,5.3-3.17,11.67-.11,17.02,3.09,5.41,8.66,8.64,14.89,8.64h139.51v183.89c0,9.99-5.27,18.72-14.1,23.34-8.81,4.61-19.39,3.93-27.6-1.76-33.65-23.35-64.4-28.94-88.95-16.15-24.54,12.79-36.03,40.11-36.08,54.54-.08,27.5,8.65,76.9,33.03,100.27,9.53,9.13,20.33,13.32,32.92,12.72,21-.95,41.5-7.11,60.92-18.3,8.39-4.84,18.39-4.85,26.72-.03,8.22,4.75,13.13,13.28,13.13,22.81v171.86h-144.15c-5.13,0-9.65,2.68-12.09,7.16-2.45,4.51-2.24,9.8,.58,14.13,13.04,20.11,19.86,45.19,20.28,74.55,.39,27.22-12.05,47.65-35.97,59.06-14.86,7.09-32.7,10.02-50.56,10.02Zm-228.48-178.41h127c9.6,0,18.42,4.86,23.58,13.01,4.99,7.87,5.63,17.54,1.72,25.85-16.71,35.47-14.58,91.49,4.07,107.04,19.45,16.21,80.81,27.51,116.85,10.32,19.09-9.11,28.61-24.82,28.29-46.7-.38-26.78-6.48-49.46-18.11-67.41-5.54-8.55-5.96-18.98-1.11-27.9,4.83-8.9,13.78-14.21,23.94-14.21h130.66v-158.37c0-4.73-2.33-8.78-6.39-11.14-4.11-2.38-9.06-2.36-13.24,.04-21.31,12.28-43.87,19.04-67.04,20.09-16.26,.7-30.7-4.8-42.87-16.46-29.59-28.36-37.26-84.39-37.19-110.05,.07-21.6,16.29-52.37,43.33-66.46,20.41-10.65,54.83-16.32,102.87,17.03,4.14,2.87,9.24,3.2,13.65,.89,4.3-2.25,6.87-6.51,6.87-11.39v-170.41h-126.03c-11.13,0-21.08-5.77-26.59-15.44-5.49-9.61-5.42-21.04,.2-30.56,11.44-19.39,13.76-41.41,6.89-65.43-7.18-25.13-22.74-41.09-44.99-46.16-29.27-6.68-65.99,6.96-89.28,33.17-11.41,12.83-20.02,36.87,3.72,78.57,5.5,9.66,5.46,21.14-.1,30.7-5.52,9.49-15.39,15.16-26.39,15.16h-146.02v164.23c0,8.81-4.62,16.57-12.35,20.74-7.72,4.17-17.11,3.75-24.48-1.09-31.64-20.74-70.77-21.53-104.68-2.1-23.27,13.33-37.74,33.28-36.86,50.84,2.94,58.82,12.53,113,63.26,110.75,33.95-1.48,68.21-17.91,90.97-31.43,7.43-4.42,16.36-4.51,23.87-.24,7.48,4.26,11.95,11.95,11.95,20.58v173.94Z"/>
        </g>
        <g>
          <path class="cls-26" d="M2165,2735.05c-19.98,11.87-45.81,24.59-68.28,27.23-44.26,5.21-85.91-49.47-78.1-114.55,6.64-55.32,79.11-105,145.47-57.9,14.31,10.16,34.16-.75,34.16-18.3v-164.53h151.69c17.15,0,26.51,19.61,16.1,33.24-43.65,57.08-53.5,146.63,56.11,142.42,98.05-3.77,105.11-96.78,87.63-140.75-5.38-13.54,15.78-15.45,30.34-15.45h116.33v162.83c0,17.09-19.14,27.21-33.22,17.52-17.52-12.06-39.2-24.27-57.9-26.76-39.05-5.21-91.12,26.03-91.12,78.1s15.62,101.53,80.7,96.33c29.85-2.39,53.67-10.8,70.72-19.21,14.21-7,30.81,3.11,30.81,18.95v181.39h-139.11c-19.74,0-33.33-20.22-25.43-38.31,6.1-13.98,11.7-30.33,13.72-46.46,5.21-41.66-54.85-70.06-104.31-66.14-38.95,3.09-84.25,61.93-63.42,113.62,7.2,17.87-6.54,37.29-25.81,37.29h-113.83v-181.73c0-17.07-18.57-27.55-33.25-18.83Z"/>
          <path class="cls-14" d="M2663.18,2942.35h-145.85c-11.67,0-22.45-5.84-28.86-15.62-6.3-9.63-7.33-21.64-2.76-32.13,7.1-16.26,11.54-31.26,13.21-44.59,1.36-10.9-2.51-21.2-11.52-30.62-17.89-18.71-53.85-30.48-85.56-27.96-17.26,1.37-36.64,15.55-49.37,36.12-13.79,22.28-16.83,47.16-8.32,68.25,4.15,10.3,2.87,21.99-3.4,31.29-6.45,9.56-17.17,15.26-28.66,15.26h-120.58v-188.48c0-5.53-2.86-10.47-7.66-13.19-4.83-2.75-10.59-2.69-15.4,.17h0c-27.55,16.37-51.42,25.83-70.94,28.13-19.18,2.26-38.48-5.29-54.4-21.24-23.83-23.88-35.78-62.51-31.18-100.8,3.75-31.28,26.45-60.47,57.81-74.36,31.96-14.16,67.78-9.87,98.25,11.76,4.46,3.17,10.1,3.52,15.08,.94,5.21-2.69,8.44-7.96,8.44-13.75v-171.27h158.43c10.42,0,19.75,5.78,24.34,15.07,4.67,9.45,3.57,20.57-2.89,29-26.85,35.12-36.52,77.17-23.51,102.26,10.69,20.63,36.27,30.72,74,29.32,33.88-1.3,58.68-13.66,73.69-36.73,18.59-28.57,18.06-69.31,7.93-94.79-2.65-6.65-.89-11.46,1.05-14.32,4.8-7.07,16.1-10.37,35.56-10.37h123.07v169.58c0,10.43-5.74,19.93-14.97,24.79-9.2,4.85-20.25,4.19-28.82-1.71-21.58-14.85-40.59-23.71-54.97-25.63-19.47-2.58-42.78,5.12-59.37,19.64-15.55,13.61-24.11,32-24.11,51.77,0,36.11,7.79,61.61,23.16,75.8,11.79,10.88,28.72,15.54,50.27,13.81,24.32-1.95,47.29-8.18,68.28-18.53,8.84-4.36,19.08-3.87,27.39,1.3,8.23,5.12,13.14,13.98,13.14,23.7v188.13Zm-252.54-164.76c33.14,0,67.62,12.7,86.52,32.47,11.77,12.32,17.01,26.71,15.15,41.61-1.82,14.62-6.61,30.87-14.23,48.32-2.79,6.39-2.18,13.44,1.68,19.34,3.9,5.96,10.47,9.52,17.57,9.52h132.37v-174.65c0-5.1-2.47-9.57-6.78-12.25-4.33-2.7-9.68-2.94-14.3-.66-22.52,11.11-47.14,17.8-73.17,19.88-25.49,2.06-45.82-3.79-60.49-17.34-18.24-16.84-27.5-45.68-27.5-85.71,0-23.72,10.2-45.71,28.71-61.92,19.69-17.24,46.51-26,70.04-22.86,16.7,2.23,37.17,11.61,60.83,27.89,4.49,3.09,10.06,3.42,14.9,.88,4.86-2.56,7.76-7.36,7.76-12.85v-156.09h-109.59c-21.14,0-24.28,4.27-24.4,4.45-.14,.21,0,.93,.32,1.76,11.06,27.83,12.91,73.22-9.16,107.13-12.06,18.53-36.5,41-84.47,42.84-54.71,2.14-77.24-18.73-86.49-36.58-17.98-34.69-.52-83.59,24.77-116.66,3.36-4.4,3.93-9.95,1.51-14.84-2.34-4.73-6.92-7.56-12.25-7.56h-144.95v157.79c0,10.86-6.03,20.72-15.74,25.73-9.55,4.93-20.41,4.21-29.07-1.93-36.29-25.76-68.83-17.59-84.99-10.43-26.69,11.82-46.73,37.39-49.88,63.64-4.11,34.29,6.36,68.64,27.34,89.67,12.93,12.97,28.33,19.15,43.28,17.38,17.38-2.04,40.08-11.15,65.63-26.33,9.03-5.36,19.85-5.48,28.96-.29,9.06,5.16,14.47,14.47,14.47,24.92v174.99h107.09c7.01,0,13.54-3.49,17.48-9.32,3.82-5.66,4.58-12.48,2.07-18.7-10.12-25.12-6.71-54.42,9.37-80.39,14.92-24.1,38.38-40.77,59.77-42.47,3.26-.26,6.56-.38,9.86-.38Z"/>
        </g>
        <g>
          <path class="cls-26" d="M1677.88,2744.22c-15.81,10.61-36.67,20.93-60.18,23.28-52.07,5.21-72.89-52.07-75.5-101.53-2.6-49.46,41.65-96.32,80.7-91.12,18.39,2.45,38.52,14.14,54.66,25.83,13.04,9.44,31.25,.16,31.25-15.94v-177.66h179.74c14.98,0,24.91-15.47,18.65-29.08-14.1-30.65-29.94-77.23-7.85-97.33,34.33-31.24,127.08-31.24,142.7,15.62,8.75,26.24-3.14,57.81-15.29,80.51-7.33,13.69,2.56,30.21,18.08,30.21h153.4v164.53c0,17.55-19.85,28.46-34.16,18.3-66.36-47.1-138.83,2.58-145.47,57.9-7.81,65.08,33.84,119.75,78.1,114.55,22.47-2.65,48.3-15.36,68.28-27.23,14.68-8.72,33.25,1.75,33.25,18.83v181.73h-176.69c-20.22,0-33.74-21.09-24.98-39.31,10.44-21.71,53.24-48.36,50.67-68.93-5.21-41.65-97.95-51.96-147.9-44.2-38.13,5.92-19.17,65.56,2.5,113.35,8.31,18.32-4.92,39.09-25.04,39.09h-167.99v-175.22c0-15.91-17.73-25.04-30.93-16.18Z"/>
          <path class="cls-14" d="M2204.99,2942.35h-183.43c-11.91,0-22.81-6.03-29.16-16.13-6.28-9.98-6.98-22.26-1.89-32.85,4.79-9.96,14.7-19.86,25.19-30.35,12.18-12.18,25.98-25.98,24.87-34.82-.86-6.88-5.01-13.17-12.35-18.7-26-19.61-87.09-26.01-127.83-19.67-6.33,.98-10.47,3.65-13.03,8.39-4.6,8.51-8.05,32.25,20.63,95.51,4.87,10.74,3.98,23.06-2.39,32.94-6.33,9.82-17.09,15.68-28.79,15.68h-174.74v-181.96c0-4.84-2.53-9.07-6.76-11.33-4.38-2.33-9.49-2.05-13.67,.75h0c-20.98,14.08-42.27,22.28-63.27,24.39-17.92,1.78-33.66-2.99-46.74-14.21-29.52-25.34-35.13-73.96-36.17-93.68-1.46-27.68,11.11-57.32,32.8-77.34,16.98-15.67,37.2-23.25,55.53-20.82,16.55,2.21,35.97,11.31,57.73,27.05,4.03,2.92,9.08,3.32,13.5,1.06,4.42-2.26,7.05-6.57,7.05-11.54v-184.4h186.48c4.8,0,9.03-2.31,11.61-6.34,2.58-4.02,2.91-8.83,.91-13.18-16.4-35.64-30.79-82.81-6.26-105.13,22.68-20.63,69.46-29.23,106.47-19.56,24.36,6.36,41.1,19.86,47.16,38.03,9.58,28.73-3.27,62.53-15.74,85.82-2.31,4.32-2.2,9.4,.32,13.6,2.51,4.19,6.93,6.69,11.82,6.69h160.15v171.27c0,10.86-6.03,20.72-15.74,25.73-9.55,4.93-20.41,4.21-29.07-1.93-36.29-25.76-68.83-17.59-84.99-10.43-26.69,11.82-46.73,37.39-49.88,63.64-4.11,34.29,6.36,68.64,27.34,89.67,12.93,12.97,28.33,19.15,43.28,17.38,17.38-2.04,40.08-11.15,65.63-26.33,9.03-5.36,19.85-5.48,28.96-.29,9.06,5.16,14.47,14.47,14.47,24.92v188.48Zm-271.76-168.24c35.76,0,79.13,6.55,103.1,24.63,10.36,7.81,16.28,17.16,17.61,27.8,1.92,15.39-12.96,30.27-28.71,46.03-9.23,9.23-18.77,18.77-22.57,26.66-3.11,6.47-2.69,13.7,1.16,19.82,3.86,6.14,10.5,9.82,17.74,9.82h169.94v-174.99c0-5.53-2.86-10.47-7.66-13.19-4.83-2.75-10.59-2.69-15.4,.17-27.55,16.37-51.42,25.83-70.94,28.13-19.18,2.26-38.48-5.29-54.4-21.24-23.83-23.88-35.78-62.51-31.18-100.8,3.75-31.28,26.45-60.47,57.81-74.36,31.96-14.16,67.78-9.87,98.25,11.76,4.46,3.17,10.1,3.52,15.08,.94,5.21-2.69,8.44-7.96,8.44-13.75v-157.79h-146.66c-9.68,0-18.43-4.95-23.39-13.24-4.97-8.3-5.21-18.35-.64-26.89,11.22-20.96,22.89-51.02,14.83-75.2-4.56-13.7-17.98-24.08-37.77-29.25-32.5-8.48-74.67-1.09-93.99,16.49-19.47,17.72-2.45,63.69,9.44,89.52,3.9,8.49,3.23,18.24-1.8,26.09-5.03,7.86-13.62,12.55-22.97,12.55h-172.99v170.92c0,9.99-5.52,19.01-14.4,23.55-8.9,4.54-19.45,3.72-27.54-2.14-19.64-14.22-37.49-22.73-51.6-24.61-14.33-1.92-30.58,4.42-44.6,17.36-18.82,17.37-29.73,42.94-28.48,66.72,1.97,37.47,13.74,68.93,31.48,84.15,10.17,8.73,22.5,12.43,36.61,11.02,18.77-1.88,37.98-9.33,57.1-22.17h0c8.26-5.54,18.81-6.11,27.53-1.45,8.71,4.64,13.9,13.33,13.9,23.23v168.47h161.25c7.2,0,13.56-3.46,17.45-9.5,3.88-6.01,4.42-13.51,1.45-20.06-24.04-53.03-30.65-88.19-20.22-107.5,4.54-8.4,12.43-13.69,22.83-15.31,9.73-1.51,21.81-2.39,34.91-2.39Z"/>
        </g>
        <g>
          <path class="cls-26" d="M2496.12,1839.52c6.2-11.84,11.84-26.25,14.53-42.54,15.01-90.9-97.49-78.64-142.47-31.78-22.89,23.86-15.24,51.97-2.21,73.82,9.56,16.02-1.65,36.33-20.3,36.33h-153.1v-146.64c0-16.61,17.58-26.96,32.34-19.34,16.99,8.77,39.94,16.78,67.06,16.78,59.88,0,74.21-80.7,76.16-106.74,1.76-23.61-41.15-117.91-142.29-59.46-14.62,8.45-32.94-2.08-32.94-18.97v-170.19h157.13c13.1,0,20.41-14.83,12.7-25.43-36.48-50.15-4.45-121.31,22.96-133.38,32.54-14.32,98.93-18.22,118.45,54.67,10.19,38.06,.79,65.83-10.52,83.68-6.71,10.58,.92,24.36,13.45,24.36h149.36v175.07c0,17.15-19.25,27.24-33.34,17.46-20.17-14.01-44.65-29.65-58.74-33.73-26.99-7.81-82.35,7.81-90.98,72.9-8.63,65.08,34.66,111.94,91.53,109.34,25.59-1.17,46.68-7.46,62.14-14.03,13.95-5.92,29.38,4.65,29.38,19.8v153.03h-139.27c-18,0-29.39-19.07-21.05-35.02Z"/>
          <path class="cls-14" d="M2345.67,1882.09h-159.84v-153.38c0-10.06,5.11-19.18,13.67-24.39,8.71-5.31,19.37-5.66,28.5-.94,20.61,10.64,42.14,16.03,63.98,16.03,61.22,0,69.12-96.39,69.43-100.5,.72-9.64-9.89-42.88-38.07-60.57-25.83-16.22-57.5-13.71-94.13,7.44-8.99,5.2-19.72,5.2-28.72,0-8.98-5.18-14.34-14.45-14.34-24.81v-176.93h163.88c5.03,0,7.32-3.44,8.07-4.92,1.62-3.19,1.32-6.86-.83-9.8-23.44-32.22-18.52-68.22-13.5-86.81,7.23-26.78,22.98-49.57,39.2-56.71,20.1-8.84,53.71-14.31,82.25-.63,22.41,10.75,37.7,30.85,45.43,59.72,11.07,41.33-.05,71.23-11.34,89.03-1.81,2.85-1.92,6.32-.29,9.27,1.64,2.97,4.65,4.74,8.05,4.74h156.11v181.82c0,10.46-5.76,19.97-15.02,24.81-9.25,4.83-20.33,4.15-28.91-1.81-26.41-18.34-46.04-29.68-56.77-32.79-11.79-3.41-31.55-1.75-49.05,9.69-12.85,8.4-29.07,25.21-33.37,57.62-3.99,30.1,3.54,57.28,21.2,76.53,15.94,17.38,38.42,26.31,63.33,25.19,20.85-.95,40.97-5.5,59.82-13.5,8.54-3.62,18.29-2.71,26.08,2.45,7.94,5.26,12.68,14.06,12.68,23.56v159.78h-146.01c-10.79,0-20.55-5.49-26.12-14.69-5.61-9.27-5.95-20.55-.91-30.19h0c6.95-13.28,11.61-26.91,13.85-40.51,4.44-26.85-2.44-45.03-20.42-54.03-29.04-14.55-82.75-.93-110.52,28.02-16.56,17.26-17,39.36-1.29,65.7,5.8,9.73,5.95,21.37,.4,31.14-5.47,9.63-15.37,15.38-26.49,15.38Zm-146.36-13.49h146.36c6.2,0,11.72-3.2,14.76-8.55,3.12-5.5,3.03-12.07-.25-17.57-18.93-31.75-17.84-60.08,3.14-81.95,31.88-33.22,92.08-47.87,126.29-30.74,13.44,6.73,34.91,24.55,27.69,68.29-2.48,15.02-7.59,30.02-15.21,44.57h0c-2.84,5.43-2.65,11.76,.49,16.96,3.1,5.13,8.56,8.19,14.58,8.19h132.52v-146.29c0-4.96-2.48-9.56-6.63-12.31-4.08-2.7-8.95-3.16-13.37-1.28-20.33,8.63-42.02,13.53-64.47,14.56-28.95,1.31-55.19-9.17-73.89-29.55-20.4-22.24-29.15-53.29-24.63-87.42,4.97-37.48,24.14-57.2,39.36-67.14,18.54-12.11,42.16-16.57,60.18-11.35,12.29,3.56,32.72,15.22,60.71,34.66,4.51,3.13,10.1,3.48,14.97,.94,4.87-2.55,7.78-7.36,7.78-12.86v-168.33h-142.62c-8.4,0-15.82-4.39-19.86-11.73-4.03-7.32-3.76-15.92,.71-22.98,9.84-15.52,19.51-41.71,9.7-78.32-6.67-24.91-19.54-42.08-38.24-51.06-24.41-11.71-53.5-6.88-70.99,.81-10.54,4.64-24.78,22.57-31.61,47.87-4.39,16.26-8.75,47.68,11.39,75.36,5.11,7.03,5.85,16.17,1.94,23.86-3.86,7.58-11.56,12.28-20.09,12.28h-150.39v163.45c0,5.48,2.84,10.39,7.59,13.13,4.77,2.75,10.46,2.75,15.23,0,51.44-29.73,87.15-20.32,108.05-7.19,31.67,19.89,45.5,57.52,44.34,72.99-3.13,41.96-24.12,112.98-82.88,112.98-24.01,0-47.61-5.9-70.16-17.53-4.93-2.55-10.65-2.36-15.3,.47-4.57,2.79-7.2,7.48-7.2,12.87v139.9Z"/>
        </g>
      </g>
    </g>
  </g>
  <g>
    <g>
      <g>
        <path class="cls-16" d="M1415.56,3255c-8.58,0-16.15-4.48-17.63-10.82l-278.42-1196.23c-1.64-7.07,4.92-13.76,14.67-14.95,9.75-1.18,18.98,3.57,20.63,10.64l278.42,1196.23c1.64,7.07-4.92,13.76-14.67,14.95-1.01,.12-2.01,.18-3,.18Z"/>
        <path class="cls-16" d="M488.42,3255c-1.17,0-2.36-.08-3.56-.26-9.69-1.42-15.96-8.26-14.01-15.28l328.21-1180.67c1.95-7.03,11.38-11.61,21.08-10.16,9.69,1.42,15.96,8.26,14.01,15.29l-328.21,1180.67c-1.71,6.16-9.18,10.42-17.53,10.42Z"/>
        <path class="cls-16" d="M1215.27,2415.68h-475.79c-9.88,0-17.9-7.16-17.9-15.99s8.01-15.99,17.9-15.99h475.79c9.88,0,17.9,7.16,17.9,15.99s-8.01,15.99-17.9,15.99Z"/>
        <path class="cls-16" d="M1206.64,2415.68h-458.53c-9.53,0-17.25-7.16-17.25-15.99s7.72-15.99,17.25-15.99h458.53c9.53,0,17.25,7.16,17.25,15.99s-7.72,15.99-17.25,15.99Z"/>
        <path class="cls-16" d="M1215.27,2682.17h-475.79c-9.88,0-17.9-7.16-17.9-15.99s8.01-15.99,17.9-15.99h475.79c9.88,0,17.9,7.16,17.9,15.99s-8.01,15.99-17.9,15.99Z"/>
        <path class="cls-16" d="M1275.43,2682.17H655.79c-10.62,0-19.23-7.16-19.23-15.99s8.61-15.99,19.23-15.99h619.64c10.62,0,19.23,7.16,19.23,15.99s-8.61,15.99-19.23,15.99Z"/>
        <path class="cls-16" d="M1215.27,2948.66h-475.79c-9.88,0-17.9-7.16-17.9-15.99s8.01-15.99,17.9-15.99h475.79c9.88,0,17.9,7.16,17.9,15.99s-8.01,15.99-17.9,15.99Z"/>
        <path class="cls-16" d="M1331.46,2948.66H591.7c-10.59,0-19.18-7.16-19.18-15.99s8.59-15.99,19.18-15.99h739.76c10.59,0,19.18,7.16,19.18,15.99s-8.59,15.99-19.18,15.99Z"/>
      </g>
      <g>
        <path class="cls-8" d="M787.22,2320.51s-11.61,18.3-14.53,69.55c-.27,4.77,3.51,8.84,8.29,8.84h90.81c3.65,0,6.26-3.58,5.09-7.04-5.32-15.75-21.41-54.15-57.31-76.09l-32.35,4.75Z"/>
        <path class="cls-5" d="M783.27,2285.79l5.14,43.07c.44,3.72,3.36,6.69,7.07,7.12,4.97,.57,12.19,.98,19.2-.18,6.38-1.05,10.97-6.73,10.97-13.2v-41.58l-42.38,4.77Z"/>
        <path class="cls-15" d="M1011.91,2315.76s-17.38,27.02-17.01,64.1c.09,8.74,7.4,15.69,16.14,15.69h141.04c6.6,0,9.29-8.49,3.88-12.28-26.69-18.74-79.15-53.75-117.09-67.51h-26.96Z"/>
        <path class="cls-4" d="M997.38,2269.25l10.96,53.19c1.23,5.95,7.05,9.95,12.97,8.63,3.6-.8,7.86-2.35,12.4-5.19,4.32-2.7,6.51-7.84,5.62-12.85l-11.33-64.44-30.62,20.66Z"/>
        <path class="cls-6" d="M803.4,1529.71s-38.09,33.58-45.26,73.99c-7.17,40.41,20.31,697.14,20.31,697.14,0,0,38.09,6.34,57.73-5.56,0,0,23.29-426.21,40.99-524.7,0,0,92.84,441.5,118.56,521.28,0,0,36.7,4.46,48.53-2.52,0,0-24.32-572.31-54.88-674.06l-185.99-85.56Z"/>
        <path class="cls-31" d="M876.06,1755.11c-1.12,0-2.15-.75-2.44-1.89l-15.93-61.11-34.13-21.89c-1.18-.75-1.51-2.32-.76-3.49,.75-1.17,2.31-1.52,3.49-.76l34.96,22.43c.53,.34,.92,.87,1.08,1.49l16.18,62.07c.35,1.35-.46,2.73-1.81,3.09-.21,.06-.43,.08-.64,.08Z"/>
        <path class="cls-9" d="M1161.34,1169.52c-160.36-13.31-202.27,19.87-202.27,19.87l77.06,121.66s157.57-3.11,270.48-90.13c-21.13-22.76-35.81-47.91-45.22-67.49-29.11,12.1-62.64,19.19-100.05,16.09Z"/>
        <path class="cls-17" d="M1412.46,934.13c-.22-5.14-7.18-6.54-9.36-1.88l-20.46,43.66c-3.95,8.44-5.22,17.88-3.63,27.06l7.18,25.41c2.15,12.39-1.09,25.09-8.95,34.92-18.8,23.51-58.84,66.43-115.85,90.12,9.41,19.58,24.09,44.73,45.22,67.49,41.43-31.93,76.85-75.14,96.26-133.66,9.3-2.86,15.51-11.61,15.14-21.33l-5.54-131.8Z"/>
        <path class="cls-24" d="M1232.1,1220.77c-56.45-60.83-163.98-88.31-226.24-99.6-27.27-4.95-54.16,10.23-63.82,36.21-28.02,75.31-104.21,271.25-118.98,304.93-12.12,27.63-24.77,54.61-32.81,71.48-4.8,10.08-.61,22.14,9.45,26.99,52.38,25.25,146.63,53.81,184.84,64.96,8.41,2.45,16.77-3.86,16.77-12.61,0-7.42,2.02-14.71,5.84-21.08l144.71-241.15c90.2,100.01,169.19,109.16,229.87,87.26-10.2-31.53-16.88-63.12-20.08-94.77-89.64-15.36-129.55-122.6-129.55-122.6Z"/>
        <path class="cls-30" d="M1509.82,1326.59l-16.18-21.57c-52.37,35.97-96.15,44.5-131.99,38.35,3.2,31.65,9.88,63.24,20.08,94.77,79.94-28.84,128.09-111.56,128.09-111.56Z"/>
        <path class="cls-22" d="M1498.41,1326.98l91.14,3.55,83.92-46.87c-12.05-7.55-80.16,7.88-80.16,7.88,0,0-71.21-10.77-90.48-10.79-16.01-.02-13.72,23-12.49,30.8,.25,1.59,.46,2.55,.46,2.55l7.61,12.88Z"/>
        <path class="cls-18" d="M1091.49,1009.45l-48.09,117.35s55.25,38.24,99.71,34.6l24-105.52-75.62-46.44Z"/>
        <g>
          <path class="cls-36" d="M1172.73,929.45c1.1,1.56,34.79,123.26,34.79,123.26l-69.9,17.76-49.07-110.6s65.74-56.54,84.17-30.42Z"/>
          <path class="cls-28" d="M1114.87,976.67l21.27,60.25c.27,.77,.64,1.49,1.11,2.16,2.89,4.1,13.85,17.48,26.86,5.43,11.8-10.94,22.74-20.74,32.83-22.52,4.53-.8,8.93,1.97,10.15,6.4,3.06,11.06,9.49,36.1,11.75,58.72,.46,4.59-2.71,8.74-7.24,9.6-13.65,2.59-42.6,7.26-66.76,5.55-3.27-.23-6.16-2.2-7.52-5.18-6.66-14.55-27.06-58.7-34.65-70.13-7.12-10.72-24.58-10.42-31.91-9.77-2.4,.21-4.76-.56-6.57-2.15-6.41-5.62-18.6-19.95-1.45-37.12,3.59-3.59,3.49-9.39-.21-12.87-7.37-6.93-15.24-19.21-2.97-34.44,12.47-15.48,28.94-13.02,39.03-9.34,4.08,1.49,8.53-.24,10.75-3.97,1.26-2.13,3.46-3.73,7.28-3.41,5.14,.44,9.47-3.85,9.38-9.01-.18-9.92,3.37-22.45,20.58-27.81,30.53-9.5,49.58,19.99,51.46,42.01,1.89,22.01-31.8,30.43-51.62,28.95-15.06-1.13-26.25,13.8-30.74,21.02-1.42,2.29-1.71,5.09-.81,7.63Z"/>
          <path class="cls-7" d="M1110.64,1048.8s-4.93-38.21-20.83-40.09c-15.9-1.87-31.37,11.19-15.56,32.64,19.66,26.68,36.39,7.45,36.39,7.45Z"/>
        </g>
      </g>
    </g>
    <g>
      <path class="cls-26" d="M1481.18,1089.35c-15.81,10.61-36.67,20.93-60.18,23.28-52.07,5.21-72.89-52.07-75.5-101.53-2.6-49.46,41.65-96.32,80.7-91.12,18.39,2.45,38.52,14.14,54.66,25.83,13.04,9.44,31.25,.16,31.25-15.94v-177.66h179.74c14.98,0,24.91-15.47,18.65-29.08-14.1-30.65-29.94-77.23-7.85-97.33,34.33-31.24,127.08-31.24,142.7,15.62,8.75,26.24-3.14,57.81-15.29,80.51-7.33,13.69,2.56,30.21,18.08,30.21h153.4v164.53c0,17.55-19.85,28.46-34.16,18.3-66.36-47.1-138.83,2.58-145.47,57.9-7.81,65.08,33.84,119.75,78.1,114.55,22.47-2.65,48.3-15.36,68.28-27.23,14.68-8.72,33.25,1.75,33.25,18.83v181.73h-176.69c-20.22,0-33.74-21.09-24.98-39.31,10.44-21.71,53.24-48.36,50.67-68.93-5.21-41.65-97.95-51.96-147.9-44.2-38.13,5.92-19.17,65.56,2.5,113.35,8.31,18.32-4.92,39.09-25.04,39.09h-167.99v-175.22c0-15.91-17.73-25.04-30.93-16.18Z"/>
      <path class="cls-14" d="M2008.29,1287.49h-183.43c-11.91,0-22.81-6.03-29.16-16.12-6.28-9.99-6.99-22.26-1.9-32.85,4.79-9.96,14.7-19.86,25.19-30.35,12.18-12.18,25.98-25.98,24.87-34.82-.86-6.88-5.01-13.17-12.35-18.7-25.99-19.6-87.07-26-127.83-19.67-6.33,.98-10.47,3.65-13.03,8.39-4.6,8.51-8.05,32.25,20.63,95.51,4.87,10.74,3.98,23.06-2.39,32.94-6.33,9.82-17.09,15.68-28.79,15.68h-174.73v-181.96c0-4.84-2.53-9.07-6.76-11.33-4.38-2.34-9.49-2.05-13.67,.75-20.98,14.08-42.27,22.28-63.27,24.39-17.95,1.78-33.66-2.99-46.74-14.21-29.52-25.34-35.13-73.95-36.16-93.67-1.46-27.68,11.11-57.32,32.8-77.34,16.98-15.67,37.23-23.25,55.53-20.82,16.55,2.21,35.97,11.31,57.73,27.05,4.03,2.92,9.09,3.31,13.5,1.06,4.41-2.26,7.05-6.57,7.05-11.54v-184.4h186.48c4.8,0,9.03-2.31,11.62-6.34,2.58-4.02,2.91-8.83,.91-13.18-16.4-35.64-30.79-82.81-6.26-105.13,22.67-20.63,69.44-29.24,106.47-19.56,24.36,6.36,41.1,19.87,47.16,38.03,9.57,28.73-3.27,62.53-15.74,85.82-2.31,4.32-2.2,9.4,.32,13.6,2.51,4.19,6.93,6.69,11.82,6.69h160.15v171.27c0,10.86-6.03,20.72-15.74,25.73-9.55,4.93-20.41,4.21-29.07-1.93-36.29-25.75-68.83-17.59-85-10.42-26.68,11.82-46.73,37.4-49.88,63.64-4.11,34.29,6.36,68.64,27.34,89.67,12.93,12.97,28.32,19.15,43.28,17.38,17.39-2.04,40.08-11.15,65.63-26.33,9.03-5.36,19.85-5.47,28.96-.29,9.06,5.16,14.47,14.47,14.47,24.92v188.48Zm-271.76-168.24c35.77,0,79.13,6.55,103.1,24.63,10.36,7.81,16.28,17.16,17.61,27.8,1.92,15.39-12.96,30.27-28.71,46.03-9.23,9.23-18.77,18.77-22.57,26.66-3.11,6.47-2.69,13.7,1.16,19.82,3.87,6.15,10.5,9.82,17.74,9.82h169.94v-174.99c0-5.53-2.86-10.47-7.66-13.19-4.84-2.75-10.59-2.69-15.4,.16-27.54,16.37-51.41,25.83-70.94,28.13-19.18,2.26-38.49-5.29-54.4-21.24-23.83-23.88-35.78-62.51-31.18-100.8,3.75-31.28,26.44-60.47,57.8-74.36,31.95-14.16,67.77-9.87,98.26,11.76,4.46,3.17,10.1,3.52,15.07,.95,5.21-2.69,8.45-7.96,8.45-13.75v-157.79h-146.66c-9.68,0-18.43-4.95-23.39-13.25-4.97-8.29-5.21-18.35-.64-26.88,11.22-20.96,22.89-51.02,14.84-75.2-4.56-13.69-17.98-24.08-37.77-29.25-32.5-8.48-74.67-1.09-93.99,16.49-19.47,17.72-2.44,63.69,9.44,89.52,3.9,8.49,3.23,18.24-1.8,26.09-5.03,7.86-13.62,12.55-22.97,12.55h-172.99v170.92c0,9.99-5.52,19.01-14.4,23.55-8.89,4.53-19.45,3.71-27.55-2.15-19.64-14.21-37.49-22.72-51.6-24.61-14.33-1.91-30.58,4.42-44.6,17.36-18.82,17.37-29.73,42.94-28.48,66.71,1.97,37.47,13.74,68.93,31.48,84.15,10.17,8.73,22.49,12.43,36.61,11.02,18.77-1.88,37.98-9.33,57.1-22.17h0c8.26-5.55,18.81-6.11,27.53-1.45,8.71,4.64,13.9,13.33,13.9,23.23v168.47h161.25c7.2,0,13.56-3.46,17.45-9.5,3.88-6.01,4.42-13.51,1.45-20.06-24.04-53.03-30.65-88.19-20.22-107.5,4.54-8.4,12.43-13.69,22.83-15.31,9.73-1.51,21.82-2.39,34.91-2.39Z"/>
    </g>
  </g>
</svg>