<?xml version="1.0" encoding="UTF-8"?>
<svg id="object" xmlns="http://www.w3.org/2000/svg" viewBox="0 0 345.07 333.45">
  <defs>
    <style>
      .cls-1 {
        fill: #4a6788;
      }
    </style>
  </defs>
  <path class="cls-1" d="M163.87,181.34c-22.64,24.62-81.81,50.55-104.72,49.81,10.63-20.34,62.42-59.2,94.98-66.73-.02,.24-.02,.48-.02,.73,0,7.02,3.96,13.12,9.76,16.19Z"/>
  <path class="cls-1" d="M185.74,165.15c0,7.34-5.98,13.31-13.32,13.31s-13.31-5.97-13.31-13.31,5.97-13.32,13.31-13.32,13.32,5.98,13.32,13.32Z"/>
  <path class="cls-1" d="M182.25,149.69c-2.84-1.81-6.21-2.86-9.83-2.86s-6.9,1.02-9.71,2.79c-9.86-31.96-2.42-96.16,9.78-115.58,12.2,19.44,19.65,83.72,9.76,115.65Z"/>
  <path class="cls-1" d="M285.7,231.15c-22.92,.74-82.09-25.19-104.72-49.81,5.81-3.07,9.76-9.17,9.76-16.19,0-.25,0-.49-.02-.73,32.57,7.53,84.34,46.39,94.98,66.73Z"/>
  <path class="cls-1" d="M190.16,303.07c0,2.04-13.92,2.64-17.7,2.64h-.07c-3.78,0-17.71-.6-17.71-2.64l10.85-114.18c0-1.93,2.74-3.53,6.24-3.7l.7-.02c.21,0,.42,0,.62,.02,3.49,.17,6.24,1.77,6.24,3.7l10.84,114.18Z"/>
</svg>