<?xml version="1.0" encoding="UTF-8"?>
<svg xmlns="http://www.w3.org/2000/svg" xmlns:xlink="http://www.w3.org/1999/xlink" viewBox="0 0 2500 2500">
  <defs>
    <style>
      .cls-1 {
        opacity: .68;
      }

      .cls-2 {
        fill: url(#linear-gradient-2);
      }

      .cls-3, .cls-4, .cls-5, .cls-6 {
        fill: #fff;
      }

      .cls-7 {
        fill: #248f59;
      }

      .cls-8 {
        fill: #74c197;
      }

      .cls-9 {
        fill: url(#linear-gradient-6);
      }

      .cls-10 {
        isolation: isolate;
      }

      .cls-11 {
        fill: #6acc96;
      }

      .cls-12 {
        fill: url(#linear-gradient-10);
      }

      .cls-13 {
        fill: #83b1f2;
      }

      .cls-4 {
        mix-blend-mode: soft-light;
      }

      .cls-14 {
        fill: #efeff4;
      }

      .cls-5 {
        opacity: .57;
      }

      .cls-15 {
        opacity: .3;
      }

      .cls-16 {
        fill: #d7d9e0;
      }

      .cls-17 {
        fill: #333435;
      }

      .cls-18 {
        opacity: .16;
      }

      .cls-19 {
        fill: url(#linear-gradient-5);
      }

      .cls-20 {
        fill: #74767b;
      }

      .cls-21 {
        fill: url(#linear-gradient-7);
      }

      .cls-22 {
        fill: #a8abb2;
      }

      .cls-23 {
        fill: #e5b731;
      }

      .cls-24 {
        fill: url(#linear-gradient-9);
      }

      .cls-25 {
        fill: url(#linear-gradient-3);
      }

      .cls-6 {
        opacity: .85;
      }

      .cls-26 {
        fill: #f7e057;
      }

      .cls-27 {
        fill: url(#linear-gradient);
      }

      .cls-28 {
        opacity: .77;
      }

      .cls-29 {
        fill: url(#linear-gradient-4);
      }

      .cls-30 {
        fill: url(#linear-gradient-8);
      }

      .cls-31 {
        fill: #979aa0;
      }
    </style>
    <linearGradient id="linear-gradient" x1="1127.79" y1="691.51" x2="1106.58" y2="1166.65" gradientUnits="userSpaceOnUse">
      <stop offset="0" stop-color="#48494b"/>
      <stop offset="1" stop-color="#48494b"/>
    </linearGradient>
    <linearGradient id="linear-gradient-2" x1="1682.49" y1="1457.16" x2="1570.43" y2="1405.28" gradientUnits="userSpaceOnUse">
      <stop offset="0" stop-color="#fff"/>
      <stop offset="1" stop-color="#efeff4"/>
    </linearGradient>
    <linearGradient id="linear-gradient-3" x1="1899.25" y1="2089.45" x2="1890.43" y2="2093.08" xlink:href="#linear-gradient-2"/>
    <linearGradient id="linear-gradient-4" x1="2026.6" y1="2103.47" x2="2004.81" y2="2103.47" xlink:href="#linear-gradient-2"/>
    <linearGradient id="linear-gradient-5" x1="2167.18" y1="1439.2" x2="2283.38" y2="1377.99" xlink:href="#linear-gradient-2"/>
    <linearGradient id="linear-gradient-6" x1="2132.86" y1="1374.06" x2="2249.07" y2="1312.85" xlink:href="#linear-gradient-2"/>
    <linearGradient id="linear-gradient-7" x1="1691.56" y1="1437.57" x2="1579.5" y2="1385.69" xlink:href="#linear-gradient-2"/>
    <linearGradient id="linear-gradient-8" x1="1904.88" y1="1375.36" x2="1864.94" y2="1224.39" xlink:href="#linear-gradient-2"/>
    <linearGradient id="linear-gradient-9" x1="1950.45" y1="1198.35" x2="2014.26" y2="1156.32" xlink:href="#linear-gradient-2"/>
    <linearGradient id="linear-gradient-10" x1="1966.38" y1="1222.52" x2="2030.19" y2="1180.5" xlink:href="#linear-gradient-2"/>
  </defs>
  <g class="cls-10">
    <g id="Illustration">
      <path class="cls-14" d="M1936.45,1897.46c-36.62,38.55-71.27,63.41-98.64,83.06-321.79,230.89-702.56,163.59-783.49,147.15-119.5-24.27-350.49-71.19-517.49-267.58-252.66-297.12-213.32-765.23-17.34-1074.23,35.85-56.52,225.21-370.23,610.07-420.54,232.92-30.45,504.43,30.96,701.05,195.69,412.72,345.78,383.34,1044.31,105.84,1336.46Z"/>
      <g>
        <g>
          <g class="cls-15">
            <path class="cls-16" d="M1668.63,531.05c-2.02-2.05-2.2-5.33-.33-7.6,4.08-4.96,8.44-9.81,12.95-14.43,2.2-2.25,5.79-2.29,8.04-.09,.03,.03,.05,.05,.08,.08,2.17,2.2,2.18,5.74,.01,7.96-4.29,4.38-8.43,8.99-12.3,13.7-1.99,2.42-5.58,2.77-8,.78-.16-.13-.3-.26-.44-.4Zm35.54-34.48c-.16-.16-.3-.33-.44-.51-1.92-2.48-1.47-6.05,1.01-7.98,5.1-3.95,10.41-7.73,15.8-11.22,2.63-1.71,6.14-.96,7.86,1.68,1.71,2.64,.95,6.16-1.68,7.86-5.12,3.32-10.17,6.9-15.01,10.66-2.3,1.78-5.54,1.53-7.53-.5Zm42.25-25.8c-.44-.45-.82-.98-1.1-1.59-1.32-2.85-.09-6.23,2.76-7.55,5.83-2.71,11.86-5.21,17.91-7.41,2.95-1.07,6.21,.45,7.29,3.39,1.07,2.95-.45,6.21-3.39,7.29-5.74,2.09-11.47,4.46-17.01,7.04-2.24,1.04-4.81,.5-6.45-1.16Zm46.97-15.7c-.73-.75-1.27-1.7-1.5-2.8-.65-3.07,1.31-6.09,4.37-6.74,6.3-1.34,12.73-2.43,19.12-3.22,3.11-.39,5.95,1.82,6.35,4.94,.39,3.11-1.82,5.96-4.94,6.35-6.07,.76-12.17,1.79-18.16,3.06-1.97,.42-3.92-.24-5.24-1.58Zm49.29-4.84c-1.03-1.05-1.66-2.49-1.63-4.07,.04-3.14,2.62-5.65,5.76-5.6,6.42,.09,12.93,.45,19.35,1.09,3.12,.31,5.41,3.09,5.1,6.21-.31,3.12-3.09,5.41-6.22,5.1-6.1-.6-12.28-.95-18.39-1.04-1.56-.02-2.96-.67-3.97-1.7Zm49.13,6.19c-1.33-1.35-1.96-3.34-1.48-5.33,.74-3.05,3.81-4.93,6.86-4.19,6.25,1.51,12.52,3.31,18.63,5.34,2.98,.99,4.59,4.21,3.59,7.19-.99,2.98-4.21,4.59-7.19,3.59-5.8-1.93-11.76-3.64-17.7-5.08-1.07-.26-1.99-.8-2.71-1.53Zm155.78,138.93c-.55-.56-1-1.24-1.28-2.03-2.1-5.73-4.48-11.45-7.07-17-1.33-2.84-.1-6.23,2.74-7.56,2.84-1.33,6.23-.1,7.56,2.74,2.73,5.84,5.24,11.86,7.45,17.9,1.08,2.95-.44,6.21-3.38,7.29-2.16,.79-4.49,.19-6.01-1.35Zm-109.27-122.02c-1.65-1.68-2.15-4.29-1.04-6.52,1.4-2.81,4.81-3.96,7.62-2.56,5.76,2.86,11.47,6.01,16.97,9.36,2.67,1.64,3.53,5.13,1.9,7.81-1.63,2.68-5.13,3.53-7.81,1.9-5.22-3.18-10.64-6.17-16.11-8.89-.58-.29-1.09-.66-1.52-1.1Zm87.11,77.74c-.26-.27-.51-.56-.72-.89-3.33-5.12-6.93-10.17-10.69-15-1.93-2.48-1.48-6.05,.99-7.98,2.48-1.93,6.06-1.5,7.98,.99,3.96,5.08,7.75,10.39,11.25,15.78,1.71,2.63,.97,6.15-1.66,7.87-2.3,1.5-5.29,1.11-7.15-.77Zm-45.54-50.87c-2.01-2.04-2.2-5.32-.34-7.59,1.99-2.43,5.57-2.78,8-.79,4.97,4.08,9.83,8.42,14.44,12.92,.03,.03,.06,.06,.09,.08,2.16,2.2,2.18,5.73,.02,7.95-2.19,2.25-5.79,2.3-8.04,.11-4.38-4.27-9-8.4-13.72-12.27-.16-.13-.31-.27-.45-.41Z"/>
            <path class="cls-16" d="M2057.88,633.92c-.79-.8-1.34-1.83-1.55-3.02-.49-2.89-1.06-5.81-1.68-8.7-.66-3.07,1.3-6.09,4.37-6.75,3.07-.66,6.1,1.3,6.75,4.37,.65,3.03,1.24,6.11,1.76,9.15,.53,3.09-1.55,6.03-4.64,6.56-1.91,.33-3.76-.34-5.02-1.62Z"/>
          </g>
          <g class="cls-15">
            <path class="cls-16" d="M2018.16,802.61c-1.92-1.95-2.2-5.07-.52-7.35,1.74-2.36,3.45-4.8,5.1-7.24,1.76-2.6,5.29-3.29,7.89-1.54,2.61,1.76,3.29,5.29,1.54,7.89-1.74,2.57-3.54,5.14-5.37,7.62-1.86,2.53-5.42,3.07-7.95,1.21-.25-.18-.48-.38-.69-.6Z"/>
            <path class="cls-16" d="M1682.14,827.03c-1.83-1.86-3.65-3.77-5.43-5.71-2.13-2.31-1.98-5.91,.33-8.03,2.31-2.13,5.92-1.97,8.03,.33,4.12,4.48,8.41,8.78,12.81,12.82,2.31,2.13,2.46,5.72,.33,8.03-2.13,2.31-5.72,2.46-8.03,.33-2.72-2.5-5.43-5.12-8.04-7.78Zm-24.2-29.12c-.22-.23-.43-.48-.62-.75-3.62-5.2-7.07-10.62-10.24-16.1-1.57-2.72-.64-6.19,2.07-7.77,2.72-1.57,6.21-.64,7.77,2.07,3.01,5.2,6.28,10.35,9.72,15.29,1.79,2.58,1.16,6.12-1.42,7.91-2.31,1.61-5.39,1.27-7.3-.67Zm55.6,55.59c-1.88-1.91-2.2-4.94-.61-7.23,1.79-2.58,5.33-3.22,7.91-1.43,4.93,3.43,10.08,6.69,15.3,9.69,2.72,1.57,3.66,5.04,2.09,7.76-1.57,2.72-5.04,3.66-7.76,2.09-5.5-3.16-10.92-6.6-16.11-10.21-.3-.21-.57-.44-.81-.69Zm-78.88-98.42c-.51-.51-.92-1.13-1.21-1.84-2.39-5.87-4.56-11.91-6.44-17.95-.93-3,.74-6.18,3.73-7.12,3-.94,6.18,.73,7.12,3.73,1.79,5.74,3.85,11.48,6.12,17.05,1.19,2.91-.21,6.22-3.12,7.41-2.2,.9-4.63,.32-6.2-1.28Zm121.71,121.6c-1.54-1.57-2.1-3.96-1.22-6.13,1.18-2.91,4.49-4.31,7.4-3.13,5.56,2.26,11.3,4.31,17.05,6.09,3,.93,4.68,4.12,3.74,7.11-.93,3-4.12,4.67-7.11,3.74-6.06-1.88-12.1-4.04-17.96-6.41-.74-.3-1.39-.74-1.91-1.28Zm46.88,13.22c-1.23-1.25-1.87-3.06-1.56-4.92,.52-3.1,3.44-5.19,6.54-4.67,5.94,.99,11.99,1.74,17.98,2.23,3.13,.25,5.46,2.99,5.2,6.13-.26,3.13-3,5.46-6.13,5.2-6.31-.52-12.67-1.3-18.92-2.34-1.23-.2-2.3-.79-3.11-1.62Zm48.65,2.69c-.94-.95-1.54-2.24-1.62-3.68-.17-3.13,2.23-5.81,5.37-5.99,6.02-.33,12.09-.91,18.04-1.74,3.11-.43,5.98,1.73,6.41,4.85,.43,3.11-1.74,5.98-4.85,6.41-6.26,.87-12.65,1.49-18.98,1.83-1.69,.09-3.26-.57-4.36-1.69Zm48.07-7.98c-.65-.66-1.15-1.49-1.42-2.44-.85-3.02,.91-6.16,3.93-7.01,5.8-1.64,11.59-3.54,17.21-5.65,2.94-1.1,6.22,.39,7.32,3.32,1.11,2.94-.38,6.22-3.32,7.32-5.93,2.23-12.03,4.23-18.13,5.95-2.07,.58-4.19-.06-5.6-1.49Zm45.17-18.35c-.37-.37-.68-.8-.95-1.28-1.5-2.76-.47-6.21,2.28-7.71,5.28-2.87,10.51-5.99,15.54-9.3,2.62-1.72,6.15-.99,7.87,1.63,1.73,2.62,1,6.15-1.63,7.87-5.3,3.48-10.8,6.78-16.36,9.79-2.28,1.24-5.03,.76-6.76-1Zm40-27.81c-.08-.08-.16-.17-.24-.26-2.06-2.37-1.81-5.96,.55-8.02,3.34-2.91,6.63-5.96,9.78-9.06,1.14-1.12,2.27-2.26,3.38-3.4,2.19-2.25,5.79-2.3,8.04-.11,2.32,2.17,2.3,5.79,.11,8.04-1.17,1.2-2.35,2.39-3.55,3.58-3.31,3.26-6.78,6.47-10.29,9.53-2.28,1.98-5.69,1.83-7.78-.29Z"/>
            <path class="cls-16" d="M1621.36,708.05c-.79-.81-1.35-1.85-1.55-3.05-.51-3.04-.96-6.14-1.34-9.23-.39-3.12,1.82-5.96,4.94-6.34,3.12-.39,5.96,1.82,6.34,4.94,.36,2.93,.79,5.88,1.27,8.76,.52,3.09-1.58,6.02-4.67,6.54-1.9,.32-3.73-.35-4.99-1.62Z"/>
          </g>
          <g>
            <path class="cls-16" d="M1673.72,667.26c-.12,1.13,.48,2.21,1.51,2.69l29.24,13.8c1.83,14.99,6.06,29.8,12.77,43.81l-17.22,27.34c-.6,.96-.53,2.2,.18,3.08l24.29,30.24c.71,.88,1.9,1.22,2.97,.84l30.41-10.92c12.24,9.58,25.78,16.9,40.02,21.92l7.16,31.53c.25,1.1,1.18,1.93,2.3,2.05l38.56,4.21c1.13,.12,2.21-.48,2.69-1.51l13.8-29.24c14.99-1.83,29.8-6.06,43.81-12.77l27.34,17.22c.96,.6,2.2,.53,3.08-.18l30.24-24.29c.88-.71,1.22-1.9,.84-2.97l-10.92-30.41c9.58-12.24,16.9-25.78,21.92-40.02l31.53-7.16c1.1-.25,1.93-1.18,2.05-2.3l4.21-38.56c.12-1.13-.48-2.21-1.51-2.69l-29.24-13.8c-1.83-14.99-6.06-29.8-12.77-43.81l17.22-27.34c.6-.96,.53-2.2-.18-3.08l-24.29-30.24c-.71-.88-1.9-1.22-2.97-.84l-30.41,10.92c-12.24-9.58-25.78-16.9-40.02-21.92l-7.16-31.53c-.25-1.11-1.18-1.93-2.3-2.05l-38.56-4.21c-1.13-.12-2.21,.48-2.69,1.51l-13.8,29.24c-14.99,1.83-29.8,6.06-43.81,12.77l-27.34-17.22c-.96-.6-2.2-.53-3.08,.18l-30.24,24.29c-.88,.71-1.22,1.9-.84,2.97l10.92,30.41c-9.58,12.24-16.9,25.78-21.92,40.02l-31.53,7.16c-1.11,.25-1.93,1.18-2.05,2.3l-4.21,38.56Z"/>
            <path class="cls-14" d="M1817.32,693.8c-13.33-13.54-15.1-35.22-3.31-50.83,12.96-17.16,37.45-20.57,54.61-7.61,8.31,6.28,13.68,15.41,15.12,25.73,1.44,10.31-1.23,20.57-7.5,28.88-12.96,17.16-37.45,20.57-54.61,7.61-1.55-1.17-2.98-2.43-4.31-3.77Zm49.15-48.27c-1.03-1.05-2.14-2.02-3.33-2.92-13.15-9.93-31.94-7.31-41.87,5.84-9.93,13.15-7.32,31.94,5.84,41.87,13.15,9.93,31.93,7.31,41.87-5.84,4.81-6.37,6.86-14.24,5.75-22.14-.9-6.43-3.79-12.26-8.26-16.8Z"/>
            <path class="cls-14" d="M1777.75,733.87c-2.29-2.33-4.48-4.78-6.55-7.36h0c-.65-.81-1.29-1.63-1.92-2.47-3.09-4.11-5.84-8.45-8.22-12.97-.03-.06-.06-.12-.1-.18-.09-.18-.18-.35-.27-.53-.18-.34-.35-.68-.52-1.03-.45-.9-.25-1.96,.44-2.64,.17-.16,.36-.3,.58-.41,1.12-.56,2.49-.1,3.05,1.02,2.89,5.78,6.43,11.28,10.51,16.36,20.26,25.23,51.28,36.84,81.28,33.55,16.69-1.83,33.06-8.27,47.09-19.54,2.46-1.98,4.8-4.06,7.02-6.25,14.93-14.7,24.27-33.93,26.57-55.04,2.65-24.25-4.31-48.07-19.58-67.09-31.55-39.27-89.12-45.54-128.38-14.01-2.42,1.94-4.73,4-6.93,6.17-9.52,9.38-16.89,20.74-21.52,33.28-.12,.32-.31,.6-.54,.83-.61,.6-1.53,.83-2.38,.51-1.18-.44-1.78-1.74-1.34-2.92,4.87-13.17,12.6-25.1,22.6-34.94,2.31-2.27,4.73-4.43,7.27-6.47,41.21-33.1,101.68-26.49,134.77,14.71,16.03,19.96,23.33,44.98,20.55,70.43-2.42,22.16-12.22,42.35-27.9,57.78-2.33,2.29-4.79,4.48-7.37,6.56-19.97,16.03-44.98,23.34-70.43,20.56-22.17-2.42-42.35-12.23-57.79-27.91Z"/>
          </g>
        </g>
        <g>
          <g class="cls-15">
            <path class="cls-16" d="M1395.79,448.32c-1.18-1.2-1.49-3.07-.63-4.62,1.61-2.89,3.32-5.76,5.1-8.55,1.15-1.81,3.56-2.34,5.37-1.19,1.82,1.15,2.34,3.56,1.19,5.37-1.69,2.66-3.33,5.4-4.86,8.15-1.04,1.88-3.41,2.55-5.29,1.51-.33-.19-.63-.41-.88-.67Z"/>
            <path class="cls-16" d="M1412.67,423.61c-1.38-1.41-1.51-3.66-.22-5.21,3.63-4.38,7.52-8.63,11.57-12.61,.85-.84,1.72-1.67,2.59-2.5,1.57-1.47,4.05-1.26,5.5,.16,1.47,1.56,1.4,4.02-.16,5.5-.84,.79-1.67,1.59-2.48,2.39-3.86,3.8-7.58,7.85-11.04,12.03-1.37,1.66-3.82,1.89-5.48,.52-.1-.09-.2-.18-.29-.27Zm29.38-27.73c-.13-.13-.25-.27-.36-.42-1.27-1.73-.9-4.17,.83-5.44,5.55-4.09,11.41-7.87,17.4-11.23,1.87-1.05,4.25-.38,5.3,1.49,1.05,1.88,.39,4.24-1.49,5.3-5.72,3.21-11.3,6.82-16.59,10.72-1.58,1.16-3.74,.96-5.07-.4Zm35.23-19.77c-.35-.35-.63-.78-.83-1.26-.81-1.99,.15-4.26,2.14-5.07,6.37-2.6,12.98-4.83,19.64-6.62,2.08-.56,4.21,.67,4.77,2.75,.56,2.07-.67,4.21-2.74,4.77-6.35,1.71-12.65,3.83-18.72,6.31-1.5,.61-3.17,.21-4.24-.88Zm39.01-10.51c-.57-.57-.96-1.33-1.08-2.18-.3-2.13,1.19-4.1,3.31-4.4,6.83-.96,13.78-1.5,20.65-1.61,2.15-.03,3.92,1.69,3.95,3.83,.04,2.15-1.68,3.92-3.83,3.95-6.55,.1-13.18,.62-19.69,1.54-1.27,.18-2.48-.28-3.32-1.13Zm40.39-.66c-.79-.8-1.23-1.94-1.1-3.15,.23-2.14,2.14-3.68,4.28-3.46,6.85,.73,13.72,1.89,20.41,3.45,2.1,.48,3.4,2.58,2.91,4.67-.49,2.09-2.58,3.4-4.67,2.91-6.39-1.49-12.94-2.6-19.48-3.29-.93-.1-1.75-.52-2.36-1.14Zm39.33,9.16c-1.02-1.04-1.42-2.61-.88-4.07,.74-2.02,2.98-3.05,4.99-2.31,6.46,2.37,12.84,5.18,18.95,8.33,1.91,.99,2.66,3.33,1.67,5.24-.98,1.91-3.33,2.66-5.24,1.67-5.83-3-11.91-5.67-18.07-7.94-.56-.2-1.04-.53-1.43-.92Zm35.88,18.49c-1.28-1.3-1.5-3.36-.44-4.92,1.21-1.77,3.63-2.23,5.41-1.02,5.67,3.88,11.16,8.16,16.34,12.73,1.59,1.45,1.76,3.89,.34,5.49-1.42,1.61-3.88,1.76-5.49,.34-4.94-4.36-10.18-8.45-15.58-12.14-.21-.15-.4-.31-.58-.48Zm42.73,42.7c-.16-.16-.3-.34-.44-.53-3.21-4.68-6.74-9.26-10.48-13.62-.56-.66-1.12-1.31-1.69-1.95-1.42-1.61-1.28-4.07,.33-5.49,1.61-1.43,4.12-1.32,5.49,.33,.6,.68,1.2,1.36,1.79,2.06,3.91,4.56,7.6,9.36,10.97,14.26,1.22,1.77,.77,4.19-1,5.41-1.58,1.08-3.67,.85-4.97-.47Z"/>
          </g>
          <g class="cls-15">
            <path class="cls-16" d="M1423.9,644.94c-1.49-1.51-1.49-3.95,0-5.47,1.51-1.53,3.98-1.54,5.5-.03,4.6,4.55,9.51,8.86,14.61,12.81,1.68,1.32,2.01,3.76,.69,5.46-1.32,1.7-3.76,2.01-5.46,.69-5.34-4.14-10.5-8.66-15.31-13.43-.01-.01-.03-.03-.04-.04Zm-13.28-14.83c-.1-.1-.19-.2-.28-.32-4.21-5.31-8.14-10.92-11.68-16.69-1.12-1.83-.55-4.23,1.28-5.35,1.83-1.13,4.23-.54,5.35,1.28,3.38,5.51,7.13,10.86,11.15,15.93,1.34,1.68,1.05,4.13-.63,5.46-1.57,1.25-3.81,1.08-5.19-.31Zm44.69,39.15c-1.21-1.23-1.49-3.16-.57-4.72,1.1-1.84,3.48-2.45,5.33-1.36,5.57,3.3,11.38,6.3,17.28,8.9,1.97,.88,2.86,3.16,1.99,5.13-.86,1.97-3.16,2.86-5.13,1.99-6.19-2.72-12.28-5.86-18.11-9.33-.3-.18-.56-.38-.79-.62Zm-65.46-73.04c-.31-.32-.57-.69-.77-1.12-2.81-6.17-5.27-12.57-7.31-19.03-.65-2.05,.49-4.23,2.54-4.88,2.04-.64,4.23,.5,4.88,2.54,1.94,6.16,4.29,12.26,6.97,18.14,.89,1.95,.03,4.26-1.93,5.15-1.53,.7-3.27,.32-4.39-.81Zm101.82,89.04c-.97-.98-1.38-2.45-.95-3.86,.62-2.06,2.79-3.22,4.85-2.6,6.18,1.87,12.54,3.38,18.9,4.48,2.12,.37,3.54,2.38,3.17,4.5-.37,2.12-2.38,3.54-4.5,3.17-6.67-1.16-13.34-2.74-19.82-4.7-.65-.2-1.2-.55-1.64-.99Zm39.14,6.82c-.74-.75-1.17-1.8-1.11-2.93,.11-2.15,1.94-3.8,4.09-3.69,6.46,.33,13,.28,19.44-.17,2.15-.15,4,1.47,4.15,3.61,.15,2.14-1.47,4-3.61,4.15-6.74,.47-13.6,.53-20.37,.18-1.01-.05-1.91-.49-2.57-1.15Zm39.65-2.75c-.52-.53-.9-1.21-1.04-1.99-.41-2.11,.97-4.15,3.08-4.56,6.35-1.22,12.69-2.84,18.83-4.83,2.04-.66,4.24,.46,4.9,2.51,.66,2.05-.46,4.24-2.51,4.9-6.44,2.08-13.08,3.78-19.74,5.06-1.33,.25-2.63-.2-3.51-1.1Z"/>
            <path class="cls-16" d="M1377.85,558.15c-.53-.53-.9-1.23-1.05-2.02-.61-3.27-1.12-6.58-1.52-9.83-.26-2.13,1.25-4.08,3.38-4.34,2.13-.26,4.07,1.25,4.34,3.38,.38,3.1,.87,6.25,1.45,9.38,.39,2.11-1.01,4.14-3.12,4.53-1.32,.24-2.61-.21-3.48-1.1Z"/>
          </g>
          <g>
            <path class="cls-16" d="M1415.94,525.19c-.09,.84,.36,1.64,1.12,2l21.69,10.23c1.36,11.12,4.49,22.1,9.47,32.49l-12.77,20.28c-.45,.71-.4,1.63,.13,2.28l18.01,22.43c.53,.66,1.41,.9,2.2,.62l22.55-8.1c9.08,7.1,19.12,12.54,29.68,16.26l5.31,23.38c.19,.82,.87,1.43,1.71,1.52l28.59,3.12c.84,.09,1.64-.36,2-1.12l10.23-21.69c11.12-1.36,22.1-4.49,32.49-9.47l20.28,12.77c.71,.45,1.63,.4,2.28-.13l22.42-18.01c.66-.53,.9-1.41,.62-2.2l-8.1-22.55c7.1-9.08,12.54-19.12,16.26-29.68l23.38-5.31c.82-.19,1.43-.87,1.52-1.71l3.12-28.59c.09-.84-.36-1.64-1.12-2l-21.69-10.23c-1.35-11.12-4.49-22.1-9.47-32.49l12.77-20.28c.45-.71,.4-1.63-.13-2.28l-18.01-22.43c-.53-.66-1.41-.9-2.2-.62l-22.55,8.1c-9.08-7.1-19.12-12.54-29.68-16.26l-5.31-23.38c-.19-.82-.87-1.43-1.71-1.52l-28.59-3.12c-.84-.09-1.64,.36-2,1.12l-10.23,21.69c-11.12,1.36-22.1,4.49-32.49,9.47l-20.28-12.77c-.71-.45-1.63-.4-2.28,.13l-22.42,18.01c-.66,.53-.9,1.41-.62,2.2l8.1,22.55c-7.1,9.08-12.53,19.12-16.26,29.68l-23.38,5.31c-.82,.19-1.43,.87-1.52,1.71l-3.12,28.59Z"/>
            <path class="cls-14" d="M1522.02,545.2c-4.4-4.47-7.25-10.21-8.13-16.54-1.09-7.79,.93-15.53,5.67-21.8,9.78-12.95,28.27-15.53,41.22-5.75,12.95,9.82,15.53,28.28,5.75,41.22-4.74,6.27-11.64,10.33-19.42,11.41-7.79,1.09-15.53-.92-21.8-5.67-1.17-.89-2.27-1.85-3.28-2.88Zm36.45-35.79c-.73-.75-1.53-1.45-2.39-2.1-9.53-7.19-23.13-5.29-30.32,4.23-3.48,4.61-4.97,10.31-4.17,16.03,.8,5.73,3.78,10.8,8.39,14.29h0c4.61,3.48,10.31,4.96,16.04,4.17,5.73-.8,10.8-3.78,14.29-8.4,6.54-8.66,5.56-20.71-1.84-28.23Z"/>
            <path class="cls-14" d="M1491.46,576.08c-1.73-1.75-3.38-3.61-4.95-5.57-3.13-3.89-5.86-8.1-8.13-12.53l-.3-.6c-.78-1.55-.42-3.36,.74-4.51,.28-.28,.62-.52,.99-.71,1.92-.96,4.25-.18,5.22,1.74,2.08,4.15,4.62,8.1,7.54,11.74h0c.16,.2,.32,.4,.48,.6,6.99,8.54,15.85,15.01,25.81,19.06,5.41,2.2,11.14,3.68,17.09,4.38,.05,0,.1,.01,.14,.02,.15,.02,.3,.03,.44,.05,17.4,1.9,34.49-3.09,48.13-14.05,1.77-1.42,3.45-2.91,5.04-4.48,10.71-10.55,17.41-24.34,19.06-39.49,1.9-17.4-3.09-34.49-14.05-48.13-10.96-13.63-26.57-22.2-43.97-24.1-17.4-1.9-34.49,3.09-48.13,14.05-1.74,1.39-3.4,2.87-4.97,4.42-6.83,6.73-12.12,14.88-15.44,23.88-.21,.55-.52,1.03-.92,1.42-1.04,1.02-2.62,1.42-4.08,.88-2.01-.75-3.05-2.98-2.3-5,3.72-10.07,9.63-19.19,17.27-26.72,1.77-1.74,3.62-3.39,5.56-4.95,15.27-12.26,34.39-17.84,53.85-15.72,19.46,2.13,36.93,11.68,49.19,26.96,12.26,15.26,17.84,34.39,15.72,53.85-1.85,16.94-9.35,32.38-21.33,44.18-1.78,1.75-3.66,3.43-5.63,5.01-29.55,23.73-72.05,20.77-98.09-5.68Z"/>
          </g>
        </g>
      </g>
      <path class="cls-8" d="M363.76,390.58c-1.81-7.69,9.01-12.8,15.63-7.43,67.24,54.52,228.8,217.8,188.54,503.14-50.52,358,35.85,488.63,143.35,568.32,0,0-147.64-37.47-240.52-170.03-228.06-325.45-74.88-757.33-106.99-894.01Z"/>
      <path class="cls-4" d="M414.93,502.4c8.41,39.85,15.91,79.83,21.7,119.99,6.04,40.12,10.66,80.39,13.83,120.71,2.99,40.34,5.1,80.71,5.22,121.11,.33,40.39-1.35,80.75-3.2,121.27-1.59,40.5-3.45,81.3-.49,122.38,2.92,41,11.55,82.36,28.67,121.13,4.28,9.66,8.78,19.3,13.9,28.6,4.92,9.39,10.32,18.6,15.9,27.72,11.28,18.2,23.99,35.78,38.14,52.47,28.41,33.32,62.68,62.88,100.43,87.89,3.97,2.63,9.67,1.99,12.72-1.45,2.99-3.37,2.33-8.17-1.46-10.83l-.03-.02c-8.98-6.31-17.87-12.7-26.4-19.41-4.33-3.3-8.47-6.75-12.7-10.14-4.07-3.52-8.3-6.91-12.23-10.53-16.03-14.27-30.88-29.49-44.35-45.58-27.1-32.04-48.79-67.74-65.23-104.76-7.98-18.59-14.36-37.66-19.01-57.09-4.64-19.43-7.56-39.2-9.17-59.13-3.23-39.88-1.77-80.27-.52-120.78,1.19-40.52,2.06-81.25,.99-121.94-.47-20.35-1.37-40.68-2.68-60.99-.59-10.16-1.41-20.31-2.2-30.45-.91-10.14-1.88-20.27-2.95-30.4-4.36-40.5-10.16-80.86-17.42-121.01-7.49-40.12-16.2-80.05-26.68-119.62-.3-1.13-1.6-1.84-2.91-1.58-1.27,.25-2.08,1.33-1.85,2.42Z"/>
      <path class="cls-7" d="M574.56,1257.8c-8.24,8.75-15.68,48.17-24.9,40.46-66.4-55.51-128.71-293.72-26.44-498.57,86.37-172.99,116.76-275,127.35-322.26,2.24-9.99,15.94-11.32,20.07-1.95,45.61,103.39,202.66,465.35-96.08,782.32Z"/>
      <path class="cls-4" d="M561.48,1238.89c-.29,.07-.59,.11-.9,.12-2.59,.09-4.76-1.94-4.85-4.53-.1-2.94-8.85-296.52,88.12-547.56,.93-2.42,3.65-3.62,6.07-2.69,2.42,.93,3.62,3.65,2.69,6.07-96.27,249.21-87.59,540.94-87.49,543.86,.08,2.28-1.49,4.24-3.63,4.73Z"/>
      <g>
        <polygon class="cls-22" points="825.28 1030.57 832.86 595.6 851.73 595.6 851.73 1042.18 825.28 1030.57"/>
        <g>
          <path class="cls-22" d="M943.27,431.14c-3.88-19.09-67.83,91.29-89.06,118.44-21.24,27.15-4.67,35.68-4.67,35.68l2.78,2.63s0,0,.01,0c8.38,1.64,16.97-1.68,21.11-9.04,19.63-34.95,73-132.13,69.83-147.71Z"/>
          <path class="cls-22" d="M942.71,765.66c18.61,5.75-47.59-103.29-61.24-134.94-13.65-31.65-28.86-20.96-28.86-20.96l-3.43,1.42s0,0,0,0c-6,5.95-6.88,15.45-2.4,22.61,21.26,33.98,80.74,127.17,95.94,131.86Z"/>
          <path class="cls-22" d="M652.19,629.94c-16.35-10.58,109.75-29.8,142.78-39.66,33.03-9.85,34.67,8.68,34.67,8.68l1.18,3.54h0c0,8.43-7.51,15.21-15.87,16.37-39.7,5.51-149.41,19.71-162.76,11.07Z"/>
          <g>
            <path class="cls-17" d="M862.79,605.23c-3.86,10.25-15.3,15.43-25.55,11.57-10.25-3.86-15.43-15.3-11.57-25.55,3.86-10.25,15.3-15.43,25.55-11.57,10.25,3.86,15.43,15.3,11.57,25.55Z"/>
            <path class="cls-22" d="M844.26,612.61c-1.66,0-3.36-.29-5.01-.92-3.57-1.34-6.39-3.99-7.97-7.46-1.57-3.47-1.7-7.34-.36-10.91,1.34-3.56,3.99-6.39,7.46-7.97,3.47-1.57,7.34-1.7,10.91-.36,7.36,2.77,11.09,11.01,8.32,18.37h0c-2.15,5.71-7.59,9.24-13.36,9.24Zm.01-26.32c-1.69,0-3.38,.36-4.97,1.08-2.93,1.33-5.17,3.72-6.31,6.73-1.13,3.01-1.03,6.29,.3,9.22,1.33,2.93,3.72,5.17,6.73,6.31,6.23,2.34,13.19-.82,15.53-7.04h0c2.34-6.22-.81-13.19-7.03-15.53-1.38-.52-2.82-.78-4.25-.78Z"/>
          </g>
        </g>
      </g>
      <g>
        <g>
          <polygon class="cls-22" points="1106.07 863.73 1113.5 513.71 1134.66 513.71 1134.66 871.96 1106.07 863.73"/>
          <path class="cls-27" d="M1144.21,871.76c0,5.53-2.62,9.54-5.85,9.54h-37.23c-3.23,0-5.85-4.01-5.85-9.54h0c0-5.53,2.62-9.54,5.85-9.54h37.23c3.23,0,5.85,4.01,5.85,9.54h0Z"/>
        </g>
        <g>
          <path class="cls-22" d="M1230.36,337.33c-4.11-20.2-71.79,96.62-94.27,125.36-22.48,28.74-4.94,37.77-4.94,37.77l2.94,2.78s0,0,.01,0c8.87,1.74,17.96-1.77,22.34-9.57,20.78-36.99,77.27-139.85,73.92-156.35Z"/>
          <path class="cls-22" d="M1229.77,691.41c19.7,6.08-50.37-109.33-64.82-142.83-14.44-33.5-30.55-22.19-30.55-22.19l-3.63,1.51s0,0-.01,.01c-6.35,6.3-7.28,16.36-2.54,23.93,22.5,35.97,85.46,134.6,101.55,139.57Z"/>
          <path class="cls-22" d="M922.26,547.76c-17.31-11.2,116.17-31.55,151.13-41.98,34.96-10.43,36.22,9.19,36.22,9.19l.77,3.75h0c0,8.92-7.47,16.09-16.32,17.32-42.02,5.83-157.67,20.86-171.8,11.72Z"/>
          <g>
            <path class="cls-17" d="M1145.17,521.6c-4.08,10.85-16.19,16.33-27.04,12.25-10.85-4.08-16.33-16.19-12.25-27.04,4.08-10.85,16.19-16.33,27.04-12.25,10.85,4.08,16.33,16.19,12.25,27.04Z"/>
            <path class="cls-22" d="M1125.56,529.34c-1.75,0-3.54-.31-5.28-.96-3.76-1.41-6.74-4.21-8.4-7.87-1.66-3.66-1.79-7.74-.37-11.5,1.41-3.76,4.21-6.74,7.87-8.39,3.66-1.66,7.74-1.79,11.5-.37,3.76,1.41,6.74,4.21,8.4,7.86,1.66,3.66,1.79,7.74,.37,11.5-2.27,6.02-8,9.74-14.08,9.74Zm.01-27.86c-1.8,0-3.6,.38-5.29,1.15-3.12,1.41-5.5,3.96-6.71,7.16s-1.09,6.69,.32,9.81c1.41,3.12,3.96,5.5,7.16,6.71,6.62,2.49,14.03-.87,16.52-7.49,1.21-3.21,1.09-6.69-.32-9.81-1.41-3.12-3.96-5.5-7.16-6.71-1.47-.55-3-.83-4.53-.83Z"/>
          </g>
        </g>
      </g>
      <ellipse class="cls-13" cx="1266.4" cy="1326.33" rx="669.05" ry="722.18" transform="translate(-114.2 2533.34) rotate(-87.49)"/>
      <g class="cls-18">
        <ellipse class="cls-16" cx="1227.31" cy="1278.06" rx="566.69" ry="535.34"/>
      </g>
      <g class="cls-1">
        <path class="cls-4" d="M1450.89,1329.56c-.17,118-8.27,236.25-29.06,352.58-5.26,29.06-11.37,57.98-18.64,86.62-7.29,28.63-15.72,57.02-26.03,84.77-10.4,27.68-22.47,54.96-38.83,79.9-8.25,12.38-17.6,24.24-29.14,33.99-5.77,4.85-12.11,9.14-19.08,12.29-6.96,3.13-14.56,5.11-22.27,5.25-7.7,.23-15.42-1.28-22.51-4.14-7.12-2.83-13.61-6.93-19.52-11.62-11.82-9.45-21.38-21.18-29.77-33.46-16.65-24.76-28.89-51.98-39.39-79.62-10.44-27.71-18.95-56.07-26.3-84.68-7.34-28.63-13.51-57.53-18.82-86.58-10.59-58.11-17.82-116.78-22.69-175.61-4.84-58.84-7.27-117.87-7.57-176.91-.15-29.52,.66-59.03,1.71-88.52,1.11-29.49,2.73-58.96,4.9-88.4,4.37-58.86,10.89-117.59,20.58-175.83,4.86-29.12,10.53-58.11,17.36-86.84,6.84-28.73,14.79-57.22,24.65-85.1,4.95-13.93,10.37-27.71,16.55-41.16,6.17-13.45,13.07-26.61,21.19-39.05,8.13-12.39,17.48-24.21,29.12-33.67,5.82-4.69,12.23-8.77,19.26-11.54,7-2.8,14.59-4.22,22.14-3.93,7.56,.22,15.01,2.1,21.88,5.13,6.88,3.04,13.21,7.18,19.01,11.87,11.61,9.44,21.22,20.97,29.75,33.09,16.95,24.4,29.73,51.31,40.8,78.69,10.99,27.45,20.06,55.62,27.97,84.08,7.88,28.47,14.54,57.26,20.31,86.21,22.84,115.93,32.11,234.19,32.45,352.21Zm-8.73,0c.11-58.8-2.13-117.61-7.01-176.2-4.82-58.59-12.12-117.01-22.99-174.79-5.43-28.88-11.75-57.6-19.28-86.01-7.55-28.39-16.27-56.49-26.88-83.86-10.69-27.29-23.08-54.11-39.53-78.34-8.27-12.03-17.59-23.45-28.78-32.75-5.59-4.62-11.66-8.68-18.24-11.67-6.56-2.95-13.63-4.89-20.82-5.08-7.19-.23-14.36,1.22-21.01,3.95-6.67,2.71-12.79,6.69-18.38,11.29-11.17,9.28-20.22,20.95-28.08,33.23-7.85,12.33-14.53,25.4-20.49,38.79-5.97,13.39-11.2,27.11-15.96,40.99-9.48,27.78-17.08,56.2-23.57,84.86-6.47,28.66-11.81,57.59-16.33,86.63-9.02,58.11-14.88,116.69-18.59,175.38-3.75,58.7-5.04,117.53-4.93,176.33-.16,58.79,1.81,117.61,6.18,176.24,4.4,58.63,11.15,117.1,21.25,175.01,5.06,28.95,10.97,57.74,18.05,86.24,7.09,28.49,15.32,56.71,25.45,84.23,10.18,27.44,22.09,54.44,38.19,78.76,8.1,12.06,17.32,23.49,28.49,32.56,5.58,4.5,11.66,8.39,18.22,11.06,6.55,2.67,13.57,4.16,20.61,3.92,7.04-.18,13.97-2.04,20.4-4.99,6.45-2.97,12.39-7.06,17.85-11.72,10.93-9.38,19.95-20.96,27.91-33.12,15.81-24.51,27.55-51.57,37.62-79.06,9.99-27.57,18.13-55.81,25.15-84.32,7-28.52,12.84-57.33,17.85-86.29,10.03-57.92,16.69-116.4,21.12-175.03,4.49-58.63,6.56-117.45,6.54-176.26Z"/>
        <path class="cls-4" d="M1748.58,1329.56c-.41,75.99-10.17,152.01-30.52,225.3-20.7,73.11-51.9,143.45-94.26,206.6-21.18,31.54-45.18,61.23-71.99,88.16-26.8,26.93-56.45,51.09-88.62,71.34-32.21,20.17-66.99,36.32-103.4,47.28-36.39,10.98-74.38,16.71-112.41,16.75-38.02,0-76.03-5.7-112.44-16.65-36.43-10.93-71.25-27.05-103.48-47.2-32.21-20.23-61.9-44.37-88.74-71.29-26.86-26.92-50.9-56.6-72.13-88.14-42.44-63.16-73.71-133.52-94.51-206.67-10.24-36.64-17.84-74.01-22.88-111.7-5.01-37.7-7.53-75.73-7.7-113.76,.2-38.04,2.74-76.06,7.77-113.75,5.06-37.69,12.7-75.05,22.96-111.67,20.85-73.12,52.16-143.44,94.63-206.53,21.24-31.51,45.29-61.16,72.14-88.05,26.85-26.88,56.51-51,88.72-71.16,32.23-20.1,67.03-36.11,103.4-47.03,36.35-10.97,74.29-16.69,112.26-16.72,37.97,.07,75.9,5.82,112.23,16.82,36.35,10.95,71.13,26.99,103.32,47.11,32.17,20.19,61.79,44.33,88.59,71.22,26.81,26.9,50.81,56.55,72,88.07,42.39,63.08,73.64,133.37,94.39,206.45,20.39,73.25,30.21,149.26,30.67,225.26Zm-10.01,0c-.11-75.13-9.47-150.34-29.29-222.86-19.93-72.41-49.95-142.32-91.26-205.18-20.65-31.4-44.1-61-70.37-87.9-26.28-26.86-55.3-51.17-87.04-71.37-31.78-20.09-66.1-36.26-102.09-47.19-35.97-10.94-73.52-16.7-111.14-16.82-37.62,.16-75.16,5.94-111.11,16.91-35.97,10.97-70.26,27.17-102,47.27-31.71,20.22-60.69,44.55-86.92,71.42-26.22,26.92-49.63,56.52-70.23,87.92-41.23,62.86-71.18,132.73-91.01,205.11-9.88,36.23-17.04,73.17-21.88,110.39-4.86,37.22-7.26,74.76-7.34,112.3,.11,37.55,2.53,75.08,7.41,112.29,4.87,37.21,12.06,74.14,21.96,110.35,19.89,72.35,49.88,142.17,91.14,204.97,20.61,31.37,44.02,60.94,70.23,87.82,26.23,26.83,55.19,51.13,86.89,71.29,31.74,20.06,66.02,36.14,101.92,47.1,35.88,10.99,73.37,16.8,110.94,16.99,37.57-.16,75.06-5.93,110.97-16.89,35.92-10.93,70.23-26.99,102-47.02,31.74-20.14,60.74-44.42,87.01-71.24,26.26-26.87,49.72-56.43,70.37-87.81,41.35-62.8,71.41-132.66,91.39-205.04,19.87-72.49,29.28-147.69,29.44-222.82Z"/>
        <path class="cls-4" d="M662.51,1070.21l150.52-1.22,150.52-.69,301.03-.56,301.03,.61,150.52,.75,150.52,1.31c.24,0,.44,.2,.44,.45,0,.24-.2,.44-.44,.44l-150.52,1.31-150.52,.75-301.03,.61-301.03-.56-150.52-.69-150.52-1.22c-.36,0-.66-.3-.65-.66,0-.36,.29-.65,.65-.65Z"/>
        <path class="cls-4" d="M837.13,818.1c35.62-.56,71.24-.81,106.86-1.22l106.86-.69c35.62-.29,71.24-.26,106.86-.35l106.86-.2,213.73,.61,106.86,.75c35.62,.45,71.24,.71,106.86,1.31,.24,0,.44,.21,.43,.45,0,.24-.2,.43-.43,.43-35.62,.6-71.24,.87-106.86,1.31l-106.86,.75-213.73,.61-106.86-.2c-35.62-.09-71.24-.06-106.86-.35l-106.86-.69c-35.62-.41-71.24-.65-106.86-1.22-.36,0-.65-.3-.65-.67,0-.36,.29-.64,.65-.65Z"/>
        <path class="cls-4" d="M610.21,1322.31l163.59-1.21,163.59-.69,327.19-.56,327.19,.61,163.59,.75,163.59,1.31c.24,0,.44,.2,.44,.45,0,.24-.2,.44-.44,.44l-163.59,1.31-163.59,.75-327.19,.61-327.19-.56-163.59-.69-163.59-1.21c-.36,0-.66-.3-.65-.66,0-.36,.29-.65,.65-.65Z"/>
        <path class="cls-4" d="M662.51,1574.41l150.52-1.22,150.52-.69,301.03-.56,301.03,.61,150.52,.75,150.52,1.31c.24,0,.44,.2,.44,.45,0,.24-.2,.44-.44,.44l-150.52,1.31-150.52,.75-301.03,.61-301.03-.56-150.52-.69-150.52-1.22c-.36,0-.66-.3-.65-.66,0-.36,.29-.65,.65-.65Z"/>
        <path class="cls-4" d="M1713.57,1829.48H858.67c-1.28,0-2.31-1.03-2.31-2.31s1.03-2.31,2.31-2.31h854.9c1.28,0,2.31,1.03,2.31,2.31s-1.03,2.31-2.31,2.31Z"/>
      </g>
      <path class="cls-7" d="M2141.23,735.59l-742.19-3.57c-8.95-.08-16.21,9.81-16.14,21.98l1.64,293.65c.07,12.24,7.52,22.01,16.52,21.64l737.96-15.8c8.58-.35,15.44-9.84,15.55-21.53l2.59-274.27c.11-12.1-7.03-22.02-15.93-22.1Z"/>
      <path class="cls-3" d="M1400.58,1050.47c-1.37,0-2.44-1.3-2.45-2.96l-1.64-293.64c0-.77,.2-1.45,.61-2.01,.6-.82,1.33-.99,1.83-.99l742.2,3.57c.51,0,1.23,.18,1.82,1,.41,.57,.61,1.24,.61,2.01l-2.59,274.27c-.01,1.62-1.03,2.89-2.36,2.94h-.02l-738.01,15.81Zm-1.65-297.69s-.14,0-.29,.21c-.17,.23-.25,.52-.25,.88l1.64,293.64c0,.65,.35,1.06,.53,1.06l737.99-15.81c.19-.01,.51-.44,.51-1.06l2.59-274.27c0-.36-.08-.64-.25-.88-.15-.21-.25-.21-.29-.21l-742.19-3.57Z"/>
      <g>
        <circle class="cls-3" cx="1530.62" cy="862.29" r="76.84"/>
        <circle class="cls-3" cx="1720.94" cy="862.29" r="76.84"/>
        <circle class="cls-3" cx="1911.91" cy="864.8" r="76.84"/>
        <g>
          <path class="cls-31" d="M1576.28,846.05c2.38,5.78,3.7,12.11,3.7,18.76,0,27.26-22.1,49.36-49.36,49.36s-49.36-22.1-49.36-49.36,22.1-49.36,49.36-49.36c.83,0,1.66,.02,2.49,.06v-12.51c-.83-.03-1.66-.05-2.49-.05-34.16,0-61.86,27.7-61.86,61.86s27.7,61.86,61.86,61.86,61.86-27.7,61.86-61.86c0-8.41-1.68-16.43-4.72-23.74l-11.48,4.99Z"/>
          <path class="cls-31" d="M1747.06,906.56c-7.61,4.81-16.63,7.6-26.3,7.6-27.26,0-49.36-22.1-49.36-49.36s22.1-49.36,49.36-49.36c.84,0,1.66,.02,2.49,.06v-12.51c-.83-.03-1.66-.05-2.49-.05-34.16,0-61.86,27.7-61.86,61.86s27.7,61.86,61.86,61.86c11.92,0,23.06-3.38,32.5-9.22l-6.2-10.88Z"/>
          <path class="cls-31" d="M1953.76,892.55c-8.88,13.04-23.85,21.61-40.82,21.61-27.26,0-49.36-22.1-49.36-49.36s22.1-49.36,49.36-49.36c.83,0,1.66,.02,2.49,.06v-12.51c-.83-.03-1.66-.05-2.49-.05-34.16,0-61.86,27.7-61.86,61.86s27.7,61.86,61.86,61.86c21.13,0,39.79-10.6,50.95-26.77l-10.13-7.34Z"/>
        </g>
        <g>
          <path class="cls-6" d="M1593.78,971.68h-125.22c-7.86,0-14.23,6.37-14.23,14.23s6.37,14.23,14.23,14.23h125.22c7.86,0,14.23-6.37,14.23-14.23s-6.37-14.23-14.23-14.23Z"/>
          <path class="cls-6" d="M1784.75,971.68h-125.22c-7.86,0-14.23,6.37-14.23,14.23s6.37,14.23,14.23,14.23h125.22c7.86,0,14.23-6.37,14.23-14.23s-6.37-14.23-14.23-14.23Z"/>
          <path class="cls-6" d="M1849.3,1000.14h125.22c7.86,0,14.23-6.37,14.23-14.23s-6.37-14.23-14.23-14.23h-125.22c-7.86,0-14.23,6.37-14.23,14.23s6.37,14.23,14.23,14.23Z"/>
        </g>
      </g>
      <path class="cls-2" d="M1726.81,1493.13s42.74,98.62,69.03,85.47c26.3-13.15,46.02-121.63,46.02-121.63,0,0-82.18-19.72-115.06,36.16Z"/>
      <path class="cls-17" d="M1875.6,2105.12s3.57,20.23,5.32,40.25c.68,7.82-5.35,14.62-13.19,14.95-26.66,1.11-83.69,3.27-104.16,2.36-3.08-.14-5.09-3.29-3.95-6.15h0c.95-2.4,2.79-4.34,5.14-5.41l94.2-43.3,16.63-2.69Z"/>
      <path class="cls-25" d="M1878.53,2093.24l-2.87,24.19s-16.5,7.68-27.77-.97l6.83-26.96,23.81,3.74Z"/>
      <path class="cls-17" d="M1876.37,1638.42c1.24,6.32,6.65,315.26-26.37,453.71-.54,2.26,.61,4.59,2.76,5.47,5.06,2.07,14.99,5.07,26.9,5.47,3.69,.12,6.99-2.27,8.03-5.81,9.44-32.12,54.67-193.06,60.57-346.81,6.59-171.79,0-5.85,0-5.85l-3.87-106.19h-68.02Z"/>
      <path class="cls-17" d="M1983.97,2115.67s5.69,10.21,11.19,37.34c.99,4.9-2.43,9.59-7.41,10.08-8.8,.87-22.36,1.98-33.21,1.9-5-.03-8.91-4.39-8.31-9.36,1.2-9.9,4.95-26.15,16.52-38.82l21.21-1.15Z"/>
      <path class="cls-29" d="M1988.96,2084.56l-6.71,36.58s-6.63,4.93-19.75,1.36l3.2-39.36,23.26,1.42Z"/>
      <path class="cls-17" d="M2007.08,1647.9c27.01,163-5.86,402.87-16.94,449.82-.68,2.87-3,5.08-5.91,5.56-4.95,.82-13.09,1.49-21.12-.84-2.77-.8-4.71-3.3-4.82-6.18-1.49-37.96,1.19-270.97-23.98-363.06-1.28-4.67-4.13-8.74-8.07-11.54l-48.85-34.73-3.74-56.13,133.44,17.1Z"/>
      <path class="cls-7" d="M1832,1345.2c98.62-9.86,173.23,15.1,173.23,15.1,24.13,140.78,4.22,303.16,4.22,303.16-62.66,16.43-133.35-10.05-133.35-10.05-10.41-58.84-59.01-224.44-59.01-224.44-39.55-4.91-9.93-81.28,14.91-83.76Z"/>
      <path class="cls-7" d="M1974.18,1438.67l31.05-78.37s75.6,51.37,88.04,116.5c-14.28,1.05-40.28,4.77-65.72,17.61-5.59-30.75-53.36-55.74-53.36-55.74Z"/>
      <path class="cls-19" d="M1901.54,1512.42s84.88,47.97,113.52,7.01c5.95-8.51,13.31-19.75,11.85-27.81,25.44-12.85,49.57-13.77,63.85-14.82,3.75,19.63-2.31,40.52-13.85,61.62-50.17,91.77-186.61-5.07-186.61-5.07l11.23-20.93Z"/>
      <g>
        <path class="cls-17" d="M1911.74,1573.11l-46.33-161.78c-.53-1.84-2.09-3.18-3.99-3.4-8.39-.98-32.71-3.73-60.8-6.1-33.83-2.86-73.11-5.18-96.58-3.21-3.34,.28-5.35,3.81-3.87,6.81,13.35,27,68.25,136.85,95.75,172.84,.91,1.19,2.32,1.89,3.82,1.88l107.48-1c3.13-.03,5.37-3.03,4.51-6.04Z"/>
        <path class="cls-22" d="M1795.82,1387.8l-33.59-5.6c-1.79-.3-3.25,1.41-2.69,3.13l3.33,10.08c.29,.88,1.05,1.51,1.97,1.63l32.32,4.32c1.67,.22,3.05-1.3,2.67-2.94l-2.06-8.8c-.22-.95-.99-1.67-1.95-1.83Z"/>
        <path class="cls-22" d="M1820.97,1416.24l-2.77-14.41c-.28-1.45-1.47-2.54-2.94-2.69l-67.84-6.88c-2.28-.23-4.11,1.86-3.58,4.09l4.31,17.96c.35,1.44,1.6,2.47,3.07,2.55l66.29,3.34c2.16,.11,3.85-1.83,3.44-3.95Z"/>
        <path class="cls-9" d="M1900.55,1534.02s6.45-26.54,3.85-35.95c-2.6-9.41-7.65-21.52-24.46-18.83-16.81,2.69-36.64,9.77-36.64,9.77,0,0,1,12.26,13.78,8.31l-7.92,6.13s1.13,9.82,11.93,4.57l-7.37,8.13s4.63,8.06,12.57,2.89c7.94-5.17,11.75,18.17,34.26,14.98Z"/>
        <path class="cls-21" d="M1728.3,1494.54s-19.56-19.05-22.36-28.41c-2.8-9.36-4.95-22.29,10.72-28.95,15.67-6.65,36.24-11.19,36.24-11.19,0,0,5.66,10.92-7.26,14.36l9.97,.99s4.26,8.92-7.67,10.21l10.56,2.97s.36,9.29-9.12,9.13c-9.47-.16-.3,21.63-21.07,30.89Z"/>
      </g>
      <path class="cls-30" d="M1907.1,1279.45l25.75,74.48c.43,1.23-.08,2.6-1.22,3.23-7.02,3.88-32.31,15.1-62.79-4.22-3.18-2.01-5.34-5.3-5.82-9.02l-8.34-64.46h52.42Z"/>
      <g>
        <path class="cls-24" d="M1851.07,1210.48s-28.28,53.24-24.66,74.74c3.62,21.5,38.68,19.96,69.28,2.5l21.39-57.48-66.01-19.75Z"/>
        <path class="cls-17" d="M1894.34,1259.49c-1.24-.55-1.7-2.07-.96-3.21,2.27-3.46,6.51-10.52,7.87-16.71,0,0,5.08-3.26-12.94-7.57-18.02-4.31-44.9-11.01-50.55-26.35-5.51-14.96,8.96-52.57,32.05-22.6,.88,1.14,2.6,1.17,3.48,.02,3.79-4.93,13.74-15.15,27.55-8.95,12.93,5.8,14.39,15.28,14.21,20.05-.05,1.4,1.2,2.5,2.59,2.23,6.54-1.25,22.22-2.32,29.55,13.77,6.03,13.25,2.11,20.76-1.46,24.43-1.16,1.19-.65,3.15,.94,3.63,4.3,1.31,9.84,4.96,9.29,15.02-.77,13.92-16.33,12.69-20.75,12.05-.73-.1-1.46,.15-1.95,.69-3.8,4.2-20.91,22.05-39.43,24.2-1.6,.19-2.85-1.4-2.32-2.92l8.02-23.3c.37-1.08-.15-2.27-1.19-2.73l-3.97-1.76Z"/>
        <path class="cls-12" d="M1891.12,1262.8s20.14-13.82,21.61-2.18c1.47,11.63-18.13,16.85-27.84,12.51l6.24-10.33Z"/>
      </g>
      <g>
        <path class="cls-17" d="M1413.76,1819.79c-.49-6.04-6.66-11.27-17.11-15.47,11.36-6.26,17.64-12.98,17.11-19.56-1.61-19.92-64.7-31.09-140.92-24.94-76.22,6.15-136.7,27.28-135.1,47.2,.49,6.04,6.66,11.27,17.11,15.47-11.36,6.26-17.64,12.98-17.11,19.56,.49,6.04,6.66,11.27,17.11,15.47-11.36,6.26-17.64,12.98-17.11,19.56,.49,6.04,6.66,11.27,17.11,15.47-11.36,6.26-17.64,12.98-17.11,19.56,.71,8.81,13.46,15.9,34.04,20.55-.27,6.51-.12,13.65,.52,21.53,2.98,36.71,44.27,65.49,98.89,65.49s101.88-39.24,102.42-76.07c.13-9.03-.25-16.97-1.07-24.03,26.13-8.73,42.05-19.39,41.21-29.72-.49-6.04-6.66-11.27-17.11-15.47,11.36-6.26,17.64-12.98,17.11-19.56-.49-6.04-6.66-11.27-17.11-15.47,11.36-6.26,17.64-12.98,17.11-19.56Z"/>
        <g>
          <path class="cls-20" d="M1237.57,1940.57c-22.64,0-43.35-1.66-60.46-4.94-.99-.19-1.64-1.15-1.45-2.14,.19-.99,1.14-1.64,2.14-1.45,26.78,5.13,62.54,6.26,100.71,3.18,31.23-2.52,60.44-7.56,84.46-14.57,.97-.28,1.99,.27,2.27,1.24,.28,.97-.27,1.99-1.24,2.27-24.26,7.08-53.72,12.16-85.19,14.7-14.18,1.14-28.03,1.71-41.23,1.71Z"/>
          <path class="cls-20" d="M1237.95,1905.51c-29.41,0-55.69-2.77-74.23-8.05-.97-.28-1.54-1.29-1.26-2.26,.28-.97,1.29-1.53,2.26-1.26,26.42,7.52,68.95,9.85,113.79,6.24,44.35-3.58,85.71-12.58,110.64-24.07,.92-.42,2.01-.02,2.43,.9,.42,.92,.02,2.01-.9,2.43-25.3,11.67-67.12,20.79-111.88,24.4-13.97,1.13-27.72,1.68-40.85,1.68Z"/>
          <path class="cls-20" d="M1237.58,1870.51c-31.75,0-59.54-3.25-78.25-9.42-.96-.32-1.48-1.35-1.17-2.31,.32-.96,1.35-1.48,2.31-1.17,26.03,8.58,70.15,11.4,118.03,7.54,44.35-3.58,85.71-12.58,110.64-24.07,.92-.42,2.01-.02,2.43,.9,.42,.92,.02,2.01-.9,2.43-25.3,11.67-67.13,20.79-111.88,24.4-14.18,1.14-28.05,1.7-41.23,1.7Z"/>
          <path class="cls-20" d="M1237.82,1835.47c-25.19,0-48.1-2.04-65.91-5.99-.99-.22-1.61-1.2-1.39-2.18,.22-.99,1.2-1.61,2.18-1.39,26.78,5.95,65.35,7.49,105.81,4.23,43.95-3.54,85.1-12.45,110.07-23.81,.92-.42,2.01-.01,2.42,.91,.42,.92,.01,2-.91,2.42-25.34,11.53-66.94,20.56-111.29,24.13-14.01,1.13-27.81,1.69-40.98,1.69Z"/>
        </g>
        <path class="cls-26" d="M1086.59,1642.98c-9.26-32.79-24.98-63.43-46.16-90.12-45.37-57.19-119.4-173.48-128.51-332.21-13.25-230.88,191.51-346.46,378.35-330.77,186.85,15.69,371.22,154.81,351.03,369.6-12.42,132.16-86.39,232.4-141.46,289.97-34.97,36.56-59.92,81.33-73.42,130.09-16.53,59.67-55.86,134.04-149.35,138.58-120.97,5.87-171.22-106.9-190.48-175.13Z"/>
        <path class="cls-23" d="M1307.97,1772.07l65.38-425.22c1.35-8.78,5.67-14.68,9.66-13.18,3.98,1.51,6.12,9.85,4.77,18.64-.04,.23-.08,.52-.12,.75l-74.47,421.27c-.56,3.17-2.17,5.17-3.59,4.47-1.38-.68-2.08-3.66-1.61-6.73Z"/>
        <path class="cls-23" d="M1240.11,1775.45l-65.38-425.22c-1.35-8.78-5.67-14.68-9.66-13.18-3.98,1.51-6.12,9.85-4.77,18.64,.04,.23,.08,.52,.12,.75l74.47,421.27c.56,3.17,2.17,5.17,3.59,4.47,1.38-.68,2.08-3.66,1.61-6.73Z"/>
        <path class="cls-3" d="M1372.88,1310.34c-1.66-2.67-5.5-3.67-8.58-2.23l-36.4,17.01-12.64-36c-.67-1.88-2.22-3.54-4.43-4.45-4.19-1.73-9.2-.18-11.19,3.45l-.06,.12-29.94,54.59-27.78-77.71-.05-.13c-.68-1.9-2.11-3.6-4.21-4.74-4.66-2.54-10.81-1.33-13.75,2.71l-41.85,57.62c-1.7,2.36-1.12,5.53,1.47,7.27,2.77,1.86,6.75,1.43,8.9-.97l36.85-41.11,33.18,73.92,.03,.06c.53,1.18,1.53,2.21,2.92,2.87,3.11,1.46,7,.45,8.68-2.25l32.02-51.38,12.05,25.99,.11,.23c.09,.19,.19,.37,.3,.55,1.66,2.67,5.5,3.66,8.57,2.23l43.21-20.19c3.08-1.44,4.23-4.77,2.57-7.44Z"/>
        <path class="cls-5" d="M1501.27,1489.44c-.64,0-1.29-.2-1.85-.61-1.38-1.02-1.67-2.97-.64-4.35,11.25-15.15,21.56-30.82,30.66-46.57,.86-1.49,2.76-1.99,4.24-1.14,1.49,.86,2,2.76,1.14,4.24-9.22,15.96-19.66,31.82-31.05,47.16-.61,.82-1.55,1.26-2.5,1.26Z"/>
        <path class="cls-5" d="M1555.06,1397.14c-.41,0-.83-.08-1.24-.26-1.57-.68-2.3-2.51-1.61-4.09,70-161.2,9.47-296.85,8.85-298.2-.72-1.56-.03-3.4,1.53-4.12,1.56-.71,3.41-.03,4.12,1.53,.65,1.41,15.91,35.16,22.61,89.65,6.17,50.24,5.73,128.08-31.41,213.61-.51,1.17-1.65,1.87-2.85,1.87Z"/>
      </g>
      <path class="cls-11" d="M1185.67,1582.34l-790.38-3.8c-9.53-.09-17.26,10.45-17.19,23.41l1.75,312.71c.07,13.04,8.01,23.44,17.59,23.05l785.87-16.83c9.14-.37,16.44-10.48,16.56-22.93l2.75-292.08c.12-12.89-7.49-23.45-16.96-23.53Z"/>
      <path class="cls-3" d="M396.94,1917.65c-1.46,0-2.6-1.38-2.61-3.15l-1.75-312.71c0-.82,.22-1.54,.65-2.14,.64-.87,1.41-1.05,1.95-1.05l790.38,3.8c.54,0,1.31,.19,1.94,1.06,.44,.61,.65,1.32,.65,2.14l-2.75,292.08c-.02,1.73-1.09,3.07-2.51,3.13h-.02l-785.93,16.83Zm-1.76-317.02s-.15,0-.31,.22c-.18,.25-.27,.55-.27,.94l1.75,312.71c0,.69,.37,1.13,.56,1.13l785.91-16.83c.21-.02,.54-.47,.54-1.13l2.75-292.08c0-.38-.08-.68-.26-.94-.16-.22-.26-.22-.31-.22l-790.37-3.8Z"/>
      <g class="cls-28">
        <rect class="cls-3" x="427.34" y="1743.93" width="38.46" height="146.99"/>
        <rect class="cls-3" x="491.6" y="1794.44" width="38.46" height="96.47"/>
        <rect class="cls-3" x="555.87" y="1669.6" width="38.46" height="221.32"/>
        <rect class="cls-3" x="620.14" y="1837.74" width="38.46" height="53.17"/>
        <rect class="cls-3" x="684.41" y="1699.18" width="38.46" height="191.73"/>
        <rect class="cls-3" x="748.68" y="1732.38" width="38.46" height="158.53"/>
        <rect class="cls-3" x="812.95" y="1768.46" width="38.46" height="122.45"/>
        <rect class="cls-3" x="877.22" y="1624.85" width="38.46" height="266.06"/>
        <rect class="cls-3" x="941.49" y="1653" width="38.46" height="237.92"/>
        <rect class="cls-3" x="1005.76" y="1695.58" width="38.46" height="195.34"/>
        <rect class="cls-3" x="1070.03" y="1842.68" width="38.46" height="48.23"/>
        <rect class="cls-3" x="1134.3" y="1748.98" width="38.46" height="141.93"/>
      </g>
    </g>
  </g>
</svg>