<?xml version="1.0" encoding="UTF-8"?>
<svg id="object" xmlns="http://www.w3.org/2000/svg" viewBox="0 0 180.34 245.07">
  <defs>
    <style>
      .cls-1 {
        fill: #88ba7d;
      }
    </style>
  </defs>
  <path class="cls-1" d="M101.39,172.37c4.95,9.39,9.95,20.47,9.95,30.19,0,4.14-.91,8.05-3.13,11.46-4.73,7.27-13.97,11.99-23.56,12.02-7.08,.02-13.62-2.37-18.53-6.74-5.04-4.48-7.67-10.38-7.44-16.63,.27-7.25,3.62-14.92,10.54-24.14,1.68-2.23,3.65-4.48,5.74-6.86,4.78-5.44,10.04-11.41,12.36-18.26,5.14,4.57,9.78,10.83,14.07,18.96Z"/>
  <path class="cls-1" d="M162.46,157.99c-.19-4.67-.65-9.35-1.09-14-1.25-13.08-3.39-26.06-6.19-38.89-2.28-10.45-4.18-22.49-12.3-30.23-.12-.11-4.09-4.18-4.17-2.97-.89,13.2-5.54,24.89-13.79,35.08-.23,.29-.46,.58-.71,.86-.05-.43-.09-.85-.17-1.28-1.93-12.96-2.62-26.12-5.35-39.06-2.72-12.89-6.59-25.54-11.55-37.74-1.11-2.73-2.28-5.46-3.95-7.89-1.53-2.24-3.47-4.4-5.29-6.39-.8-.87-4.09-2.97-3.95-4.16-2.16,18.87-8.83,35.53-19.95,50.78-4.18,5.72-8.23,11.58-11.61,17.68-.15,.27-.58,.28-.74,.02-2.37-3.82-5.17-7.54-8.18-10.89-2.31-2.56-4.83-6.36-8.05-7.82-1.07,13.65,.06,26.84-4.41,40.16-2.04,6.07-6.75,11.27-10.46,16.36-1.47,2.02-2.92,4.04-4.33,6.09-5.53,8.03-10.48,16.38-13.46,25.39-.85,2.58-1.54,5.29-2.02,8.06-.45,2.64-.72,5.32-.76,8,.03,3.35,.36,6.64,.95,9.85,5.77,31.72,37.5,55.97,75.77,55.97,3.94,0,7.87-.27,11.75-.81,10.56-1.46,20.73-4.83,29.67-9.93,14.91-8.5,26.73-22.61,31.92-39.19,2.36-7.53,2.76-15.27,2.44-23.04Zm-44.06,50.62c-6.32,9.74-18.72,16.06-31.58,16.1-.05,0-.1,.01-.16,.01-9.5,0-18.38-3.26-25.04-9.18-6.69-5.95-10.35-14.14-10.05-22.46,.39-10.71,5.91-19.72,12.16-28.04,8.04-10.68,18.11-22.11,17.43-36.52,.05,1.12,7.55,4.5,8.95,5.41,11.86,7.74,20.11,20.24,25.68,33.03,5.56,12.78,10.94,28.83,2.62,41.65Z"/>
</svg>