<?xml version="1.0" encoding="UTF-8"?>
<svg xmlns="http://www.w3.org/2000/svg" viewBox="0 0 150 50.85">
  <defs>
    <style>
      .cls-1 {
        fill: #129643;
        mix-blend-mode: screen;
      }

      .cls-2 {
        isolation: isolate;
      }

      .cls-3 {
        fill: #404040;
      }
    </style>
  </defs>
  <g class="cls-2">
    <g id="Layer_1" data-name="Layer 1">
      <g>
        <path class="cls-1" d="M26.3,25.35c2.02-2.42,4.85-4.54,8.33-6.11-1.73-3.81-4.51-7.61-8.33-10.97-3.82,3.37-6.6,7.16-8.33,10.97,3.48,1.56,6.31,3.69,8.33,6.11Z"/>
        <path class="cls-1" d="M18.1,36.69c-3.01-4.59-3.05-11.05-.14-17.45-1.92-.86-4.04-1.56-6.34-2.03-3.77,11.03-.7,21.18,5.98,24.58,1.11,.56,4.02,1.81,8.67,1.04,0,0,.01-.02,.02-.02,0-.01-.02-.02-.03-.03-5.15-1.93-7.37-4.87-8.17-6.08Z"/>
        <path class="cls-1" d="M18.1,36.69c.8,1.21,3.02,4.16,8.17,6.08-2.97-3.6-3.37-6.71-3.45-7.94-.2-3.26,1.05-6.58,3.48-9.48-2.02-2.42-4.85-4.54-8.33-6.11-2.91,6.4-2.88,12.86,.14,17.45Z"/>
        <path class="cls-1" d="M18.1,36.69c.8,1.21,3.02,4.16,8.17,6.08-2.97-3.6-3.37-6.71-3.45-7.94-.2-3.26,1.05-6.58,3.48-9.48-2.02-2.42-4.85-4.54-8.33-6.11-2.91,6.4-2.88,12.86,.14,17.45Z"/>
        <path class="cls-1" d="M40.97,17.21c-2.29,.47-4.41,1.17-6.34,2.03,2.91,6.4,2.88,12.86-.14,17.45-.8,1.21-3.02,4.16-8.17,6.08,0,.01-.02,.02-.03,.03,0,0,.01,.02,.02,.02,4.65,.76,7.56-.48,8.67-1.04,6.67-3.39,9.75-13.54,5.98-24.58Z"/>
        <path class="cls-1" d="M26.3,25.35c2.42,2.9,3.68,6.22,3.48,9.48-.08,1.23-.48,4.35-3.45,7.94,5.15-1.93,7.37-4.87,8.17-6.08,3.01-4.59,3.05-11.05,.14-17.45-3.48,1.56-6.31,3.69-8.33,6.11Z"/>
        <path class="cls-1" d="M26.3,25.35c2.42,2.9,3.68,6.22,3.48,9.48-.08,1.23-.48,4.35-3.45,7.94,5.15-1.93,7.37-4.87,8.17-6.08,3.01-4.59,3.05-11.05,.14-17.45-3.48,1.56-6.31,3.69-8.33,6.11Z"/>
        <path class="cls-1" d="M26.3,42.79s-.02,0-.03-.01c0,.01,.02,.02,.03,.03,0-.01,.02-.02,.03-.03,0,0-.02,0-.03,.01Z"/>
        <path class="cls-1" d="M26.3,42.79s-.02,0-.03-.01c0,.01,.02,.02,.03,.03,0-.01,.02-.02,.03-.03,0,0-.02,0-.03,.01Z"/>
        <path class="cls-1" d="M26.3,25.35c-2.42,2.9-3.68,6.22-3.48,9.48,.08,1.23,.48,4.35,3.45,7.94,0,0,.02,0,.03,.01,0,0,.02,0,.03-.01,2.97-3.6,3.37-6.71,3.45-7.94,.2-3.26-1.05-6.58-3.48-9.48Z"/>
        <path class="cls-1" d="M26.3,25.35c-2.42,2.9-3.68,6.22-3.48,9.48,.08,1.23,.48,4.35,3.45,7.94,0,0,.02,0,.03,.01,0,0,.02,0,.03-.01,2.97-3.6,3.37-6.71,3.45-7.94,.2-3.26-1.05-6.58-3.48-9.48Z"/>
        <path class="cls-1" d="M26.3,25.35c-2.42,2.9-3.68,6.22-3.48,9.48,.08,1.23,.48,4.35,3.45,7.94,0,0,.02,0,.03,.01,0,0,.02,0,.03-.01,2.97-3.6,3.37-6.71,3.45-7.94,.2-3.26-1.05-6.58-3.48-9.48Z"/>
      </g>
      <g>
        <g>
          <path class="cls-3" d="M51.25,15.87v4.28h5.75v2.71h-5.75v4.52h6.48v2.79h-9.9V13.09h9.9v2.79h-6.48Z"/>
          <path class="cls-3" d="M64.26,12.08V30.18h-3.42V12.08h3.42Z"/>
          <path class="cls-3" d="M80.13,24.43h-9.9c.08,.98,.42,1.74,1.03,2.3,.6,.55,1.35,.83,2.23,.83,1.27,0,2.18-.55,2.71-1.64h3.69c-.39,1.3-1.14,2.38-2.25,3.22-1.11,.84-2.47,1.26-4.08,1.26-1.3,0-2.47-.29-3.51-.87-1.04-.58-1.84-1.4-2.42-2.46-.58-1.06-.87-2.28-.87-3.67s.29-2.63,.86-3.69c.57-1.06,1.37-1.87,2.4-2.45,1.03-.57,2.21-.86,3.55-.86s2.44,.28,3.46,.83c1.02,.55,1.81,1.34,2.37,2.36,.56,1.02,.84,2.19,.84,3.51,0,.49-.03,.93-.1,1.32Zm-3.45-2.3c-.02-.88-.33-1.59-.95-2.12-.62-.53-1.38-.79-2.27-.79-.85,0-1.56,.26-2.14,.77-.58,.51-.93,1.23-1.06,2.14h6.43Z"/>
          <path class="cls-3" d="M82.7,19.73c.57-1.05,1.36-1.87,2.37-2.45,1.01-.58,2.17-.87,3.47-.87,1.68,0,3.07,.42,4.17,1.26,1.1,.84,1.84,2.02,2.21,3.53h-3.69c-.2-.59-.53-1.05-.99-1.38-.46-.33-1.04-.5-1.72-.5-.98,0-1.75,.35-2.32,1.06-.57,.71-.86,1.72-.86,3.02s.29,2.29,.86,3c.57,.71,1.35,1.06,2.32,1.06,1.39,0,2.29-.62,2.71-1.86h3.69c-.37,1.47-1.12,2.63-2.23,3.5-1.11,.86-2.49,1.3-4.16,1.3-1.3,0-2.46-.29-3.47-.87-1.01-.58-1.8-1.39-2.37-2.45-.57-1.05-.86-2.28-.86-3.68s.29-2.63,.86-3.68Z"/>
          <path class="cls-3" d="M101.43,19.44v6.55c0,.46,.11,.79,.33,.99,.22,.2,.59,.31,1.11,.31h1.59v2.89h-2.15c-2.89,0-4.33-1.4-4.33-4.21v-6.53h-1.61v-2.81h1.61v-3.35h3.45v3.35h3.03v2.81h-3.03Z"/>
          <path class="cls-3" d="M112.08,17.05c.71-.41,1.52-.61,2.43-.61v3.59h-.9c-1.08,0-1.89,.25-2.43,.76-.55,.51-.82,1.39-.82,2.64v6.75h-3.42v-13.55h3.42v2.1c.44-.72,1.01-1.28,1.72-1.69Z"/>
          <path class="cls-3" d="M129.31,24.43h-9.9c.08,.98,.42,1.74,1.03,2.3,.6,.55,1.35,.83,2.23,.83,1.27,0,2.18-.55,2.71-1.64h3.69c-.39,1.3-1.14,2.38-2.25,3.22-1.11,.84-2.47,1.26-4.08,1.26-1.3,0-2.47-.29-3.51-.87-1.04-.58-1.84-1.4-2.42-2.46-.58-1.06-.87-2.28-.87-3.67s.29-2.63,.86-3.69c.57-1.06,1.37-1.87,2.4-2.45,1.03-.57,2.21-.86,3.55-.86s2.44,.28,3.46,.83c1.02,.55,1.81,1.34,2.37,2.36,.56,1.02,.84,2.19,.84,3.51,0,.49-.03,.93-.1,1.32Zm-3.45-2.3c-.02-.88-.33-1.59-.95-2.12-.62-.53-1.38-.79-2.27-.79-.85,0-1.56,.26-2.14,.77-.58,.51-.93,1.23-1.06,2.14h6.43Z"/>
          <path class="cls-3" d="M144.4,24.43h-9.9c.08,.98,.42,1.74,1.03,2.3,.6,.55,1.35,.83,2.23,.83,1.27,0,2.18-.55,2.71-1.64h3.69c-.39,1.3-1.14,2.38-2.25,3.22-1.11,.84-2.47,1.26-4.08,1.26-1.3,0-2.47-.29-3.51-.87-1.04-.58-1.84-1.4-2.42-2.46-.58-1.06-.87-2.28-.87-3.67s.29-2.63,.86-3.69c.57-1.06,1.37-1.87,2.4-2.45,1.03-.57,2.21-.86,3.55-.86s2.44,.28,3.46,.83c1.02,.55,1.81,1.34,2.37,2.36,.56,1.02,.84,2.19,.84,3.51,0,.49-.03,.93-.1,1.32Zm-3.45-2.3c-.02-.88-.33-1.59-.95-2.12-.62-.53-1.38-.79-2.27-.79-.85,0-1.56,.26-2.14,.77-.58,.51-.93,1.23-1.06,2.14h6.43Z"/>
        </g>
        <g>
          <g>
            <path class="cls-3" d="M50.21,33.97c.2,.11,.35,.25,.46,.44,.11,.19,.16,.41,.16,.66s-.05,.47-.16,.66c-.11,.19-.26,.34-.46,.44-.2,.11-.43,.16-.69,.16h-1.08v1.1h-.61v-3.63h1.69c.26,0,.49,.05,.69,.16Zm-.18,1.63c.13-.13,.2-.3,.2-.52s-.07-.39-.2-.52c-.13-.13-.31-.19-.54-.19h-1.06v1.43h1.06c.22,0,.4-.06,.54-.19Z"/>
            <path class="cls-3" d="M52.71,37.28c-.28-.16-.5-.38-.66-.67-.16-.29-.23-.62-.23-.99s.08-.7,.23-.99c.16-.29,.38-.51,.66-.67,.28-.16,.61-.24,.98-.24s.69,.08,.98,.24c.28,.16,.5,.38,.66,.67,.16,.29,.23,.62,.23,.99s-.08,.7-.23,.99-.38,.51-.66,.67c-.28,.16-.61,.24-.98,.24s-.7-.08-.98-.24Zm1.63-.49c.19-.11,.34-.27,.44-.47,.11-.2,.16-.43,.16-.7s-.05-.49-.16-.7c-.11-.2-.25-.36-.44-.47s-.41-.17-.65-.17-.47,.06-.66,.17-.34,.27-.44,.47c-.11,.2-.16,.43-.16,.7s.05,.49,.16,.7c.11,.2,.25,.36,.44,.47,.19,.11,.41,.17,.66,.17s.46-.06,.65-.17Z"/>
            <path class="cls-3" d="M61.26,33.81h.65l-1.22,3.63h-.67l-.4-1.24-.47-1.42-.47,1.42-.4,1.24h-.65l-1.24-3.63h.65l.56,1.75,.36,1.13,.92-2.88h.55l.93,2.87,.36-1.12,.55-1.75Z"/>
            <path class="cls-3" d="M63.65,36.88h2.1v.56h-2.7v-3.63h2.67v.55h-2.07v.97h1.98v.54h-1.98v1.02Z"/>
            <path class="cls-3" d="M68.45,36.2h-.74v1.24h-.61v-3.63h1.7c.26,0,.48,.05,.68,.15,.2,.1,.35,.24,.45,.42,.11,.18,.16,.39,.16,.63,0,.3-.08,.55-.25,.76s-.4,.34-.69,.4l1.1,1.28h-.76l-1.05-1.24Zm.86-1.66c-.12-.11-.29-.17-.51-.17h-1.09v1.28h1.09c.21,0,.38-.06,.51-.17,.12-.11,.18-.27,.18-.47s-.06-.35-.18-.47Z"/>
            <path class="cls-3" d="M71.46,33.81h.61v3.63h-.61v-3.63Z"/>
            <path class="cls-3" d="M76.09,33.81h.61v3.63h-.55l-1.96-2.59v1.16s0,1.44,0,1.44h-.61v-3.63h.55l1.96,2.59v-1.08s0-1.51,0-1.51Z"/>
            <path class="cls-3" d="M81.35,35.37v1.54c-.2,.2-.42,.35-.67,.45-.24,.1-.51,.15-.81,.15-.37,0-.7-.08-.99-.23-.28-.16-.5-.38-.66-.66-.16-.29-.23-.62-.23-.99s.08-.69,.24-.98c.16-.29,.39-.51,.68-.67,.29-.16,.62-.24,1-.24,.26,0,.5,.05,.73,.14,.23,.1,.43,.23,.61,.42l-.39,.39c-.12-.12-.27-.22-.44-.29-.17-.07-.35-.1-.52-.1-.26,0-.48,.06-.68,.17-.2,.11-.35,.27-.46,.47-.11,.2-.17,.43-.17,.7s.05,.5,.16,.7c.1,.2,.25,.36,.44,.46,.19,.11,.42,.16,.67,.16,.36,0,.67-.1,.92-.3v-.75h-1.02v-.53h1.58Z"/>
            <path class="cls-3" d="M87.1,33.81h.61v3.63h-.55l-1.96-2.59v1.16s0,1.44,0,1.44h-.61v-3.63h.55l1.96,2.59v-1.08s0-1.51,0-1.51Z"/>
            <path class="cls-3" d="M92.32,33.81l-1.47,2.16v1.47h-.6v-1.47l-1.43-2.16h.72l1.01,1.59,1.04-1.59h.73Z"/>
            <path class="cls-3" d="M93.87,37.27c-.29-.16-.51-.38-.67-.67s-.24-.61-.24-.98,.08-.69,.24-.98,.39-.51,.67-.67,.62-.24,.98-.24c.54,0,.99,.19,1.35,.56l-.4,.37c-.25-.25-.56-.38-.93-.38-.26,0-.48,.06-.68,.17-.2,.11-.35,.27-.46,.47-.11,.2-.17,.43-.17,.69s.06,.49,.17,.69c.11,.2,.26,.36,.46,.47,.2,.11,.42,.17,.68,.17,.18,0,.36-.03,.53-.1,.17-.07,.32-.16,.44-.29l.39,.4c-.37,.36-.82,.54-1.37,.54-.37,0-.7-.08-.99-.24Z"/>
            <path class="cls-3" d="M103.68,33.81h.65l-1.22,3.63h-.67l-.4-1.24-.47-1.42-.47,1.42-.4,1.24h-.65l-1.24-3.63h.65l.56,1.75,.36,1.13,.92-2.88h.55l.93,2.87,.36-1.12,.55-1.75Z"/>
            <path class="cls-3" d="M105.47,33.81h.61v3.63h-.61v-3.63Z"/>
            <path class="cls-3" d="M110.2,33.81v.56h-1.18v3.07h-.61v-3.07h-1.18v-.56h2.96Z"/>
            <path class="cls-3" d="M113.86,33.81h.61v3.63h-.61v-1.56h-1.89v1.56h-.61v-3.63h.61v1.5h1.89v-1.5Z"/>
            <path class="cls-3" d="M118.37,37.38c-.27-.09-.5-.21-.72-.38l.32-.46c.15,.13,.34,.23,.55,.3,.22,.07,.44,.11,.66,.11,.26,0,.47-.05,.63-.15,.16-.1,.24-.23,.24-.39,0-.15-.07-.27-.22-.35-.15-.09-.38-.15-.69-.19-.49-.07-.85-.19-1.07-.36s-.33-.42-.33-.74c0-.2,.06-.38,.18-.54,.12-.16,.29-.28,.5-.37,.21-.09,.46-.13,.73-.13,.24,0,.48,.04,.72,.12,.24,.08,.44,.19,.63,.33l-.31,.43c-.15-.11-.31-.2-.49-.26s-.36-.09-.54-.09c-.24,0-.43,.05-.59,.14-.15,.1-.23,.22-.23,.37s.07,.26,.21,.35c.14,.09,.36,.15,.66,.2,.52,.08,.89,.2,1.12,.37,.23,.17,.34,.41,.34,.71,0,.22-.06,.42-.18,.58-.12,.17-.3,.3-.52,.39-.22,.09-.48,.14-.78,.14-.28,0-.55-.04-.81-.13Z"/>
            <path class="cls-3" d="M124.71,37.44l-.33-.75h-1.95l-.33,.75h-.65l1.63-3.63h.67l1.62,3.63h-.66Zm-1.31-3.02l-.74,1.72h1.48l-.74-1.72Z"/>
            <path class="cls-3" d="M128.71,33.81h.65l-1.5,3.63h-.65l-1.5-3.63h.65l.61,1.51,.56,1.42,1.18-2.93Z"/>
            <path class="cls-3" d="M130.48,33.81h.61v3.63h-.61v-3.63Z"/>
            <path class="cls-3" d="M135.11,33.81h.61v3.63h-.55l-1.96-2.59v1.16s0,1.44,0,1.44h-.61v-3.63h.55l1.96,2.59v-1.08s0-1.51,0-1.51Z"/>
            <path class="cls-3" d="M140.37,35.37v1.54c-.2,.2-.42,.35-.67,.45-.24,.1-.51,.15-.81,.15-.37,0-.7-.08-.99-.23-.28-.16-.5-.38-.66-.66-.16-.29-.23-.62-.23-.99s.08-.69,.24-.98c.16-.29,.39-.51,.68-.67,.29-.16,.62-.24,1-.24,.26,0,.5,.05,.73,.14,.23,.1,.43,.23,.61,.42l-.39,.39c-.12-.12-.27-.22-.44-.29-.17-.07-.35-.1-.52-.1-.26,0-.48,.06-.68,.17-.2,.11-.35,.27-.46,.47-.11,.2-.17,.43-.17,.7s.05,.5,.16,.7c.1,.2,.25,.36,.44,.46,.19,.11,.42,.16,.67,.16,.36,0,.67-.1,.92-.3v-.75h-1.02v-.53h1.58Z"/>
            <path class="cls-3" d="M142.2,37.38c-.27-.09-.5-.21-.72-.38l.32-.46c.15,.13,.34,.23,.55,.3,.22,.07,.44,.11,.66,.11,.26,0,.47-.05,.63-.15,.16-.1,.24-.23,.24-.39,0-.15-.07-.27-.22-.35-.15-.09-.38-.15-.69-.19-.49-.07-.85-.19-1.07-.36s-.33-.42-.33-.74c0-.2,.06-.38,.18-.54,.12-.16,.29-.28,.5-.37,.21-.09,.46-.13,.73-.13,.24,0,.48,.04,.72,.12,.24,.08,.44,.19,.63,.33l-.31,.43c-.15-.11-.31-.2-.49-.26s-.36-.09-.54-.09c-.24,0-.43,.05-.59,.14-.15,.1-.23,.22-.23,.37s.07,.26,.21,.35c.14,.09,.36,.15,.66,.2,.52,.08,.89,.2,1.12,.37,.23,.17,.34,.41,.34,.71,0,.22-.06,.42-.18,.58-.12,.17-.3,.3-.52,.39-.22,.09-.48,.14-.78,.14-.28,0-.55-.04-.81-.13Z"/>
          </g>
          <g>
            <path class="cls-3" d="M65.81,43.42l-.33-.75h-1.95l-.33,.75h-.65l1.63-3.63h.67l1.62,3.63h-.66Zm-1.31-3.02l-.74,1.72h1.48l-.74-1.72Z"/>
            <path class="cls-3" d="M70.08,39.79h.61v3.63h-.55l-1.96-2.59v1.16s0,1.44,0,1.44h-.61v-3.63h.55l1.96,2.59v-1.08s0-1.51,0-1.51Z"/>
            <path class="cls-3" d="M74.55,40.02c.28,.15,.49,.36,.65,.64,.15,.27,.23,.59,.23,.95s-.08,.68-.23,.95c-.15,.27-.37,.49-.65,.64-.28,.15-.6,.23-.96,.23h-1.39v-3.63h1.39c.36,0,.68,.08,.96,.23Zm-.32,2.69c.19-.11,.33-.25,.43-.44,.1-.19,.15-.41,.15-.65s-.05-.46-.15-.65c-.1-.19-.25-.34-.43-.44-.19-.11-.4-.16-.64-.16h-.78v2.51h.78c.24,0,.45-.05,.64-.16Z"/>
            <path class="cls-3" d="M79.11,43.36c-.27-.09-.5-.21-.72-.38l.32-.46c.15,.13,.34,.23,.55,.3,.22,.07,.44,.11,.66,.11,.26,0,.47-.05,.63-.15,.16-.1,.24-.23,.24-.39,0-.15-.07-.27-.22-.35-.15-.09-.38-.15-.69-.19-.49-.07-.85-.19-1.07-.36s-.33-.42-.33-.74c0-.2,.06-.38,.18-.54,.12-.16,.29-.28,.5-.37,.21-.09,.46-.13,.73-.13,.24,0,.48,.04,.72,.12,.24,.08,.44,.19,.63,.33l-.31,.43c-.15-.11-.31-.2-.49-.26s-.36-.09-.54-.09c-.24,0-.43,.05-.59,.14-.15,.1-.23,.22-.23,.37s.07,.26,.21,.35c.14,.09,.36,.15,.66,.2,.52,.08,.89,.2,1.12,.37,.23,.17,.34,.41,.34,.71,0,.22-.06,.42-.18,.58-.12,.17-.3,.3-.52,.39-.22,.09-.48,.14-.78,.14-.28,0-.55-.04-.81-.13Z"/>
            <path class="cls-3" d="M83.35,43.3c-.24-.13-.42-.31-.54-.55s-.19-.52-.19-.84v-2.13h.6v2.12c0,.31,.09,.56,.26,.75,.17,.19,.4,.28,.7,.28s.52-.09,.7-.28c.17-.19,.26-.43,.26-.75v-2.12h.6v2.13c0,.32-.06,.6-.19,.84-.13,.24-.31,.42-.54,.55-.24,.13-.51,.19-.82,.19s-.59-.06-.82-.19Z"/>
            <path class="cls-3" d="M87.68,43.36c-.27-.09-.5-.21-.72-.38l.32-.46c.15,.13,.34,.23,.55,.3,.22,.07,.44,.11,.66,.11,.26,0,.47-.05,.63-.15,.16-.1,.24-.23,.24-.39,0-.15-.07-.27-.22-.35-.15-.09-.38-.15-.69-.19-.49-.07-.85-.19-1.07-.36s-.33-.42-.33-.74c0-.2,.06-.38,.18-.54,.12-.16,.29-.28,.5-.37,.21-.09,.46-.13,.73-.13,.24,0,.48,.04,.72,.12,.24,.08,.44,.19,.63,.33l-.31,.43c-.15-.11-.31-.2-.49-.26s-.36-.09-.54-.09c-.24,0-.43,.05-.59,.14-.15,.1-.23,.22-.23,.37s.07,.26,.21,.35c.14,.09,.36,.15,.66,.2,.52,.08,.89,.2,1.12,.37,.23,.17,.34,.41,.34,.71,0,.22-.06,.42-.18,.58-.12,.17-.3,.3-.52,.39-.22,.09-.48,.14-.78,.14-.28,0-.55-.04-.81-.13Z"/>
            <path class="cls-3" d="M93.83,39.79v.56h-1.18v3.07h-.61v-3.07h-1.18v-.56h2.96Z"/>
            <path class="cls-3" d="M97.52,43.42l-.33-.75h-1.95l-.33,.75h-.65l1.63-3.63h.67l1.62,3.63h-.66Zm-1.31-3.02l-.74,1.72h1.48l-.74-1.72Z"/>
            <path class="cls-3" d="M99.28,39.79h.61v3.63h-.61v-3.63Z"/>
            <path class="cls-3" d="M103.91,39.79h.61v3.63h-.55l-1.96-2.59v1.16s0,1.44,0,1.44h-.61v-3.63h.55l1.96,2.59v-1.08s0-1.51,0-1.51Z"/>
            <path class="cls-3" d="M108.89,43.42l-.33-.75h-1.95l-.33,.75h-.65l1.63-3.63h.67l1.62,3.63h-.66Zm-1.31-3.02l-.74,1.72h1.48l-.74-1.72Z"/>
            <path class="cls-3" d="M113.53,41.88c.11,.16,.16,.34,.16,.54,0,.32-.11,.57-.34,.74s-.55,.26-.97,.26h-1.73v-3.63h1.73c.37,0,.66,.08,.87,.25,.21,.17,.32,.4,.32,.71,0,.18-.04,.34-.12,.48-.08,.14-.19,.24-.34,.32,.17,.06,.3,.17,.41,.33Zm-2.27-1.55v.96h1.15c.18,0,.32-.04,.42-.12,.1-.08,.15-.2,.15-.35s-.05-.27-.15-.35c-.1-.09-.24-.13-.42-.13h-1.15Zm1.67,2.4c.11-.1,.17-.23,.17-.39s-.06-.29-.17-.38c-.11-.09-.27-.14-.46-.14h-1.2v1.06h1.2c.2,0,.35-.05,.47-.14Z"/>
            <path class="cls-3" d="M115,39.79h.61v3.63h-.61v-3.63Z"/>
            <path class="cls-3" d="M117.12,39.79h.61v3.07h1.91v.57h-2.52v-3.63Z"/>
            <path class="cls-3" d="M120.81,39.79h.61v3.63h-.61v-3.63Z"/>
            <path class="cls-3" d="M125.53,39.79v.56h-1.18v3.07h-.61v-3.07h-1.18v-.56h2.96Z"/>
            <path class="cls-3" d="M129.78,39.79l-1.47,2.16v1.47h-.6v-1.47l-1.43-2.16h.72l1.01,1.59,1.04-1.59h.73Z"/>
          </g>
        </g>
      </g>
    </g>
  </g>
</svg>