<?xml version="1.0" encoding="UTF-8"?>
<svg xmlns="http://www.w3.org/2000/svg" viewBox="0 0 1200 1200">
  <defs>
    <style>
      .cls-1 {
        isolation: isolate;
      }

      .cls-2 {
        fill: #4ecd66;
      }

      .cls-3 {
        fill: #f7f7f7;
      }

      .cls-4 {
        fill: #a6edb3;
      }

      .cls-5 {
        mix-blend-mode: multiply;
      }

      .cls-6 {
        fill: #f2f2f2;
      }

      .cls-7 {
        fill: #36ad4c;
      }

      .cls-8 {
        fill: #e3e3e3;
      }

      .cls-9 {
        fill: #ededed;
      }
    </style>
  </defs>
  <g class="cls-1">
    <g id="Layer_1" data-name="Layer 1">
      <path class="cls-7" d="M588.87,1027.47c-2.47-.06-4.44-2.13-4.38-4.62h0c.06-2.47,2.13-4.44,4.62-4.38h0c2.47,.06,4.44,2.13,4.38,4.62h0c-.06,2.44-2.07,4.38-4.5,4.38h-.12Zm18.15-4.39c-.07-2.48,1.89-4.55,4.38-4.61h0c2.48-.07,4.55,1.89,4.62,4.37h0c.06,2.49-1.9,4.56-4.38,4.62h-.12c-2.43,0-4.44-1.93-4.5-4.38Zm-40.87,3.23h.02c-2.49-.2-4.34-2.37-4.14-4.85h0c.2-2.48,2.36-4.33,4.83-4.14h0c2.49,.19,4.34,2.37,4.14,4.84h0c-.18,2.36-2.16,4.14-4.48,4.14h-.36Zm63.37-4.17c-.19-2.48,1.65-4.65,4.12-4.85h0c2.48-.19,4.65,1.65,4.85,4.12h0c.19,2.48-1.65,4.65-4.12,4.85h0c-.12,0-.24,.01-.36,.01h0c-2.32,0-4.29-1.78-4.49-4.14Zm-86,1.78c-2.47-.33-4.2-2.58-3.88-5.05h0c.33-2.46,2.59-4.18,5.06-3.87h0c2.46,.33,4.2,2.59,3.87,5.06h0c-.3,2.26-2.24,3.91-4.46,3.91h0c-.19,0-.39-.01-.59-.05Zm108.42-3.93c-.35-2.46,1.39-4.73,3.86-5.06h0c2.47-.33,4.72,1.39,5.05,3.87h0c.33,2.46-1.39,4.72-3.85,5.05h0c-.21,.02-.41,.03-.6,.03h0c-2.22,0-4.15-1.63-4.45-3.9Zm-130.9,.36c-2.44-.46-4.05-2.82-3.6-5.25h0c.47-2.44,2.8-4.06,5.25-3.6h0c2.44,.45,4.06,2.81,3.6,5.25h0c-.41,2.16-2.3,3.68-4.43,3.68h0c-.27,0-.54-.03-.82-.08Zm153.16-3.69c-.45-2.44,1.16-4.8,3.6-5.26h0c2.43-.45,4.78,1.16,5.25,3.6h0c.46,2.44-1.16,4.8-3.59,5.25h0c-.28,.06-.57,.07-.84,.07h0c-2.13,0-4.02-1.5-4.43-3.66Zm-175.42-1.09c-2.42-.59-3.89-3.01-3.3-5.43h0c.59-2.42,3.01-3.9,5.43-3.31h0c2.41,.58,3.9,3.03,3.31,5.44h0c-.51,2.06-2.34,3.44-4.37,3.44h0c-.36,0-.72-.05-1.08-.13Zm197.49-3.42c-.58-2.42,.9-4.86,3.31-5.44h0c2.42-.58,4.85,.9,5.43,3.31h0c.58,2.4-.88,4.84-3.3,5.43h0c-.36,.09-.72,.13-1.08,.13h0c-2.02,0-3.86-1.38-4.37-3.43Zm-219.45-2.54c-2.38-.72-3.74-3.22-3.02-5.61h0c.72-2.37,3.23-3.72,5.59-3.02h0c2.39,.72,3.74,3.23,3.02,5.61h0c-.59,1.95-2.37,3.21-4.31,3.21h0c-.42,0-.85-.06-1.29-.2Zm241.25-3.16c-.72-2.37,.63-4.89,3.01-5.6h0c2.37-.72,4.89,.62,5.6,3h0c.72,2.38-.62,4.89-3,5.61h0c-.43,.13-.87,.19-1.31,.19h0c-1.94,0-3.72-1.26-4.31-3.21Zm-262.91-3.99c-2.34-.84-3.56-3.42-2.71-5.75h0c.84-2.34,3.42-3.56,5.76-2.71h0c2.34,.84,3.54,3.42,2.7,5.76h0c-.66,1.83-2.39,2.97-4.23,2.97h0c-.51,0-1.02-.09-1.51-.27Zm284.35-2.85c-.84-2.34,.37-4.92,2.71-5.76h0c2.33-.85,4.91,.36,5.76,2.7h0c.84,2.34-.37,4.92-2.72,5.76h0c-.5,.18-1.02,.27-1.53,.27h0c-1.83,0-3.57-1.14-4.23-2.97Zm-305.61-5.44c-2.28-.96-3.36-3.6-2.4-5.89h0c.97-2.28,3.61-3.36,5.89-2.4h0c2.3,.97,3.37,3.61,2.4,5.89h0c-.72,1.72-2.38,2.76-4.14,2.76h0c-.59,0-1.18-.12-1.75-.36Zm326.62-2.53c-.96-2.28,.11-4.94,2.4-5.9h0c2.28-.96,4.92,.11,5.89,2.4h0c.96,2.28-.11,4.92-2.4,5.89h0c-.57,.24-1.16,.35-1.74,.35h0c-1.75,0-3.43-1.02-4.16-2.75Zm-347.38-6.88c-2.23-1.08-3.16-3.78-2.07-6.02h0c1.08-2.23,3.78-3.16,6.02-2.07h0c2.23,1.08,3.16,3.76,2.07,6.01h0c-.78,1.59-2.39,2.52-4.05,2.52h0c-.66,0-1.34-.13-1.96-.45Zm367.95-2.21c-1.09-2.23-.16-4.92,2.07-6.01h0c2.24-1.08,4.93-.17,6.02,2.07h0c1.09,2.24,.16,4.94-2.07,6.03h0c-.63,.3-1.31,.45-1.97,.45h0c-1.67,0-3.27-.93-4.05-2.54Zm-388.17-8.31c-2.17-1.2-2.95-3.94-1.75-6.12h0c1.21-2.17,3.94-2.95,6.12-1.75h0c2.18,1.2,2.95,3.94,1.75,6.12h0c-.82,1.49-2.35,2.32-3.94,2.31h0c-.74,0-1.49-.18-2.18-.56Zm408.22-1.86c-1.2-2.18-.42-4.91,1.75-6.12h0c2.18-1.22,4.91-.42,6.12,1.75h0c1.2,2.18,.42,4.9-1.75,6.12h0v-.02h0c-.69,.39-1.44,.57-2.18,.57h0c-1.59,0-3.12-.83-3.94-2.31Zm-427.84-9.72h0c-2.11-1.32-2.74-4.09-1.42-6.19h0c1.32-2.12,4.09-2.75,6.19-1.43h0c2.12,1.32,2.75,4.1,1.43,6.19h0c-.86,1.37-2.31,2.12-3.81,2.12h0c-.83,0-1.65-.23-2.39-.69Zm447.34-1.51c-1.33-2.1-.69-4.89,1.41-6.19h0c2.12-1.34,4.89-.69,6.21,1.41h0c1.32,2.12,.68,4.89-1.43,6.21h0c-.73,.46-1.56,.69-2.38,.69h0c-1.5,0-2.95-.75-3.81-2.12Zm-466.32-11.09c-2.04-1.42-2.53-4.24-1.09-6.27h0c1.43-2.04,4.23-2.52,6.27-1.09h0c2.03,1.42,2.52,4.23,1.09,6.27h0c-.88,1.25-2.28,1.92-3.69,1.9h0c-.9,0-1.8-.25-2.58-.81Zm485.19-1.17c-1.44-2.04-.94-4.85,1.08-6.27h0c2.04-1.42,4.85-.94,6.27,1.1h0c1.44,2.02,.94,4.83-1.08,6.27h0c-.79,.56-1.69,.81-2.58,.81h0c-1.43,0-2.82-.66-3.69-1.9Zm-503.47-12.42c-1.95-1.55-2.29-4.37-.75-6.31h0c1.53-1.96,4.37-2.3,6.31-.76h0c1.95,1.53,2.3,4.37,.75,6.31h0c-.88,1.14-2.2,1.72-3.54,1.72h0c-.97,0-1.95-.32-2.78-.96Zm521.67-.82c-1.53-1.95-1.19-4.79,.76-6.32h0c1.95-1.55,4.79-1.2,6.32,.75h0c1.53,1.96,1.2,4.78-.77,6.33h0c-.82,.64-1.8,.96-2.77,.96h0c-1.33,0-2.66-.6-3.54-1.72Zm-539.19-13.71c-1.87-1.63-2.07-4.48-.43-6.36h0c1.65-1.86,4.48-2.06,6.36-.42h0c1.87,1.65,2.06,4.49,.42,6.36h0c-.88,1.02-2.13,1.53-3.39,1.53h0c-1.05,0-2.1-.36-2.96-1.11Zm556.68-.48c-1.65-1.88-1.45-4.71,.41-6.36h.01c1.86-1.63,4.71-1.44,6.34,.44h0c1.63,1.86,1.44,4.71-.42,6.34h0c-.86,.75-1.92,1.11-2.97,1.11h0c-1.25,0-2.49-.51-3.37-1.53Zm-573.42-14.96h0c-1.77-1.74-1.81-4.59-.08-6.38h0c1.73-1.77,4.58-1.81,6.36-.07h0c1.78,1.73,1.81,4.57,.09,6.36h0c-.89,.9-2.06,1.37-3.22,1.37h0c-1.14,0-2.27-.44-3.15-1.28Zm590.11-.15c-1.72-1.78-1.69-4.63,.09-6.36h0c1.78-1.74,4.63-1.69,6.36,.08h0c1.74,1.78,1.7,4.63-.07,6.38h0c-.88,.84-2.01,1.27-3.15,1.27h0c-1.17,0-2.34-.47-3.23-1.37Zm-605.98-16.15c-1.69-1.83-1.59-4.68,.24-6.36h0c1.83-1.68,4.68-1.57,6.36,.25h0c1.69,1.81,1.58,4.67-.26,6.36h0c-.85,.79-1.95,1.19-3.04,1.19h0c-1.22,0-2.42-.48-3.3-1.44Zm621.87,.18c-1.81-1.68-1.94-4.53-.24-6.34h-.02c1.69-1.83,4.55-1.95,6.37-.25h0c1.81,1.68,1.94,4.53,.24,6.36h0c-.88,.96-2.08,1.44-3.3,1.44h0c-1.09,0-2.19-.39-3.06-1.2Zm-636.87-17.29c-1.59-1.91-1.34-4.74,.59-6.33h0c1.9-1.59,4.74-1.33,6.33,.59h0c1.59,1.9,1.34,4.74-.59,6.33h0c-.84,.7-1.86,1.05-2.86,1.05h0c-1.29-.01-2.58-.56-3.47-1.63Zm651.9,.51c-1.91-1.59-2.18-4.43-.59-6.33h0c1.59-1.92,4.43-2.18,6.33-.59h0c1.92,1.57,2.18,4.43,.6,6.33h0c-.9,1.07-2.17,1.62-3.48,1.62h0c-1,0-2.03-.33-2.87-1.03Zm-665.97-18.39c-1.49-2-1.08-4.8,.91-6.3h0c2-1.47,4.82-1.06,6.3,.93h0c1.48,2,1.06,4.82-.92,6.3h0c-.81,.6-1.75,.88-2.69,.88h0c-1.38,0-2.73-.63-3.61-1.81Zm680.09,.82c-2-1.49-2.4-4.31-.92-6.29h0c1.49-2,4.31-2.41,6.29-.93h0c2,1.49,2.41,4.31,.93,6.3h0c-.88,1.18-2.23,1.81-3.61,1.81h0c-.93,0-1.87-.3-2.69-.9Zm-693.18-19.41c-1.38-2.07-.83-4.88,1.24-6.24h0c2.07-1.38,4.86-.82,6.24,1.25h0c1.38,2.07,.83,4.86-1.26,6.24h0c-.77,.51-1.62,.75-2.47,.75h0c-1.46,0-2.9-.7-3.75-2Zm706.35,1.12c-2.07-1.38-2.62-4.17-1.26-6.24h0c1.38-2.07,4.17-2.64,6.24-1.26h0c2.07,1.38,2.64,4.17,1.26,6.24h0c-.87,1.31-2.29,2.01-3.75,2.01h0c-.85,0-1.72-.24-2.49-.75Zm-718.44-20.38c-1.28-2.14-.56-4.9,1.57-6.16h0c2.15-1.28,4.91-.56,6.16,1.57h0c1.28,2.14,.56,4.9-1.57,6.16h0c-.72,.43-1.51,.63-2.29,.63h0c-1.53,0-3.03-.79-3.87-2.2Zm730.62,1.41c-2.14-1.26-2.85-4.02-1.59-6.17h0c1.26-2.13,4.03-2.85,6.16-1.57h0c2.15,1.26,2.85,4.02,1.59,6.15h0c-.84,1.43-2.34,2.22-3.88,2.22h0c-.78,0-1.56-.21-2.28-.63Zm-741.67-21.29h0c-1.14-2.2-.28-4.92,1.92-6.07h0c2.21-1.14,4.92-.29,6.06,1.92h0c1.16,2.19,.3,4.92-1.9,6.06h0c-.66,.34-1.38,.51-2.08,.51h0c-1.62,0-3.18-.87-3.99-2.42Zm752.84,1.69c-2.2-1.15-3.06-3.87-1.92-6.07h0c1.16-2.2,3.87-3.06,6.07-1.92h0c2.21,1.16,3.06,3.87,1.91,6.08h0c-.8,1.54-2.37,2.41-3.99,2.41h0c-.7,0-1.41-.15-2.07-.5Zm-762.8-22.11c-1.03-2.27-.03-4.94,2.24-5.97h0c2.25-1.02,4.92-.03,5.95,2.24h0c1.02,2.26,.03,4.94-2.23,5.95h0c-.6,.29-1.23,.41-1.86,.41h0c-1.71,0-3.34-.98-4.09-2.62Zm772.89,1.93c-2.26-1.03-3.27-3.7-2.23-5.95h0c1.02-2.26,3.69-3.27,5.95-2.25h0c2.26,1.04,3.27,3.7,2.24,5.97h0c-.75,1.65-2.39,2.64-4.1,2.64h0c-.63,0-1.26-.13-1.86-.41Zm-781.75-22.86c-.9-2.31,.24-4.92,2.55-5.84h0c2.31-.9,4.92,.24,5.84,2.55h0c.9,2.31-.24,4.92-2.55,5.84h0c-.54,.21-1.09,.31-1.65,.31h0c-1.79,0-3.48-1.1-4.19-2.87Zm790.75,2.18c-2.31-.92-3.45-3.53-2.55-5.84h0c.9-2.31,3.51-3.46,5.83-2.55h0c2.31,.9,3.45,3.51,2.55,5.82h0c-.71,1.79-2.4,2.87-4.2,2.87h0c-.54,0-1.1-.09-1.64-.3Zm-798.49-23.58c-.78-2.35,.49-4.9,2.85-5.69h0c2.37-.78,4.9,.5,5.7,2.85h0c.78,2.36-.51,4.9-2.87,5.69h0c-.47,.16-.94,.24-1.41,.24h0c-1.89,0-3.65-1.2-4.28-3.09Zm806.39,2.43c-2.37-.78-3.65-3.33-2.87-5.69h0c.78-2.37,3.33-3.64,5.69-2.87h0c2.35,.78,3.64,3.33,2.85,5.69h.02c-.63,1.89-2.39,3.09-4.28,3.09h0c-.46,0-.94-.07-1.41-.23Zm-812.97-24.21h0c-.66-2.4,.77-4.88,3.16-5.54h0c2.39-.66,4.86,.76,5.52,3.15h0c.66,2.4-.76,4.88-3.15,5.53h0c-.41,.11-.79,.15-1.2,.15h0c-1.98,0-3.78-1.31-4.34-3.3Zm819.69,2.71c-2.4-.66-3.82-3.13-3.17-5.53h0c.65-2.4,3.12-3.81,5.52-3.15h0c2.4,.65,3.81,3.12,3.16,5.52h0c-.54,1.99-2.35,3.32-4.33,3.32h0c-.39,0-.8-.05-1.18-.15Zm-825.09-24.84c-.52-2.43,1.01-4.81,3.45-5.34h0c2.41-.52,4.82,1.02,5.34,3.45v-.02c.52,2.44-1.02,4.83-3.45,5.36h0c-.32,.07-.63,.11-.94,.11h0c-2.09,0-3.94-1.44-4.4-3.56Zm830.64,3c-2.43-.51-3.98-2.91-3.45-5.34h0c.52-2.43,2.93-3.97,5.35-3.45h0c2.42,.53,3.98,2.91,3.45,5.34h0c-.47,2.11-2.33,3.55-4.4,3.55h0c-.31,0-.63-.03-.96-.1Zm-834.85-25.35c-.41-2.46,1.27-4.77,3.72-5.18h0c2.46-.39,4.77,1.28,5.16,3.74h0c.39,2.46-1.28,4.77-3.72,5.16h0c-.24,.04-.48,.06-.72,.06h0c-2.18,0-4.09-1.58-4.44-3.78Zm839.23,3.27c-2.44-.39-4.12-2.7-3.72-5.16h0c.37-2.44,2.69-4.12,5.15-3.74h0c2.46,.39,4.12,2.7,3.74,5.16h0c-.36,2.2-2.27,3.79-4.44,3.78h0c-.24,0-.48-.01-.72-.05Zm-842.25-25.83c-.27-2.47,1.53-4.69,3.99-4.96h0c2.47-.25,4.69,1.53,4.95,4.01h0c.27,2.47-1.51,4.68-3.99,4.95h0c-.16,.01-.33,.03-.49,.03h0c-2.27,0-4.22-1.71-4.46-4.02Zm845.46,3.54c-2.47-.27-4.27-2.48-4-4.95h0c.25-2.48,2.48-4.28,4.95-4h0c2.46,.25,4.26,2.47,3.99,4.95h0c-.24,2.31-2.19,4.02-4.47,4.02h0c-.15,0-.32,0-.47-.01Zm-847.27-26.24c-.13-2.48,1.77-4.59,4.25-4.73h0c2.49-.13,4.6,1.77,4.74,4.25h0c.14,2.48-1.77,4.61-4.26,4.74h-.24c-2.37,0-4.36-1.86-4.48-4.26Zm849.29,3.8c-2.49-.12-4.4-2.25-4.26-4.73h0c.12-2.49,2.25-4.38,4.73-4.26h0c2.48,.13,4.38,2.25,4.26,4.73h0c-.12,2.4-2.12,4.27-4.49,4.27h0c-.09,0-.16,0-.24-.01Zm-849.92-26.53v-.02h0c0-2.47,2.01-4.5,4.5-4.5h0c2.49,0,4.5,2.01,4.5,4.5h0c.01,2.49-2.01,4.5-4.49,4.5h0c-2.49,0-4.5-2.01-4.51-4.48Zm846.24-.47h0c0-.15,0-.31,.01-.47h0c-.01-.15-.01-.31-.01-.48h0c-.02-2.49,2-4.5,4.48-4.51h0c2.49,0,4.5,2.01,4.5,4.5h0c0,.16,0,.33-.01,.48h0c.01,.17,.01,.31,.01,.48h.02c0,2.49-2.03,4.5-4.5,4.5h0c-2.49,0-4.5-2.01-4.5-4.5Zm-837.24,.45h0Zm-4.15-18.01c-2.49-.14-4.4-2.25-4.28-4.73h0c.13-2.47,2.25-4.39,4.72-4.26h0c2.49,.12,4.4,2.24,4.28,4.72h0c-.13,2.4-2.12,4.28-4.5,4.28h0c-.07,0-.15-.01-.22-.01Zm840.75-5.66c-.13-2.49,1.77-4.61,4.26-4.74h0c2.47-.13,4.59,1.77,4.74,4.24h0c.14,2.49-1.77,4.6-4.26,4.74h-.24c-2.38,0-4.36-1.86-4.5-4.24Zm-839.25-16.81c-2.46-.26-4.26-2.48-4-4.95h0v.02h0c.25-2.48,2.47-4.28,4.95-4.01h0c2.46,.26,4.26,2.46,4,4.93h0c-.24,2.31-2.19,4.03-4.47,4.03h0c-.15,0-.31-.01-.48-.03Zm837.45-5.4h0c-.27-2.46,1.53-4.68,3.99-4.95h0c2.48-.27,4.7,1.52,4.97,3.99h0c.25,2.47-1.53,4.69-3.99,4.95h0c-.17,.03-.33,.03-.5,.03h0c-2.26,0-4.21-1.71-4.47-4.02Zm-834.75-16.97c-2.44-.38-4.12-2.69-3.73-5.15h0c.39-2.46,2.7-4.12,5.14-3.73h0c2.46,.39,4.12,2.7,3.75,5.14h0c-.36,2.22-2.26,3.8-4.44,3.8h0c-.24,0-.48-.02-.72-.06Zm831.78-5.12c-.4-2.44,1.26-4.75,3.72-5.16h0c2.44-.39,4.75,1.28,5.16,3.72h0c.39,2.46-1.27,4.77-3.72,5.16h0c-.25,.05-.5,.06-.74,.06h0c-2.16,0-4.06-1.56-4.43-3.78Zm-827.89-17.06c-2.43-.52-3.98-2.92-3.45-5.34h0c.53-2.45,2.91-3.99,5.34-3.47h0c2.43,.52,3.97,2.91,3.47,5.34h0c-.47,2.11-2.32,3.55-4.41,3.55h0c-.3,0-.63-.03-.94-.09Zm823.74-4.83c-.53-2.43,1-4.83,3.43-5.36h0c2.43-.52,4.83,1.02,5.35,3.45h0c.53,2.41-1,4.81-3.44,5.34h0c-.33,.07-.64,.1-.96,.1h0c-2.07,0-3.94-1.44-4.39-3.54Zm-818.67-17.12c-2.4-.66-3.81-3.13-3.16-5.52h0c.64-2.4,3.12-3.83,5.52-3.18h0c2.4,.66,3.81,3.12,3.16,5.52h0c-.54,2.01-2.35,3.33-4.33,3.33h0c-.39,0-.8-.04-1.19-.15Zm813.34-4.51c-.66-2.4,.77-4.88,3.15-5.53h0c2.4-.66,4.88,.75,5.53,3.15h0c.66,2.4-.75,4.88-3.15,5.53h0c-.41,.11-.8,.15-1.18,.15h0c-1.98,0-3.8-1.3-4.35-3.3Zm-807.1-17.13c-2.35-.78-3.64-3.33-2.86-5.69h0c.78-2.36,3.31-3.65,5.69-2.87h0c2.35,.78,3.63,3.31,2.86,5.69h0c-.63,1.89-2.38,3.09-4.27,3.09h0c-.47,0-.95-.08-1.41-.22Zm800.64-4.19c-.78-2.37,.5-4.92,2.85-5.7h0c2.35-.78,4.9,.5,5.69,2.85h0c.78,2.36-.5,4.9-2.85,5.69h0c-.47,.17-.94,.24-1.41,.24h0c-1.89,0-3.64-1.2-4.27-3.07Zm-793.23-17.15c-2.33-.9-3.47-3.51-2.56-5.82h0c.9-2.33,3.51-3.47,5.83-2.56h0c2.31,.91,3.45,3.52,2.55,5.83h0c-.69,1.77-2.4,2.87-4.2,2.87h0c-.54,0-1.09-.1-1.62-.32Zm785.62-3.81c-.91-2.31,.23-4.92,2.54-5.84h0c2.31-.9,4.93,.23,5.83,2.53h0c.92,2.33-.22,4.93-2.53,5.85h0c-.54,.21-1.1,.3-1.65,.3h0c-1.78,0-3.48-1.08-4.19-2.85Zm-777.09-17.07c-2.27-1.02-3.27-3.69-2.25-5.96h0c1.03-2.26,3.69-3.27,5.95-2.25h0c2.27,1.03,3.27,3.71,2.25,5.97h0c-.75,1.65-2.4,2.64-4.11,2.64h0c-.62,0-1.25-.14-1.84-.41Zm768.39-3.39c-1.03-2.26-.03-4.94,2.22-5.97h0c2.26-1.02,4.93-.03,5.97,2.24h0c1.04,2.25,.03,4.92-2.22,5.95h0c-.62,.28-1.25,.41-1.87,.41h0c-1.71,0-3.33-.97-4.1-2.62Zm-758.76-17.01c-2.21-1.14-3.06-3.85-1.92-6.06h0c1.15-2.2,3.87-3.06,6.08-1.92h0c2.2,1.14,3.06,3.85,1.92,6.07h0c-.81,1.53-2.37,2.41-4,2.41h0c-.69,0-1.4-.16-2.07-.51Zm748.98-2.97c-1.16-2.21-.3-4.92,1.9-6.07h0c2.2-1.16,4.92-.3,6.07,1.91h0c1.16,2.2,.3,4.92-1.9,6.07h0c-.66,.34-1.38,.51-2.09,.51h0c-1.62,0-3.18-.88-3.99-2.41Zm-738.26-16.86c-2.15-1.27-2.87-4.02-1.6-6.16h0c1.28-2.14,4.03-2.85,6.16-1.59h0c2.15,1.26,2.85,4.02,1.59,6.17h0c-.84,1.41-2.34,2.2-3.87,2.2h0c-.78,0-1.57-.19-2.28-.62Zm727.42-2.58h0c-1.27-2.13-.57-4.89,1.58-6.16h0c2.13-1.26,4.89-.56,6.16,1.57h0c1.28,2.15,.57,4.9-1.57,6.16h0c-.72,.43-1.51,.63-2.3,.63h0c-1.53,0-3.03-.78-3.87-2.2Zm-715.68-16.66c-2.07-1.37-2.64-4.17-1.26-6.24h0c1.38-2.07,4.17-2.64,6.24-1.26h0c2.07,1.38,2.64,4.17,1.26,6.24h0c-.87,1.31-2.3,2.01-3.75,2.01h0c-.86,0-1.73-.24-2.49-.75Zm703.81-2.18h.02c-1.4-2.07-.82-4.86,1.25-6.24h0c2.06-1.38,4.86-.82,6.24,1.24h0c1.37,2.07,.81,4.86-1.26,6.24h0c-.76,.51-1.62,.76-2.49,.76h0c-1.45,0-2.88-.7-3.75-2.01Zm-691.05-16.41c-1.99-1.49-2.41-4.29-.93-6.28h0c1.48-1.99,4.29-2.42,6.28-.93h0c2.01,1.47,2.41,4.29,.93,6.28h0c-.87,1.2-2.24,1.83-3.62,1.83h0c-.93,0-1.86-.3-2.67-.9Zm678.21-1.77c-1.49-2-1.08-4.81,.92-6.3h0c2-1.49,4.81-1.08,6.3,.91h0c1.49,1.98,1.08,4.8-.91,6.28h0c-.81,.62-1.76,.9-2.69,.9h0c-1.38,0-2.73-.63-3.62-1.8Zm-664.5-16.1c-1.91-1.59-2.17-4.42-.59-6.34h0c1.59-1.91,4.43-2.17,6.33-.59h0c1.92,1.58,2.19,4.41,.6,6.33h0c-.88,1.08-2.17,1.63-3.46,1.63h0c-1.02,0-2.03-.35-2.88-1.04Zm650.71-1.39c-1.6-1.92-1.33-4.76,.57-6.34h0c1.92-1.59,4.75-1.32,6.34,.58h0c1.59,1.9,1.32,4.74-.58,6.33h0c-.84,.7-1.86,1.05-2.88,1.05h0c-1.29,0-2.56-.55-3.45-1.62Zm-636.06-15.74c-1.83-1.68-1.94-4.53-.25-6.35h0c1.68-1.83,4.53-1.95,6.36-.27h0c1.83,1.7,1.93,4.55,.26,6.36h0c-.89,.96-2.1,1.45-3.31,1.45h0c-1.08,0-2.18-.39-3.05-1.2Zm621.34-1c-1.68-1.83-1.57-4.66,.25-6.36h0c1.81-1.69,4.67-1.57,6.35,.24h0c1.69,1.83,1.59,4.66-.24,6.36h0c-.86,.81-1.97,1.2-3.06,1.2h0c-1.2,0-2.42-.48-3.3-1.44Zm-605.82-15.3c-1.72-1.78-1.69-4.63,.09-6.36h0c1.77-1.74,4.62-1.71,6.36,.07h0c1.74,1.77,1.7,4.62-.07,6.36h0c-.88,.85-2.01,1.27-3.15,1.27h0c-1.17,0-2.34-.45-3.22-1.35Zm590.25-.64c-1.79-1.73-1.81-4.58-.09-6.36h0c1.73-1.78,4.58-1.83,6.36-.09h0c1.79,1.72,1.83,4.58,.09,6.36h0c-.87,.91-2.06,1.36-3.23,1.36h0c-1.12,0-2.26-.42-3.13-1.27Zm-573.87-14.82c-1.65-1.88-1.46-4.72,.4-6.36h0c1.87-1.63,4.71-1.46,6.36,.42h0c1.63,1.86,1.44,4.71-.42,6.34h0c-.85,.75-1.92,1.12-2.97,1.12h0c-1.25,0-2.49-.52-3.37-1.53Zm557.48-.27h0c-1.87-1.64-2.07-4.49-.43-6.34h0c1.63-1.88,4.48-2.07,6.36-.44h0c1.87,1.63,2.06,4.47,.42,6.35h0c-.88,1.02-2.13,1.54-3.39,1.54h0c-1.05,0-2.1-.38-2.95-1.11Zm-540.33-14.31c-1.53-1.97-1.2-4.78,.75-6.33h0c1.97-1.53,4.78-1.2,6.33,.75h0c1.53,1.97,1.2,4.78-.75,6.33h0c-.82,.64-1.81,.96-2.79,.96h0c-1.32,0-2.64-.59-3.54-1.71Zm523.15,.09c-1.95-1.53-2.3-4.35-.76-6.31h0c1.53-1.95,4.36-2.3,6.31-.77h0c1.96,1.53,2.29,4.37,.76,6.31h0c-.88,1.14-2.2,1.72-3.54,1.72h0c-.97,0-1.95-.32-2.77-.96Zm-505.25-13.74c-1.43-2.04-.94-4.85,1.08-6.27h0c2.04-1.44,4.84-.94,6.27,1.08h0c1.44,2.04,.94,4.85-1.08,6.27h0c-.79,.55-1.69,.82-2.59,.82h0c-1.41,0-2.8-.66-3.67-1.9Zm487.33,.47c-2.04-1.43-2.52-4.23-1.09-6.27h0c1.43-2.04,4.23-2.53,6.27-1.1h0c2.02,1.43,2.52,4.23,1.1,6.25h0c-.87,1.26-2.27,1.92-3.69,1.92h0c-.89,0-1.79-.25-2.58-.81Zm-468.73-13.14c-1.32-2.1-.69-4.89,1.41-6.21h0c2.1-1.32,4.87-.69,6.21,1.42h0c1.32,2.1,.67,4.88-1.43,6.2h0c-.73,.46-1.56,.69-2.38,.69h0c-1.5,0-2.96-.75-3.81-2.1Zm450.15,.83c-2.12-1.32-2.76-4.1-1.44-6.21h0c1.32-2.1,4.09-2.75,6.21-1.42h0c2.1,1.32,2.75,4.09,1.43,6.19h0c-.86,1.36-2.32,2.11-3.82,2.11h0c-.81,0-1.63-.21-2.37-.67Zm-430.92-12.5c-1.21-2.16-.42-4.9,1.74-6.12h0c2.18-1.2,4.92-.44,6.12,1.74h0c1.21,2.17,.43,4.92-1.74,6.12h0c-.69,.39-1.44,.57-2.17,.57h0c-1.59,0-3.12-.82-3.95-2.31Zm411.69,1.19h0c-2.18-1.22-2.97-3.94-1.75-6.12h0c1.2-2.18,3.93-2.97,6.11-1.75h0c2.18,1.2,2.97,3.93,1.77,6.1h0c-.82,1.49-2.37,2.33-3.94,2.33h0c-.74,0-1.49-.18-2.18-.56Zm-391.86-11.81c-1.09-2.23-.18-4.92,2.06-6.01h0c2.23-1.1,4.93-.17,6.03,2.05h0c1.1,2.24,.16,4.93-2.07,6.03h0c-.64,.31-1.3,.45-1.98,.45h0c-1.66,0-3.25-.93-4.03-2.52Zm372.04,1.53c-2.24-1.08-3.16-3.78-2.07-6.01h0c1.08-2.24,3.76-3.17,6-2.09h0c2.24,1.09,3.18,3.78,2.08,6.01h0c-.78,1.61-2.37,2.54-4.05,2.54h0c-.66,0-1.32-.15-1.97-.45Zm-351.7-11.07c-.96-2.3,.1-4.94,2.4-5.91h0c2.28-.96,4.92,.1,5.89,2.38h0c.97,2.3-.09,4.93-2.38,5.9h0c-.57,.25-1.17,.38-1.75,.38h0c-1.75,0-3.42-1.03-4.15-2.75Zm331.38,1.88h0c-2.3-.96-3.37-3.6-2.4-5.9h0c.96-2.29,3.6-3.38,5.88-2.4h0c2.29,.96,3.37,3.6,2.41,5.88h0c-.73,1.72-2.4,2.76-4.15,2.76h0c-.59,0-1.17-.1-1.74-.35Zm-310.54-10.32c-.84-2.34,.36-4.92,2.7-5.78h0c2.34-.84,4.92,.38,5.76,2.7h0c.86,2.34-.36,4.92-2.7,5.76h0c-.51,.19-1.02,.28-1.53,.28h0c-1.84,0-3.57-1.14-4.23-2.97Zm289.74,2.22c-2.34-.84-3.56-3.42-2.71-5.76h0c.84-2.34,3.42-3.55,5.76-2.72h0c2.34,.84,3.56,3.42,2.71,5.76h0c-.66,1.83-2.4,2.98-4.25,2.98h0c-.5,0-1.02-.09-1.51-.27Zm-268.44-9.56c-.72-2.38,.62-4.89,3-5.61h0c2.37-.72,4.89,.62,5.61,3h0c.72,2.39-.63,4.89-3,5.61h0c-.44,.13-.87,.19-1.31,.19h0c-1.94,0-3.72-1.26-4.31-3.19Zm247.27,2.59c-2.38-.71-3.73-3.22-3.03-5.59h0c.72-2.38,3.23-3.74,5.61-3.03h0c2.37,.72,3.73,3.22,3.01,5.61h0c-.58,1.95-2.37,3.21-4.31,3.21h0c-.43,0-.86-.06-1.29-.19Zm-225.61-8.78c-.6-2.41,.89-4.86,3.3-5.44h0c2.4-.59,4.84,.88,5.43,3.3h0c.6,2.41-.89,4.84-3.3,5.44h0c-.36,.09-.72,.12-1.06,.12h0c-2.03,0-3.87-1.37-4.37-3.42Zm204.1,2.97h0c-2.41-.59-3.9-3.01-3.31-5.43h0c.59-2.41,3.01-3.9,5.43-3.32h0c2.42,.57,3.9,3.02,3.31,5.43h0c-.49,2.06-2.34,3.44-4.37,3.44h0c-.36,0-.7-.03-1.06-.12Zm-182.16-7.98c-.45-2.44,1.15-4.8,3.59-5.27h0c2.44-.45,4.8,1.16,5.27,3.59h0c.47,2.44-1.14,4.8-3.59,5.27h0c-.28,.04-.57,.07-.84,.07h0c-2.13,0-4-1.5-4.43-3.66Zm160.37,3.33h0c-2.45-.46-4.05-2.8-3.6-5.25h0c.45-2.44,2.81-4.05,5.25-3.6h0c2.44,.45,4.05,2.81,3.6,5.25h0c-.41,2.16-2.3,3.68-4.43,3.68h0c-.27,0-.54-.03-.82-.08Zm-138.17-7.15c-.33-2.46,1.4-4.74,3.85-5.07h0v.02h0c2.46-.35,4.72,1.39,5.07,3.85h0c.32,2.46-1.41,4.72-3.87,5.06h0c-.2,.03-.4,.04-.6,.04h0c-2.22,0-4.15-1.65-4.45-3.9Zm116.16,3.68c-2.46-.33-4.2-2.58-3.87-5.04h0c.31-2.47,2.58-4.22,5.04-3.89h0c2.46,.32,4.2,2.58,3.88,5.04h0c-.3,2.26-2.23,3.91-4.45,3.91h0c-.19,0-.4,0-.6-.03Zm-93.79-6.32c-.2-2.47,1.63-4.65,4.12-4.86h0c2.47-.19,4.63,1.65,4.84,4.14h0c.19,2.47-1.65,4.63-4.12,4.84h0c-.12,0-.24,.01-.36,.01h0c-2.32,0-4.31-1.78-4.48-4.14Zm71.64,4.01c-2.48-.19-4.33-2.35-4.14-4.83h0c.19-2.48,2.35-4.34,4.83-4.14h0c2.48,.19,4.33,2.35,4.14,4.83h0c-.18,2.37-2.16,4.15-4.48,4.15h0c-.11,0-.23,0-.35-.02Zm-49.17-5.46c-.06-2.49,1.89-4.56,4.38-4.62h0c2.47-.08,4.54,1.89,4.62,4.36h0c.06,2.49-1.89,4.56-4.38,4.62h-.12c-2.43,0-4.43-1.94-4.5-4.37Zm26.91,4.34h0c-2.48-.06-4.44-2.13-4.38-4.6h0c.06-2.49,2.12-4.46,4.6-4.4h0c2.49,.06,4.46,2.13,4.4,4.6h0c-.06,2.46-2.07,4.4-4.5,4.4h-.12Z"/>
      <g>
        <g class="cls-5">
          <circle class="cls-6" cx="599.74" cy="614.03" r="229.97" transform="translate(-258.52 603.92) rotate(-45)"/>
        </g>
        <circle class="cls-2" cx="599.74" cy="600.26" r="229.97" transform="translate(-248.79 599.89) rotate(-45)"/>
        <g>
          <g id="path3924" class="cls-5">
            <circle class="cls-6" cx="599.97" cy="611.85" r="148.86" transform="translate(-256.92 603.45) rotate(-45)"/>
          </g>
          <g id="path3924-2" data-name="path3924">
            <circle class="cls-4" cx="599.97" cy="600.38" r="148.86" transform="translate(-248.81 600.09) rotate(-45)"/>
          </g>
          <g id="path3089">
            <path class="cls-7" d="M599.72,451.28c-6,0-11.92,.34-17.73,1.03l1.66,.22s3.46,1.52,4.03,2.1c.58,.58,.42,2.32,.22,3.28-.2,.96-.76,1.16-1.53,2.31-.77,1.16,1.53,.56,1.53,.56l2.69,1.34s-.78,.02-1.94,.22c-1.16,.19-2.69,.56-2.69,.56l-.19,2.13,3.85-.78-.38,1.34-2.69,.59-2.72,3.25-.19,6.16,.59,5.22,1.53,4.22,2.5,.41,2.88,1.72,3.88-.19,3.85-5.19,4.03-3.88,1.16-2.1,1.94-1.16,4.22-.97,5.38-1.16s5.01-3.27,5.6-3.66c.57-.38,14.45-4.63,14.45-4.63l3.07,.19s.8-3.84,.22-4.22c-.58-.38,2.28-2.69,2.28-2.69,0,0,.42-.2,.53-.25-13.34-3.91-27.43-6.01-42.04-6.01h0Zm-44.57,6.76c-7.21,2.25-14.17,5.05-20.86,8.32l-.22,.5-2.13,1.16-2.6,1.94-2.22,.84-.16-.59c-7.37,4.13-14.36,8.86-20.89,14.14,3.31-1.65,9.01-4.57,9.01-4.57l1.34-1.44,2.22-.22,4.82-2.19,3.66-2.5,.38,.19-2.78,2.6-.75,.97-2.22,1.06,2,.28-.28,1.16,2.22-.41,2.22-1.81,1.72,.59,.78,.84,2.41-.09-.09-1.81-3.75-2.72-.88-.84-.38-.97,1.63,.19,1.34,1.16,1.44-1.44,2.91-.38,2.88-2.03-.19-1.25,2.22-2.13-1.47-1.53,3.88-.09,3.35,.09s1.65-.76,1.94-.28c.29,.48,2.78,2.31,2.78,2.31l-.97,.84-3.94,.5-.97,1.91,2.91,.41,2.19-2.31,2.41-.19,.41,2.28s-2.71,1.56-3.1,1.66c-.39,.1-2,.84-2,.84l-.13,1.75-2.6,.28-2.69-.47-1.25,.09-2.03,1.63,1.66,1.44s2.4-.96,2.78-1.25c.38-.29,1.65-.86,1.94-.38,.29,.48,1.91,1.81,1.91,1.81l1.34,2.63,1.25,.38,3.85,1.25s2.72,.69,2.72,.88-.28-1.66-.28-1.66l-2.03-2.41s-.1-.66,.56-.47c.68,.19,2.31,1.63,2.31,1.63,.28,.1,2.22,1.25,2.22,1.25l.78-2.1,1.72-1.06-.66-1.25-.97-1.06-1.06-1.25,.09-1.44s.27-.22,.56-.41c.29-.19,1.18-.85,1.38-.47,.19,.39,2.1,2.88,2.1,2.88l1.85,.41,.84-1.47s2.41-.29,2.41-.19,.19-1.16,.19-1.16l2.22-.56-3.16-2.81-1.75-.84-1.34,.38-1.25-1.44,1.34-1.25,.59-1.75-1.53-1.53-2.41-.47-.59-1.25s-2.02-.28-2.31-.09c-.29,.2-1.72-1.75-1.72-1.75l-1.06-1.41h0Zm79.16,14.32l-3.47,1.94s1.74,.74,2.31,1.13c.58,.39,1.72-.38,1.72-.38v1.75s3.08,1.7,2.69,2.28c-.38,.58,5.04-.56,5.04-.56l5.38-1.75,1.16-2.1-2.13-1.75-9.82,1.16-2.88-1.72Zm51.98,6.6c-.87,.28-1.78,.59-1.78,.59l-2.56,2.44s-.65,1.21-.78,1.53c-.13,.32,.19,3.72,.19,3.72,0,0,1.55,.02,1.09,.47-.45,.45-.38,2.5-.38,2.5l1.78,1.19s2.39,.79,2.72,.72c.31-.06,1.46-.84,1.66-.97,.18-.13,1.58-1.53,2.03-1.47,.45,.07,1.62-1.21,1.75-.75,.13,.45,.37,2.05,.63,2.44,.26,.39,1.18,1.08,1.56,1.97,.38,.9,.89,1.82,.75,2-.13,.2-1.03,1.06-1.03,1.06,0,0-1.9,.27-2.16,.53-.25,.25-.59,.38-.78,.25-.2-.13,.65-1.04,.84-1.28,.19-.26-.46-1.28-.72-1.22-.26,.07-.5-.56-.25-.75,.26-.19,.19-1.44,.19-1.44,0,0-.37-.19-.56-.13-.19,.06-2.44,.97-2.44,.97,0,0-1.22,1.28-1.28,1.53-.07,.26-.61,1.61-.28,2.56,.32,.97,1.09,2.53,1.09,2.53,0,0,.85,.55,.53,.81-.32,.25-.97,1.22-.97,1.22l-1.53,.06s-2.77,.35-3.03,.47c-.25,.13-2.94,.96-2.81,1.22,.14,.26-.59,3-.59,3-.12,.06-2.81,2-3.13,2s-2.31,.5-2.31,.5c0,0-.91,2.38-.97,2.25-.06-.13-3,1.41-3,1.41,0,0-2.25-.65-2.31-.91-.06-.25-.85-.82-.91-.63-.07,.19,.78,2.18,.78,2.56s.13,1.16-.13,.91c-.26-.26-1.56-.65-1.81-.78-.26-.13-2.44-.06-2.44-.06h-.91s-1.09,.98-1.16,.78c-.05,.14-.13,.81-.13,.81l.66,.66,2.31,.97,2.19,1.34,.81,2.03,.97,1.94s-.63,3.96-.75,4.16c-.14,.19-1.5,1.09-1.5,1.09l-4.16-.06s-2.06-.44-2.25-.5c-.19-.07-3.1,.38-3.16,.13-.06-.26-.97-.19-.97-.19l-.44-.53h-1.16l-.97,1.09-1.41,.06v1.16s.6,2.63,.53,2.44c-.06-.2-.28,3.1-.28,3.1,0,0-1.36,2.79-1.5,3,.03,.08-.09,1.88-.09,1.88l.84,1.34,.13,1.6s-.63,1.47-.38,1.34c.26-.13,2.29,.07,2.35-.19,.06-.25,1.31-.82,1.5-.38,.19,.45,.89-.03,1.09,.75,.18,.77,.9,1.87,.97,2.06,.06,.2,.56,.38,.56,.38l.19,.53-.38,.31-1.6,3.6-3.57,2.5-2.1,1.34-.59,1.6-.88,1.03-.28,2s.26,2.5,.13,2.63c-.12,.13-4.79,4.57-4.79,4.57l-2.6,.56-1.41,2.44s-1.91,1.8-2.03,2.13c-.13,.32-1.09,1.53-1.09,1.53,0,0,.06,2.57,0,2.19-.07-.39-2.78,2.13-2.78,2.13,0,0-.5,2.93-.63,3.07-.13,.12-1.4,2.38-1.6,2.31-.19-.07-.41,1.56-.41,1.81s.66,1,.66,1c0,0,.91,1.76,.97,1.56,.03,.09,.06,.56,.06,.56l-.91,.91s.97,1.47,.97,1.66v3.97l-1.03,2.19-.53,2.85-1.53,1.22,.06,.75,1.34,1.09,.22,1.22-.41,1.34v1.34l.97,2.25s.97,.79,1.16,.59c.19-.19,2.12,1.21,2.38,1.66,.26,.45,2.63,3.28,2.63,3.41s.38,.75,.38,.75l1.16,3.94s5.59,4.6,5.72,4.41c.13-.19,5.97,4.19,5.97,4.19,0,0,4.69-2.32,4.63-2.13-.07,.19,3.97-.19,3.97-.19l2.44,.38,1.78,.84,6.57-3,1.28-1,5.07-.19,2.44,.97s1.6,2.37,1.6,2.75,.96,2.13,1.09,1.88c.12-.25,5.71-.5,5.91-.44,.19,.06,2.63,2.44,2.63,2.44l-.13,2.25-.38,3.97-.78,1.91-.75,1.75-.22,1.22s5.79,8.48,5.79,8.54,1.47,3.53,1.47,3.53l1.75,4.41,1.03,2.5-1.03,1.41,1.66,4.32-.56,4.22-2.5,5.47-1.09,4.03,.31,5.41,3,6.22,3.16,7.13,.31,7.82,1.44,2.69c28.64-27.17,46.48-65.59,46.48-108.18,0-7.17-.52-14.24-1.5-21.14l-2.13-3.88s-2.43-6.03-2.69-6.35c-.25-.32-1.22-1.94-.91-1.88,.32,.07,2.63-.25,2.63-.25,0,0,.68,.82,1.09,1.31-.83-3.76-1.77-7.48-2.88-11.13-.14,.31-.3,.6-.59,.78-.77,.49-1.92,1.14-2.6,.66-.67-.48-3.39-.38-3.69-.28-.29,.1-3.55-.11-3.94,.56-.38,.68-2.85,.2-3.25,0-.38-.19-5.12-2.1-5.5-2.19-.38-.1-2.8-1.15-3.19-1.44-.38-.29-2.78-.59-2.88-.88-.1-.29,.2-.69-.19-.59-.38,.09-3.18,.97-3.57,1.25-.39,.3-1.25,1.06-1.25,1.06,0,0-1.16,1.17-1.06,2.03,.1,.87,1.17,1.55,.78,2.03-.38,.48-1.72,1.03-1.72,1.03,0,0-1.47-1.34-1.94-1.53-.48-.19-5-.88-5-.88l-1.85-2.1s-2.87-1.94-3.16-2.03c-.29-.1-3.49,0-3.97-.38-.48-.39-2.02-2.41-2.78-2.31-.77,.1-.48-1.15-.19-1.34,.29-.19,1.16-1.84,1.06-2.13-.1-.29,.49-1.93-.47-2.41-.96-.49-.31-2.13-.31-2.13,0,0,.98-.19,.59-.19s-1.83,.1-2.22-.38c-.38-.48-.5-.69-.88-.5-.39,.19-2.78,.6-3.07,.5-.29-.09-2.62,.19-3,.19s.11,.1-.38,0c-.49-.1-2.41,.78-2.5,1.16-.09,.39-2.02-.09-2.31,0-.29,.1-3.1,.09-3.1,.09l-4.6,.78s-3.1,1.55-3.19,2.03c-.1,.48-1.06,1.25-1.34,1.44-.29,.19-2.02-.03-2.13-.31-.09-.29-3.19,.12-3.19,.12,0,0-1.24-.7-1.63-.41-.38,.29-.38-1.25-.38-1.25l.47-1.16,1.75-1.16,4.13-.75,2.03-1.34,1.25-.5,.75-2s1.44-.3,1.34-.59c-.09-.29-.47-1.63-.47-1.63l2.78-4.35,3.97-1.91,.66-1.38s-.38-1.71-.09-2c.29-.29,2.88-.88,2.88-.88l3.28,1.06s1.74-1.15,2.13-1.34c.38-.19,2.22-1.25,2.22-1.25,0,0,.18-.88,.56-.78,.39,.1,2.02-.27,2.22,.5,.19,.77,1.63,3.16,1.63,3.16l2.22,2.31,2.13,1.66,2.6,.94s1.53,1.34,1.81,1.44c.29,.09,1.75,1.75,1.75,1.75l.75,1.34s-.46,1.05-.84,1.53c-.38,.48-1.56,1.73-1.85,1.63-.29-.09-2.5-.47-2.5-.47l-2.41,.28s-.39,.58,.28,1.06c.67,.48,1.46,.4,2.13,.78,.68,.38,2.41,1.16,2.41,1.16,0,0,1.16,.18,1.16,.47s.38-.77,.28-1.44c-.09-.67-.17-1.53,.5-1.72,.68-.19,1.72-.02,1.72-.31s.31-.66,.31-.66l.84-1.06-.09-.66,.88-.69s-.48-.57-.88-1.06c-.38-.48-.78-.77-.5-1.25,.3-.48,1.26-1.17,1.75-.78,.48,.38,1.94,.58,1.85,1.06-.09,.48,0,1.16,.19,.78,.18-.39,.09-1.94,.09-1.94,0,0-.76-1.06-1.44-1.16-.67-.1-2.43-.97-2.91-1.16-.48-.19-1.34-.66-1.34-.66,0,0,.38-1.07-.19-.97-.58,.09-2.31-.19-2.31-.47s-1.73-1.66-1.81-1.94c-.1-.3-1.66-2.41-1.66-2.41,0,0-.85-.87-.94-1.16-.1-.29-.21-.77-.41-1.53-.2-.77,1.94-2.7,1.85-2.41-.1,.28,.49,.67,.88,1.53,.38,.87,1.9,2.33,2.1,2.91,.19,.58,2.31,2.19,2.78,2.38,.49,.19,.78,.77,1.75,1.16,.97,.39,.88,.58,2.13,1.16,1.25,.58,1.44,.78,1.63,1.06,.2,.29,.96,.21,1.25,.69,.29,.48,.69,.58,.69,1.06s.39,.47,.19,1.44c-.19,.96-.47,1.25-.38,1.44,.1,.2,1.83,3.75,2.5,3.75s2.67,.79,2.38,1.94c-.29,1.15,1.25,2.69,1.25,2.69,0,0,1.3,.07,2.19,.22,.04-.67-.1-1.75,.63-2.16,.86-.48,2.1-.96,1.91-1.44-.2-.48-.39-1.33-1.16-1.91-.76-.58-1.53-.89-1.72-1.85-.19-.97-.49-2.23,.38-1.85,.87,.38,1.64,2.23,2.03,.97,.38-1.25,1.33-2.1,2-1.81,.68,.29,1.94,.77,1.85,1.16-.1,.39,.88,3.47,.88,3.47,0,0,.37,.28,.56,1.72,.19,1.44,1.44,1.83,1.25,2.31-.19,.48-.77,.77,.78,.97,1.53,.19,2.97,.46,2.97,.84s1.28,.59,1.47,.88c.19,.29,1.34,.86,1.53,.28,.19-.57,.59-1.73,.88-1.53,.29,.2,2.68,.2,2.88,.97,.15,.57,1.1,.72,1.56,.84-1.71-4.42-3.65-8.72-5.75-12.92l-3.41-.84-2.13-1.06-1.16-1.25h1.06l-.38-1.53,.19-1.06,.94-.56,.47-1.85c-5.47-9.38-11.95-18.09-19.27-26.02-.42,.23-1.2,.79-1.5,.91-.32,.13-1.27,.51-1.47,.06-.19-.45-.59-1.16-.59-1.16,0,0-.3-.63-.44-.44-.11,.19-.84,.25-.84,.25l-1.66,.63s-.91,.65-1.09,.78c-.2,.13-1.15,.12-1.53,.31-.38,.2-1.56,1.17-1.88,.72-.33-.45-.51,.3-.91-.41-.38-.7-.24-1.48-.69-1.34-.44,.13-1.47,.4-1.6,.66-.13,.26-.28,.24-.53,.5-.26,.25-2.13,.47-2.13,.47v-.16l2.13-1.78,.47-1.75s1.97,.34,2.03,.59c.06,.25,.53-.58,1.03-.13,.52,.45,1.15,.39,1.22,.78,.06,.39,.44,.82,.5,.56,.06-.26,.06-1.09,.06-1.09,0,0-.55-.3-.88-.5-.32-.19-.26-.78,.06-.97,.32-.19,1.21-.73,1.47-.53,.26,.19,1.41-.25,1.41-.25,0,0,.19-.38,.31-.56,.13-.2,.78-1.94,.78-1.94,0,0-.47-.2-.59-.78-.02-.11,0-.26,.03-.44-5.09-4.84-10.53-9.32-16.26-13.42h0Zm-143.84,1.88c-.19,.2-.88,.88-.88,.88l-6.35-.59-2.22,3.85-.47,2.03s-3.48,3.48-3.91,3.75c.25-.07,1.88,1.53,1.88,1.53l-1.44,3.47-5.5,3.19-2.69,.38s-1.63,5.97-1.53,6.35c.09,.39-2.22,1.44-2.22,1.44l-1.63,1.16-.69-2.1s-.74-1.62-1.03-2.03c.43,.18,2,.38,2,.38l.28-1.34-1.53,.09,.66-2.22,1.47-2.41-5.04-.38-1.13-1.34-2.53-.38-.19-1.06-1.72-1.06-2.13-.97-2.31,.28-.09-2,.56-1.94-2-.34c-29.76,26.75-48.7,65.32-49.45,108.31l2.35,.56,3.78-1.16,2.41,1.16,3.66,4.22,3.75,.97,3.85,1.34h1.81l.5,2.22s1.74,2.21,2.13,2.5c.38,.29,.09,2.78,.09,2.78l1.63,.88,1.91,2.03,1.25,1.16,1.38,1.53,.84-.59,1.75,.5,2.5,2.31,1.63-.97-.47-1.85,1.53-1.53h1.34l1.44,1.16-.09,1.34,1.75,2.78,.09,7.82-1.56,2.5-2.1,1.44-.09,2.31-2.22,.88-.88,3.07-1.34,2.69,.28,2.31,1.94,1.75-1.75,1.81-1.25,1.85,1.16,3.66s.56,1.82,.56,1.63,1.85,1.25,1.85,1.25l3.38,6.72,3.25,4.75s4.78,9.56,4.88,9.63c1.44,1.06,11.88,8.6,11.88,8.6l1.81,9.38,.5,19.77,1.53,5.66-.16,2.6c8.1,5.59,16.78,10.4,25.93,14.32,.79,0,2.22,.16,2.22,.16l4.38-1.16s1.66-2.96,1.53-3.47c-.13-.51-.13-2.19-.13-2.19,0,0,0-1.15-1.03-1.28-1.03-.12-1.03-.49-1.28-1.53-.26-1.02-1.03-2.19-1.03-2.19l-1.28,.25,1.16-1.13,2.56,1.91,3.85,.66,2.97-2.97,2.03-5,.91-3.72h1.94l2.03-3.72,.78-3.47-.66-4.25,.91-1.53,6.69-4.47,5-1.69,1.66-1.28s2.56-3.46,2.56-3.85,1.03-5.38,1.03-5.38c0,0,1.16-5.9,1.03-6.29-.12-.39,.26-5.53,0-5.66-.26-.13,.13-1.53,.13-1.53l4.88-6.94,2.31-5.25s1.67-2.71,1.41-3.22c-.26-.51-1.66-4.88-1.66-4.88,0,0-3.09-.65-3.22-1.03-.13-.38-5.38-5.01-5.5-4.88-.14,.13-2.18-2.06-2.44-1.41-.25,.64-4.25,.66-4.25,.66l-4.22-1.03s-1.79,1.27-1.41,.75c.38-.51,.13-3.58,0-3.07-.13,.51-6.44-2.69-6.44-2.69l-2.19,1.91v-2.44l-3.32-2.03,.38-2.72-1.53-1.28s-.25,.38-.38,.13c-.13-.25-1.03-5.38-1.03-5.38l-4.88-3.97-5.91-.28-5.41-2.94-1.16-2.69s-3.06-1.43-3.06-1.81-.89-.12-1.16-.25c-.25-.12-.13-1.41-.13-1.41l-1.41-1.16-.53-.34-1.25-.38-.75-1.09s2.79-1.23,2.5-1.13c-.28,.09-6.26,.94-6.26,.94l-.59,1.16-2.78-1.44-4.72-.28s-3.38-1.34-3.28-1.72c.1-.39-1.06-1.85-1.06-1.85,0,0-.74,1.84-.94,2.03-.19,.19-2.6,2.19-2.6,2.19l.19,3.1-1.66-1.72,1.16-1.66v-2.31c0-.3,1.47-.94,1.47-.94l-.59-1.25s-1.72,.46-1.72,.75-2.31,1.66-2.31,1.66l-2.81,1.03h-1.22s-1.27,2.03-1.56,2.13c-.28,.1-.19,1.94-.19,1.94,0,0-3.09,3.45-3.28,3.07-.19-.38-3.44-3.07-3.44-3.07l-3.88,.47-2.19,1.16-2.72-1.81-2.1-3.28,.19-3.85,1.16-4.25,.47-2.78-2.88-2.13s-5.88,.48-5.88,.19-3.2,.11-3.1-.19c.09-.28,1.16-2.11,1.16-2.41s.78-2.5,.78-2.5l1.25-2.5,1.63-4.79,.97-1.66-4.82-.28-2.88,1.16-1.63,4.82-8.19,2.19-2.03-1.53s-.2,.89-.09,.41c.09-.48-2.5-3.88-2.5-3.88l-1.25-4.69s3.29-9.74,3.19-9.54c-.1,.19,.09-3.57,.09-3.57l10.29-6.76,3.94,.59,.97,.94,2.41-.38,2.41-2.41,3.1,.38,2.97-.56,1.85,2.03,2.69-1.06,1.44,1.53,.88,.97v1.63l-.69,1.56,.69,3.44,1.91,2.72,1.25,.47,1.53-4.22-.28-3.97-.66-3.16v-2.31l3.94-4.82,5.1-3.66,4.03-2.31,3.57-3.85-.19-3.66,1.56-.28,1.5-3.28,1.56,.19,2.97-3.75,5-1.72,3.1-.59,.97-1.03-1.16-.97,2.41-3.57,7.6-3,4.63-1.34-3.75,2.41,.75,1.85,2.81-.78,2-1.25,5.32-1.44s.84-1.41,1.03-1.66c-.19,.48,2.72-.47,2.72-.47l-.59-1.16,.22-1.53-1.56,.56-2.31,2.5-3.75-.19-1.72-2.6,1.63-2.22s1.63-3.26,1.53-3.07c-.1,.19-2.6-.78-2.6-.78l-3.75,1.34c-.38,0-3.94,2.13-3.85,1.85,.1-.29-1.81,1.06-1.81,1.06l4.88-3.94,2.03-.31,2.31-2.13h11.07l3.75-.75,5-2.69,.41,.47-2.13,2.03-2.6,2.69-2.5,2.69-1.25,1.63,3.94,.19s3.08,.08,3.38,0c.38-.1,.47,1.34,.47,1.34l1.63-1.13,.88,2.19,2.91-2.19-.88-2.5,.78-2.35-3.38,.13v-1.25s-1.25-1.44-1.34-1.25c-.1,.2,1.91-1.63,1.81-1.44-.09,.19-.88-.97-.88-.97l2.31-2.91-1.13-3.25-.41-1.66-2.97-1.44-1.06-1.44-1.38-1.06,1.06-2.5-.47-1.81s-.87-5.98-.97-5.79c-.1,.2-4.03,3.28-4.03,3.28l-4.03,2-2.13-1.81,.19-2.41,1.85-1.75-3-.94-.19-.78s-2.69-2.69-2.88-2.5h0Zm124.85,7.82l-.91,.38-.84,1.25s-.78,.19-1.09,0c-.32-.19-.96,0-1.22-.06-.26-.07-.84,.75-.84,.75,0,0-.87,.97-1.13,1.03-.26,.06-1.16,1.09-1.09,1.16,.07,.06,.13,.91,.13,.91,0,0-.18,.31-.5,.38-.32,.06,.25,1.16,.25,1.16l.78,.38s-.46,.47-.72,.41c-.26-.07-.85,.62-.41,.81,.45,.19,.66,.47,.59,.66-.06,.2,.97,.31,.97,.31l.81-.19-.56,.91s.12,.56,.31,.81c.2,.26,.84,0,.84,0,0,0,1.53-.25,1.72-.19,.19,.06-.06,.66-.06,.66l.59,.88s.31,1.31,.38,1.69c.07,.39-.5,.25-.5,.25,0,0-1.23,.18-1.5,.13-.26-.06-.74,.46-1.19,.97-.45,.52,.06,.31,.06,.31h.94s.07,.64,.13,.91c.06,.26-.75,.5-1,.44-.26-.06-1.44,.53-1.44,.53l.06,.94,1.44,.16,1.41,.19,.25,.44s-.91,.19-1.16,0c-.26-.19-1.03,1.03-1.03,1.03l-.69,.75-1.5,1.16,.84,.41,.5-.66,1.31,.06,1.38-.19s.87-1.03,1.06-1.03,2.16-.06,2.16-.06c0,0,1.62-.32,1.81-.19,.19,.13,1.46,.38,1.66,.44,.19,.06,2.69-.69,2.69-.69,0,0,.53-.84,.66-1.09,.13-.26-.72-.49-.91-.69-.19-.19,.64-.47,1.03-.66,.38-.19,.52-.9,.72-1.22,.19-.32-.28-.97-.34-1.16-.06-.2-.97-.13-1.22-.19-.26-.07-1.34,.06-1.34,.06l.06-1.28s-3-4.12-2.94-4.32c.06-.19-.71-1.41-1.03-1.47-.32-.06-.71-.33-1.09-.84-.38-.51,.53-1.16,.53-1.16,0,0,1.06-1.15,1.19-1.41,.13-.26-.12-1.03-.31-1.09-.19-.06-2.44,.06-2.44,.06,0,0-.62-.5-.56-.69,.07-.2,.71-.25,.91-.25,.18,0,1.34-2.25,1.6-2.31,.25-.07-.19-.66-.19-.66h0Zm-10.41,9.38l-1.03,.31-.56,.84s-.97,1.01-.78,.81c.2-.19,.72-.16,.59,.16-.13,.32-.66,.63-.66,.63h-.75l-.66-.38-.97,.13-.31,.56,.38,.91-.63,.66,.75,.63,.78,.19-.13,.91-.84,.38-1.09,.72-.31,1.22,.97,.56,1.53,.34,1.6-.41,1.38-.75,.38-.38,2.25-.16,.25-.94,.5-.97v-2.78l1.22-.69-.38-1.78-1.94-.47-1.53-.25h0Zm-172.33,81.51c0-.2-3.28,2.6-3.28,2.6v.28s.3,1.34,.41,1.63c.09,.29,2.22-1.55,2.41-2.31,.19-.77,1.71-.96,2.1-1.16,.39-.19,.58,.78,.97,.78s2.13,.59,2.13,.59l3.47,1.13,1.34,1.25s.56,3.08,.56,3.47,2.63,.19,2.63,.19l5.1-.47s1.64-.96,1.53-1.25c-.09-.29-1.55-.75-2.31-.75s-3.57-2.71-3.75-3.28c-.2-.58-6.44-2.13-6.44-2.13,0,0-6.85-.37-6.85-.56h0Zm21.96,7.79c-.76,0,0,.88,0,.88l-.28,2.78h-3.19l-.09,.28s-.88,.3-.88,.88c0,.58,1.17,.37,1.66,.56,.48,.19,1.24-.09,1.63-.09s1.66-.28,1.66-.28c0,0,.38,.87,.38,1.16s2-.09,2-.38,.5-1.06,.5-1.06l2.41-.5s3.28,.09,3.57,.09,.49-.57-.09-1.63c-.57-1.06-2.24-1.26-2.63-2.03-.39-.76-2.21-.28-2.69,0-.48,.29-3.17-.66-3.94-.66h0Z"/>
          </g>
        </g>
        <path class="cls-3" d="M794.66,609.45h-18.35c-1.88,0-3.44-1.54-3.44-3.44s1.56-3.44,3.44-3.44h18.35c1.9,0,3.44,1.54,3.44,3.44s-1.54,3.44-3.44,3.44Zm-32.12,0c-1.88,0-3.44-1.54-3.44-3.44s1.56-3.44,3.44-3.44,3.44,1.54,3.44,3.44-1.54,3.44-3.44,3.44Zm-13.77,0h-50.47c-1.88,0-3.44-1.54-3.44-3.44s1.56-3.44,3.44-3.44h50.47c1.9,0,3.44,1.54,3.44,3.44s-1.54,3.44-3.44,3.44Zm-64.24,0h-13.06c-1.9,0-3.44-1.54-3.44-3.44s1.54-3.44,3.44-3.44h13.06c1.9,0,3.44,1.54,3.44,3.44s-1.54,3.44-3.44,3.44Z"/>
        <path class="cls-3" d="M512.78,622.44h-11.47c-1.9,0-3.44-1.54-3.44-3.44s1.54-3.44,3.44-3.44h11.47c1.9,0,3.44,1.54,3.44,3.44s-1.54,3.44-3.44,3.44Zm-25.24,0h-73.58c-1.9,0-3.44-1.54-3.44-3.44s1.54-3.44,3.44-3.44h73.58c1.9,0,3.44,1.54,3.44,3.44s-1.54,3.44-3.44,3.44Z"/>
        <path class="cls-3" d="M760.32,586.51h-18.35c-1.9,0-3.44-1.54-3.44-3.44s1.54-3.44,3.44-3.44h18.35c1.9,0,3.44,1.54,3.44,3.44s-1.54,3.44-3.44,3.44Zm-32.12,0c-1.9,0-3.44-1.54-3.44-3.44s1.54-3.44,3.44-3.44,3.44,1.54,3.44,3.44-1.54,3.44-3.44,3.44Z"/>
        <path class="cls-3" d="M733.14,648.46h-11.47c-1.9,0-3.44-1.54-3.44-3.44s1.54-3.44,3.44-3.44h11.47c1.9,0,3.44,1.54,3.44,3.44s-1.54,3.44-3.44,3.44Zm-25.24,0h-62.78c-1.9,0-3.44-1.54-3.44-3.44s1.54-3.44,3.44-3.44h62.78c1.9,0,3.44,1.54,3.44,3.44s-1.54,3.44-3.44,3.44Z"/>
        <path class="cls-3" d="M476.47,655.04h-18.35c-1.9,0-3.44-1.54-3.44-3.44s1.54-3.44,3.44-3.44h18.35c1.88,0,3.44,1.54,3.44,3.44s-1.56,3.44-3.44,3.44Zm-32.12,0c-1.9,0-3.44-1.54-3.44-3.44s1.54-3.44,3.44-3.44,3.42,1.54,3.42,3.44-1.54,3.44-3.42,3.44Z"/>
        <path class="cls-3" d="M528.84,587.15h-18.35c-1.9,0-3.44-1.54-3.44-3.44s1.54-3.44,3.44-3.44h18.35c1.88,0,3.44,1.56,3.44,3.44s-1.56,3.44-3.44,3.44Zm-32.12,0c-1.9,0-3.44-1.54-3.44-3.44s1.54-3.44,3.44-3.44,3.44,1.56,3.44,3.44-1.56,3.44-3.44,3.44Zm-13.77,0h-42.14c-1.9,0-3.44-1.54-3.44-3.44s1.54-3.44,3.44-3.44h42.14c1.88,0,3.44,1.56,3.44,3.44s-1.56,3.44-3.44,3.44Z"/>
        <g>
          <g>
            <g>
              <g>
                <path class="cls-8" d="M737.58,711.85l-17.53,42.04,20.42-12.08,16.1-38.61c-4.54-1.89-15.11-.66-18.99,8.65Z"/>
                <path class="cls-9" d="M746.58,704.06l-18.45,44.23,20.42-12.08,17.02-40.8c-4.54-1.89-15.11-.66-18.99,8.65Z"/>
              </g>
              <path class="cls-3" d="M755.58,696.26l-16.77,40.22-75.07,44.39c-2.69,1.59-6.19,.69-7.78-2l-.29-.48c-1.59-2.69-.69-6.19,2-7.78l22-13.01,8.03-4.75c8.68-5.13,8.44-15.77,5.93-20l-21.19,12.53-46.72,27.63c-3.09,1.83-4.66,5.22-4.32,8.57l-.09,.05-.15,47.6c22.96-2.12,44.94-7.61,65.44-15.98l-5.23-19.37,62.38-36.89c1.99-1.18,3.35-3.01,3.98-5.06h.01s26.83-64.32,26.83-64.32c-4.54-1.89-15.11-.66-18.99,8.65Z"/>
            </g>
            <g>
              <path class="cls-8" d="M463.09,711.85l17.53,42.04-20.42-12.08-16.1-38.61c4.54-1.89,15.11-.66,18.99,8.65Z"/>
              <path class="cls-9" d="M454.1,704.06l18.45,44.23-20.42-12.08-17.02-40.8c4.54-1.89,15.11-.66,18.99,8.65Z"/>
            </g>
          </g>
          <path class="cls-3" d="M579.53,829.34l-.15-47.71-.09-.05c.34-3.35-1.24-6.75-4.32-8.57l-46.72-27.63-21.19-12.53c-2.5,4.23-2.74,14.87,5.93,20l8.03,4.75,22,13.01c2.69,1.59,3.59,5.09,2,7.78l-.29,.48c-1.59,2.69-5.09,3.59-7.78,2l-75.07-44.39-16.77-40.22c-3.88-9.3-14.45-10.54-18.99-8.65l26.83,64.32h.01c.63,2.04,1.99,3.87,3.98,5.05l62.38,36.89-5.35,19.81c20.55,8.27,42.57,13.65,65.56,15.65Z"/>
        </g>
        <g class="cls-5">
          <path class="cls-6" d="M646.71,459.05c-5.79,5.82-9.37,13.84-9.37,22.7-12.71,0-23.01,10.3-23.01,23.01,0,2.23,.33,4.39,.92,6.43h103.92c-18.06-24.09-43.26-42.5-72.46-52.14Z"/>
        </g>
        <path class="cls-3" d="M756.29,503.54c-.34-9.02-7.75-16.24-16.86-16.24-1.94,0-3.79,.34-5.52,.94-3.47-8.31-11.67-14.15-21.24-14.15-1.13,0-2.23,.11-3.31,.27,0-.09,.01-.18,.01-.27,0-17.78-14.41-32.19-32.19-32.19s-32.19,14.41-32.19,32.19c-12.71,0-23.01,10.3-23.01,23.01,0,2.23,.33,4.39,.92,6.43h133.39Z"/>
        <g class="cls-5">
          <path class="cls-6" d="M467.59,532.32h72.56c.01-.26,.04-.51,.04-.76,0-8.91-6.93-16.18-15.69-16.77,.25-1.39,.4-2.81,.4-4.26,0-12.24-9.13-22.32-20.95-23.86-14.93,12.62-27.33,28.12-36.36,45.66Z"/>
        </g>
        <path class="cls-3" d="M534.31,526.48c.01-.26,.04-.51,.04-.76,0-8.91-6.93-16.18-15.69-16.77,.25-1.39,.4-2.81,.4-4.26,0-13.3-10.79-24.09-24.09-24.09-12.48,0-22.75,9.49-23.97,21.65-1.64-.39-3.34-.62-5.09-.62-12.04,0-21.8,9.76-21.8,21.8,0,1.04,.1,2.06,.24,3.06h89.96Z"/>
        <g>
          <path class="cls-3" d="M765.57,658.1c-1.27,0-2.29-1.03-2.29-2.29v-13.02c0-1.27,1.03-2.29,2.29-2.29s2.29,1.03,2.29,2.29v13.02c0,1.27-1.03,2.29-2.29,2.29Z"/>
          <path class="cls-3" d="M772.08,651.59h-13.01c-1.27,0-2.29-1.03-2.29-2.29s1.03-2.29,2.29-2.29h13.01c1.27,0,2.29,1.03,2.29,2.29s-1.03,2.29-2.29,2.29Z"/>
        </g>
        <g>
          <path class="cls-3" d="M617.9,440.49c-1.27,0-2.29-1.03-2.29-2.29v-19.82c0-1.27,1.03-2.29,2.29-2.29s2.29,1.03,2.29,2.29v19.82c0,1.27-1.03,2.29-2.29,2.29Z"/>
          <path class="cls-3" d="M627.81,430.58h-19.82c-1.27,0-2.29-1.03-2.29-2.29s1.03-2.29,2.29-2.29h19.82c1.27,0,2.29,1.03,2.29,2.29s-1.03,2.29-2.29,2.29Z"/>
        </g>
        <g>
          <path class="cls-3" d="M423.3,567.57c-1.9,0-3.44-1.54-3.44-3.44v-25.24c0-1.9,1.54-3.44,3.44-3.44s3.44,1.54,3.44,3.44v25.24c0,1.9-1.54,3.44-3.44,3.44Z"/>
          <path class="cls-3" d="M435.92,554.95h-25.24c-1.9,0-3.44-1.54-3.44-3.44s1.54-3.44,3.44-3.44h25.24c1.9,0,3.44,1.54,3.44,3.44s-1.54,3.44-3.44,3.44Z"/>
        </g>
      </g>
      <g>
        <g>
          <g class="cls-5">
            <circle class="cls-6" cx="899.35" cy="906.08" r="112.5"/>
          </g>
          <circle class="cls-2" cx="899.35" cy="899.35" r="112.5"/>
          <rect class="cls-4" x="829.43" y="945.68" width="139.87" height="5.02" rx="2.49" ry="2.49"/>
          <rect class="cls-4" x="976.54" y="945.68" width="5.09" height="5.02" rx="2.49" ry="2.49"/>
          <rect class="cls-4" x="810.09" y="945.68" width="15.19" height="5.02" rx="2.49" ry="2.49"/>
          <g>
            <rect class="cls-4" x="928.14" y="965.88" width="38.76" height="5.02" rx="2.49" ry="2.49"/>
            <rect class="cls-4" x="941.61" y="983.84" width="7.34" height="5.02" rx="2.49" ry="2.49"/>
            <rect class="cls-4" x="827.32" y="965.88" width="7.34" height="5.02" rx="2.49" ry="2.49"/>
            <rect class="cls-4" x="849.04" y="983.84" width="87.02" height="5.02" rx="2.49" ry="2.49"/>
            <rect class="cls-4" x="838.94" y="965.88" width="82.53" height="5.02" rx="2.49" ry="2.49"/>
          </g>
          <g>
            <path class="cls-7" d="M856.24,888.91c-16.34,0-29.64,13.3-29.64,29.64s13.3,29.64,29.64,29.64,29.64-13.3,29.64-29.64-13.3-29.64-29.64-29.64Zm0,56.4c-14.76,0-26.76-12.01-26.76-26.76s12.01-26.76,26.76-26.76,26.76,12.01,26.76,26.76-12.01,26.76-26.76,26.76Z"/>
            <path class="cls-7" d="M947.83,888.91c-16.34,0-29.64,13.3-29.64,29.64s13.3,29.64,29.64,29.64,29.64-13.3,29.64-29.64-13.3-29.64-29.64-29.64Zm0,56.4c-14.76,0-26.76-12.01-26.76-26.76s12.01-26.76,26.76-26.76,26.76,12.01,26.76,26.76-12.01,26.76-26.76,26.76Z"/>
            <path class="cls-3" d="M948.94,917.42c-7.33-7.15-10.86-18.98-11.07-19.69l-8.27-36h8.12c.88,0,1.59-.71,1.59-1.59s-.71-1.59-1.59-1.59h-10.11c-.48,0-.94,.22-1.24,.6-.3,.38-.41,.87-.31,1.34l2.47,10.77-42.59,4.69-3.73-16.62c-.19-.85-1.04-1.39-1.89-1.2-.86,.19-1.39,1.04-1.2,1.89l3.88,17.29-28.07,40.33s-.03,.05-.04,.07c-.03,.05-.05,.09-.08,.14-.02,.05-.04,.1-.06,.15-.02,.05-.03,.09-.04,.14-.02,.06-.03,.11-.03,.17,0,.03-.01,.05-.02,.08,0,.02,0,.04,0,.06,0,.06,0,.12,0,.17,0,.05,0,.1,.01,.14,0,.05,.02,.1,.03,.15,.01,.05,.02,.1,.04,.15,.02,.05,.04,.09,.06,.14,.02,.05,.04,.09,.07,.13,.03,.04,.06,.09,.09,.13,.03,.04,.06,.08,.09,.12,.03,.04,.07,.07,.1,.1,.04,.04,.08,.08,.13,.11,.02,.01,.03,.03,.05,.04,.03,.02,.06,.04,.09,.05,.03,.02,.06,.04,.09,.05,.08,.04,.17,.08,.25,.11,0,0,0,0,0,0,.09,.03,.19,.05,.29,.06,0,0,.02,0,.03,0l38.46,3.77s.1,0,.14,0c0,0,0,0,.01,0,0,0,0,0,0,0h0c.11,0,.21-.01,.31-.03,0,0,.02,0,.02,0,0,0,0,0,.01,0,.03,0,.05-.02,.08-.02,.06-.02,.12-.03,.18-.06,.01,0,.02,0,.04-.02,.03-.01,.06-.03,.09-.05,.05-.02,.1-.05,.14-.08,.01,0,.03-.02,.04-.03,.03-.02,.05-.04,.07-.06,.04-.03,.08-.07,.12-.1,.02-.02,.04-.03,.05-.05,0,0,0,0,0,0l35.82-38.46,3.11,13.53s.01,.05,.02,.07c.15,.54,3.78,13.2,11.92,21.14,.31,.3,.71,.45,1.11,.45s.82-.16,1.14-.48c.61-.63,.6-1.63-.03-2.24Zm-65.01-35.87l8.74,38.98-33.59-3.29,24.84-35.69Zm11.66,37.49l-8.97-39.97,42.63-4.69,1.57,6.83-35.23,37.83Z"/>
            <path class="cls-7" d="M943.86,877.32c-1.57,0-2.74-.15-3.04-.19-1.08-.15-1.84-1.15-1.69-2.24,.15-1.08,1.15-1.84,2.24-1.69,1.81,.25,7.06,.42,9.5-1.71,.91-.79,1.33-1.82,1.33-3.24,0-1.67-.5-2.95-1.52-3.93-2.55-2.43-7.45-2.22-7.5-2.22-.03,0-.07,0-.1,0h-5.35c-1.1,0-1.98-.89-1.98-1.98s.89-1.98,1.98-1.98h5.31c.72-.03,6.71-.16,10.36,3.29,1.84,1.74,2.77,4.03,2.77,6.81,0,2.54-.93,4.69-2.7,6.23-2.71,2.36-6.79,2.83-9.6,2.83h0Z"/>
            <path class="cls-7" d="M877.78,861.59c-5.81,0-9.34-5.11-9.49-5.33-.96-1.41-.59-3.35,.82-4.31,.52-.35,1.12-.54,1.74-.54,1.03,0,1.98,.5,2.56,1.35,0,0,1.9,2.61,4.36,2.61h13.35c1.71,0,3.11,1.39,3.11,3.11s-1.39,3.11-3.11,3.11h-13.35Z"/>
            <path class="cls-3" d="M897.07,918.64l3.14-10.25-2.27-.7-3.14,10.25s-.06,0-.1,0c-2.42,0-4.38,1.96-4.38,4.38,0,1.54,.8,2.9,2.01,3.68l-3.14,10.25,2.27,.7,3.14-10.25s.06,0,.1,0c2.42,0,4.38-1.96,4.38-4.38,0-1.54-.8-2.9-2.01-3.68Z"/>
            <path class="cls-7" d="M903.02,909.43h-7.9c-.77,0-1.39-.62-1.39-1.39s.62-1.39,1.39-1.39h7.9c.77,0,1.39,.62,1.39,1.39s-.62,1.39-1.39,1.39h0Z"/>
            <path class="cls-7" d="M894.27,937.98h-7.9c-.77,0-1.39-.62-1.39-1.39s.62-1.39,1.39-1.39h7.9c.77,0,1.39,.62,1.39,1.39s-.62,1.39-1.39,1.39h0Z"/>
          </g>
          <path class="cls-3" d="M867.68,880.61h-8.98c-.93,0-1.68-.75-1.68-1.68s.75-1.68,1.68-1.68h8.98c.93,0,1.68,.75,1.68,1.68s-.75,1.68-1.68,1.68Zm-15.71,0c-.93,0-1.68-.75-1.68-1.68s.75-1.68,1.68-1.68,1.68,.75,1.68,1.68-.75,1.68-1.68,1.68Zm-6.73,0h-24.69c-.93,0-1.68-.75-1.68-1.68s.75-1.68,1.68-1.68h24.69c.93,0,1.68,.75,1.68,1.68s-.75,1.68-1.68,1.68Z"/>
          <path class="cls-3" d="M845,920.24h-5.61c-.93,0-1.68-.75-1.68-1.68s.75-1.68,1.68-1.68h5.61c.93,0,1.68,.75,1.68,1.68s-.75,1.68-1.68,1.68Zm-12.35,0h-17.25c-.93,0-1.68-.75-1.68-1.68s.75-1.68,1.68-1.68h17.25c.93,0,1.68,.75,1.68,1.68s-.75,1.68-1.68,1.68Z"/>
          <path class="cls-3" d="M824.39,901.22h-8.98c-.93,0-1.68-.75-1.68-1.68s.75-1.68,1.68-1.68h8.98c.92,0,1.68,.76,1.68,1.68s-.76,1.68-1.68,1.68Zm-15.71,0c-.93,0-1.68-.75-1.68-1.68s.75-1.68,1.68-1.68,1.68,.76,1.68,1.68-.76,1.68-1.68,1.68Z"/>
          <path class="cls-3" d="M816.51,933.83c-1.6,0-2.9-1.3-2.9-2.9s1.3-2.9,2.9-2.9,2.9,1.3,2.9,2.9-1.3,2.9-2.9,2.9Zm0-4.68c-.98,0-1.78,.8-1.78,1.78s.8,1.78,1.78,1.78,1.78-.8,1.78-1.78-.8-1.78-1.78-1.78Z"/>
          <path class="cls-3" d="M982.58,937.1c-1.6,0-2.9-1.3-2.9-2.9s1.3-2.9,2.9-2.9,2.9,1.3,2.9,2.9-1.3,2.9-2.9,2.9Zm0-4.68c-.98,0-1.78,.8-1.78,1.78s.8,1.78,1.78,1.78,1.78-.8,1.78-1.78-.8-1.78-1.78-1.78Z"/>
          <path class="cls-3" d="M978.48,893.75c0,.63-.51,1.15-1.15,1.15s-1.15-.51-1.15-1.15,.51-1.15,1.15-1.15,1.15,.51,1.15,1.15Z"/>
          <path class="cls-3" d="M970.41,890.6c-2.17,0-3.93-1.76-3.93-3.93s1.76-3.93,3.93-3.93,3.93,1.76,3.93,3.93-1.76,3.93-3.93,3.93Zm0-6.74c-1.55,0-2.81,1.26-2.81,2.81s1.26,2.81,2.81,2.81,2.81-1.26,2.81-2.81-1.26-2.81-2.81-2.81Z"/>
          <path class="cls-3" d="M827.05,893.15c-1.91,0-3.46-1.55-3.46-3.46s1.55-3.46,3.46-3.46,3.46,1.55,3.46,3.46-1.55,3.46-3.46,3.46Zm0-5.8c-1.29,0-2.34,1.05-2.34,2.34s1.05,2.34,2.34,2.34,2.34-1.05,2.34-2.34-1.05-2.34-2.34-2.34Z"/>
        </g>
        <path class="cls-4" d="M874.92,842.57c0-.12,.02-.25,.02-.37,0-4.36-3.39-7.92-7.68-8.2,.12-.68,.2-1.37,.2-2.09,0-6.51-5.28-11.78-11.78-11.78-6.11,0-11.13,4.64-11.72,10.59-.8-.19-1.63-.3-2.49-.3-5.89,0-10.66,4.77-10.66,10.66,0,.51,.05,1.01,.12,1.5h44.01Z"/>
        <path class="cls-4" d="M965.85,832.48c-.17-4.41-3.79-7.94-8.25-7.94-.95,0-1.85,.17-2.7,.46-1.7-4.06-5.71-6.92-10.39-6.92-.55,0-1.09,.05-1.62,.13,0-.04,0-.09,0-.13,0-8.7-7.05-15.75-15.75-15.75s-15.75,7.05-15.75,15.75c-6.22,0-11.26,5.04-11.26,11.26,0,1.09,.16,2.15,.45,3.15h65.25Z"/>
      </g>
      <g>
        <g class="cls-5">
          <circle class="cls-6" cx="600" cy="184.23" r="112.5"/>
        </g>
        <circle class="cls-2" cx="600" cy="177.5" r="112.5"/>
        <path class="cls-4" d="M652.03,147.97c0,9.63-7.81,17.44-17.44,17.44s-17.44-7.81-17.44-17.44c0-12.84,17.44-33.19,17.44-33.19,0,0,17.44,20.35,17.44,33.19Z"/>
        <path class="cls-4" d="M582.46,182.33c0,11.6-9.41,21.01-21.01,21.01s-21.01-9.41-21.01-21.01c0-15.47,21.01-39.99,21.01-39.99,0,0,21.01,24.52,21.01,39.99Z"/>
        <g>
          <path class="cls-7" d="M533.9,244.72c-.3,0-.61-.12-.83-.36-17.26-18.79-26.88-42.74-27.08-67.42-.21-25.08,9.42-48.64,27.11-66.33,32.59-32.59,83.58-37.02,121.24-10.53,.51,.36,.63,1.06,.27,1.56-.36,.51-1.06,.63-1.56,.27-36.76-25.86-86.54-21.54-118.36,10.28-35.06,35.06-35.05,92.45,.03,130.65,.42,.46,.39,1.17-.07,1.59-.22,.2-.49,.3-.76,.3Z"/>
          <g>
            <path class="cls-7" d="M600,272.17c-18.9,0-37.89-5.67-54.35-17.25-.51-.36-.63-1.06-.27-1.56,.36-.51,1.06-.63,1.56-.27,36.76,25.86,86.54,21.54,118.36-10.28,36-36,36-93.38-.01-130.63-.43-.45-.42-1.16,.03-1.59,.45-.43,1.16-.42,1.59,.03,17.63,18.23,27.38,42.07,27.46,67.11,.08,25.19-9.68,48.87-27.48,66.67-18.35,18.35-42.54,27.78-66.89,27.78Z"/>
            <path class="cls-7" d="M666.1,126.44c-.62,0-1.12-.5-1.12-1.12v-13.92c0-.62,.5-1.12,1.12-1.12h13.92c.62,0,1.12,.5,1.12,1.12s-.5,1.12-1.12,1.12h-12.79v12.8c0,.62-.5,1.12-1.12,1.12Z"/>
          </g>
          <path class="cls-7" d="M533.9,244.72h-13.92c-.62,0-1.12-.5-1.12-1.12s.5-1.12,1.12-1.12h12.8v-12.79c0-.62,.5-1.12,1.12-1.12s1.12,.5,1.12,1.12v13.92c0,.62-.5,1.12-1.12,1.12Z"/>
        </g>
        <g>
          <path class="cls-2" d="M600,242.71c-22.88,0-41.49-18.61-41.49-41.49,0-28.91,37.19-72.64,38.77-74.49l2.72-3.18,2.72,3.18c1.58,1.85,38.77,45.58,38.77,74.49,0,22.88-18.61,41.49-41.49,41.49Z"/>
          <g class="cls-5">
            <path class="cls-6" d="M637.91,205.7c0,20.94-16.97,37.91-37.91,37.91s-37.91-16.97-37.91-37.91c0-27.92,37.91-72.16,37.91-72.16,0,0,37.91,44.24,37.91,72.16Z"/>
          </g>
          <path class="cls-3" d="M637.91,201.21c0,20.94-16.97,37.91-37.91,37.91s-37.91-16.97-37.91-37.91c0-27.92,37.91-72.16,37.91-72.16,0,0,37.91,44.24,37.91,72.16Z"/>
          <path class="cls-4" d="M600,232.17c-17.07,0-30.95-13.88-30.95-30.95,0-1.48,1.2-2.68,2.68-2.68s2.68,1.2,2.68,2.68c0,14.12,11.48,25.6,25.6,25.6,1.48,0,2.68,1.2,2.68,2.68s-1.2,2.68-2.68,2.68Z"/>
        </g>
        <path class="cls-3" d="M559.21,160.46c-3.58,0-6.94-1.39-9.47-3.92-5.22-5.22-5.22-13.72,0-18.94,2.53-2.53,5.89-3.92,9.47-3.92s6.94,1.39,9.47,3.92c5.22,5.22,5.22,13.72,0,18.94-2.53,2.53-5.89,3.92-9.47,3.92Zm0-24.54c-2.98,0-5.78,1.16-7.88,3.27-4.35,4.35-4.35,11.42,0,15.77,2.11,2.11,4.91,3.27,7.88,3.27s5.78-1.16,7.88-3.27c4.35-4.35,4.35-11.42,0-15.77-2.11-2.11-4.91-3.27-7.88-3.27Z"/>
        <path class="cls-3" d="M638.85,246.11c-4.83,0-9.36-1.88-12.78-5.29-7.04-7.04-7.04-18.51,0-25.55,3.41-3.41,7.95-5.29,12.78-5.29s9.36,1.88,12.78,5.29c3.41,3.41,5.29,7.95,5.29,12.78s-1.88,9.36-5.29,12.77c-3.41,3.41-7.95,5.29-12.78,5.29Zm0-33.89c-4.23,0-8.2,1.65-11.19,4.63-6.17,6.17-6.17,16.21,0,22.38,2.99,2.99,6.96,4.63,11.19,4.63s8.2-1.65,11.19-4.63c2.99-2.99,4.64-6.96,4.64-11.19s-1.65-8.2-4.64-11.19c-2.99-2.99-6.96-4.63-11.19-4.63Z"/>
        <path class="cls-3" d="M581.04,124.04c-2.11,0-4.09-.82-5.58-2.31s-2.31-3.47-2.31-5.58,.82-4.09,2.31-5.58c1.49-1.49,3.47-2.31,5.58-2.31s4.09,.82,5.58,2.31c1.49,1.49,2.31,3.47,2.31,5.58s-.82,4.09-2.31,5.58c-1.49,1.49-3.47,2.31-5.58,2.31Zm0-14.67c-1.81,0-3.51,.7-4.79,1.98-1.28,1.28-1.98,2.98-1.98,4.79s.7,3.51,1.98,4.79c1.28,1.28,2.98,1.98,4.79,1.98s3.51-.7,4.79-1.98c1.28-1.28,1.98-2.98,1.98-4.79s-.7-3.51-1.98-4.79c-1.28-1.28-2.98-1.98-4.79-1.98Z"/>
        <path class="cls-3" d="M640.9,171.9c-1.73,0-3.35-.67-4.58-1.89-2.52-2.52-2.52-6.63,0-9.15,1.22-1.22,2.85-1.89,4.58-1.89s3.35,.67,4.57,1.89,1.9,2.85,1.9,4.58-.67,3.35-1.9,4.58c-1.22,1.22-2.85,1.89-4.57,1.89Zm0-11.82c-1.43,0-2.77,.56-3.78,1.57-2.08,2.09-2.08,5.48,0,7.56,1.01,1.01,2.35,1.57,3.78,1.57s2.77-.56,3.78-1.57c1.01-1.01,1.57-2.35,1.57-3.78s-.56-2.77-1.57-3.78c-1.01-1.01-2.35-1.57-3.78-1.57Z"/>
      </g>
      <g>
        <g class="cls-5">
          <circle class="cls-6" cx="300.86" cy="307.6" r="112.5" transform="translate(-129.38 302.84) rotate(-45)"/>
        </g>
        <circle class="cls-2" cx="300.86" cy="300.86" r="112.5"/>
        <g>
          <g class="cls-5">
            <circle class="cls-6" cx="300.86" cy="305.35" r="81.89" transform="translate(-105.51 441.82) rotate(-63.99)"/>
          </g>
          <circle class="cls-4" cx="300.86" cy="300.86" r="81.89" transform="translate(-75.8 498.76) rotate(-72.72)"/>
          <g class="cls-5">
            <circle class="cls-6" cx="300.86" cy="304.23" r="68.96"/>
          </g>
          <circle class="cls-3" cx="300.86" cy="300.86" r="68.96" transform="translate(-70.03 509.37) rotate(-74.34)"/>
          <g>
            <g>
              <polygon class="cls-7" points="297.94 325.39 304.14 339.66 335.13 339.66 318.64 311.11 304.14 311.11 297.94 325.39"/>
              <polygon class="cls-2" points="289.95 325.39 296.15 311.11 283.09 311.11 250.12 311.11 266.6 339.66 296.15 339.66 289.95 325.39"/>
            </g>
            <g>
              <polygon class="cls-7" points="281.07 286.04 265.61 284.27 250.12 311.11 283.09 311.11 290.34 298.55 281.07 286.04"/>
              <polygon class="cls-2" points="285.07 279.13 294.33 291.63 300.86 280.32 317.35 251.77 284.38 251.77 269.6 277.36 285.07 279.13"/>
            </g>
            <g>
              <polygon class="cls-7" points="323.58 291.11 332.84 278.6 317.35 251.77 300.86 280.32 308.12 292.88 323.58 291.11"/>
              <polygon class="cls-2" points="327.57 298.02 312.11 299.79 318.64 311.11 335.13 339.66 351.61 311.11 336.84 285.52 327.57 298.02"/>
            </g>
          </g>
        </g>
      </g>
      <g>
        <g class="cls-5">
          <circle class="cls-6" cx="1023.11" cy="606.77" r="112.5"/>
        </g>
        <circle class="cls-2" cx="1023.11" cy="600.03" r="112.5"/>
        <circle class="cls-4" cx="1023.11" cy="600.03" r="85.4"/>
        <g class="cls-5">
          <path class="cls-6" d="M1135.61,600.03c0-2.89-.11-5.76-.32-8.6l-51.79-51.79-120.78,120.78,51.79,51.79c2.84,.21,5.71,.32,8.6,.32,62.13,0,112.5-50.37,112.5-112.5Z"/>
        </g>
        <circle class="cls-3" cx="1023.11" cy="600.03" r="72.81" transform="translate(263.51 1510.97) rotate(-80.57)"/>
        <path class="cls-2" d="M1023.11,587.12c-1.55,0-2.81-1.26-2.81-2.81v-40.59c0-1.55,1.26-2.81,2.81-2.81s2.81,1.26,2.81,2.81v40.59c0,1.55-1.26,2.81-2.81,2.81Z"/>
        <path class="cls-2" d="M1023.11,644.76c-24.67,0-44.73-20.07-44.73-44.73,0-20.38,13.76-38.18,33.46-43.3,1.5-.39,3.03,.51,3.42,2.01,.39,1.5-.51,3.03-2.01,3.42-17.23,4.47-29.26,20.05-29.26,37.87,0,21.57,17.55,39.12,39.12,39.12s39.12-17.55,39.12-39.12c0-17.82-12.03-33.39-29.26-37.87-1.5-.39-2.4-1.92-2.01-3.42,.39-1.5,1.92-2.4,3.42-2.01,19.7,5.12,33.46,22.92,33.46,43.3,0,24.66-20.07,44.73-44.73,44.73Z"/>
        <path class="cls-7" d="M1023.11,540.92c-1.55,0-2.81,1.26-2.81,2.81v2.24c0-1.55,1.26-2.81,2.81-2.81s2.81,1.26,2.81,2.81v-2.24c0-1.55-1.26-2.81-2.81-2.81Z"/>
        <g>
          <path class="cls-7" d="M1034.39,558.98c19.3,5.01,32.89,22.21,33.43,42.07,0-.34,.03-.68,.03-1.02,0-20.38-13.76-38.18-33.46-43.3-1.5-.39-3.03,.51-3.42,2.01-.16,.63-.09,1.27,.16,1.82,.54-1.24,1.92-1.94,3.27-1.59Z"/>
          <path class="cls-7" d="M1011.84,558.98c1.35-.35,2.72,.35,3.27,1.59,.24-.56,.32-1.19,.16-1.82-.39-1.5-1.92-2.4-3.42-2.01-19.7,5.12-33.46,22.92-33.46,43.3,0,.34,.02,.68,.03,1.02,.54-19.86,14.13-37.06,33.43-42.07Z"/>
          <path class="cls-7" d="M984.02,601.05c-.01,.41-.03,.82-.03,1.23,0,21.57,17.55,39.12,39.12,39.12s39.12-17.55,39.12-39.12c0-.41-.01-.82-.03-1.23-.54,21.1-17.87,38.1-39.09,38.1s-38.55-17-39.09-38.1Z"/>
        </g>
      </g>
      <g>
        <g>
          <g class="cls-5">
            <circle class="cls-6" cx="176.7" cy="606.73" r="112.5"/>
          </g>
          <circle class="cls-2" cx="176.7" cy="600" r="112.5"/>
        </g>
        <g>
          <g>
            <path class="cls-4" d="M196.11,621.89s0-.04,0-.06c-.02-.21-.06-.42-.1-.63,0-.03,0-.06-.01-.09-.03-.14-.07-.27-.1-.4-.21-.79-.54-1.53-.98-2.18h0c-.09-.14-.19-.26-.29-.39-.05-.06-.09-.12-.13-.18-.06-.08-.13-.15-.2-.22-.09-.1-.18-.21-.28-.31-.02-.02-.04-.04-.07-.06-.53-.51-1.13-.95-1.8-1.29-.15-.08-.31-.16-.46-.22,0,0-.02,0-.03-.01-.21-.09-.43-.17-.66-.24,0,0,0,0-.01,0-.23-.07-.46-.13-.7-.17,0,0,0,0-.01,0l-36.84-7.27c-3.95-.78-7.79,1.79-8.57,5.75-.78,3.95,1.79,7.79,5.75,8.57l30.96,6.11v10.27c0,4.03,3.27,7.3,7.3,7.3s7.3-3.27,7.3-7.3v-16.27s0-.01,0-.02c0-.22-.01-.45-.03-.67Z"/>
            <g>
              <path class="cls-4" d="M201.4,593.38c-.47,0-.94-.05-1.42-.14l-49.38-9.74c-3.95-.78-6.53-4.62-5.75-8.57,.78-3.95,4.62-6.53,8.57-5.75l49.38,9.74c3.95,.78,6.53,4.62,5.75,8.57-.69,3.48-3.74,5.88-7.15,5.88Z"/>
              <path class="cls-4" d="M201.4,573.9c-.47,0-.94-.05-1.42-.14l-30.45-6.01c-3.95-.78-6.52-4.62-5.74-8.57,.78-3.95,4.62-6.52,8.57-5.75l30.45,6.01c3.95,.78,6.52,4.62,5.74,8.57-.69,3.48-3.74,5.88-7.15,5.88Z"/>
              <path class="cls-4" d="M201.4,612.87c-.47,0-.94-.04-1.42-.14l-49.38-9.74c-3.95-.78-6.53-4.62-5.75-8.57,.78-3.95,4.62-6.53,8.57-5.75l49.38,9.74c3.95,.78,6.53,4.62,5.75,8.57-.69,3.48-3.74,5.88-7.15,5.88Z"/>
              <path class="cls-3" d="M152,583.64c-3.41,0-6.46-2.41-7.15-5.88-.78-3.95,1.79-7.79,5.75-8.57l49.38-9.74c3.95-.78,7.79,1.79,8.57,5.75,.78,3.95-1.79,7.79-5.75,8.57l-49.38,9.74c-.48,.09-.95,.14-1.42,.14Z"/>
              <path class="cls-3" d="M152,603.12c-3.41,0-6.46-2.41-7.15-5.88-.78-3.95,1.79-7.79,5.74-8.57l49.38-9.74c3.96-.78,7.79,1.79,8.57,5.75,.78,3.95-1.79,7.79-5.74,8.57l-49.38,9.74c-.48,.09-.95,.14-1.42,.14Z"/>
              <path class="cls-3" d="M208.55,604.16c-.78-3.95-4.62-6.53-8.57-5.75l-49.38,9.74s0,0,0,0c-.24,.05-.48,.11-.72,.18h0c-.22,.07-.43,.15-.64,.23-.02,0-.03,.01-.05,.02-.09,.04-.18,.09-.27,.13-.5,.24-.97,.52-1.4,.86-.04,.03-.09,.07-.14,.1-.1,.08-.2,.18-.29,.26-.08,.07-.16,.14-.24,.22-.06,.06-.11,.12-.16,.18-.11,.12-.22,.23-.32,.35-.01,.02-.02,.03-.04,.05-.46,.57-.83,1.21-1.11,1.91-.07,.17-.13,.35-.19,.52,0,.03-.01,.05-.02,.08-.06,.21-.12,.42-.16,.64,0,0,0,0,0,.01,0,.04,0,.07-.02,.11-.04,.2-.07,.39-.09,.59,0,.09-.01,.18-.02,.27,0,.14-.02,.29-.02,.43,0,.15,.01,.3,.02,.44,0,.09,0,.18,.02,.27,.02,.2,.05,.4,.09,.6,0,.04,0,.07,.02,.11,0,0,0,0,0,0,.08,.39,.19,.78,.33,1.15,.02,.05,.04,.1,.05,.15,.14,.34,.3,.66,.48,.97,.04,.07,.08,.13,.12,.2,.19,.3,.39,.58,.62,.85,.04,.05,.09,.1,.13,.15,.25,.27,.51,.53,.8,.77,0,0,.02,.01,.03,.02,.3,.24,.61,.45,.95,.65,.02,.01,.05,.03,.07,.04,.32,.18,.65,.33,1,.46,.07,.03,.13,.05,.2,.07,.31,.11,.63,.2,.95,.26l.14,.03s0,0,0,0l6.51,1.28v14.71c0,4.03,3.27,7.3,7.3,7.3s7.3-3.27,7.3-7.3v-19.66l30.96-6.11c3.95-.78,6.53-4.62,5.75-8.57Z"/>
            </g>
            <path class="cls-3" d="M153.31,634.5v16.19c0,.63,.21,1.24,.59,1.74l7.53,9.81c.54,.7,1.38,1.12,2.26,1.12h26c.89,0,1.72-.41,2.26-1.12l7.53-9.81c.38-.5,.59-1.11,.59-1.74v-16.19c0-1.58-1.28-2.85-2.85-2.85h-41.06c-1.58,0-2.85,1.28-2.85,2.85Z"/>
            <rect class="cls-3" x="162.03" y="663.35" width="29.33" height="3.37" rx="1.67" ry="1.67"/>
            <rect class="cls-3" x="162.03" y="666.72" width="29.33" height="3.37" rx="1.67" ry="1.67"/>
            <rect class="cls-3" x="162.03" y="670.08" width="29.33" height="3.37" rx="1.67" ry="1.67"/>
            <rect class="cls-3" x="162.03" y="673.45" width="29.33" height="3.37" rx="1.67" ry="1.67"/>
            <path class="cls-7" d="M178.39,680.37h-3.39c-.9,0-1.76-.34-2.41-.95l-2.81-2.61h13.85l-2.81,2.61c-.66,.61-1.52,.95-2.41,.95Z"/>
            <g class="cls-5">
              <path class="cls-3" d="M162.03,675.13v.02c0,.92,.75,1.67,1.67,1.67h26c.92,0,1.67-.75,1.67-1.67v-.02h-29.33Z"/>
            </g>
            <g class="cls-5">
              <path class="cls-3" d="M162.03,671.77v.02c0,.92,.75,1.67,1.67,1.67h26c.92,0,1.67-.75,1.67-1.67v-.02h-29.33Z"/>
            </g>
            <g class="cls-5">
              <path class="cls-3" d="M162.03,668.4v.02c0,.92,.75,1.67,1.67,1.67h26c.92,0,1.67-.75,1.67-1.67v-.02h-29.33Z"/>
            </g>
            <g class="cls-5">
              <path class="cls-3" d="M162.03,665.03v.02c0,.92,.75,1.67,1.67,1.67h26c.92,0,1.67-.75,1.67-1.67v-.02h-29.33Z"/>
            </g>
          </g>
          <g class="cls-5">
            <path class="cls-3" d="M153.9,652.43l7.53,9.81c.54,.7,1.38,1.12,2.26,1.12h26c.89,0,1.72-.41,2.26-1.12l7.53-9.81c.38-.5,.59-1.11,.59-1.74h-46.77c0,.63,.21,1.24,.59,1.74Z"/>
          </g>
        </g>
        <g>
          <path class="cls-3" d="M103.76,616.64c-.93,0-1.68-.75-1.68-1.68v-12.04c0-.93,.75-1.68,1.68-1.68s1.68,.75,1.68,1.68v12.04c0,.93-.75,1.68-1.68,1.68Z"/>
          <path class="cls-3" d="M109.78,610.62h-12.04c-.93,0-1.68-.75-1.68-1.68s.75-1.68,1.68-1.68h12.04c.93,0,1.68,.75,1.68,1.68s-.75,1.68-1.68,1.68Z"/>
        </g>
        <g>
          <path class="cls-3" d="M226.73,575.3c-.62,0-1.12-.5-1.12-1.12v-10.71c0-.62,.5-1.12,1.12-1.12s1.12,.5,1.12,1.12v10.71c0,.62-.5,1.12-1.12,1.12Z"/>
          <path class="cls-3" d="M232.08,569.94h-10.71c-.62,0-1.12-.5-1.12-1.12s.5-1.12,1.12-1.12h10.71c.62,0,1.12,.5,1.12,1.12s-.5,1.12-1.12,1.12Z"/>
        </g>
        <g>
          <path class="cls-3" d="M251.25,597.95c-.62,0-1.12-.5-1.12-1.12v-6.37c0-.62,.5-1.12,1.12-1.12s1.12,.5,1.12,1.12v6.37c0,.62-.5,1.12-1.12,1.12Z"/>
          <path class="cls-3" d="M254.44,594.77h-6.37c-.62,0-1.12-.5-1.12-1.12s.5-1.12,1.12-1.12h6.37c.62,0,1.12,.5,1.12,1.12s-.5,1.12-1.12,1.12Z"/>
        </g>
        <g>
          <path class="cls-3" d="M238.28,647.8c-.93,0-1.68-.75-1.68-1.68v-11.49c0-.93,.75-1.68,1.68-1.68s1.68,.75,1.68,1.68v11.49c0,.93-.75,1.68-1.68,1.68Z"/>
          <path class="cls-3" d="M244.02,642.05h-11.49c-.93,0-1.68-.75-1.68-1.68s.75-1.68,1.68-1.68h11.49c.93,0,1.68,.75,1.68,1.68s-.75,1.68-1.68,1.68Z"/>
        </g>
        <g>
          <path class="cls-3" d="M120.55,655.55c-.62,0-1.12-.5-1.12-1.12v-6.37c0-.62,.5-1.12,1.12-1.12s1.12,.5,1.12,1.12v6.37c0,.62-.5,1.12-1.12,1.12Z"/>
          <path class="cls-3" d="M123.73,652.37h-6.37c-.62,0-1.12-.5-1.12-1.12s.5-1.12,1.12-1.12h6.37c.62,0,1.12,.5,1.12,1.12s-.5,1.12-1.12,1.12Z"/>
        </g>
        <g>
          <path class="cls-3" d="M125.53,583.82c-.62,0-1.12-.5-1.12-1.12v-9.96c0-.62,.5-1.12,1.12-1.12s1.12,.5,1.12,1.12v9.96c0,.62-.5,1.12-1.12,1.12Z"/>
          <path class="cls-3" d="M130.51,578.84h-9.96c-.62,0-1.12-.5-1.12-1.12s.5-1.12,1.12-1.12h9.96c.62,0,1.12,.5,1.12,1.12s-.5,1.12-1.12,1.12Z"/>
        </g>
        <rect class="cls-4" x="138.99" y="528.4" width="4.49" height="21.7" transform="translate(-339.94 257.81) rotate(-45)"/>
        <rect class="cls-4" x="201.31" y="537.01" width="21.7" height="4.49" transform="translate(-319.13 307.88) rotate(-44.99)"/>
        <rect class="cls-4" x="174.46" y="513.71" width="4.49" height="21.7"/>
        <rect class="cls-4" x="155.26" y="517.53" width="4.49" height="21.69" transform="translate(-190.13 100.43) rotate(-22.49)"/>
        <rect class="cls-4" x="185.05" y="526.13" width="21.69" height="4.49" transform="translate(-367.23 507.18) rotate(-67.5)"/>
        <path class="cls-3" d="M136.65,623.89c0,1.34-1.09,2.43-2.43,2.43s-2.43-1.09-2.43-2.43,1.09-2.43,2.43-2.43,2.43,1.09,2.43,2.43Z"/>
        <path class="cls-3" d="M223.36,614.59c0,1.34-1.09,2.43-2.43,2.43s-2.43-1.09-2.43-2.43,1.09-2.43,2.43-2.43,2.43,1.09,2.43,2.43Z"/>
      </g>
      <g>
        <g>
          <g class="cls-5">
            <circle class="cls-6" cx="303.15" cy="909.77" r="112.5"/>
          </g>
          <circle class="cls-2" cx="303.15" cy="903.04" r="112.5"/>
        </g>
        <circle class="cls-3" cx="248.82" cy="844.39" r="20.93" transform="translate(-132.04 50.76) rotate(-9.22)"/>
        <g>
          <rect class="cls-4" x="276.49" y="969.21" width="84.74" height="6.73" rx="3.33" ry="3.33"/>
          <rect class="cls-4" x="365.15" y="969.21" width="11.78" height="6.73" rx="3.33" ry="3.33"/>
          <rect class="cls-4" x="235.15" y="969.21" width="36.48" height="6.73" rx="3.33" ry="3.33"/>
          <rect class="cls-4" x="250.26" y="981.84" width="51.07" height="6.73" rx="3.33" ry="3.33"/>
          <rect class="cls-4" x="305.76" y="981.84" width="53.31" height="6.73" rx="3.33" ry="3.33"/>
          <g>
            <g>
              <polygon class="cls-3" points="364.87 949.23 279.62 949.23 301.09 898.91 386.34 898.91 364.87 949.23"/>
              <polygon class="cls-7" points="293.62 922.57 327.67 901.17 318.54 922.57 293.62 922.57"/>
              <polygon class="cls-7" points="321.16 922.57 355.21 901.17 346.08 922.57 321.16 922.57"/>
              <polygon class="cls-7" points="283.21 946.97 317.26 925.57 308.13 946.97 283.21 946.97"/>
              <polygon class="cls-7" points="310.75 946.97 344.8 925.57 335.67 946.97 310.75 946.97"/>
              <polygon class="cls-7" points="348.7 922.57 382.76 901.17 373.62 922.57 348.7 922.57"/>
              <polygon class="cls-7" points="338.29 946.97 372.34 925.57 363.21 946.97 338.29 946.97"/>
            </g>
            <polygon class="cls-3" points="324.52 972.58 335.89 972.58 335.89 960.59 324.52 949.23 324.52 972.58"/>
          </g>
        </g>
        <path class="cls-4" d="M296.72,846.07h-20.99c-.93,0-1.68-.75-1.68-1.68s.75-1.68,1.68-1.68h20.99c.93,0,1.68,.75,1.68,1.68s-.75,1.68-1.68,1.68Z"/>
        <path class="cls-4" d="M308.76,846.07h-5.08c-.93,0-1.68-.75-1.68-1.68s.75-1.68,1.68-1.68h5.08c.93,0,1.68,.75,1.68,1.68s-.75,1.68-1.68,1.68Z"/>
        <path class="cls-4" d="M354.24,846.07h-38.95c-.93,0-1.68-.75-1.68-1.68s.75-1.68,1.68-1.68h38.95c.93,0,1.68,.75,1.68,1.68s-.75,1.68-1.68,1.68Z"/>
        <path class="cls-4" d="M322.24,815.66c-.66,0-1.29-.39-1.56-1.04-.36-.86,.05-1.84,.91-2.2l15.21-6.3c.86-.36,1.84,.05,2.2,.91,.36,.86-.05,1.84-.91,2.2l-15.21,6.3c-.21,.09-.43,.13-.64,.13Z"/>
        <path class="cls-4" d="M310.31,820.6c-.66,0-1.29-.39-1.56-1.04-.36-.86,.05-1.84,.91-2.2l3.93-1.63c.86-.36,1.84,.05,2.2,.91,.36,.86-.05,1.84-.91,2.2l-3.93,1.63c-.21,.09-.43,.13-.64,.13Z"/>
        <path class="cls-4" d="M273.69,835.77c-.66,0-1.29-.39-1.56-1.04-.36-.86,.05-1.84,.91-2.2l28.1-11.64c.86-.36,1.84,.05,2.2,.91,.36,.86-.05,1.84-.91,2.2l-28.1,11.64c-.21,.09-.43,.13-.64,.13Z"/>
        <path class="cls-4" d="M361.15,846.07h-.53c-.93,0-1.68-.75-1.68-1.68s.75-1.68,1.68-1.68h.53c.93,0,1.68,.75,1.68,1.68s-.75,1.68-1.68,1.68Z"/>
        <g>
          <path class="cls-4" d="M248.82,893.97c-.93,0-1.68-.75-1.68-1.68v-20.99c0-.93,.75-1.68,1.68-1.68s1.68,.75,1.68,1.68v20.99c0,.93-.75,1.68-1.68,1.68Z"/>
          <path class="cls-4" d="M248.82,904.35c-.93,0-1.68-.75-1.68-1.68v-4.16c0-.93,.75-1.68,1.68-1.68s1.68,.75,1.68,1.68v4.16c0,.93-.75,1.68-1.68,1.68Z"/>
          <path class="cls-4" d="M248.82,948.3c-.93,0-1.68-.75-1.68-1.68v-37.57c0-.93,.75-1.68,1.68-1.68s1.68,.75,1.68,1.68v37.57c0,.93-.75,1.68-1.68,1.68Z"/>
        </g>
        <g>
          <path class="cls-4" d="M271.58,868.83c-.43,0-.86-.16-1.19-.49l-3.73-3.73c-.66-.66-.66-1.72,0-2.38s1.72-.66,2.38,0l3.73,3.73c.66,.66,.66,1.72,0,2.38-.33,.33-.76,.49-1.19,.49Z"/>
          <path class="cls-4" d="M288.03,885.27c-.43,0-.86-.16-1.19-.49l-11.53-11.53c-.66-.66-.66-1.72,0-2.38,.66-.66,1.72-.66,2.38,0l11.53,11.53c.66,.66,.66,1.72,0,2.38-.33,.33-.76,.49-1.19,.49Z"/>
          <path class="cls-4" d="M293.21,890.45c-.43,0-.86-.16-1.19-.49l-.56-.56c-.66-.66-.66-1.72,0-2.38,.66-.66,1.72-.66,2.38,0l.56,.56c.66,.66,.66,1.72,0,2.38-.33,.33-.76,.49-1.19,.49Z"/>
        </g>
        <g>
          <path class="cls-4" d="M268.04,826.82c-.43,0-.86-.16-1.19-.49-.66-.66-.66-1.72,0-2.38l3.73-3.73c.66-.66,1.72-.66,2.38,0s.66,1.72,0,2.38l-3.73,3.73c-.33,.33-.76,.49-1.19,.49Z"/>
          <path class="cls-4" d="M276.7,818.16c-.43,0-.86-.16-1.19-.49-.66-.66-.66-1.72,0-2.38l11.53-11.53c.66-.66,1.72-.66,2.38,0,.66,.66,.66,1.72,0,2.38l-11.53,11.53c-.33,.33-.76,.49-1.19,.49Z"/>
          <path class="cls-4" d="M292.84,802.02c-.43,0-.86-.16-1.19-.49-.66-.66-.66-1.72,0-2.38l.56-.56c.66-.66,1.72-.66,2.38,0,.66,.66,.66,1.72,0,2.38l-.56,.56c-.33,.33-.76,.49-1.19,.49Z"/>
        </g>
        <g>
          <path class="cls-4" d="M204.46,890.46c-.43,0-.86-.16-1.19-.49-.66-.66-.66-1.72,0-2.38l3.73-3.74c.66-.66,1.72-.66,2.38,0,.66,.66,.66,1.72,0,2.38l-3.73,3.74c-.33,.33-.76,.49-1.19,.49Z"/>
          <path class="cls-4" d="M213.11,881.8c-.43,0-.86-.16-1.19-.49-.66-.66-.66-1.72,0-2.38l11.53-11.53c.66-.66,1.72-.66,2.38,0,.66,.66,.66,1.72,0,2.38l-11.53,11.53c-.33,.33-.76,.49-1.19,.49Z"/>
          <path class="cls-4" d="M229.26,865.65c-.43,0-.86-.16-1.19-.49-.66-.66-.66-1.72,0-2.38l.56-.56c.66-.66,1.72-.66,2.38,0,.66,.66,.66,1.72,0,2.38l-.56,.56c-.33,.33-.76,.49-1.19,.49Z"/>
        </g>
        <path class="cls-4" d="M346.96,886.72c-.21,0-.43-.04-.64-.13l-2.96-1.22c-.86-.36-1.27-1.34-.91-2.2,.36-.86,1.34-1.27,2.2-.91l2.96,1.22c.86,.36,1.27,1.34,.91,2.2-.27,.65-.9,1.04-1.56,1.04Z"/>
        <path class="cls-4" d="M337.49,882.8c-.21,0-.43-.04-.64-.13l-23.11-9.57c-.86-.36-1.27-1.34-.91-2.2,.36-.86,1.34-1.27,2.2-.91l23.11,9.57c.86,.36,1.27,1.34,.91,2.2-.27,.65-.9,1.04-1.56,1.04Z"/>
        <path class="cls-4" d="M307.25,870.27c-.21,0-.43-.04-.64-.13l-23.22-9.62c-.86-.36-1.27-1.34-.91-2.2,.36-.86,1.34-1.27,2.2-.91l23.22,9.62c.86,.36,1.27,1.34,.91,2.2-.27,.65-.9,1.04-1.56,1.04Z"/>
        <path class="cls-4" d="M278.89,858.53c-.21,0-.43-.04-.64-.13l-5.21-2.16c-.86-.35-1.27-1.34-.91-2.2,.36-.86,1.34-1.27,2.2-.91l5.21,2.16c.86,.36,1.27,1.34,.91,2.2-.27,.65-.9,1.04-1.56,1.04Z"/>
        <g>
          <path class="cls-4" d="M261.27,876.12c-.66,0-1.29-.39-1.56-1.04l-2.15-5.18c-.36-.86,.05-1.84,.91-2.2,.86-.36,1.84,.05,2.2,.91l2.15,5.18c.36,.86-.05,1.84-.91,2.2-.21,.09-.43,.13-.64,.13Z"/>
          <path class="cls-4" d="M273.58,905.84c-.66,0-1.29-.39-1.56-1.04l-.7-1.7c-.36-.86,.05-1.84,.91-2.2,.86-.36,1.84,.05,2.2,.91l.7,1.7c.36,.86-.05,1.84-.91,2.2-.21,.09-.43,.13-.64,.13Zm-3.52-8.49c-.66,0-1.29-.39-1.56-1.04l-5.98-14.44c-.36-.86,.05-1.84,.91-2.2,.86-.36,1.84,.05,2.2,.91l5.98,14.44c.36,.86-.05,1.84-.91,2.2-.21,.09-.43,.13-.64,.13Z"/>
          <path class="cls-4" d="M278.89,918.66c-.66,0-1.29-.39-1.56-1.04l-2.15-5.18c-.36-.86,.05-1.84,.91-2.2,.86-.36,1.84,.05,2.2,.91l2.15,5.18c.36,.86-.05,1.84-.91,2.2-.21,.09-.43,.13-.64,.13Z"/>
        </g>
        <path class="cls-4" d="M210.74,938.02c-.21,0-.43-.04-.64-.13-.86-.36-1.27-1.34-.91-2.2l1.59-3.84c.36-.86,1.34-1.27,2.2-.91,.86,.35,1.27,1.34,.91,2.2l-1.59,3.84c-.27,.65-.9,1.04-1.56,1.04Zm4.6-11.09c-.21,0-.43-.04-.64-.13-.86-.36-1.27-1.34-.91-2.2l11.6-28c.36-.86,1.34-1.27,2.2-.91,.86,.36,1.27,1.34,.91,2.2l-11.6,28c-.27,.65-.9,1.04-1.56,1.04Zm14.6-35.25c-.21,0-.43-.04-.64-.13-.86-.36-1.27-1.34-.91-2.2l1.72-4.15c.36-.86,1.34-1.27,2.2-.91,.86,.36,1.27,1.34,.91,2.2l-1.72,4.15c-.27,.65-.9,1.04-1.56,1.04Zm4.72-11.41c-.21,0-.43-.04-.64-.13-.86-.36-1.27-1.34-.91-2.2l3.87-9.33c.36-.86,1.34-1.27,2.2-.91,.86,.36,1.27,1.34,.91,2.2l-3.87,9.33c-.27,.65-.9,1.04-1.56,1.04Z"/>
      </g>
      <g>
        <g>
          <g class="cls-5">
            <circle class="cls-6" cx="600" cy="1029.85" r="112.5"/>
          </g>
          <circle class="cls-2" cx="600" cy="1023.11" r="112.5"/>
        </g>
        <g>
          <g>
            <path class="cls-7" d="M675.25,1022.5s-2.62-57.87,.66-53.67c6.78,8.67,9.41,37.84,7.57,44.21-1.62,5.6-4.17,9.51-4.17,9.51l-2.25,2.83-1.81-2.88Z"/>
            <path class="cls-7" d="M680.46,1025.26l-3.4,.13,1.33,3.36s2.11,4.16,6.15,8.37c2.84,2.96,14.08,8.79,24.83,12.44,.62-2.58,1.15-5.18,1.59-7.83-13.46-7.64-30.49-16.48-30.49-16.48Z"/>
            <path class="cls-7" d="M675.47,1028.39s-48.8,31.2-46.81,26.26c4.12-10.21,28.06-27.07,34.5-28.66,5.66-1.4,10.32-1.14,10.32-1.14l3.58,.53-1.59,3.01Z"/>
            <path class="cls-7" d="M671.14,1025.38c0,3.27,2.65,5.92,5.92,5.92s5.92-2.65,5.92-5.92-2.65-5.92-5.92-5.92-5.92,2.65-5.92,5.92Z"/>
          </g>
          <path class="cls-7" d="M683.2,1098.84l-3.17-63.78c-.17-.25-.33-.5-.47-.72-.76,.35-1.6,.56-2.49,.56-1.05,0-2.03-.28-2.88-.76l-3.85,76.78c4.6-3.69,8.9-7.72,12.87-12.08Z"/>
        </g>
        <path class="cls-4" d="M568.64,976.27c0-.12,.02-.25,.02-.37,0-4.36-3.39-7.92-7.68-8.2,.12-.68,.2-1.37,.2-2.09,0-6.51-5.28-11.78-11.78-11.78-6.11,0-11.13,4.64-11.72,10.59-.8-.19-1.63-.3-2.49-.3-5.89,0-10.66,4.77-10.66,10.66,0,.51,.05,1.01,.12,1.5h44.01Z"/>
        <path class="cls-4" d="M651.93,960.12c-.17-4.41-3.79-7.94-8.25-7.94-.95,0-1.85,.17-2.7,.46-1.7-4.06-5.71-6.92-10.39-6.92-.55,0-1.09,.05-1.62,.13,0-.04,0-.09,0-.13,0-8.7-7.05-15.75-15.75-15.75s-15.75,7.05-15.75,15.75c-6.22,0-11.26,5.04-11.26,11.26,0,1.09,.16,2.15,.45,3.15h65.25Z"/>
        <g>
          <g>
            <path class="cls-3" d="M623.14,1018.26s-3.28-72.37,.83-67.12c8.48,10.84,11.77,47.32,9.47,55.29-2.03,7.01-5.22,11.89-5.22,11.89l-2.81,3.54-2.26-3.6Z"/>
            <path class="cls-3" d="M629.65,1021.71s64.31,33.35,57.71,34.28c-13.63,1.92-46.87-13.46-52.62-19.45-5.05-5.26-7.69-10.47-7.69-10.47l-1.66-4.21,4.25-.16Z"/>
            <path class="cls-3" d="M623.41,1025.63s-61.04,39.02-58.54,32.84c5.15-12.76,35.09-33.86,43.15-35.84,7.08-1.75,12.91-1.42,12.91-1.42l4.47,.66-1.99,3.76Z"/>
            <path class="cls-3" d="M618,1021.87c0,4.09,3.31,7.4,7.4,7.4s7.4-3.31,7.4-7.4-3.31-7.4-7.4-7.4-7.4,3.31-7.4,7.4Z"/>
          </g>
          <path class="cls-3" d="M621.8,1032.82l-4.94,101.54c5.79-.87,11.43-2.18,16.9-3.9-.66-13.6-1.98-41.05-4.65-96.49-.21-.32-.41-.62-.59-.91-.95,.44-2,.7-3.12,.7-1.31,0-2.53-.35-3.6-.95Z"/>
        </g>
        <g>
          <path class="cls-3" d="M546.95,1007.97h-.13c-1.81-.13-3.69-.42-5.77-.85-2.46-.53-4.84-1.2-7.14-1.85-4.81-1.36-9.36-2.64-14.42-2.64h-.07c-2.81,.01-5.53,.39-8.34,1.18l-.07,.02h0c-.86,.2-1.77-.34-2.01-1.19-.12-.43-.07-.89,.16-1.28,.21-.39,.57-.67,1.01-.8,3.1-.88,6.13-1.3,9.25-1.3,5.71,.01,10.7,1.44,15.52,2.81,2.32,.66,4.53,1.28,6.8,1.76,1.92,.4,3.66,.66,5.33,.79,.86,.07,1.55,.8,1.55,1.67v.13c-.07,.86-.8,1.55-1.67,1.55Zm6.71-.18c-.84,0-1.56-.63-1.67-1.46-.06-.45,.06-.89,.34-1.24,.27-.36,.66-.6,1.11-.65,3.39-.46,6.78-1.49,10.37-3.18,.82-.38,1.85,0,2.23,.81,.39,.84,.03,1.84-.81,2.24-3.89,1.83-7.61,2.96-11.35,3.46-.08,.01-.15,.02-.22,.02Zm-49.33-1.55c-.65,0-1.25-.37-1.53-.96-.39-.84-.03-1.84,.81-2.24,.82-.38,1.85,0,2.24,.81,.38,.83,.03,1.82-.79,2.22l-.02,.02c-.24,.11-.47,.16-.72,.16Z"/>
          <path class="cls-3" d="M549.43,1023.41c-1.23,0-2.51-.07-3.79-.2-.92-.1-1.59-.93-1.5-1.85,.1-.92,.93-1.6,1.85-1.5,1.82,.19,3.51,.24,5.32,.13h0c4.09-.26,8.17-1.37,12.47-3.39,.84-.4,1.84-.03,2.24,.81,.4,.84,.03,1.84-.81,2.24-4.7,2.21-9.18,3.42-13.7,3.7h0c-.71,.04-1.41,.07-2.1,.07Zm-10.22-1.42c-.13,0-.27-.02-.41-.05-1.62-.4-3.24-.86-4.8-1.3l-.66-.19c-.89-.25-1.41-1.18-1.16-2.08,.25-.9,1.18-1.42,2.08-1.16l.66,.19c1.54,.44,3.13,.88,4.7,1.28,.9,.22,1.45,1.14,1.23,2.04-.19,.77-.88,1.28-1.63,1.28Zm-34.88-.41c-.63,0-1.24-.36-1.52-.97-.4-.84-.03-1.84,.81-2.24,5.4-2.54,10.56-3.77,15.8-3.77,2.58,0,5.26,.3,8.21,.91,.91,.19,1.49,1.08,1.3,1.99-.19,.91-1.09,1.5-1.99,1.31-2.75-.57-5.14-.84-7.52-.84-4.73,0-9.43,1.13-14.37,3.45-.23,.11-.47,.16-.71,.16Z"/>
          <path class="cls-3" d="M549.43,1038.73h0c-5.69-.01-10.65-1.41-15.45-2.78-1.62-.45-3.28-.92-4.92-1.32-.9-.22-1.45-1.13-1.22-2.03,.21-.89,1.13-1.46,2.03-1.24,1.71,.43,3.39,.9,5.02,1.36,4.84,1.36,9.4,2.65,14.5,2.65h.04c3.09,0,6.09-.46,9.2-1.42,.89-.27,1.84,.25,2.11,1.11,.27,.89-.22,1.83-1.11,2.11-3.42,1.05-6.77,1.57-10.2,1.57Zm-45.1-1.82c-.65,0-1.25-.38-1.53-.98-.19-.4-.21-.86-.06-1.29,.15-.42,.46-.75,.86-.94,4.24-2,8.27-3.17,12.33-3.59,.92-.1,1.75,.58,1.85,1.49,.09,.92-.57,1.75-1.5,1.85-3.65,.38-7.28,1.45-11.13,3.23l-.11,.06c-.22,.11-.47,.17-.72,.17Zm18.51-3.43c-.06,0-.11-.01-.17-.01-.45-.05-.85-.27-1.13-.62-.28-.35-.42-.78-.37-1.23,.1-.92,.91-1.59,1.85-1.5,.92,.09,1.59,.92,1.5,1.85-.09,.86-.82,1.52-1.68,1.52Z"/>
        </g>
        <g>
          <path class="cls-4" d="M587.51,1077.19c-4.92,0-9.31-1.24-13.55-2.44-4.71-1.33-9.11-2.59-14.34-2.32-.6,.06-1.15-.44-1.18-1.06-.03-.62,.44-1.15,1.06-1.18,5.55-.29,10.39,1.08,15.06,2.4,4.28,1.21,8.33,2.36,12.94,2.36,.94,0,1.89-.05,2.82-.15h0c1.75-.19,3.46-.54,5.23-1.07,.02,0,.03-.01,.05-.02,1.54-.47,3.14-1.09,4.73-1.84,.56-.26,1.23-.02,1.49,.54,.26,.56,.02,1.23-.54,1.49-1.68,.79-3.35,1.44-4.98,1.94-.02,0-.03,.01-.05,.02-1.9,.58-3.81,.97-5.7,1.17h0c-1.01,.11-2.04,.16-3.06,.16Zm-39.8-1.62c-.42,0-.82-.24-1.02-.64-.26-.56-.02-1.23,.54-1.49,1.82-.85,3.63-1.55,5.4-2.07,.59-.17,1.22,.17,1.39,.76,.17,.6-.17,1.22-.76,1.39-1.65,.48-3.36,1.14-5.07,1.94-.15,.07-.32,.11-.48,.11Z"/>
          <path class="cls-4" d="M589.33,1090.66c-.59,0-1.08-.46-1.12-1.05-.04-.62,.43-1.15,1.05-1.19,1.78-.12,3.52-.41,5.31-.88,0,0,0,0,0,0,1.88-.5,3.82-1.22,5.77-2.14,.56-.26,1.23-.02,1.49,.54,.26,.56,.02,1.23-.54,1.49-2.08,.98-4.14,1.74-6.15,2.28h0c-1.93,.52-3.81,.83-5.74,.95-.03,0-.05,0-.07,0Zm-6.71-.34c-.06,0-.12,0-.18-.01-1.67-.26-3.4-.64-5.59-1.23-.6-.16-.95-.77-.79-1.37,.16-.6,.77-.96,1.37-.79,2.12,.57,3.77,.93,5.36,1.18,.61,.1,1.03,.67,.93,1.28-.09,.55-.56,.95-1.11,.95Zm-34.91-1.22c-.42,0-.83-.24-1.02-.64-.26-.56-.02-1.23,.54-1.49,4.71-2.22,9.22-3.29,13.79-3.29,3.82,0,7.31,.77,9.91,1.44,.6,.16,.96,.77,.81,1.37-.15,.6-.77,.96-1.37,.81-2.63-.68-5.8-1.37-9.35-1.37-4.23,0-8.43,1.01-12.83,3.08-.15,.07-.32,.11-.48,.11Z"/>
          <path class="cls-4" d="M587.53,1104.24h-.02c-4.96,0-9.33-1.25-13.56-2.45-1.52-.43-3.1-.88-4.65-1.25l-.46-.11h.18c-.43-.24-.67-.74-.55-1.25,.15-.6,.76-.97,1.36-.83,1.61,.39,3.2,.84,4.74,1.28,4.29,1.21,8.34,2.36,12.91,2.36h.03c3.7,0,7.36-.76,11.17-2.35,.56-.22,1.23,.06,1.47,.62,.22,.57-.04,1.22-.62,1.46-4.08,1.69-8.01,2.51-12,2.51Zm-39.82-1.62c-.44,0-.83-.25-1.02-.64-.12-.27-.13-.58-.03-.86,.1-.28,.3-.51,.57-.63,3.02-1.43,5.9-2.36,8.8-2.86,.62-.11,1.2,.3,1.3,.91,.1,.62-.3,1.2-.92,1.3-2.64,.46-5.27,1.31-8.04,2.59l-.18,.09c-.16,.07-.31,.1-.48,.1Zm15.22-3.12h-.08c-.62-.04-1.09-.58-1.04-1.19,.04-.62,.58-1.11,1.19-1.05,.3,.02,.57,.16,.77,.38,.2,.22,.29,.52,.28,.82-.04,.58-.54,1.04-1.12,1.04Z"/>
        </g>
      </g>
      <g>
        <g>
          <g class="cls-5">
            <circle class="cls-6" cx="900.93" cy="305.06" r="112.5"/>
          </g>
          <circle class="cls-2" cx="900.93" cy="298.33" r="112.5"/>
        </g>
        <circle class="cls-3" cx="900.93" cy="299.07" r="65.94" transform="translate(52.4 724.65) rotate(-45)"/>
        <path class="cls-3" d="M895.79,389.72h0c-1.24-.07-2.19-1.13-2.11-2.37h0c.07-1.23,1.12-2.19,2.37-2.11h0c1.24,.07,2.18,1.12,2.11,2.37h0c-.07,1.19-1.05,2.11-2.24,2.11h-.12Zm8.01-2.12c-.08-1.23,.86-2.3,2.1-2.37h.01c1.24-.07,2.29,.88,2.37,2.11h0c.07,1.23-.88,2.3-2.11,2.37h0s-.09,.01-.13,.01h0c-1.18,0-2.17-.92-2.23-2.12Zm-18.33,.93c-1.22-.21-2.03-1.37-1.83-2.59h0c.21-1.22,1.38-2.04,2.6-1.83h0c1.22,.21,2.04,1.38,1.82,2.59h0c-.18,1.1-1.13,1.86-2.2,1.86h0c-.13,0-.26-.01-.39-.03Zm28.41-1.84c-.21-1.22,.59-2.38,1.82-2.59h0c1.22-.22,2.39,.59,2.6,1.82h0c.21,1.22-.61,2.39-1.83,2.6h0c-.12,.02-.26,.03-.39,.03h0c-1.07,0-2.01-.77-2.2-1.86Zm-38.51-.54c-1.19-.36-1.86-1.61-1.51-2.8h0c.36-1.19,1.6-1.86,2.79-1.5h0c1.19,.35,1.86,1.6,1.5,2.78h0c-.28,.98-1.18,1.6-2.14,1.6h0c-.21,0-.43-.02-.64-.09Zm48.41-1.54c-.35-1.19,.33-2.44,1.52-2.79h0c1.18-.35,2.44,.33,2.79,1.52h0c.35,1.18-.33,2.44-1.5,2.79h-.01c-.21,.06-.43,.09-.64,.09h0c-.96,0-1.86-.63-2.15-1.6Zm-58.17-2.01h0c-1.14-.49-1.67-1.82-1.18-2.95h0c.49-1.13,1.81-1.66,2.95-1.17h0c1.13,.48,1.66,1.81,1.17,2.94h0c-.36,.85-1.19,1.36-2.05,1.36h0c-.3,0-.59-.06-.89-.18Zm67.78-1.2c-.49-1.14,.03-2.47,1.17-2.95h0c1.13-.49,2.46,.02,2.95,1.17h0c.49,1.13-.03,2.46-1.17,2.95h0c-.29,.12-.6,.18-.9,.18h0c-.86,0-1.7-.5-2.05-1.35Zm-77.06-3.47h0c-1.08-.62-1.45-1.99-.82-3.06h0c.62-1.07,1.99-1.44,3.06-.82h0c1.07,.62,1.44,2,.82,3.06h0c-.41,.72-1.17,1.12-1.94,1.12h0c-.38,0-.77-.09-1.12-.3Zm86.21-.85c-.62-1.07-.25-2.45,.82-3.06h0c1.08-.63,2.45-.26,3.06,.82h0c.63,1.07,.26,2.45-.81,3.06h0c-.36,.2-.74,.3-1.12,.3h0c-.77,0-1.54-.4-1.95-1.12Zm-94.88-4.85c-1-.74-1.2-2.14-.46-3.14h0c.74-.99,2.14-1.2,3.14-.46h0c1,.74,1.2,2.14,.46,3.14h0c-.44,.59-1.12,.91-1.81,.91h0c-.46,0-.93-.15-1.34-.45Zm103.48-.5c-.74-.99-.54-2.4,.45-3.14h0c1-.74,2.4-.54,3.14,.46h0c.74,1,.54,2.4-.45,3.14h0c-.4,.3-.87,.45-1.35,.45h0c-.68,0-1.36-.31-1.8-.91Zm-111.44-6.16c-.9-.85-.94-2.28-.09-3.18h0c.84-.91,2.27-.94,3.18-.1h0c.9,.85,.94,2.28,.09,3.18h0c-.45,.47-1.04,.71-1.64,.71h0c-.55,0-1.1-.2-1.54-.61Zm119.35-.15c-.85-.9-.81-2.32,.09-3.18h0c.9-.85,2.32-.81,3.18,.09h0c.85,.91,.81,2.32-.09,3.18h0c-.44,.42-.99,.62-1.54,.62h0c-.61,0-1.2-.24-1.64-.71Zm-126.47-7.41c-.8-.94-.67-2.36,.27-3.16h0c.95-.8,2.37-.67,3.16,.28h0c.8,.94,.67,2.36-.27,3.16h0c-.43,.35-.93,.52-1.45,.52h0c-.64,0-1.28-.27-1.72-.8Zm133.61,.22c-.95-.8-1.08-2.21-.28-3.17h0c.8-.95,2.21-1.07,3.17-.28h0c.94,.8,1.07,2.22,.27,3.17h.01c-.45,.54-1.09,.81-1.73,.81h0c-.51,0-1.02-.18-1.44-.53Zm-139.82-8.54c-.68-1.03-.4-2.42,.63-3.11h0c1.03-.68,2.42-.39,3.11,.64h0c.68,1.03,.4,2.42-.63,3.11h0c-.38,.26-.81,.37-1.24,.37h0c-.73,0-1.45-.35-1.87-1.01Zm146.07,.58c-1.03-.69-1.33-2.08-.64-3.11h0c.68-1.04,2.08-1.32,3.11-.64h0c1.03,.67,1.33,2.07,.64,3.11h0c-.43,.65-1.14,1.01-1.87,1.01h0c-.43,0-.85-.12-1.23-.37Zm-151.28-9.56c-.56-1.1-.11-2.46,.99-3.01h0c1.11-.56,2.46-.11,3.02,.99h0c.56,1.11,.11,2.46-1,3.02h0c-.31,.16-.66,.24-1,.24h0c-.82,0-1.62-.45-2.01-1.23Zm156.58,.92c-1.11-.55-1.55-1.9-1-3.01h0c.56-1.11,1.91-1.56,3.02-1h0c1.1,.56,1.55,1.91,1,3.02h-.01c-.39,.79-1.18,1.23-2,1.23h0c-.34,0-.69-.08-1.01-.25Zm-160.71-10.45h0c-.41-1.16,.18-2.45,1.35-2.87h0c1.16-.43,2.45,.18,2.87,1.34h0c.43,1.17-.17,2.46-1.34,2.88h0c-.26,.09-.52,.13-.77,.13h0c-.92,0-1.77-.56-2.11-1.48Zm164.96,1.27c-1.17-.43-1.76-1.72-1.34-2.88h0c.42-1.17,1.71-1.76,2.87-1.34h0c1.17,.42,1.76,1.71,1.33,2.87h.01c-.34,.91-1.2,1.48-2.11,1.48h0c-.26,0-.52-.05-.77-.13Zm-167.94-11.21c-.28-1.2,.46-2.41,1.67-2.7h0c1.2-.28,2.41,.46,2.7,1.67h0c.28,1.2-.46,2.41-1.67,2.7h0c-.17,.03-.35,.06-.52,.06h0c-1.02,0-1.94-.7-2.19-1.73Zm171.1,1.58c-1.21-.29-1.95-1.49-1.67-2.7h0c.29-1.2,1.49-1.95,2.7-1.67h0c1.2,.29,1.95,1.49,1.67,2.7h0c-.25,1.03-1.17,1.73-2.19,1.73h0c-.17,0-.34-.02-.52-.06Zm-172.89-11.81c-.15-1.22,.74-2.35,1.96-2.49h0c1.24-.15,2.35,.74,2.49,1.98h0c.15,1.23-.74,2.35-1.96,2.49h0c-.09,.01-.18,.01-.26,.01h0c-1.13,0-2.1-.84-2.23-1.99Zm174.89,1.87c-1.22-.13-2.11-1.25-1.96-2.48h0c.13-1.23,1.26-2.11,2.48-1.98h0c1.24,.15,2.12,1.26,1.97,2.49h0c-.13,1.14-1.1,1.99-2.22,1.99h0c-.09,0-.18-.01-.27-.02Zm-175.5-12.23c0-1.23,1-2.24,2.24-2.24h0c1.24,0,2.24,1,2.24,2.24h0c0,1.23-1,2.24-2.24,2.24h0c-1.23,0-2.24-1-2.24-2.24Zm174.1-.09v-.07h0v-.11h0c0-1.25,1-2.26,2.24-2.26h0c1.23,0,2.24,1,2.24,2.24h0v.1h0v.09h0c0,1.23-1,2.24-2.24,2.24h0c-1.23,0-2.24-1.01-2.24-2.24Zm-171.54-7.78c-1.23-.15-2.12-1.26-1.98-2.49h0c.15-1.23,1.26-2.12,2.49-1.98h0c1.22,.13,2.11,1.26,1.98,2.49h0c-.13,1.14-1.11,1.99-2.23,1.99h0c-.09,0-.17-.01-.26-.01Zm170.95-2.24c-.15-1.23,.73-2.35,1.96-2.49h0c1.23-.15,2.35,.73,2.49,1.96h0c.15,1.22-.73,2.35-1.96,2.49h0c-.09,.01-.18,.01-.27,.01h0c-1.12,0-2.09-.84-2.22-1.98Zm-169.48-7.78c-1.2-.28-1.95-1.49-1.66-2.69h0c.28-1.21,1.48-1.96,2.69-1.67h0c1.21,.28,1.95,1.49,1.67,2.69h0c-.25,1.03-1.17,1.73-2.19,1.73h0c-.17,0-.34-.01-.52-.06Zm167.77-1.93c-.29-1.21,.45-2.42,1.66-2.7h0c1.2-.29,2.41,.46,2.7,1.66h0c.28,1.2-.46,2.41-1.67,2.7h0c-.17,.05-.35,.06-.52,.06h0c-1.02,0-1.93-.7-2.18-1.72Zm-165.13-7.85c-1.16-.43-1.76-1.72-1.34-2.87h0c.42-1.17,1.71-1.77,2.87-1.35h0c1.17,.42,1.76,1.71,1.35,2.87h0c-.34,.91-1.19,1.48-2.11,1.48h0c-.26,0-.52-.05-.77-.13Zm162.28-1.59c-.43-1.17,.17-2.46,1.33-2.88h0c1.17-.43,2.46,.17,2.88,1.34h0c.43,1.17-.18,2.46-1.33,2.88h0c-.26,.09-.52,.13-.77,.13h0c-.91,0-1.77-.56-2.11-1.47Zm-158.51-7.81c-1.11-.56-1.56-1.91-1-3.02h0c.55-1.1,1.9-1.55,3.01-1h0c1.11,.56,1.56,1.91,1,3.02h0c-.39,.79-1.18,1.23-2.01,1.23h0c-.34,0-.67-.08-1-.24Zm154.59-1.23h-.01c-.55-1.11-.11-2.46,1-3.02h0c1.1-.56,2.45-.11,3.01,1h0c.56,1.1,.12,2.45-.99,3.01h0c-.32,.17-.67,.25-1.01,.25h0c-.82,0-1.6-.45-2-1.23Zm-149.76-7.67c-1.03-.68-1.32-2.08-.64-3.11h0c.69-1.03,2.08-1.32,3.11-.64h0c1.03,.67,1.33,2.06,.64,3.11h0c-.43,.65-1.14,1.01-1.87,1.01h0c-.43,0-.85-.12-1.23-.37Zm144.8-.85h0c-.68-1.03-.4-2.42,.64-3.11h0c1.03-.68,2.42-.4,3.11,.63h0c.68,1.03,.4,2.42-.64,3.11h0c-.38,.26-.81,.37-1.24,.37h0c-.73,0-1.44-.35-1.87-1Zm-138.97-7.42c-.95-.8-1.08-2.22-.28-3.17h0c.8-.95,2.21-1.08,3.17-.28h0c.95,.8,1.08,2.21,.28,3.17h0c-.45,.53-1.09,.8-1.73,.8h0c-.51,0-1.02-.17-1.44-.52Zm133.06-.48c-.8-.94-.69-2.36,.27-3.15h0c.94-.81,2.37-.68,3.16,.27h0c.8,.94,.67,2.36-.27,3.16h0c-.43,.35-.93,.53-1.45,.53h0c-.64,0-1.27-.28-1.72-.81Zm-126.32-7.07c-.84-.9-.81-2.32,.09-3.18h0c.91-.85,2.32-.81,3.18,.09h0c.85,.9,.81,2.32-.09,3.18h0c-.43,.4-.99,.62-1.54,.62h0c-.59,0-1.19-.24-1.64-.71Zm119.54-.08c-.91-.85-.95-2.28-.1-3.18h0c.85-.91,2.27-.94,3.18-.1h0c.9,.85,.94,2.27,.1,3.18h0c-.45,.47-1.04,.71-1.64,.71h0c-.55,0-1.11-.2-1.54-.61Zm-111.96-6.63c-.74-1-.54-2.4,.46-3.14h0c.99-.75,2.39-.55,3.14,.45h0c.74,.99,.54,2.4-.46,3.14h0c-.4,.3-.88,.45-1.34,.45h0c-.68,0-1.36-.31-1.81-.9Zm104.4,.29c-1-.73-1.2-2.14-.46-3.13h0c.74-1,2.14-1.2,3.13-.46h.01c.99,.73,1.19,2.14,.46,3.13h0c-.45,.6-1.12,.91-1.81,.91h0c-.46,0-.93-.15-1.34-.45Zm-96.09-6.09c-.63-1.07-.26-2.45,.81-3.06h0c1.08-.63,2.45-.26,3.07,.81h0c.62,1.08,.25,2.45-.82,3.07h0c-.36,.2-.74,.3-1.12,.3h0c-.77,0-1.53-.4-1.94-1.12Zm87.85,.69h0c-1.07-.62-1.44-1.99-.82-3.06h0c.62-1.08,1.99-1.45,3.06-.82h0c1.08,.62,1.45,1.99,.82,3.06h0c-.42,.72-1.17,1.12-1.94,1.12h0c-.38,0-.76-.1-1.12-.3Zm-78.94-5.48c-.48-1.13,.03-2.46,1.18-2.95h-.01c1.14-.49,2.47,.03,2.96,1.17h0c.48,1.13-.03,2.46-1.17,2.95h0c-.29,.12-.6,.19-.9,.19h0c-.86,0-1.7-.52-2.06-1.36Zm70.13,1.07c-1.14-.49-1.67-1.82-1.18-2.95h0c.48-1.14,1.81-1.67,2.95-1.18h0c1.13,.49,1.66,1.81,1.17,2.95h0c-.36,.85-1.19,1.36-2.05,1.36h0c-.3,0-.61-.06-.89-.18Zm-60.71-4.79c-.36-1.18,.31-2.44,1.49-2.79h.01c1.18-.35,2.44,.32,2.79,1.5h0c.35,1.19-.33,2.44-1.5,2.79h0c-.22,.07-.44,.1-.65,.1h0c-.97,0-1.85-.63-2.14-1.6Zm51.44,1.43c-1.2-.35-1.87-1.59-1.51-2.78h0c.35-1.19,1.59-1.86,2.78-1.52h0c1.19,.36,1.87,1.61,1.52,2.79h0c-.29,.98-1.18,1.6-2.14,1.6h0c-.21,0-.43-.03-.64-.1Zm-41.66-4.02c-.21-1.22,.61-2.38,1.83-2.6h0c1.21-.21,2.38,.61,2.59,1.83h0c.21,1.21-.59,2.38-1.82,2.59h0c-.13,.02-.26,.03-.39,.03h0c-1.07,0-2.02-.76-2.21-1.85Zm32.05,1.77h0c-1.22-.21-2.03-1.37-1.83-2.59h0c.21-1.22,1.38-2.04,2.6-1.83h0c1.22,.21,2.03,1.37,1.83,2.59h0c-.19,1.1-1.14,1.86-2.21,1.86h0c-.13,0-.26-.01-.39-.03Zm-22.03-3.21c-.07-1.23,.87-2.3,2.11-2.37h0c1.23-.08,2.3,.86,2.37,2.11h0c.08,1.23-.86,2.29-2.1,2.37h-.13c-1.18,0-2.18-.92-2.24-2.11Zm12.23,2.09c-1.23-.07-2.18-1.12-2.11-2.36h0c.07-1.25,1.12-2.19,2.37-2.12h0c1.23,.07,2.18,1.13,2.11,2.37h0c-.07,1.19-1.06,2.12-2.23,2.12h0s-.09,0-.13-.01Z"/>
        <g>
          <path class="cls-2" d="M923.33,279.62c-13.98,0-25.31,11.33-25.31,25.3v39.71h5.54v-31.72s16.96,0,16.96,0c13.98,0,25.31-11.33,25.31-25.31v-7.99h-22.5Z"/>
          <g class="cls-5">
            <path class="cls-6" d="M898.03,312.91v31.72h5.54v-31.72s16.96,0,16.96,0c13.98,0,25.3-11.33,25.3-25.31v-7.99l-47.8,33.3Z"/>
          </g>
          <g>
            <path class="cls-2" d="M876.59,276.71h-19.07v6.77c0,11.84,9.6,21.44,21.44,21.44h19.07v-6.77c0-11.84-9.6-21.44-21.44-21.44Z"/>
            <g class="cls-5">
              <path class="cls-6" d="M857.52,283.48c0,11.84,9.6,21.44,21.44,21.44h19.07l-40.51-28.21v6.77Z"/>
            </g>
          </g>
        </g>
        <path class="cls-7" d="M829.46,385.21c19.43,16,44.33,25.62,71.47,25.62s52.04-9.61,71.47-25.62l-61.53-45.72c-5.9-4.39-13.98-4.39-19.88,0l-61.53,45.72Z"/>
      </g>
    </g>
  </g>
</svg>