<?xml version="1.0" encoding="UTF-8"?>
<svg id="Objects" xmlns="http://www.w3.org/2000/svg" viewBox="0 0 243.06 317.83">
  <defs>
    <style>
      .cls-1 {
        fill: #4a6788;
      }

      .cls-2 {
        fill: #3a55a5;
      }
    </style>
  </defs>
  <path class="cls-2" d="M195.7,276.16h0c.04,1.42,1.19,2.55,2.62,2.55h0c.24,0,.48-.05,.7-.12-.69-1.51-.36-3.31,.86-4.48,.01-.01,.02-.02,.03-.03-.44-.34-.99-.54-1.59-.54-1.45,0-2.62,1.17-2.62,2.62Z"/>
  <path class="cls-2" d="M183.56,273.54c-1.45,0-2.62,1.17-2.62,2.62h0c.04,1.42,1.19,2.55,2.62,2.55h0c1.39-.04,2.51-1.16,2.55-2.55h.07c0-1.45-1.17-2.62-2.62-2.62Z"/>
  <path class="cls-2" d="M190.94,271.4c1.45,0,2.62-1.17,2.62-2.62s-1.17-2.62-2.62-2.62-2.62,1.17-2.62,2.62,1.17,2.62,2.62,2.62Z"/>
  <path class="cls-2" d="M197.19,288.57c-.13,.06-.25,.13-.37,.22l.37-.22Z"/>
  <path class="cls-2" d="M190.94,280.92c-1.45,0-2.62,1.17-2.62,2.62s1.17,2.62,2.62,2.62,2.62-1.17,2.62-2.62-1.17-2.62-2.62-2.62Z"/>
  <path class="cls-2" d="M168.79,273.54c-1.45,0-2.62,1.17-2.62,2.62h0c.04,1.42,1.19,2.55,2.62,2.55h0c1.39-.04,2.51-1.16,2.55-2.55h.07c0-1.45-1.17-2.62-2.62-2.62Z"/>
  <path class="cls-2" d="M176.17,271.4c.95,0,1.78-.51,2.24-1.27-1.1,.4-2.22,.74-3.36,1.01,.34,.16,.72,.25,1.12,.25Z"/>
  <path class="cls-2" d="M176.17,280.92c-1.45,0-2.62,1.17-2.62,2.62s1.17,2.62,2.62,2.62,2.62-1.17,2.62-2.62-1.17-2.62-2.62-2.62Z"/>
  <path class="cls-2" d="M154.02,273.54c-1.45,0-2.62,1.17-2.62,2.62h0c.04,1.42,1.19,2.55,2.62,2.55h0c1.39-.04,2.51-1.16,2.55-2.55h.07c0-1.45-1.17-2.62-2.62-2.62Z"/>
  <path class="cls-2" d="M161.37,271.4c-.34-.07-.69-.15-1.03-.23,.32,.14,.66,.22,1.03,.23Z"/>
  <path class="cls-2" d="M154.02,288.31c-1.45,0-2.62,1.17-2.62,2.62h0c.04,1.42,1.19,2.55,2.62,2.55h0c1.39-.04,2.51-1.16,2.55-2.55h.07c0-1.45-1.17-2.62-2.62-2.62Z"/>
  <path class="cls-2" d="M161.41,280.92c-1.45,0-2.62,1.17-2.62,2.62s1.17,2.62,2.62,2.62,2.62-1.17,2.62-2.62-1.17-2.62-2.62-2.62Z"/>
  <path class="cls-2" d="M159.39,296.64l1.48,.39,.35-1.33c-.73,.05-1.38,.41-1.83,.94Z"/>
  <path class="cls-2" d="M139.26,214.48c-1.45,0-2.62,1.17-2.62,2.62h0c.04,1.42,1.19,2.55,2.62,2.55h0c1.39-.04,2.51-1.16,2.55-2.55h.07c0-1.45-1.17-2.62-2.62-2.62Z"/>
  <path class="cls-2" d="M139.26,258.78c-1.45,0-2.62,1.17-2.62,2.62h0c.04,1.42,1.19,2.55,2.62,2.55h0c1.39-.04,2.51-1.16,2.55-2.55h.07c0-1.45-1.17-2.62-2.62-2.62Z"/>
  <path class="cls-2" d="M146.64,271.4c1.45,0,2.62-1.17,2.62-2.62s-1.17-2.62-2.62-2.62-2.62,1.17-2.62,2.62,1.17,2.62,2.62,2.62Z"/>
  <path class="cls-2" d="M141.81,276.16h.07c0-1.45-1.17-2.62-2.62-2.62-1.17,0-2.17,.77-2.5,1.83,1.2,1.06,2.45,2.05,3.74,2.98,.76-.44,1.28-1.26,1.3-2.2Z"/>
  <path class="cls-2" d="M149.26,283.54c0-1.45-1.17-2.62-2.62-2.62-.52,0-1,.15-1.41,.41,.15,.08,.3,.17,.46,.25,1.58,.84,2.38,2.63,1.97,4.37,.94-.4,1.6-1.33,1.6-2.41Z"/>
  <path class="cls-2" d="M134.5,209.72c0-.59-.2-1.14-.53-1.58-1.19,1.23-2.3,2.53-3.34,3.88,.37,.2,.8,.32,1.25,.32,1.45,0,2.62-1.17,2.62-2.62Z"/>
  <path class="cls-2" d="M127,217.5c-.18,.32-.37,.64-.54,.97-.12,.22-.26,.43-.42,.62,.49-.39,.84-.95,.96-1.59Z"/>
  <path class="cls-2" d="M134.5,224.48c0-1.45-1.17-2.62-2.62-2.62s-2.62,1.17-2.62,2.62,1.17,2.62,2.62,2.62,2.62-1.17,2.62-2.62Z"/>
  <path class="cls-2" d="M137.93,229.61c-.77,.46-1.29,1.29-1.29,2.26h0c.01,.4,.11,.77,.28,1.11,.05-.19,.08-.38,.13-.57,.25-.95,.55-1.88,.88-2.8Z"/>
  <polygon class="cls-2" points="136.64 246.63 136.64 246.63 136.64 246.62 136.64 246.63"/>
  <path class="cls-2" d="M131.88,236.63c-1.45,0-2.62,1.17-2.62,2.62s1.17,2.62,2.62,2.62,2.62-1.17,2.62-2.62-1.17-2.62-2.62-2.62Z"/>
  <path class="cls-2" d="M136.85,247.58c-.07-.31-.14-.63-.2-.94,0,.33,.08,.65,.2,.94Z"/>
  <path class="cls-2" d="M124.49,258.78c-1.45,0-2.62,1.17-2.62,2.62h0c.04,1.42,1.19,2.55,2.62,2.55h0c1.39-.04,2.51-1.16,2.55-2.55h.07c0-1.45-1.17-2.62-2.62-2.62Z"/>
  <path class="cls-2" d="M129.26,254.01c0,1.45,1.17,2.62,2.62,2.62s2.62-1.17,2.62-2.62-1.17-2.62-2.62-2.62-2.62,1.17-2.62,2.62Z"/>
  <path class="cls-2" d="M131.88,266.16c-1.45,0-2.62,1.17-2.62,2.62s1.17,2.62,2.62,2.62,2.62-1.17,2.62-2.62-1.17-2.62-2.62-2.62Z"/>
  <path class="cls-2" d="M117.11,227.1c1.45,0,2.62-1.17,2.62-2.62s-1.17-2.62-2.62-2.62-2.62,1.17-2.62,2.62,1.17,2.62,2.62,2.62Z"/>
  <path class="cls-2" d="M112.28,231.87h.07c0-.56-.17-1.07-.47-1.49l-.86,3.27,.39,.1c.52-.47,.84-1.13,.86-1.88Z"/>
  <path class="cls-2" d="M124.49,234.42h0c1.39-.04,2.51-1.16,2.55-2.55h.07c0-1.45-1.17-2.62-2.62-2.62s-2.62,1.17-2.62,2.62h0c.04,1.42,1.19,2.55,2.62,2.55Z"/>
  <path class="cls-2" d="M124.49,249.18h0c1.39-.04,2.51-1.16,2.55-2.55h.07c0-1.45-1.17-2.62-2.62-2.62s-2.62,1.17-2.62,2.62h0c.04,1.42,1.19,2.55,2.62,2.55Z"/>
  <path class="cls-2" d="M122.29,274.75l.53,.9,3-1.75c-.39-.23-.84-.36-1.32-.36-.93,0-1.74,.48-2.21,1.21Z"/>
  <path class="cls-2" d="M117.27,266.17l2.2,3.76c.17-.35,.27-.73,.27-1.15,0-1.4-1.09-2.53-2.47-2.61Z"/>
  <path class="cls-2" d="M93.62,29.54c-1.45,0-2.62,1.17-2.62,2.62h0c.04,1.42,1.19,2.55,2.62,2.55h0c1.39-.04,2.51-1.16,2.55-2.55h.07c0-1.45-1.17-2.62-2.62-2.62Z"/>
  <path class="cls-2" d="M93.62,44.31c-1.45,0-2.62,1.17-2.62,2.62h0c.04,1.42,1.19,2.55,2.62,2.55h0c1.39-.04,2.51-1.16,2.55-2.55h.07c0-1.45-1.17-2.62-2.62-2.62Z"/>
  <path class="cls-2" d="M93.62,147.66c-1.45,0-2.62,1.17-2.62,2.62h0c.04,1.42,1.19,2.55,2.62,2.55h0c1.39-.04,2.51-1.16,2.55-2.55h.07c0-1.45-1.17-2.62-2.62-2.62Z"/>
  <path class="cls-2" d="M93.62,162.43c-1.45,0-2.62,1.17-2.62,2.62h0c.04,1.42,1.19,2.55,2.62,2.55h0c1.39-.04,2.51-1.16,2.55-2.55h.07c0-1.45-1.17-2.62-2.62-2.62Z"/>
  <path class="cls-2" d="M78.86,44.31c-1.45,0-2.62,1.17-2.62,2.62h0c.04,1.42,1.19,2.55,2.62,2.55h0c1.39-.04,2.51-1.16,2.55-2.55h.07c0-1.45-1.17-2.62-2.62-2.62Z"/>
  <path class="cls-2" d="M86.24,42.16c1.45,0,2.62-1.17,2.62-2.62s-1.17-2.62-2.62-2.62-2.62,1.17-2.62,2.62,1.17,2.62,2.62,2.62Z"/>
  <path class="cls-2" d="M86.24,51.69c-1.45,0-2.62,1.17-2.62,2.62s1.17,2.62,2.62,2.62,2.62-1.17,2.62-2.62-1.17-2.62-2.62-2.62Z"/>
  <path class="cls-2" d="M76.69,134.05c-.29,.42-.45,.93-.45,1.47h0c.04,1.42,1.19,2.55,2.62,2.55h0c1.1-.03,2.03-.74,2.39-1.72-1.57-.68-3.09-1.45-4.56-2.3Z"/>
  <path class="cls-2" d="M78.86,147.66c-1.45,0-2.62,1.17-2.62,2.62h0c.04,1.42,1.19,2.55,2.62,2.55h0c1.39-.04,2.51-1.16,2.55-2.55h.07c0-1.45-1.17-2.62-2.62-2.62Z"/>
  <path class="cls-2" d="M86.24,145.52c1.45,0,2.62-1.17,2.62-2.62s-1.17-2.62-2.62-2.62-2.62,1.17-2.62,2.62,1.17,2.62,2.62,2.62Z"/>
  <path class="cls-2" d="M88.86,157.67c0-1.45-1.17-2.62-2.62-2.62s-2.62,1.17-2.62,2.62,1.17,2.62,2.62,2.62,2.62-1.17,2.62-2.62Z"/>
  <path class="cls-2" d="M88.86,172.43c0-1.45-1.17-2.62-2.62-2.62-.21,0-.4,.03-.6,.07v5.1c.19,.04,.39,.07,.6,.07,1.45,0,2.62-1.17,2.62-2.62Z"/>
  <path class="cls-2" d="M71.47,42.16c1.45,0,2.62-1.17,2.62-2.62,0-.97-.53-1.81-1.31-2.27-1.31,.54-2.6,1.13-3.88,1.76-.03,.16-.05,.33-.05,.5,0,1.45,1.17,2.62,2.62,2.62Z"/>
  <path class="cls-2" d="M80.48,59.64c-.45-.35-1.01-.57-1.62-.57-1.45,0-2.62,1.17-2.62,2.62h0c0,.06,0,.12,0,.17,1.36-.82,2.77-1.56,4.23-2.23Z"/>
  <path class="cls-2" d="M64.09,59.07c-1.45,0-2.62,1.17-2.62,2.62h0c.04,1.42,1.19,2.55,2.62,2.55h0c1.39-.04,2.51-1.16,2.55-2.55h.07c0-1.45-1.17-2.62-2.62-2.62Z"/>
  <circle class="cls-2" cx="71.47" cy="54.31" r="2.62"/>
  <path class="cls-2" d="M64.09,132.9c-1.45,0-2.62,1.17-2.62,2.62h0c.04,1.42,1.19,2.55,2.62,2.55h0c1.39-.04,2.51-1.16,2.55-2.55h.07c0-1.45-1.17-2.62-2.62-2.62Z"/>
  <path class="cls-2" d="M71.47,130.76c.12,0,.24-.01,.35-.03-1.03-.82-2.02-1.68-2.97-2.59,0,1.44,1.18,2.61,2.62,2.61Z"/>
  <path class="cls-2" d="M64.09,147.66c-1.45,0-2.62,1.17-2.62,2.62h0c.04,1.42,1.19,2.55,2.62,2.55h0c1.39-.04,2.51-1.16,2.55-2.55h.07c0-1.45-1.17-2.62-2.62-2.62Z"/>
  <path class="cls-2" d="M68.85,142.9c0,1.45,1.17,2.62,2.62,2.62s2.62-1.17,2.62-2.62-1.17-2.62-2.62-2.62-2.62,1.17-2.62,2.62Z"/>
  <path class="cls-2" d="M71.47,155.05c-1.1,0-2.04,.68-2.43,1.64,1.57,.77,3.17,1.48,4.79,2.12,.16-.34,.26-.73,.26-1.13,0-1.45-1.17-2.62-2.62-2.62Z"/>
  <path class="cls-2" d="M56.71,42.16c.72,0,1.37-.29,1.85-.76l-3.7-3.7c-.47,.47-.76,1.13-.76,1.85,0,1.45,1.17,2.62,2.62,2.62Z"/>
  <path class="cls-2" d="M64.09,49.48h0c1.39-.04,2.51-1.16,2.55-2.55h.07c0-1.45-1.17-2.62-2.62-2.62s-2.62,1.17-2.62,2.62h0c.04,1.42,1.19,2.55,2.62,2.55Z"/>
  <path class="cls-2" d="M59.33,54.31c0-1.45-1.17-2.62-2.62-2.62s-2.62,1.17-2.62,2.62,1.17,2.62,2.62,2.62,2.62-1.17,2.62-2.62Z"/>
  <path class="cls-2" d="M63.34,73.95c-1.08,.32-1.87,1.32-1.87,2.51h0c0,.12,.02,.25,.04,.37,.57-.99,1.18-1.94,1.83-2.88Z"/>
  <path class="cls-2" d="M59.33,69.08c0-1.45-1.17-2.62-2.62-2.62s-2.62,1.17-2.62,2.62,1.17,2.62,2.62,2.62,2.62-1.17,2.62-2.62Z"/>
  <path class="cls-2" d="M49.32,88.6c-1.45,0-2.62,1.17-2.62,2.62h0c.04,1.42,1.19,2.55,2.62,2.55h0c1.39-.04,2.51-1.16,2.55-2.55h.07c0-1.45-1.17-2.62-2.62-2.62Z"/>
  <path class="cls-2" d="M56.71,81.22c-1.45,0-2.62,1.17-2.62,2.62s1.17,2.62,2.62,2.62c.26,0,.51-.04,.75-.11,.39-1.38,.85-2.72,1.38-4.04-.48-.66-1.25-1.09-2.13-1.09Z"/>
  <path class="cls-2" d="M49.32,103.37c-1.45,0-2.62,1.17-2.62,2.62h0c.04,1.42,1.19,2.55,2.62,2.55h0c1.39-.04,2.51-1.16,2.55-2.55h.07c0-1.45-1.17-2.62-2.62-2.62Z"/>
  <path class="cls-2" d="M55.9,96.12c-1.05,.34-1.81,1.33-1.81,2.49s.8,2.2,1.9,2.52c-.09-1.09-.13-2.19-.13-3.3,0-.57,.01-1.14,.04-1.71Z"/>
  <path class="cls-2" d="M56.71,110.75c-1.45,0-2.62,1.17-2.62,2.62s1.17,2.62,2.62,2.62c1.16,0,2.14-.75,2.48-1.79-.43-1.01-.82-2.05-1.18-3.1-.39-.22-.83-.35-1.31-.35Z"/>
  <path class="cls-2" d="M61.85,119.4c-.24,.4-.38,.86-.38,1.35h0c.04,1.42,1.19,2.55,2.62,2.55h0c.13,0,.26-.02,.39-.04-.95-1.24-1.83-2.52-2.63-3.86Z"/>
  <path class="cls-2" d="M59.33,128.14c0-1.45-1.17-2.62-2.62-2.62s-2.62,1.17-2.62,2.62,1.17,2.62,2.62,2.62,2.62-1.17,2.62-2.62Z"/>
  <path class="cls-2" d="M49.32,147.66c-1.45,0-2.62,1.17-2.62,2.62h0c.04,1.42,1.19,2.55,2.62,2.55h0c1.39-.04,2.51-1.16,2.55-2.55h.07c0-1.45-1.17-2.62-2.62-2.62Z"/>
  <path class="cls-2" d="M54.09,142.9c0,1.45,1.17,2.62,2.62,2.62s2.62-1.17,2.62-2.62-1.17-2.62-2.62-2.62-2.62,1.17-2.62,2.62Z"/>
  <path class="cls-2" d="M54.09,157.67c0,.31,.06,.61,.16,.89l3.35-3.35c-.28-.1-.58-.16-.89-.16-1.45,0-2.62,1.17-2.62,2.62Z"/>
  <path class="cls-2" d="M49.32,34.71h0c.69-.02,1.32-.31,1.78-.76l-.58-.58-1.33,1.33s.09,0,.14,0Z"/>
  <path class="cls-2" d="M44.56,39.54c0-.07,0-.14-.01-.2l-2.81,2.81c.07,0,.13,.01,.2,.01,1.45,0,2.62-1.17,2.62-2.62Z"/>
  <path class="cls-2" d="M49.32,49.48h0c1.39-.04,2.51-1.16,2.55-2.55h.07c0-1.45-1.17-2.62-2.62-2.62s-2.62,1.17-2.62,2.62h0c.04,1.42,1.19,2.55,2.62,2.55Z"/>
  <circle class="cls-2" cx="41.94" cy="54.31" r="2.62"/>
  <path class="cls-2" d="M49.32,64.24h0c1.39-.04,2.51-1.16,2.55-2.55h.07c0-1.45-1.17-2.62-2.62-2.62s-2.62,1.17-2.62,2.62h0c.04,1.42,1.19,2.55,2.62,2.55Z"/>
  <circle class="cls-2" cx="41.94" cy="69.08" r="2.62"/>
  <path class="cls-2" d="M37.11,76.46h.07c0-.68-.26-1.29-.68-1.76-.53,1.4-1.01,2.81-1.44,4.25,1.15-.25,2.02-1.27,2.05-2.49Z"/>
  <path class="cls-2" d="M49.32,79.01h0c1.39-.04,2.51-1.16,2.55-2.55h.07c0-1.45-1.17-2.62-2.62-2.62s-2.62,1.17-2.62,2.62h0c.04,1.42,1.19,2.55,2.62,2.55Z"/>
  <path class="cls-2" d="M44.56,83.84c0-1.45-1.17-2.62-2.62-2.62s-2.62,1.17-2.62,2.62,1.17,2.62,2.62,2.62,2.62-1.17,2.62-2.62Z"/>
  <path class="cls-2" d="M34.56,103.37c-1.45,0-2.62,1.17-2.62,2.62h0c.04,1.42,1.19,2.55,2.62,2.55h0c1.39-.04,2.51-1.16,2.55-2.55h.07c0-1.45-1.17-2.62-2.62-2.62Z"/>
  <path class="cls-2" d="M39.32,98.61c0,1.45,1.17,2.62,2.62,2.62s2.62-1.17,2.62-2.62-1.17-2.62-2.62-2.62-2.62,1.17-2.62,2.62Z"/>
  <path class="cls-2" d="M37.18,120.75c0-1.09-.66-2.02-1.61-2.42,.39,1.18,.81,2.35,1.27,3.5,.16-.33,.26-.7,.27-1.08h.07Z"/>
  <circle class="cls-2" cx="41.94" cy="113.37" r="2.62"/>
  <path class="cls-2" d="M49.32,123.31h0c1.39-.04,2.51-1.16,2.55-2.55h.07c0-1.45-1.17-2.62-2.62-2.62s-2.62,1.17-2.62,2.62h0c.04,1.42,1.19,2.55,2.62,2.55Z"/>
  <path class="cls-2" d="M44.56,128.14c0-1.45-1.17-2.62-2.62-2.62-1.23,0-2.26,.85-2.54,1.99,.54,1.05,1.1,2.09,1.7,3.11,.26,.09,.55,.14,.84,.14,1.45,0,2.62-1.17,2.62-2.62Z"/>
  <path class="cls-2" d="M49.32,138.07h0c1.39-.04,2.51-1.16,2.55-2.55h.07c0-1.45-1.17-2.62-2.62-2.62s-2.62,1.17-2.62,2.62h0c.04,1.42,1.19,2.55,2.62,2.55Z"/>
  <path class="cls-2" d="M41.94,145.52c1.45,0,2.62-1.17,2.62-2.62s-1.17-2.62-2.62-2.62-2.62,1.17-2.62,2.62,1.17,2.62,2.62,2.62Z"/>
  <path class="cls-2" d="M34.56,49.48h0c1.39-.04,2.51-1.16,2.55-2.55h.07c0-.07,0-.14-.01-.2l-2.75,2.75s.09,0,.14,0Z"/>
  <path class="cls-2" d="M27.18,86.46c.73,0,1.39-.3,1.87-.79h-3.74c.48,.48,1.14,.79,1.87,.79Z"/>
  <path class="cls-2" d="M34.56,93.78h0c1.39-.04,2.51-1.16,2.55-2.55h.07c0-1.45-1.17-2.62-2.62-2.62s-2.62,1.17-2.62,2.62h0c.04,1.42,1.19,2.55,2.62,2.55Z"/>
  <path class="cls-2" d="M24.56,98.61c0,1.45,1.17,2.62,2.62,2.62s2.62-1.17,2.62-2.62-1.17-2.62-2.62-2.62-2.62,1.17-2.62,2.62Z"/>
  <path class="cls-2" d="M19.79,93.78h0c1.39-.04,2.51-1.16,2.55-2.55h.07c0-1.45-1.17-2.62-2.62-2.62-.36,0-.69,.07-1,.2v4.77c.31,.13,.65,.2,1,.2Z"/>
  <path class="cls-2" d="M19.79,108.54h0c1.39-.04,2.51-1.16,2.55-2.55h.07c0-1.45-1.17-2.62-2.62-2.62-.36,0-.69,.07-1,.2v4.77c.31,.13,.65,.2,1,.2Z"/>
  <path class="cls-1" d="M82.79,11.4c-2.17,0-3.93,1.76-3.93,3.93v12.34c-5.48,1.56-10.76,3.75-15.74,6.54l-8.74-8.74c-1.54-1.53-4.02-1.53-5.56,0l-22.74,22.74c-1.53,1.53-1.53,4.02,0,5.56l8.74,8.74c-2.79,4.99-4.99,10.26-6.54,15.74H15.94c-2.17,0-3.93,1.76-3.93,3.93v32.16c0,2.17,1.76,3.93,3.93,3.93h12.34c1.56,5.48,3.75,10.76,6.54,15.74l-8.74,8.74c-1.53,1.53-1.53,4.02,0,5.56l22.74,22.74c1.53,1.54,4.02,1.53,5.56,0l8.74-8.74c4.99,2.79,10.26,4.99,15.74,6.54v12.34c0,2.17,1.76,3.93,3.93,3.93h32.16c2.17,0,3.93-1.76,3.93-3.93v-12.34c5.48-1.56,10.76-3.75,15.74-6.54l8.74,8.74c.74,.74,1.74,1.15,2.78,1.15s2.04-.41,2.78-1.15l22.74-22.74c1.53-1.53,1.53-4.02,0-5.56l-8.74-8.74c2.79-4.99,4.99-10.26,6.54-15.74h12.34c2.17,0,3.93-1.76,3.93-3.93v-32.16c0-2.17-1.76-3.93-3.93-3.93h-12.34c-1.56-5.48-3.75-10.76-6.54-15.74l8.74-8.74c.74-.74,1.15-1.74,1.15-2.78s-.41-2.04-1.15-2.78l-22.74-22.74c-1.54-1.53-4.02-1.53-5.56,0l-8.74,8.74c-4.99-2.79-10.26-4.99-15.74-6.54V15.33c0-2.17-1.76-3.93-3.93-3.93h-32.16Zm50.4,31.08c1.55,.96,3.55,.72,4.84-.56l8.11-8.11,17.18,17.18-8.11,8.11c-1.29,1.29-1.52,3.29-.56,4.84,3.67,5.94,6.35,12.38,7.96,19.15,.42,1.77,2,3.02,3.82,3.02h11.44v24.3h-11.44c-1.82,0-3.4,1.25-3.82,3.02-1.61,6.76-4.29,13.21-7.96,19.15-.96,1.55-.72,3.56,.56,4.84l8.11,8.11-17.18,17.18-8.11-8.11c-1.29-1.29-3.29-1.52-4.84-.56-5.94,3.67-12.38,6.35-19.15,7.96-1.77,.42-3.02,2-3.02,3.82v11.44h-24.3v-11.44c0-1.82-1.25-3.4-3.02-3.82-3-.71-5.93-1.64-8.79-2.76-1.62-.64-3.22-1.35-4.79-2.12-1.9-.93-3.76-1.96-5.57-3.08-1.55-.96-3.56-.72-4.84,.56l-1.03,1.03-3.35,3.35-3.72,3.72-17.18-17.18,8.11-8.11c1.29-1.29,1.52-3.29,.56-4.84-.31-.51-.61-1.02-.91-1.53-.59-1.02-1.16-2.06-1.7-3.11-.94-1.85-1.8-3.74-2.56-5.67-.46-1.15-.88-2.32-1.27-3.5-.58-1.76-1.09-3.54-1.52-5.34-.42-1.77-2-3.02-3.82-3.02h-11.44v-24.3h11.44c1.82,0,3.4-1.25,3.82-3.02,.3-1.25,.63-2.48,1-3.71,.43-1.43,.91-2.85,1.44-4.25,1.47-3.89,3.31-7.63,5.51-11.19,.96-1.55,.72-3.56-.56-4.84l-8.11-8.11,1.08-1.08,2.75-2.75,4.57-4.57,2.81-2.81,4.64-4.64,1.33-1.33,.58,.58,3.75,3.75,3.7,3.7,.08,.08c1.29,1.29,3.29,1.52,4.84,.56,1.77-1.09,3.58-2.09,5.43-3.01,1.28-.63,2.57-1.22,3.88-1.76,3.19-1.32,6.47-2.39,9.84-3.19,1.77-.42,3.02-2,3.02-3.82v-11.44h24.3v11.44c0,1.82,1.25,3.4,3.02,3.82,6.76,1.61,13.21,4.29,19.15,7.96Z"/>
  <path class="cls-1" d="M81.56,60.08c-1.46,.66-2.87,1.41-4.23,2.23-5.11,3.07-9.51,7.2-12.91,12.08-.65,.93-1.26,1.89-1.83,2.88-1.02,1.75-1.91,3.59-2.67,5.49-.53,1.31-.99,2.66-1.38,4.04-.89,3.12-1.42,6.39-1.56,9.76-.02,.57-.04,1.14-.04,1.71,0,1.11,.04,2.21,.13,3.3,.27,3.46,.96,6.8,2.03,9.98,.35,1.05,.74,2.09,1.18,3.1,.77,1.8,1.66,3.54,2.66,5.2,.81,1.34,1.69,2.63,2.63,3.86,1.33,1.74,2.79,3.37,4.37,4.88,.95,.91,1.94,1.77,2.97,2.59,1.54,1.22,3.16,2.32,4.86,3.32,1.47,.86,2.99,1.63,4.56,2.3,5.08,2.19,10.67,3.41,16.55,3.41h0c23.12,0,41.93-18.81,41.93-41.93s-18.81-41.93-41.93-41.93h0c-6.17,0-12.03,1.34-17.31,3.74Zm51.39,38.19c0,18.79-15.28,34.07-34.07,34.07s-34.07-15.28-34.07-34.07,15.28-34.07,34.07-34.07,34.07,15.28,34.07,34.07Z"/>
  <path class="cls-1" d="M233.53,242.83c-.53-.9-1.39-1.55-2.4-1.82l-7.92-2.07c-.13-3.69-.64-7.36-1.52-10.96l7.08-4.14c.9-.53,1.55-1.39,1.82-2.4,.26-1.01,.12-2.08-.41-2.98l-11.83-20.22c-.53-.9-1.39-1.55-2.4-1.82-1.01-.26-2.08-.12-2.98,.41l-7.08,4.14c-2.7-2.53-5.65-4.77-8.81-6.69l2.07-7.92c.26-1.01,.12-2.08-.41-2.98-.53-.9-1.39-1.55-2.4-1.82l-22.67-5.93c-1.01-.26-2.08-.12-2.98,.41-.9,.53-1.55,1.39-1.82,2.4l-2.07,7.92c-3.69,.13-7.36,.64-10.96,1.52l-4.14-7.08c-1.1-1.87-3.5-2.5-5.38-1.41l-20.22,11.83c-.9,.53-1.55,1.39-1.82,2.4-.26,1.01-.12,2.08,.41,2.98l4.14,7.08c-2.53,2.7-4.77,5.65-6.69,8.81l-7.92-2.07c-1.01-.26-2.08-.12-2.98,.41-.9,.53-1.55,1.39-1.82,2.4l-5.93,22.67c-.55,2.1,.71,4.25,2.81,4.8l7.92,2.07c.13,3.69,.64,7.36,1.52,10.96l-7.08,4.14c-.9,.53-1.55,1.39-1.82,2.4-.26,1.01-.12,2.08,.41,2.98l11.83,20.22c.53,.9,1.39,1.55,2.4,1.82,1.01,.26,2.08,.12,2.98-.41l7.08-4.14c2.7,2.53,5.65,4.77,8.81,6.69l-2.07,7.92c-.26,1.01-.12,2.08,.41,2.98,.53,.9,1.39,1.55,2.4,1.82l22.67,5.93c.33,.09,.67,.13,1,.13,1.74,0,3.34-1.17,3.8-2.94l2.07-7.92c3.69-.13,7.36-.64,10.96-1.52l4.14,7.08c1.1,1.87,3.5,2.5,5.38,1.41l20.22-11.83c.9-.53,1.55-1.39,1.82-2.4,.26-1.01,.12-2.08-.41-2.98l-4.14-7.08c2.53-2.7,4.77-5.65,6.69-8.81l7.92,2.07c1.01,.26,2.08,.12,2.98-.41,.9-.53,1.55-1.39,1.82-2.4l5.93-22.67c.26-1.01,.12-2.08-.41-2.98Zm-12.13,19.85l-7.03-1.84c-1.76-.46-3.61,.35-4.46,1.95-2.13,3.99-4.83,7.63-8.02,10.85-.29,.29-.58,.59-.88,.87-.01,.01-.02,.02-.03,.03-1.22,1.17-1.55,2.97-.86,4.48,.05,.12,.11,.23,.18,.35l3.68,6.29-5.7,3.33-.37,.22-7.37,4.31-3.68-6.29c-.92-1.57-2.8-2.31-4.54-1.77-4.75,1.45-9.67,2.14-14.63,2.03-1.81-.04-3.43,1.17-3.89,2.93l-1.49,5.7-.35,1.33-1.48-.39-13.58-3.56,1.84-7.03s.01-.07,.02-.1c.41-1.73-.4-3.53-1.97-4.37-.15-.08-.3-.17-.46-.25-1.64-.9-3.22-1.89-4.73-2.98-1.3-.93-2.55-1.92-3.74-2.98-.98-.87-1.92-1.77-2.82-2.72-1.26-1.32-3.26-1.6-4.83-.68l-3.29,1.93-3,1.75-.53-.9-2.82-4.83-2.2-3.76-2.31-3.95,6.29-3.68c1.57-.92,2.31-2.8,1.77-4.54-1.46-4.75-2.14-9.67-2.03-14.63,.04-1.82-1.17-3.43-2.93-3.89l-6.64-1.74-.39-.1,.86-3.27,3.09-11.79,7.03,1.84c1.52,.4,3.09-.15,4.05-1.33,.16-.19,.3-.4,.42-.62,.17-.33,.36-.65,.54-.97,1.08-1.91,2.29-3.74,3.62-5.48,1.04-1.35,2.15-2.65,3.34-3.88,.29-.3,.58-.59,.88-.88,.18-.18,.36-.37,.55-.55,1.32-1.26,1.6-3.26,.68-4.83l-3.68-6.29,13.44-7.86,3.68,6.29c.92,1.57,2.8,2.31,4.54,1.77,4.75-1.45,9.66-2.14,14.63-2.03,1.8,.03,3.43-1.17,3.89-2.93l1.84-7.03,15.06,3.94-1.84,7.03c-.46,1.76,.35,3.61,1.95,4.46,4.37,2.33,8.33,5.34,11.76,8.93,1.26,1.32,3.26,1.6,4.83,.68l6.29-3.68,7.86,13.44-6.29,3.68c-1.57,.92-2.31,2.8-1.77,4.54,1.46,4.75,2.14,9.67,2.03,14.63-.04,1.82,1.17,3.43,2.93,3.89l7.03,1.84-3.94,15.06Z"/>
  <path class="cls-1" d="M139.02,230.05c-.33,.91-.63,1.84-.88,2.8-.05,.19-.09,.38-.13,.57-1.1,4.54-1.18,9.18-.28,13.65,0,0,0,0,0,0,0,0,0,0,0,0,.06,.31,.13,.63,.2,.94,.72,3.05,1.89,6.01,3.52,8.79,4.27,7.3,11.11,12.49,19.27,14.63,.23,.06,.47,.12,.71,.17,.34,.08,.68,.16,1.03,.23,2.07,.42,4.17,.63,6.27,.63,2.54,0,5.03-.31,7.42-.89,1.14-.28,2.27-.61,3.36-1.01,4.45-1.62,8.46-4.21,11.75-7.55,3.78-3.84,6.62-8.67,8.06-14.16,4.41-16.86-5.71-34.18-22.58-38.59-2.62-.69-5.31-1.03-8-1.03-8.52,0-16.41,3.41-22.18,9.09-3.3,3.24-5.9,7.22-7.53,11.73Zm29.71-12.95c2.02,0,4.04,.26,6.01,.78,12.67,3.32,20.28,16.32,16.96,29-2.73,10.45-12.19,17.74-22.99,17.74-2.02,0-4.04-.26-6.01-.78-6.13-1.6-11.27-5.51-14.48-10.99-3.21-5.48-4.09-11.88-2.49-18.01,2.73-10.45,12.19-17.74,22.99-17.74Z"/>
</svg>