<?xml version="1.0" encoding="UTF-8"?>
<svg id="Layer_1" data-name="Layer 1" xmlns="http://www.w3.org/2000/svg" viewBox="0 0 78.16 98.88">
  <defs>
    <style>
      .cls-1 {
        fill: #4a6788;
      }
    </style>
  </defs>
  <path class="cls-1" d="M18.97,16.36h-6.64c-2.46,0-4.47,2-4.47,4.47V86.41c0,2.46,2,4.47,4.47,4.47h52.29c2.46,0,4.47-2,4.47-4.47V20.83c0-2.46-2-4.47-4.47-4.47h-6.64c-.12-2.46-2.04-4.42-4.39-4.42h-4.3c-.56-3.2-3.36-5.64-6.72-5.64h-7.23c-3.36,0-6.16,2.44-6.72,5.64h-5.28c-2.35,0-4.26,1.96-4.39,4.42Zm38.82,6.84h3.24v57.92H15.85V23.21h3.32c.57,1.88,2.23,3.25,4.19,3.25h30.24c1.96,0,3.62-1.37,4.19-3.25Zm8.1-2.38V86.41c0,.7-.57,1.26-1.26,1.26H12.33c-.7,0-1.26-.57-1.26-1.26V20.83c0-.7,.57-1.26,1.26-1.26h6.63v.44h-4.71c-.88,0-1.6,.72-1.6,1.6v61.12c0,.88,.72,1.6,1.6,1.6H62.63c.88,0,1.6-.72,1.6-1.6V21.6c0-.88-.72-1.6-1.6-1.6h-4.63v-.44h6.63c.7,0,1.26,.57,1.26,1.26Zm-43.73-4.22c0-.81,.54-1.46,1.2-1.46h6.78c.88,0,1.6-.72,1.6-1.6v-.42c0-1.99,1.62-3.62,3.62-3.62h7.23c1.99,0,3.62,1.62,3.62,3.62v.42s0,0,0,0c0,.89,.72,1.6,1.6,1.6h5.8c.66,0,1.2,.66,1.2,1.46v1.35s0,0,0,0c0,0,0,0,0,0v3.82c0,.81-.54,1.46-1.2,1.46H23.36c-.66,0-1.2-.66-1.2-1.46v-5.17Z"/>
  <path class="cls-1" d="M38.17,19.17c2.58,0,4.68-2.1,4.68-4.68s-2.1-4.68-4.68-4.68-4.68,2.1-4.68,4.68,2.1,4.68,4.68,4.68Zm0-6.16c.81,0,1.48,.66,1.48,1.48s-.66,1.48-1.48,1.48-1.48-.66-1.48-1.48,.66-1.48,1.48-1.48Z"/>
  <path class="cls-1" d="M18.44,35.24c0,.88,.72,1.6,1.6,1.6H56.18c.88,0,1.6-.72,1.6-1.6s-.72-1.6-1.6-1.6H20.04c-.88,0-1.6,.72-1.6,1.6Z"/>
  <path class="cls-1" d="M41.7,44.75H20.04c-.88,0-1.6,.72-1.6,1.6s.72,1.6,1.6,1.6h21.66c.88,0,1.6-.72,1.6-1.6s-.72-1.6-1.6-1.6Z"/>
  <path class="cls-1" d="M41.7,56.93H20.04c-.88,0-1.6,.72-1.6,1.6s.72,1.6,1.6,1.6h21.66c.88,0,1.6-.72,1.6-1.6s-.72-1.6-1.6-1.6Z"/>
  <path class="cls-1" d="M41.7,69.11H20.04c-.88,0-1.6,.72-1.6,1.6s.72,1.6,1.6,1.6h21.66c.88,0,1.6-.72,1.6-1.6s-.72-1.6-1.6-1.6Z"/>
  <path class="cls-1" d="M53.66,41.18l-4.06,4.25-1.12-1.52c-.52-.71-1.53-.86-2.24-.34-.71,.52-.86,1.53-.34,2.24l2.25,3.05c.28,.38,.71,.62,1.19,.65,.03,0,.07,0,.1,0,.44,0,.85-.18,1.16-.49l5.38-5.62c.61-.64,.59-1.65-.05-2.26-.64-.61-1.65-.59-2.26,.05Z"/>
  <path class="cls-1" d="M53.66,53.89l-4.06,4.25-1.12-1.52c-.52-.71-1.53-.86-2.24-.34-.71,.52-.86,1.53-.34,2.24l2.25,3.05c.28,.38,.71,.62,1.19,.65,.03,0,.07,0,.1,0,.44,0,.85-.18,1.16-.49l5.38-5.62c.61-.64,.59-1.65-.05-2.26-.64-.61-1.65-.59-2.26,.05Z"/>
  <path class="cls-1" d="M53.66,66.6l-4.06,4.25-1.12-1.52c-.52-.71-1.53-.86-2.24-.34-.71,.52-.86,1.53-.34,2.24l2.25,3.05c.28,.38,.71,.62,1.19,.65,.03,0,.07,0,.1,0,.44,0,.85-.18,1.16-.49l5.38-5.62c.61-.64,.59-1.65-.05-2.26-.64-.61-1.65-.59-2.26,.05Z"/>
</svg>