<?xml version="1.0" encoding="UTF-8"?>
<svg id="Illustration" xmlns="http://www.w3.org/2000/svg" xmlns:xlink="http://www.w3.org/1999/xlink" viewBox="0 0 3710 3710">
  <defs>
    <style>
      .cls-1 {
        fill: url(#linear-gradient-2);
      }

      .cls-2 {
        opacity: .45;
      }

      .cls-2, .cls-3, .cls-4 {
        fill: #fff;
      }

      .cls-5 {
        fill: url(#linear-gradient-17);
      }

      .cls-6 {
        fill: #248f59;
      }

      .cls-7 {
        fill: url(#linear-gradient-15);
      }

      .cls-8 {
        fill: url(#linear-gradient-18);
      }

      .cls-9 {
        fill: url(#linear-gradient-28);
      }

      .cls-10 {
        fill: url(#linear-gradient-14);
      }

      .cls-11 {
        fill: url(#linear-gradient-20);
      }

      .cls-12 {
        fill: url(#linear-gradient-6);
      }

      .cls-13 {
        fill: url(#linear-gradient-11);
      }

      .cls-14 {
        fill: #40bf80;
      }

      .cls-15 {
        fill: url(#linear-gradient-10);
      }

      .cls-16 {
        fill: #91b3fa;
      }

      .cls-3 {
        opacity: .7;
      }

      .cls-17 {
        fill: url(#linear-gradient-16);
      }

      .cls-18 {
        fill: url(#linear-gradient-31);
      }

      .cls-19 {
        fill: #7d97f4;
      }

      .cls-20 {
        fill: url(#linear-gradient-21);
      }

      .cls-21 {
        fill: url(#linear-gradient-25);
      }

      .cls-22 {
        fill: url(#linear-gradient-5);
      }

      .cls-23 {
        fill: url(#linear-gradient-7);
      }

      .cls-24 {
        fill: url(#linear-gradient-24);
      }

      .cls-25 {
        fill: url(#linear-gradient-9);
      }

      .cls-26 {
        fill: url(#linear-gradient-22);
      }

      .cls-27 {
        fill: url(#linear-gradient-3);
      }

      .cls-28 {
        fill: #f7e057;
      }

      .cls-29 {
        fill: url(#linear-gradient);
      }

      .cls-4 {
        opacity: .78;
      }

      .cls-30 {
        fill: url(#linear-gradient-27);
      }

      .cls-31 {
        fill: url(#linear-gradient-29);
      }

      .cls-32 {
        fill: url(#linear-gradient-30);
      }

      .cls-33 {
        fill: #bdd0fb;
      }

      .cls-34 {
        fill: url(#linear-gradient-23);
      }

      .cls-35 {
        fill: url(#linear-gradient-19);
      }

      .cls-36 {
        fill: url(#linear-gradient-4);
      }

      .cls-37 {
        fill: url(#linear-gradient-8);
      }

      .cls-38 {
        opacity: .71;
      }

      .cls-39 {
        fill: url(#linear-gradient-12);
      }

      .cls-40 {
        fill: url(#linear-gradient-13);
      }

      .cls-41 {
        fill: url(#linear-gradient-26);
      }
    </style>
    <linearGradient id="linear-gradient" x1="3400.92" y1="3616.22" x2="1379.7" y2="1434.58" gradientUnits="userSpaceOnUse">
      <stop offset="0" stop-color="#dae3fe"/>
      <stop offset="1" stop-color="#e9effd"/>
    </linearGradient>
    <linearGradient id="linear-gradient-2" x1="2585.05" y1="-1688.81" x2="2137.51" y2="-746.26" gradientUnits="userSpaceOnUse">
      <stop offset="0" stop-color="#09005d"/>
      <stop offset="1" stop-color="#1a0f91"/>
    </linearGradient>
    <linearGradient id="linear-gradient-3" x1="3907.2" y1="-1061.04" x2="3459.65" y2="-118.48" xlink:href="#linear-gradient-2"/>
    <linearGradient id="linear-gradient-4" x1="-4986.9" y1="2373.74" x2="-4827.92" y2="2373.74" gradientTransform="translate(5585.36)" gradientUnits="userSpaceOnUse">
      <stop offset="0" stop-color="#febbba"/>
      <stop offset="1" stop-color="#ff928e"/>
    </linearGradient>
    <linearGradient id="linear-gradient-5" x1="962.05" y1="2844.22" x2="768.04" y2="3331.55" xlink:href="#linear-gradient-2"/>
    <linearGradient id="linear-gradient-6" x1="-4793.9" y1="3055.95" x2="-4816.67" y2="3254.69" xlink:href="#linear-gradient-4"/>
    <linearGradient id="linear-gradient-7" x1="1143.11" y1="2916.3" x2="949.1" y2="3403.63" xlink:href="#linear-gradient-2"/>
    <linearGradient id="linear-gradient-8" x1="-4608.41" y1="3077.21" x2="-4631.18" y2="3275.94" xlink:href="#linear-gradient-4"/>
    <linearGradient id="linear-gradient-9" x1="536.46" y1="2172.84" x2="1036.14" y2="2172.84" gradientUnits="userSpaceOnUse">
      <stop offset="0" stop-color="#ff928e"/>
      <stop offset="1" stop-color="#fe7062"/>
    </linearGradient>
    <linearGradient id="linear-gradient-10" x1="-4743.59" y1="1785.5" x2="-4830.54" y2="2161.23" xlink:href="#linear-gradient-4"/>
    <linearGradient id="linear-gradient-11" x1="965.72" y1="1676.67" x2="1298.04" y2="1434.55" gradientTransform="matrix(1, 0, 0, 1, 0, 0)" xlink:href="#linear-gradient-4"/>
    <linearGradient id="linear-gradient-12" x1="-4592.2" y1="-4129.33" x2="-4407.94" y2="-4129.33" gradientTransform="translate(6936.36 1318.79) rotate(-46.73)" xlink:href="#linear-gradient-2"/>
    <linearGradient id="linear-gradient-13" x1="-4700.31" y1="-4016.73" x2="-4576.59" y2="-4143.67" gradientTransform="translate(6936.36 1318.79) rotate(-46.73)" xlink:href="#linear-gradient-4"/>
    <linearGradient id="linear-gradient-14" x1="-4816.81" y1="1856.29" x2="-4996.8" y2="2186.96" gradientTransform="translate(5585.36)" gradientUnits="userSpaceOnUse">
      <stop offset="0" stop-color="#e1473d"/>
      <stop offset="1" stop-color="#e9605a"/>
    </linearGradient>
    <linearGradient id="linear-gradient-15" x1="-4746.3" y1="2471.89" x2="-4807.37" y2="2580.57" gradientTransform="translate(5585.36)" xlink:href="#linear-gradient-2"/>
    <linearGradient id="linear-gradient-16" x1="864.33" y1="2033.85" x2="1259.78" y2="2033.85" xlink:href="#linear-gradient-9"/>
    <linearGradient id="linear-gradient-17" x1="-4828.5" y1="1776.32" x2="-5360.56" y2="2457.05" gradientTransform="translate(6353.13)" xlink:href="#linear-gradient-9"/>
    <linearGradient id="linear-gradient-18" x1="-4757.29" y1="1831.97" x2="-5289.36" y2="2512.7" gradientTransform="translate(6353.13)" xlink:href="#linear-gradient-4"/>
    <linearGradient id="linear-gradient-19" x1="2734.92" y1="2190.19" x2="2545.94" y2="2190.19" gradientTransform="matrix(1, 0, 0, 1, 0, 0)" xlink:href="#linear-gradient-4"/>
    <linearGradient id="linear-gradient-20" x1="-416.84" y1="3156.51" x2="-366.51" y2="3156.51" gradientTransform="translate(2378.3) rotate(-180) scale(1 -1)" xlink:href="#linear-gradient-4"/>
    <linearGradient id="linear-gradient-21" x1="-473.71" y1="3348.01" x2="-439.36" y2="2426.31" gradientTransform="translate(2378.3) rotate(-180) scale(1 -1)" xlink:href="#linear-gradient-2"/>
    <linearGradient id="linear-gradient-22" x1="-598.23" y1="3153.93" x2="-554.77" y2="3153.93" gradientTransform="translate(2378.3) rotate(-180) scale(1 -1)" xlink:href="#linear-gradient-4"/>
    <linearGradient id="linear-gradient-23" x1="-558.66" y1="3344.85" x2="-524.31" y2="2423.15" gradientTransform="translate(2378.3) rotate(-180) scale(1 -1)" xlink:href="#linear-gradient-2"/>
    <linearGradient id="linear-gradient-24" x1="-761.57" y1="2207.7" x2="-436.19" y2="2207.7" gradientTransform="translate(2378.3) rotate(-180) scale(1 -1)" xlink:href="#linear-gradient-4"/>
    <linearGradient id="linear-gradient-25" x1="2790.02" y1="1888.73" x2="2648.26" y2="2221.32" xlink:href="#linear-gradient-2"/>
    <linearGradient id="linear-gradient-26" x1="-460.35" y1="2173.59" x2="-358.97" y2="2173.59" gradientTransform="translate(2378.3) rotate(-180) scale(1 -1)" xlink:href="#linear-gradient-4"/>
    <linearGradient id="linear-gradient-27" x1="2018.76" y1="2766.51" x2="2120.14" y2="2766.51" gradientTransform="translate(-661.62 848.1) rotate(-32.09)" xlink:href="#linear-gradient-4"/>
    <linearGradient id="linear-gradient-28" x1="-506.32" y1="1869.9" x2="-377.67" y2="1869.9" gradientTransform="translate(2378.3) rotate(-180) scale(1 -1)" xlink:href="#linear-gradient-4"/>
    <linearGradient id="linear-gradient-29" x1="-5809.02" y1="-1711.79" x2="-5857.09" y2="-1870.35" gradientTransform="translate(-2748.04 -803.17) rotate(-138.25) scale(1 -1)" xlink:href="#linear-gradient-4"/>
    <linearGradient id="linear-gradient-30" x1="-5852.39" y1="-1988.06" x2="-5812.18" y2="-1758.69" gradientTransform="translate(-2748.04 -803.17) rotate(-138.25) scale(1 -1)" xlink:href="#linear-gradient-2"/>
    <linearGradient id="linear-gradient-31" x1="-5858.16" y1="-1712.53" x2="-5901.42" y2="-1855.19" gradientTransform="translate(-2748.04 -803.17) rotate(-138.25) scale(1 -1)" xlink:href="#linear-gradient-4"/>
  </defs>
  <path class="cls-29" d="M3124.09,2371.23c-278.83,646.94-1014.84,924.82-1591.52,877.44-157.46-12.94-474.26-38.96-721.63-271.17-475.05-445.94-401.88-1378.07,52.87-1926.87,58.56-70.67,463.93-544.17,1095.61-537.84,462.49,4.64,787.1,263.97,826.57,296.28,49.86,40.81,159.84,137.8,258.96,291.66,232.89,361.52,253.36,866.21,79.12,1270.49Z"/>
  <g class="cls-38">
    <path class="cls-33" d="M2031.21,3015.82s20.69-229.99,268.66-447.16c230.08-201.49,793.46-665.49,934.44-934.18,6.24-11.9,24.22-7.02,23.43,6.4-8.44,143.94-57.91,502.78-331.15,844.08-352.35,440.12-895.39,530.86-895.39,530.86Z"/>
    <path class="cls-2" d="M3132.66,1886.2c-6.28,31.28-16.44,61.67-28.21,91.3-1.45,3.72-2.83,7.46-4.34,11.16l-4.75,10.98-9.53,21.97-10.44,21.55c-3.55,7.15-6.79,14.47-10.77,21.39-29.93,56.42-64.49,110.48-103.57,161.08-9.26,13.06-19.83,25.06-29.94,37.44l-15.29,18.47c-2.59,3.04-5.01,6.24-7.74,9.16l-8.08,8.85-32.34,35.41c-5.26,6.03-11.13,11.46-16.78,17.12l-17.07,16.84-17.07,16.84-8.56,8.39-8.93,7.99-35.75,31.95c-5.99,5.27-11.84,10.76-17.96,15.86l-18.35,15.32-36.69,30.63-37.04,30.22c-12.38,10.03-24.66,20.19-37.18,30.04-24.91,19.88-49.93,39.61-75.16,59.05-25.11,19.61-50.53,38.8-75.85,58.13l-76.53,57.18c-51.04,38.05-102.14,75.99-151.86,115.55-12.57,9.73-24.63,20.04-36.87,30.16-6.19,4.99-12.01,10.37-17.96,15.62-5.89,5.31-11.94,10.46-17.71,15.9-11.3,11.1-23.03,21.82-33.53,33.69l-8.1,8.7c-1.33,1.47-2.75,2.86-4,4.39l-3.74,4.61-14.97,18.46-.06,.07c-.6,.74-1.68,.85-2.42,.25-.71-.58-.84-1.61-.31-2.35,18.71-25.97,40.14-49.84,62.93-72.24,5.69-5.61,11.64-10.92,17.46-16.4,5.87-5.42,11.62-10.98,17.71-16.12,12.06-10.44,23.97-21.1,36.35-31.14l18.42-15.27c6.18-5.04,12.47-9.93,18.7-14.9l18.74-14.85,18.87-14.66c25.13-19.59,50.47-38.86,75.73-58.25,50.53-38.73,101.06-77.41,151.14-116.64,50.13-39.17,99.62-79.12,148.78-119.47l36.6-30.59,18.3-15.29c6.11-5.09,11.92-10.46,17.89-15.68l35.62-31.51,8.91-7.88,8.53-8.28,17.01-16.61c45.94-43.72,88.09-91.27,127.66-140.76,39.78-49.39,75.15-102.32,106.02-157.74,4.1-6.8,7.44-14,11.23-20.98l11.06-21.08,10.17-21.53,5.08-10.77c1.62-3.62,3.11-7.3,4.67-10.95,3.04-7.33,6.3-14.58,9.16-21.99l8.38-22.31c5.1-15.03,10.36-30.08,13.91-45.58,.02-.12,.13-.19,.25-.17,.11,.02,.19,.14,.17,.25Z"/>
  </g>
  <g>
    <path class="cls-16" d="M2704.83,552.44c99,261.47,614.12,1806.58-722.36,2549.48,0,0-596.17-930.07,682.46-2556.01,11.19-14.22,33.43-10.55,39.9,6.53Z"/>
    <path class="cls-2" d="M2643.51,837.56c-11.28,88.64-24.35,176.94-38.17,265.15-13.86,88.19-28.72,176.22-44.59,264.06-31.74,175.68-67.34,350.66-108.22,524.41-41.01,173.7-87.02,346.31-142.25,516.06-27.35,84.95-57.73,168.94-91.26,251.66-33.64,82.66-70.55,164.13-113.78,242.38-2.55,4.62-8.31,6.25-12.87,3.64-4.55-2.61-6.17-8.48-3.62-13.1l.02-.04,.02-.04c43.11-77.1,80.17-157.77,114.03-239.74,33.74-82.05,64.43-165.5,92.11-250.02,55.9-168.86,102.69-340.87,144.52-514.06,41.7-173.25,78.15-347.84,110.75-523.18,16.3-87.67,31.6-175.54,45.89-263.59,14.25-88.04,27.77-176.26,39.47-264.64v-.04c.3-2.23,2.32-3.79,4.51-3.48,2.18,.31,3.72,2.35,3.44,4.57Z"/>
  </g>
  <polygon class="cls-14" points="2007.52 3157.38 1764.58 3157.38 1873.7 455 1888.78 456.9 2007.52 3157.38"/>
  <rect class="cls-14" x="1315.5" y="2839.02" width="1137.77" height="114.03"/>
  <rect class="cls-14" x="1218.86" y="2953.05" width="1339.84" height="114.03"/>
  <rect class="cls-14" x="1113.43" y="3067.08" width="1541.92" height="114.03"/>
  <rect class="cls-14" x="1029" y="840.19" width="1802.27" height="45.21"/>
  <polygon class="cls-1" points="508.9 1678.45 494.78 1669.07 1059.74 818.86 1486.13 1669.96 1470.97 1677.56 1057.68 852.6 508.9 1678.45"/>
  <circle class="cls-14" cx="1043.28" cy="854.4" r="59.95" transform="translate(-27.96 1673.48) rotate(-76.72)"/>
  <polygon class="cls-27" points="2256.16 1410.98 2244.21 1398.96 2807.95 838.9 3233.65 1399.85 3220.14 1410.1 2806.16 864.58 2256.16 1410.98"/>
  <circle class="cls-14" cx="1871.7" cy="868.64" r="173.43"/>
  <circle class="cls-14" cx="2792.51" cy="858.07" r="59.95" transform="translate(211.16 2225.93) rotate(-45)"/>
  <g>
    <circle class="cls-28" cx="2738" cy="1292.7" r="297.61" transform="translate(-112.14 2314.68) rotate(-45)"/>
    <circle class="cls-28" cx="2738" cy="1292.7" r="287.72" transform="translate(-112.14 2314.68) rotate(-45)"/>
    <path class="cls-3" d="M2499.65,1185.2c-1.46,.02-2.94-.3-4.34-.99-4.77-2.35-6.73-8.12-4.38-12.88,46.19-93.84,139.8-152.78,244.3-153.83,16.68-.17,33.39,1.17,49.68,3.96,5.23,.9,8.75,5.87,7.85,11.1-.9,5.24-5.85,8.8-11.11,7.85-15.15-2.59-30.71-3.84-46.23-3.68-97.2,.98-184.27,55.8-227.23,143.08-1.66,3.37-5.03,5.34-8.54,5.38Z"/>
    <circle class="cls-4" cx="2744.33" cy="1298.91" r="243.52" transform="translate(-114.67 2320.98) rotate(-45)"/>
    <path class="cls-28" d="M2722.26,1480.17l-.27-26.49c-27.63-.83-55.01-7.07-74.5-15.37-6.96-2.96-10.57-10.7-8.65-18.02l6.48-24.75c2.38-9.08,12.18-13.86,20.87-10.32,19.33,7.88,43.15,14.02,68.78,13.76,26.6-.27,46.35-9.48,46.16-27.97-.17-16.68-15.6-26.44-52.67-35.99-52.89-13.9-91-36.51-91.46-82.95-.42-41.93,29.92-74.25,83.03-83.35l-.27-26.49c-.09-8.52,6.76-15.51,15.28-15.59l15.57-.16c8.52-.09,15.51,6.76,15.59,15.28l.24,23.79c25.57,.77,44.21,4.95,59.03,9.99,7.59,2.58,11.81,10.69,9.78,18.45l-5.96,22.88c-2.3,8.82-11.66,13.74-20.22,10.6-13.64-5-32.91-10.16-57.89-9.91-31.56,.32-40.45,13.48-40.33,25.2,.15,14.43,19.18,24.15,60.33,36.37,58.79,16.99,83.38,41.09,83.82,84.83,.4,40.13-28.99,76.49-86.61,86.09l.3,29.65c.09,8.53-6.76,15.5-15.28,15.59l-15.57,.16c-8.52,.09-15.51-6.76-15.59-15.28Z"/>
  </g>
  <g>
    <path class="cls-14" d="M2731.76,1906.89c269.71,0,488.36-218.64,488.36-488.36h-976.71c0,269.71,218.64,488.36,488.36,488.36Z"/>
    <rect class="cls-14" x="2193.32" y="1368.24" width="1064.93" height="74.37" rx="10.61" ry="10.61"/>
  </g>
  <g>
    <circle class="cls-28" cx="1048.33" cy="1165.28" r="224.39" transform="translate(-516.93 1082.58) rotate(-45)"/>
    <circle class="cls-28" cx="1048.33" cy="1165.28" r="216.92" transform="translate(-516.93 1082.58) rotate(-45)"/>
    <path class="cls-3" d="M876.79,1066.65c-.83-.07-1.67-.32-2.43-.79-2.61-1.59-3.43-4.99-1.84-7.59,40.71-66.76,114.39-104.35,192.28-98.1,12.41,1,24.77,3.12,36.73,6.3,2.95,.78,4.7,3.81,3.92,6.76-.79,2.95-3.79,4.75-6.76,3.92-11.32-3.01-23.02-5.02-34.77-5.96-73.7-5.92-143.43,29.65-181.95,92.83-1.12,1.84-3.15,2.8-5.17,2.63Z"/>
    <circle class="cls-4" cx="1052.66" cy="1170.37" r="183.6" transform="translate(-519.26 1087.14) rotate(-45)"/>
    <path class="cls-28" d="M1023.78,1304.98l1.6-19.91c-20.69-2.5-40.83-9.05-54.9-16.6-5.02-2.7-7.21-8.75-5.27-14.12l6.55-18.14c2.4-6.65,10.08-9.58,16.37-6.33,13.98,7.23,31.45,13.46,50.71,15,19.99,1.61,35.45-3.98,36.56-17.87,1.01-12.54-9.91-20.92-37.1-30.6-38.77-14.03-65.85-33.6-63.05-68.5,2.53-31.51,27.51-53.72,68.01-56.95l1.6-19.91c.51-6.41,6.13-11.18,12.53-10.67l11.7,.94c6.41,.51,11.18,6.13,10.67,12.53l-1.44,17.88c19.14,2.31,32.86,6.72,43.64,11.51,5.52,2.45,8.14,8.83,6.09,14.51l-6.03,16.78c-2.32,6.47-9.68,9.53-15.9,6.59-9.91-4.68-24.02-9.87-42.8-11.37-23.72-1.9-31.28,7.38-31.99,16.19-.87,10.84,12.76,19.44,42.83,31.4,42.99,16.75,59.82,36.52,57.18,69.39-2.42,30.16-26.96,55.47-70.88,58.76l-1.79,22.28c-.51,6.41-6.12,11.18-12.53,10.67l-11.7-.94c-6.41-.51-11.18-6.13-10.67-12.53Z"/>
  </g>
  <g>
    <circle class="cls-28" cx="796.99" cy="1462.56" r="272.66" transform="translate(-800.75 991.93) rotate(-45)"/>
    <circle class="cls-28" cx="796.99" cy="1462.56" r="263.6" transform="translate(-800.75 991.93) rotate(-45)"/>
    <path class="cls-3" d="M572.79,1373.76c-.76,.05-1.55-.06-2.31-.38-2.58-1.08-3.8-4.05-2.71-6.62,36.47-87.07,117.57-145.3,211.66-151.97,15.01-1.06,30.15-.78,44.98,.86,2.78,.3,4.79,2.8,4.48,5.59-.31,2.78-2.8,4.81-5.59,4.48-14.23-1.56-28.75-1.84-43.16-.82-90.25,6.4-168.05,62.26-203.03,145.78-.76,1.82-2.47,2.97-4.32,3.1Z"/>
    <circle class="cls-4" cx="803.13" cy="1467.88" r="223.1" transform="translate(-802.72 997.83) rotate(-45)"/>
    <path class="cls-28" d="M793.02,1634.87l-1.72-24.21c-25.31,.78-50.7-3.41-68.98-9.91-6.53-2.32-10.26-9.2-8.91-16l4.55-22.99c1.67-8.43,10.36-13.35,18.51-10.6,18.11,6.13,40.24,10.42,63.66,8.76,24.31-1.72,41.86-11.25,40.66-28.15-1.08-15.24-15.73-23.31-50.16-29.98-49.14-9.77-85.25-28.33-88.26-70.77-2.72-38.32,23.23-69.56,71.29-80.84l-1.72-24.21c-.55-7.79,5.32-14.56,13.11-15.11l14.23-1.01c7.79-.55,14.56,5.32,15.11,13.11l1.54,21.74c23.42-.72,40.7,2.07,54.53,5.85,7.09,1.94,11.39,9.12,9.97,16.32l-4.18,21.26c-1.61,8.2-9.89,13.21-17.9,10.82-12.75-3.82-30.66-7.46-53.49-5.84-28.84,2.05-36.23,14.58-35.47,25.29,.94,13.18,18.88,21.02,57.2,29.9,54.71,12.27,78.53,32.94,81.37,72.91,2.6,36.67-22.26,71.56-74.41,83.55l1.92,27.1c.55,7.79-5.32,14.56-13.11,15.11l-14.23,1.01c-7.79,.55-14.55-5.32-15.11-13.11Z"/>
  </g>
  <circle class="cls-28" cx="1212.74" cy="1495.62" r="280.57" transform="translate(-702.36 1295.59) rotate(-45)"/>
  <circle class="cls-28" cx="1212.74" cy="1495.62" r="271.24" transform="translate(-702.36 1295.59) rotate(-45)"/>
  <path class="cls-3" d="M990.62,1384.87c-.77-.01-1.54-.19-2.27-.58-2.48-1.3-3.44-4.36-2.14-6.83,44.96-86.04,133.14-138.63,230.14-137.26,15.48,.22,30.96,1.83,46.01,4.8,2.74,.54,4.53,3.2,3.99,5.95-.54,2.74-3.18,4.54-5.95,3.99-14.46-2.84-29.33-4.4-44.2-4.61-93.15-1.32-177.84,49.19-221.02,131.82-.91,1.75-2.71,2.75-4.56,2.72Z"/>
  <circle class="cls-4" cx="1218.57" cy="1501.61" r="229.57" transform="translate(-704.89 1301.47) rotate(-45)"/>
  <path class="cls-28" d="M1193.63,1671.94l.35-24.97c-26.02-1.41-51.68-7.92-69.86-16.18-6.49-2.95-9.72-10.33-7.74-17.18l6.67-23.17c2.45-8.5,11.79-12.78,19.9-9.25,18.04,7.86,40.35,14.2,64.51,14.54,25.08,.35,43.9-7.88,44.14-25.31,.22-15.72-14.1-25.28-48.81-35.12-49.53-14.3-84.93-36.48-84.31-80.26,.56-39.53,29.89-69.29,80.15-76.66l.35-24.98c.11-8.04,6.72-14.46,14.76-14.35l14.67,.21c8.04,.11,14.46,6.72,14.35,14.76l-.32,22.42c24.08,1.3,41.55,5.67,55.4,10.76,7.09,2.61,10.88,10.34,8.8,17.61l-6.14,21.43c-2.37,8.26-11.3,12.68-19.29,9.53-12.74-5.03-30.79-10.33-54.33-10.66-29.75-.42-38.42,11.78-38.58,22.83-.19,13.6,17.53,23.2,56.03,35.65,55.02,17.36,77.64,40.63,77.06,81.85-.53,37.82-29.06,71.43-83.58,79.16l-.39,27.95c-.11,8.04-6.72,14.46-14.76,14.35l-14.67-.21c-8.04-.11-14.46-6.72-14.35-14.76Z"/>
  <g>
    <path class="cls-14" d="M990.19,2128.21c269.71,0,488.36-218.64,488.36-488.36H501.84c0,269.71,218.64,488.36,488.36,488.36Z"/>
    <rect class="cls-14" x="451.75" y="1589.56" width="1064.93" height="74.37" rx="10.61" ry="10.61"/>
  </g>
  <path class="cls-36" d="M655.68,2291.8c-16.31,17.41-40.32,32.45-57.22,41.83,25.24,31.19,59.38,62.43,104.59,93.01l12.94,29.03,41.45-49.68s-74.38-37.02-101.76-114.19Z"/>
  <path class="cls-22" d="M877.52,3234.12c.01-.89-.05-1.79-.27-2.69-13.43-53.23-80.07-86.39-80.07-86.39l-26.41,2.07c-15.18,46.92-13.23,75.69-10.79,88.51,.07,.36,.18,.7,.27,1.05,21.78,1.95,66.62,3.22,117.27-2.55Z"/>
  <path class="cls-19" d="M760.25,3236.66c1.18,4.28,4.34,7.61,8.38,8.46,30.99,6.52,80.24,1.27,100.92-1.43,4.56-.6,7.9-4.82,7.97-9.58-50.65,5.76-95.49,4.49-117.27,2.55Z"/>
  <path class="cls-12" d="M760.15,3107.77l11.18,53.84c.82,3.94,3.85,6.9,7.52,7.24,4.49,.42,10.89,.67,17.33-.28,5.77-.85,9.79-6.71,8.76-13l-7.77-47.81h-37.03Z"/>
  <path class="cls-19" d="M991.89,3236.12c-29.16-.82-44.25-4.25-52.05-7.44-.02,2.9,0,5.85,.09,8.91,.1,3.27,2.52,5.87,5.5,5.86l160.13-1.03c5.11-.03,8.1-5.96,5.88-10.65-21,1.73-74.47,5.62-119.56,4.35Z"/>
  <path class="cls-23" d="M1111.44,3231.77c-.19-.41-.36-.82-.63-1.21-14.14-19.76-50.16-59.11-121.34-76.17l-34.14-1.08s-15.2,26.43-15.49,75.38c7.8,3.19,22.88,6.62,52.05,7.44,45.08,1.26,98.56-2.62,119.56-4.35Z"/>
  <path class="cls-37" d="M949,3101.56c.38,2.55,5.06,41.23,6.87,56.22,.43,3.56,3.01,6.32,6.27,6.71,5.81,.69,15.22,1.33,23.45-.36,4.44-.91,7.65-5.18,7.65-10.14v-60.72l-44.25,8.28Z"/>
  <path class="cls-14" d="M921.6,2395.64s82.35,312.97,80.86,706.82c-.03,7.18-5.07,13.38-12.1,14.86-10.35,2.18-25.57,4.77-38.18,4.42-6.73-.19-12.35-5.18-13.48-11.81-11.55-67.72-77.81-449.2-115.57-511.13,0,0-24.84,339.77-16.9,516.04,.2,4.38-3.01,8.18-7.37,8.69-6.61,.77-17.19,1.34-30.65-.08-5.11-.54-9.23-4.4-9.96-9.49-8.23-57.31-55.57-398.45-53.55-644.19,.11-13.86,36.65-74.11,36.65-74.11h180.24Z"/>
  <path class="cls-25" d="M1036.14,2016.87c-13.37-16.75-25.07-34.71-34.87-53.22-13.68-25.84-1.1,16.73-4.84-12.45-102.44-73.92-256.69-36.51-316.36-28.99-19.56,2.46-37.46,12.11-50.35,27.03-51.13,59.17-163.32,221.16-31.27,384.4,16.9-9.38,40.91-24.42,57.22-41.83-14.61-41.18-15.81-93.82,14.81-158.35,1.05,5.12,2.34,10.18,3.91,15.16,42.2,133.7,44.45,244.95,44.36,270.59-.01,3.48,2.08,6.62,5.31,7.91,55.54,22.26,162.46,9.01,198.35,3.66,6.58-.98,11.01-7.11,10.1-13.7-17.61-127.61,72.78-337.54,96.66-390.12,1.72-3.78,4.09-7.19,6.96-10.1Z"/>
  <path class="cls-15" d="M776.07,1814.75l-10.7,109.36s61.52,18.53,106.27-13.04l-31.46-99.4-64.11,3.07Z"/>
  <g>
    <path class="cls-13" d="M847.46,1690.11c1.48,1.39,62.49,121.21,62.49,121.21l-69.15,33.38-74.7-104.97s56.57-72.96,81.36-49.62Z"/>
    <path class="cls-39" d="M796.7,1742.63c-1.23,3.19-.93,6.75,.83,9.69l34.49,57.49c.52,.87,1.15,1.66,1.89,2.35,4.11,3.82,18.15,14.94,29.01-.2,9.26-12.9,17.94-24.62,27.25-29.46,5.43-2.83,12.12-.57,14.88,4.9,5.68,11.26,16.69,34.22,23.6,55.99,1.73,5.46-1.08,11.31-6.39,13.46-14,5.67-41.68,15.93-66.23,19.32-4.03,.56-8.03-1.14-10.43-4.43-10.57-14.47-40.34-54.92-50.51-65.05-9.44-9.41-26.87-5.86-34.72-3.6-2.98,.86-6.15,.44-8.81-1.16-7.97-4.8-21.87-16.75-9.15-36.98,3.16-5.03,1.55-11.73-3.41-15-8.89-5.85-18.55-16.83-9.35-34.62,9.31-18.01,25.93-19.62,37.26-18.24,5.01,.61,10.1-2.01,12.02-6.68,.85-2.08,2.55-3.85,5.69-4.48,5.93-1.2,9.83-6.63,8.66-12.57-2-10.19-.49-23.42,15.77-32.37,29.84-16.4,55.97,10.33,62.62,32.89,6.65,22.56-26.71,38.51-47.7,41.17-15.41,1.95-23.87,18.78-27.27,27.57Z"/>
    <path class="cls-40" d="M808.04,1827.82s-13.27-38.82-30.25-37.4c-16.98,1.43-30.35,18.34-9.3,37.36,26.18,23.66,39.55,.03,39.55,.03Z"/>
  </g>
  <path class="cls-10" d="M664.89,2123.45c-22.39-61.26-14.27-135.24-14.18-135.98l6.17,.7c-.08,.73-8.03,73.28,13.85,133.14l-5.83,2.13Z"/>
  <path class="cls-7" d="M820.12,2590.81c-1.38,0-2.64-.93-3-2.33-6.83-26.34-57.97-55.29-58.48-55.58-1.49-.84-2.03-2.73-1.19-4.23,.84-1.49,2.72-2.03,4.23-1.19,2.2,1.23,53.97,30.54,61.46,59.43,.43,1.66-.57,3.35-2.23,3.78-.26,.07-.52,.1-.78,.1Z"/>
  <g>
    <path class="cls-17" d="M1244.07,2051.26c-115.86,17.38-191.37-55.72-247.64-100.07-74.29-58.55-132.1-30.06-132.1-30.06l79.23,151.21c118.32,111.56,239.63,86.78,316.11,50.63,1.18-29.21-6.63-53.65-15.59-71.71Z"/>
    <path class="cls-5" d="M1406.91,1982.14l-38.42,20.68c-46.08,28.05-87.31,42.88-124.42,48.45,8.96,18.06,16.76,42.51,15.59,71.71,48.68-23.01,79.21-50.63,79.21-50.63,87.04-51.9,68.05-90.2,68.05-90.2Z"/>
  </g>
  <path class="cls-8" d="M1520.1,2036.28c-2.48-8.25-8.58-14.92-16.57-18.13l-77.98-31.36s-1.18-10,16.48-16.8c17.65-6.8,13.53-26.57,13.53-26.57,0,0-24.12,11-59.42,28.45-20.19,9.98-31.52,27.6-37.53,40.86l20.07,26.4c48.06,14.44,96.69,17.2,145.73,11.47l-4.31-14.33Z"/>
  <path class="cls-35" d="M2545.94,2151.47s70.19,161.98,113.39,140.38c43.19-21.6,75.59-199.78,75.59-199.78,0,0-134.98-32.4-188.98,59.39Z"/>
  <path class="cls-14" d="M2790.33,3156.65s5.87,33.22,8.74,66.1c1.12,12.85-8.78,24.01-21.67,24.55-43.79,1.82-137.46,5.37-171.07,3.87-5.05-.23-8.36-5.4-6.49-10.1,1.57-3.94,4.59-7.12,8.44-8.89l154.73-71.11,27.32-4.42Z"/>
  <path class="cls-11" d="M2795.14,3137.13l-4.71,39.73s-27.1,12.62-45.61-1.59l11.22-44.28,39.1,6.14Z"/>
  <path class="cls-20" d="M2791.6,2390.11c2.04,10.38,10.93,517.81-43.31,745.21-.88,3.71,1,7.53,4.53,8.98,8.32,3.4,24.63,8.32,44.17,8.98,6.05,.2,11.48-3.73,13.19-9.54,15.5-52.76,89.8-317.1,99.49-569.62,10.83-282.16,0-9.61,0-9.61l-6.35-174.42-111.72,.02Z"/>
  <path class="cls-14" d="M2968.32,3173.98s9.34,16.77,18.38,61.33c1.63,8.05-3.99,15.75-12.16,16.55-14.46,1.42-36.72,3.25-54.55,3.13-8.22-.06-14.63-7.21-13.64-15.37,1.98-16.27,8.13-42.95,27.14-63.75l34.84-1.89Z"/>
  <path class="cls-26" d="M2976.52,3122.87l-11.02,60.09s-10.89,8.1-32.44,2.23l5.26-64.65,38.2,2.33Z"/>
  <path class="cls-34" d="M3006.28,2405.68c44.36,267.73-9.62,661.71-27.83,738.82-1.11,4.72-4.92,8.34-9.71,9.13-8.13,1.35-21.51,2.45-34.7-1.38-4.55-1.32-7.74-5.42-7.92-10.15-2.44-62.34,1.95-445.06-39.38-596.32-2.1-7.66-6.78-14.35-13.25-18.95l-80.23-57.04-6.15-92.19,219.17,28.08Z"/>
  <path class="cls-6" d="M2718.72,1908.5c161.98-16.2,284.52,24.8,284.52,24.8,39.63,231.23,6.93,497.93,6.93,497.93-102.92,26.99-219.02-16.5-219.02-16.5-17.11-96.65-96.92-368.64-96.92-368.64-64.96-8.06-16.31-133.5,24.49-137.58Z"/>
  <path class="cls-6" d="M2952.25,2062.03l50.99-128.73s124.18,84.37,144.6,191.35c-23.46,1.73-66.16,7.83-107.95,28.93-9.18-50.51-87.64-91.55-87.64-91.55Z"/>
  <path class="cls-24" d="M2832.93,2183.16s139.42,78.79,186.46,11.51c9.77-13.97,12.1-27.85,9.7-41.09,41.79-21.1,84.49-27.2,107.95-28.93,6.16,32.25,2.9,66.55-16.05,101.22-82.4,150.74-306.51-8.33-306.51-8.33l18.45-34.37Z"/>
  <g>
    <path class="cls-21" d="M2849.69,2282.84l-76.09-265.72c-.86-3.02-3.44-5.22-6.55-5.58-13.79-1.61-53.73-6.12-99.85-10.03-47.16-3.99-100.77-7.34-139.48-6.28-14.55,.4-23.77,15.75-17.27,28.78,29.86,59.83,103.51,204.61,145.14,262.07,3.81,5.26,9.93,8.32,16.43,8.26l170.28-1.58c5.14-.05,8.82-4.98,7.4-9.91Z"/>
    <path class="cls-41" d="M2831.3,2218.64s10.6-43.58,6.32-59.05c-4.28-15.46-12.56-35.34-40.17-30.93-27.61,4.42-60.18,16.05-60.18,16.05,0,0,1.65,20.14,22.63,13.64l-13.01,10.07s1.86,16.13,19.59,7.51l-12.1,13.35s7.61,13.25,20.65,4.75c13.04-8.5,19.29,29.84,56.28,24.6Z"/>
    <path class="cls-30" d="M2548.39,2153.79s-32.13-31.3-36.73-46.67c-4.59-15.37-8.13-36.62,17.61-47.54,25.74-10.92,59.52-18.37,59.52-18.37,0,0,9.3,17.94-11.93,23.58l16.38,1.62s6.99,14.65-12.61,16.77l17.35,4.88s.59,15.27-14.97,15c-15.56-.27-.49,35.53-34.61,50.73Z"/>
  </g>
  <path class="cls-9" d="M2842.07,1800.52l42.3,122.33c.7,2.03-.13,4.27-2.01,5.31-11.53,6.38-53.07,24.8-103.14-6.94-5.22-3.31-8.77-8.7-9.56-14.82l-13.7-105.88h86.1Z"/>
  <g>
    <path class="cls-31" d="M2750.03,1687.24s-46.45,87.44-40.5,122.76c5.95,35.32,63.52,32.78,113.79,4.1l35.13-94.41-108.42-32.44Z"/>
    <path class="cls-32" d="M2821.11,1767.73c-2.04-.91-2.8-3.41-1.57-5.27,3.72-5.69,10.7-17.28,12.92-27.44,0,0,8.35-5.35-21.25-12.43-29.6-7.09-73.75-18.08-83.03-43.28-9.05-24.57,14.72-86.35,52.65-37.12,1.44,1.87,4.27,1.91,5.71,.04,6.22-8.09,22.56-24.89,45.25-14.7,21.24,9.53,23.63,25.09,23.34,32.93-.09,2.31,1.98,4.1,4.25,3.67,10.74-2.05,36.5-3.81,48.53,22.62,9.91,21.77,3.47,34.09-2.4,40.12-1.9,1.95-1.07,5.17,1.54,5.97,7.06,2.16,16.17,8.14,15.26,24.67-1.26,22.85-26.81,20.84-34.09,19.8-1.19-.17-2.39,.24-3.2,1.13-6.24,6.9-34.34,36.21-64.76,39.75-2.63,.31-4.67-2.3-3.81-4.8l13.17-38.27c.61-1.78-.24-3.73-1.96-4.49l-6.53-2.89Z"/>
    <path class="cls-18" d="M2815.82,1773.16s33.07-22.69,35.49-3.58c2.42,19.11-29.78,27.68-45.73,20.56l10.24-16.97Z"/>
  </g>
</svg>