<?xml version="1.0" encoding="UTF-8"?>
<svg id="Objects" xmlns="http://www.w3.org/2000/svg" viewBox="0 0 248.57 268.11">
  <defs>
    <style>
      .cls-1 {
        fill: #4a6788;
      }

      .cls-2 {
        fill: #3a55a5;
      }

      .cls-3 {
        fill: none;
      }
    </style>
  </defs>
  <path class="cls-3" d="M144.53,209.55s.01,0,.02,0c.1,.05,.22,.1,.33,.15,.02,.01,.05,.02,.07,.03,.1,.04,.2,.08,.3,.13,.04,.01,.07,.03,.11,.04,.13,.05,.26,.1,.4,.16,0,0,0,0,.01,0,.15,.06,.3,.11,.46,.17,.04,.02,.09,.03,.13,.05,.13,.05,.26,.09,.4,.14,.04,.01,.09,.03,.13,.04,.18,.06,.36,.12,.55,.18,.04,.01,.07,.02,.11,.03,.16,.05,.33,.1,.5,.15,.06,.02,.12,.04,.19,.06,.18,.05,.37,.11,.56,.16,.04,.01,.07,.02,.11,.03,.23,.06,.46,.13,.7,.19,.07,.02,.14,.04,.21,.05,.19,.05,.38,.1,.58,.15,.08,.02,.15,.04,.23,.06,.27,.06,.54,.13,.82,.19,.04,0,.08,.02,.12,.03,.25,.06,.51,.11,.77,.17,.09,.02,.19,.04,.28,.06,.25,.05,.5,.1,.75,.16,.07,.02,.15,.03,.22,.05,.33,.06,.66,.13,1.01,.19,.09,.02,.18,.03,.27,.05,.28,.05,.56,.1,.84,.15,.11,.02,.22,.04,.33,.06,.38,.07,.76,.13,1.16,.2,8.84,1.43,20.16,2.22,31.88,2.22,11,0,21.64-.69,30.21-1.96,.57-.08,1.13-.17,1.69-.26,.4-.06,.79-.13,1.16-.2,.11-.02,.22-.04,.33-.06,.29-.05,.57-.1,.84-.15,.09-.02,.18-.03,.27-.05,.35-.06,.68-.13,1.01-.19,.08-.02,.15-.03,.22-.05,.26-.05,.51-.1,.75-.16,.1-.02,.19-.04,.28-.06,.26-.06,.52-.11,.77-.17,.04,0,.08-.02,.12-.03,.28-.06,.56-.13,.82-.19,.08-.02,.16-.04,.23-.06,.2-.05,.39-.1,.58-.15,.07-.02,.14-.04,.21-.05,.24-.06,.48-.13,.7-.19,.04-.01,.07-.02,.11-.03,.19-.05,.38-.11,.56-.16,.06-.02,.13-.04,.19-.06,.17-.05,.34-.1,.5-.15,.04-.01,.07-.02,.11-.03,.19-.06,.38-.12,.55-.18,.04-.01,.09-.03,.13-.04,.14-.05,.27-.09,.4-.14,.04-.02,.09-.03,.13-.05,.16-.06,.31-.11,.46-.17,0,0,0,0,.01,0,.14-.05,.28-.11,.4-.16,.04-.01,.07-.03,.11-.04,.1-.04,.21-.09,.3-.13,.02-.01,.05-.02,.07-.03,.12-.05,.23-.1,.33-.15,0,0,.01,0,.02,0-1.86-.86-5.56-2.12-12.72-3.28-8.84-1.43-20.16-2.22-31.88-2.22s-23.05,.79-31.89,2.22c-7.15,1.16-10.86,2.42-12.72,3.28Z"/>
  <path class="cls-3" d="M234.31,236.63c-.08,.03-.15,.05-.23,.08-.31,.11-.64,.21-.97,.32-.07,.02-.15,.05-.23,.07-.27,.08-.54,.16-.81,.24-.11,.03-.23,.07-.35,.1-.26,.07-.53,.15-.8,.22-.11,.03-.21,.06-.32,.09-.37,.1-.75,.19-1.15,.29-.06,.01-.13,.03-.19,.04-.34,.08-.68,.16-1.03,.24-.14,.03-.27,.06-.41,.09-.3,.06-.6,.13-.9,.19-.14,.03-.28,.06-.42,.09-.41,.08-.82,.17-1.25,.25-.03,0-.05,.01-.08,.02-1.21,.23-2.47,.44-3.77,.65-1.95,.3-4.01,.58-6.14,.82-.32,.04-.65,.07-.97,.1-.4,.04-.79,.09-1.2,.13-7.07,.72-14.97,1.11-23.17,1.13-.27,0-.53,0-.8,0h-.02v11.01h.01c11.72,0,23.05-.79,31.88-2.22,9.79-1.59,13.13-3.37,14.09-4.04,0-.11,.02-.23,.04-.34v-9.85s-.1,.03-.15,.05c-.23,.08-.46,.17-.7,.25Z"/>
  <path class="cls-3" d="M221.42,220.72c-9.11,1.42-20.4,2.19-32.28,2.19,0,0-.01,0-.02,0v11.01h.01c11.72,0,23.05-.79,31.88-2.22,9.79-1.59,13.13-3.37,14.09-4.04,0-.11,.02-.23,.04-.34v-9.85c-2.62,.99-5.93,1.85-9.97,2.61-1.21,.23-2.47,.44-3.77,.65Z"/>
  <path class="cls-3" d="M115.11,198.9c-.07,.03-.14,.05-.22,.08-.32,.11-.64,.22-.98,.32-.07,.02-.14,.04-.2,.06-.27,.08-.55,.17-.84,.25-.11,.03-.22,.06-.33,.09-.27,.08-.55,.15-.83,.23-.1,.03-.19,.05-.29,.08-.38,.1-.77,.2-1.16,.29-.05,.01-.09,.02-.14,.03-.35,.08-.71,.17-1.08,.25-.12,.03-.25,.06-.38,.08-.31,.07-.63,.13-.95,.2-.13,.03-.25,.05-.38,.08-.44,.09-.89,.18-1.34,.26-9.47,1.79-21.94,2.79-35.21,2.83-.28,0-.55,0-.83,0h0v11.01c11.72,0,23.04-.79,31.88-2.22,9.79-1.59,13.13-3.37,14.09-4.04,0-.11,.02-.23,.04-.34v-9.85s-.1,.03-.14,.05c-.23,.09-.47,.17-.71,.26Z"/>
  <path class="cls-3" d="M69.98,166.31s-.02,0-.03,0h0v11.01c11.72,0,23.04-.79,31.88-2.22,9.79-1.59,13.13-3.37,14.09-4.04,0-.11,.02-.23,.04-.34v-9.85c-2.62,.99-5.93,1.85-9.97,2.61-9.66,1.82-22.45,2.83-36.01,2.83Z"/>
  <path class="cls-3" d="M115.12,217.76c-.08,.03-.16,.06-.24,.08-.31,.11-.64,.21-.97,.32-.08,.02-.16,.05-.24,.07-.26,.08-.53,.16-.8,.24-.12,.03-.24,.07-.35,.1-.26,.07-.52,.14-.79,.22-.11,.03-.22,.06-.33,.09-.37,.1-.75,.19-1.14,.29-.07,.02-.14,.03-.2,.05-.33,.08-.67,.16-1.01,.23-.14,.03-.28,.06-.42,.09-.29,.06-.59,.13-.89,.19-.14,.03-.28,.06-.43,.09-.4,.08-.81,.16-1.23,.24-.03,0-.06,.01-.1,.02-1.21,.23-2.47,.44-3.77,.65-1.95,.3-4.01,.58-6.14,.82,0,0,0,0,0,0-.71,.08-1.43,.16-2.16,.23-.5,.05-1.02,.1-1.53,.15-.23,.02-.46,.04-.69,.07-6.48,.58-13.58,.9-20.92,.92-.28,0-.55,0-.83,0h0v11.01c11.72,0,23.04-.79,31.88-2.22,9.79-1.59,13.13-3.37,14.09-4.04,0-.11,.02-.23,.04-.34v-9.85s-.1,.04-.15,.05c-.22,.08-.45,.17-.69,.25Z"/>
  <path class="cls-3" d="M115.12,236.63c-.08,.03-.16,.06-.24,.08-.31,.11-.64,.21-.97,.32-.08,.02-.16,.05-.24,.07-.26,.08-.53,.16-.8,.24-.12,.03-.24,.07-.35,.1-.26,.07-.52,.14-.79,.22-.11,.03-.22,.06-.33,.09-.37,.1-.75,.19-1.14,.29-.07,.02-.14,.03-.2,.05-.33,.08-.67,.16-1.01,.23-.14,.03-.28,.06-.42,.09-.29,.06-.59,.13-.89,.19-.14,.03-.28,.06-.43,.09-.4,.08-.81,.16-1.23,.24-.03,0-.06,.01-.1,.02-1.21,.23-2.47,.44-3.77,.65-1.95,.3-4.01,.58-6.14,.82,0,0,0,0,0,0-.71,.08-1.43,.16-2.16,.23-.5,.05-1.02,.1-1.53,.15-.23,.02-.46,.04-.69,.07-6.48,.58-13.58,.9-20.92,.92-.28,0-.55,0-.83,0h0v11.01c11.72,0,23.04-.79,31.88-2.22,9.79-1.59,13.13-3.37,14.09-4.04,0-.11,.02-.23,.04-.34v-9.85s-.1,.04-.15,.05c-.22,.08-.45,.17-.69,.25Z"/>
  <path class="cls-3" d="M175.99,124.2c0,.59,.14,1.05,.44,1.45,.38,.51,.94,.97,1.66,1.36,.46,.25,.92,.47,1.38,.66v-6.99c-.7,.22-1.33,.52-1.86,.91-1.45,1.04-1.62,1.99-1.62,2.61Z"/>
  <path class="cls-3" d="M115.13,180.03c-.08,.03-.16,.06-.25,.09-.31,.11-.63,.21-.96,.32-.08,.02-.16,.05-.24,.07-.26,.08-.52,.16-.79,.24-.12,.03-.24,.07-.36,.1-.26,.07-.52,.14-.79,.21-.11,.03-.22,.06-.33,.09-.37,.1-.75,.19-1.14,.29-.07,.02-.14,.03-.21,.05-.33,.08-.66,.16-1,.23-.14,.03-.28,.06-.42,.09-.29,.06-.59,.13-.89,.19-.14,.03-.28,.06-.43,.09-.4,.08-.81,.16-1.23,.24-.03,0-.06,.01-.1,.02-4.23,.8-9.06,1.44-14.29,1.91-.09,0-.18,.01-.27,.02-.66,.06-1.33,.11-2,.17-.12,0-.24,.02-.35,.03-.65,.05-1.3,.1-1.96,.14-.17,.01-.35,.02-.53,.03-.61,.04-1.21,.08-1.82,.11-.19,.01-.38,.02-.57,.03-.61,.03-1.21,.07-1.83,.1-.21,0-.43,.02-.64,.03-.59,.03-1.19,.05-1.79,.08-.29,.01-.59,.02-.88,.03-.52,.02-1.05,.04-1.58,.05-.29,0-.59,.01-.88,.02-.53,.01-1.07,.03-1.6,.04-.33,0-.65,0-.98,.01-.51,0-1.02,.02-1.53,.02-.39,0-.79,0-1.19,0-.44,0-.88,0-1.33,0-.01,0-.02,0-.03,0h0v11.01c11.72,0,23.04-.79,31.88-2.22,9.79-1.59,13.13-3.37,14.09-4.04,0-.11,.02-.23,.04-.34v-9.85s-.1,.04-.15,.05c-.22,.08-.45,.16-.68,.24Z"/>
  <path class="cls-3" d="M107.02,38.05c-.97,.31-1.84,.73-2.58,1.26-2.02,1.44-2.25,2.76-2.25,3.62s.19,1.46,.61,2.01c.53,.71,1.31,1.34,2.3,1.89,.63,.35,1.28,.65,1.92,.92v-9.7Z"/>
  <path class="cls-3" d="M124.12,76.68c0-1.61-.45-2.85-1.36-3.79-1.01-1.03-2.34-1.87-3.95-2.48v12.81c.9-.36,1.72-.8,2.44-1.34,1.96-1.46,2.87-3.11,2.87-5.19Z"/>
  <path class="cls-3" d="M187.97,144.01v9.24c.65-.26,1.24-.58,1.76-.97,1.41-1.05,2.07-2.24,2.07-3.75,0-1.16-.32-2.06-.98-2.73-.73-.75-1.69-1.35-2.85-1.79Z"/>
  <path class="cls-3" d="M25.34,152.95s.01,0,.02,0c.1,.05,.22,.1,.33,.15,.02,.01,.05,.02,.07,.03,.1,.04,.2,.08,.3,.13,.03,.01,.07,.03,.1,.04,.13,.05,.27,.11,.41,.16,0,0,0,0,0,0,.15,.06,.3,.11,.46,.17,.04,.02,.09,.03,.13,.05,.13,.05,.26,.09,.4,.14,.04,.01,.08,.03,.13,.04,.18,.06,.36,.12,.56,.18,.03,.01,.07,.02,.1,.03,.17,.05,.34,.1,.51,.16,.06,.02,.12,.03,.18,.05,.19,.05,.38,.11,.58,.17,.03,0,.06,.02,.09,.02,.23,.06,.47,.13,.72,.19,.06,.02,.13,.03,.19,.05,.2,.05,.4,.1,.61,.15,.07,.02,.14,.03,.21,.05,.27,.07,.55,.13,.84,.2,.03,0,.06,.01,.09,.02,.26,.06,.53,.12,.81,.18,.09,.02,.17,.04,.26,.06,.26,.05,.52,.11,.79,.16,.07,.01,.13,.03,.2,.04,.33,.07,.67,.13,1.02,.2,.08,.02,.17,.03,.25,.05,.28,.05,.57,.1,.86,.16,.11,.02,.21,.04,.32,.06,.38,.07,.77,.13,1.17,.2,8.84,1.43,20.16,2.22,31.88,2.22,0,0,0,0,0,0,0,0,0,0,0,0,11.72,0,23.05-.79,31.88-2.22,.4-.07,.79-.13,1.17-.2,.11-.02,.21-.04,.32-.06,.29-.05,.58-.1,.86-.16,.08-.02,.17-.03,.25-.05,.35-.07,.69-.13,1.02-.2,.07-.01,.13-.03,.2-.04,.27-.05,.53-.11,.79-.16,.09-.02,.18-.04,.26-.06,.28-.06,.54-.12,.81-.18,.03,0,.06-.01,.09-.02,.29-.07,.57-.13,.84-.2,.07-.02,.14-.03,.21-.05,.21-.05,.41-.1,.61-.15,.06-.02,.13-.03,.19-.05,.25-.06,.49-.13,.72-.19,.03,0,.06-.02,.09-.02,.2-.06,.39-.11,.58-.17,.06-.02,.12-.03,.18-.05,.18-.05,.35-.1,.51-.16,.03,0,.07-.02,.1-.03,.19-.06,.38-.12,.56-.18,.04-.01,.08-.03,.13-.04,.14-.05,.27-.09,.4-.14,.04-.02,.09-.03,.13-.05,.16-.06,.32-.11,.46-.17,0,0,0,0,0,0,.14-.06,.28-.11,.41-.16,.04-.01,.07-.03,.1-.04,.11-.04,.21-.09,.3-.13,.02-.01,.05-.02,.07-.03,.12-.05,.23-.1,.33-.15,0,0,.01,0,.02,0-1.86-.86-5.56-2.12-12.72-3.28-8.84-1.43-20.16-2.22-31.88-2.22s-23.05,.79-31.88,2.22c-7.15,1.16-10.86,2.42-12.72,3.28Z"/>
  <path class="cls-2" d="M69.94,168.76v-2.44h0s-.02,0-.04,0c-.73,0-1.46,0-2.18-.01,.06,1.25,1,2.27,2.22,2.45Z"/>
  <path class="cls-2" d="M62.95,171c-1.45,0-2.62,1.17-2.62,2.62s1.17,2.62,2.62,2.62,2.62-1.17,2.62-2.62-1.17-2.62-2.62-2.62Z"/>
  <path class="cls-2" d="M69.94,193.18c-1.26,.19-2.23,1.27-2.23,2.59h0c0,.14,.02,.27,.04,.41,.72,0,1.45,0,2.18,0h0v-3Z"/>
  <path class="cls-2" d="M58.19,195.77c0-1.45-1.17-2.62-2.62-2.62s-2.53,1.09-2.61,2.47c1.68,.12,3.41,.21,5.15,.3,0-.05,0-.09,0-.14h.07Z"/>
  <circle class="cls-2" cx="62.95" cy="188.38" r="2.62"/>
  <path class="cls-2" d="M67.72,210.53h0c.03,1.28,.99,2.33,2.22,2.52v-5.11c-1.26,.19-2.23,1.27-2.23,2.59Z"/>
  <path class="cls-2" d="M55.57,207.91c-1.45,0-2.62,1.17-2.62,2.62h0c.04,1.42,1.19,2.55,2.62,2.55h0c1.39-.04,2.51-1.16,2.55-2.55h.07c0-1.45-1.17-2.62-2.62-2.62Z"/>
  <path class="cls-2" d="M62.95,205.77c1.15,0,2.12-.74,2.47-1.77-1.68-.03-3.35-.07-4.99-.13,.31,1.09,1.32,1.9,2.52,1.9Z"/>
  <path class="cls-2" d="M67.72,225.3h0c.03,1.28,.99,2.33,2.22,2.52v-4.91h0c-.22,0-.45,0-.67,0-.91,.41-1.55,1.32-1.55,2.39Z"/>
  <path class="cls-2" d="M55.57,222.68c-1.45,0-2.62,1.17-2.62,2.62h0c.04,1.42,1.19,2.55,2.62,2.55h0c1.39-.04,2.51-1.16,2.55-2.55h.07c0-1.45-1.17-2.62-2.62-2.62Z"/>
  <path class="cls-2" d="M62.95,230.06c-1.45,0-2.62,1.17-2.62,2.62,0,.38,.08,.74,.23,1.06,1.56,.06,3.13,.1,4.72,.13,.18-.36,.29-.76,.29-1.19,0-1.45-1.17-2.62-2.62-2.62Z"/>
  <path class="cls-2" d="M69.94,242.58v-.81h0c-.51,0-1.02,0-1.53,0,.39,.43,.93,.72,1.53,.81Z"/>
  <path class="cls-2" d="M68.71,252.78c.41,0,.82,0,1.23,0h0v-.54c-.46,.07-.88,.26-1.23,.53Z"/>
  <circle class="cls-2" cx="62.95" cy="247.45" r="2.62"/>
  <path class="cls-2" d="M52.95,166.24h0c.04,1.42,1.19,2.55,2.62,2.55h0c1.39-.04,2.51-1.16,2.55-2.55h.07c0-.06,0-.12,0-.19-1.76-.08-3.49-.17-5.19-.29-.03,.15-.04,.31-.04,.47Z"/>
  <path class="cls-2" d="M48.19,171c-1.45,0-2.62,1.17-2.62,2.62s1.17,2.62,2.62,2.62,2.62-1.17,2.62-2.62-1.17-2.62-2.62-2.62Z"/>
  <path class="cls-2" d="M40.8,193.15c-.8,0-1.52,.36-2,.93,1.41,.22,2.87,.42,4.39,.61-.41-.91-1.32-1.54-2.39-1.54Z"/>
  <path class="cls-2" d="M48.19,185.76c-1.45,0-2.62,1.17-2.62,2.62s1.17,2.62,2.62,2.62,2.62-1.17,2.62-2.62-1.17-2.62-2.62-2.62Z"/>
  <path class="cls-2" d="M40.8,207.91c-1.45,0-2.62,1.17-2.62,2.62h0c.04,1.42,1.19,2.55,2.62,2.55h0c1.39-.04,2.51-1.16,2.55-2.55h.07c0-1.45-1.17-2.62-2.62-2.62Z"/>
  <path class="cls-2" d="M48.19,205.77c1.38,0,2.51-1.07,2.61-2.43-1.78-.14-3.52-.29-5.21-.47,0,.09-.02,.19-.02,.28,0,1.45,1.17,2.62,2.62,2.62Z"/>
  <path class="cls-2" d="M40.8,222.68c-1.45,0-2.62,1.17-2.62,2.62h0c.04,1.42,1.19,2.55,2.62,2.55h0c1.39-.04,2.51-1.16,2.55-2.55h.07c0-1.45-1.17-2.62-2.62-2.62Z"/>
  <path class="cls-2" d="M48.19,230.06c-1.45,0-2.62,1.17-2.62,2.62,0,0,0,0,0,.01,1.68,.18,3.41,.34,5.19,.49,.03-.16,.05-.33,.05-.5,0-1.45-1.17-2.62-2.62-2.62Z"/>
  <path class="cls-2" d="M55.57,242.61h0c.86-.03,1.62-.46,2.08-1.12-1.48-.07-2.95-.15-4.38-.25,.44,.82,1.31,1.37,2.3,1.37Z"/>
  <path class="cls-2" d="M54.78,252.33c.61,.04,1.23,.07,1.85,.1-.32-.14-.68-.23-1.06-.23-.27,0-.54,.04-.79,.12Z"/>
  <path class="cls-2" d="M48.19,244.83c-1.45,0-2.62,1.17-2.62,2.62s1.17,2.62,2.62,2.62,2.62-1.17,2.62-2.62-1.17-2.62-2.62-2.62Z"/>
  <path class="cls-2" d="M38.18,166.24h0c.04,1.42,1.19,2.55,2.62,2.55h0c1.39-.04,2.51-1.16,2.55-2.55h.07c0-.51-.15-.98-.4-1.38-1.38-.16-2.71-.34-4.01-.53-.51,.48-.83,1.16-.83,1.91Z"/>
  <path class="cls-2" d="M33.42,171c-1.45,0-2.62,1.17-2.62,2.62,0,0,0,0,0,.01,1.39,.35,3.04,.72,5,1.08,.15-.33,.24-.7,.24-1.09,0-1.45-1.17-2.62-2.62-2.62Z"/>
  <path class="cls-2" d="M40.8,183.55h0c.16,0,.31-.02,.46-.05-.54-.07-1.08-.14-1.61-.22,.35,.17,.74,.27,1.15,.27Z"/>
  <path class="cls-2" d="M33.42,185.76c-1.45,0-2.62,1.17-2.62,2.62s1.17,2.62,2.62,2.62,2.62-1.17,2.62-2.62-1.17-2.62-2.62-2.62Z"/>
  <path class="cls-2" d="M28.66,210.53c0-1.45-1.17-2.62-2.62-2.62-.8,0-1.52,.36-2,.93,.59,.39,1.89,1.09,4.53,1.9,0-.07,.01-.14,.01-.21h.07Z"/>
  <path class="cls-2" d="M30.8,203.15c0,1.45,1.17,2.62,2.62,2.62s2.62-1.17,2.62-2.62c0-.63-.22-1.21-.59-1.66-.53-.09-1.05-.18-1.56-.28-.46-.09-.91-.18-1.35-.26-.12-.02-.24-.05-.37-.08-.01,0-.02,0-.03,0-.8,.45-1.34,1.3-1.34,2.29Z"/>
  <path class="cls-2" d="M33.42,220.53c.45,0,.88-.11,1.25-.32-.26-.05-.53-.09-.78-.14-.03,0-.05-.01-.08-.02-.43-.08-.84-.16-1.25-.25-.14-.03-.28-.06-.42-.09-.25-.05-.5-.11-.75-.16,.48,.59,1.21,.96,2.03,.96Z"/>
  <path class="cls-2" d="M38.18,240.06h0c.04,1.42,1.19,2.55,2.62,2.55h0c1.29-.04,2.35-1.01,2.52-2.26-.41-.05-.83-.1-1.23-.15-1.33-.17-2.62-.34-3.88-.53-.02,.13-.03,.26-.03,.39Z"/>
  <path class="cls-2" d="M33.42,230.06c-.54,0-1.05,.17-1.47,.45,1.08,.25,2.3,.51,3.68,.76-.47-.73-1.28-1.21-2.21-1.21Z"/>
  <path class="cls-2" d="M36.04,247.45c0-1.45-1.17-2.62-2.62-2.62s-2.62,1.17-2.62,2.62c0,.71,.29,1.36,.75,1.83,.84,.2,1.77,.41,2.8,.61,.99-.38,1.69-1.33,1.69-2.45Z"/>
  <path class="cls-2" d="M26.04,168.79h0c1.39-.04,2.51-1.16,2.55-2.55h.07c0-1.45-1.17-2.62-2.62-2.62-.87,0-1.64,.43-2.12,1.08v3c.48,.66,1.25,1.08,2.12,1.08Z"/>
  <path class="cls-2" d="M26.04,183.55h0c1.33-.04,2.42-1.07,2.54-2.38-.03,0-.07-.02-.1-.03-.12-.03-.23-.06-.34-.09-.26-.07-.52-.14-.77-.21-.12-.03-.25-.07-.37-.1-.27-.08-.53-.15-.78-.23-.08-.03-.17-.05-.25-.08-.33-.1-.65-.21-.96-.31-.09-.03-.17-.06-.25-.09-.23-.08-.46-.16-.68-.24-.05-.02-.1-.04-.15-.05v2.74c.48,.66,1.25,1.09,2.12,1.09Z"/>
  <path class="cls-2" d="M26.04,227.85h0c1.39-.04,2.51-1.16,2.55-2.55h.07c0-1.45-1.17-2.62-2.62-2.62-.87,0-1.64,.43-2.12,1.08v3c.48,.66,1.25,1.09,2.12,1.09Z"/>
  <path class="cls-2" d="M26.04,242.61h0c1.39-.04,2.51-1.16,2.55-2.55h.07c0-1.45-1.17-2.62-2.62-2.62-.87,0-1.64,.43-2.12,1.09v3c.48,.66,1.25,1.09,2.12,1.09Z"/>
  <path class="cls-2" d="M188.46,252.21c-.61,0-1.17,.21-1.62,.56,.76,0,1.52,.01,2.28,.01v-.48c-.21-.06-.43-.09-.66-.09Z"/>
  <path class="cls-2" d="M185.84,225.3h0c.04,1.42,1.19,2.55,2.62,2.55h0c.23,0,.45-.04,.66-.11v-4.83c-.58,0-1.15,0-1.72,0-.92,.41-1.56,1.33-1.56,2.4Z"/>
  <path class="cls-2" d="M173.69,222.68c-1.45,0-2.62,1.17-2.62,2.62h0c.04,1.42,1.19,2.55,2.62,2.55h0c1.39-.04,2.51-1.16,2.55-2.55h.07c0-1.45-1.17-2.62-2.62-2.62Z"/>
  <path class="cls-2" d="M181.08,230.06c-1.45,0-2.62,1.17-2.62,2.62,0,.36,.07,.71,.21,1.02,1.57,.06,3.15,.11,4.76,.15,.18-.35,.28-.75,.28-1.17,0-1.45-1.17-2.62-2.62-2.62Z"/>
  <path class="cls-2" d="M188.46,242.61h0c.23,0,.45-.04,.66-.11v-.73c-.87,0-1.73,0-2.6-.01,.48,.52,1.17,.85,1.93,.85Z"/>
  <circle class="cls-2" cx="181.08" cy="247.45" r="2.62"/>
  <path class="cls-2" d="M158.93,222.68c-1.45,0-2.62,1.17-2.62,2.62h0c.04,1.42,1.19,2.55,2.62,2.55h0c1.39-.04,2.51-1.16,2.55-2.55h.07c0-1.45-1.17-2.62-2.62-2.62Z"/>
  <path class="cls-2" d="M166.31,230.06c-1.41,0-2.56,1.12-2.61,2.51,1.68,.19,3.41,.36,5.2,.52,.02-.13,.04-.27,.04-.41,0-1.45-1.17-2.62-2.62-2.62Z"/>
  <path class="cls-2" d="M173.69,242.61h0c.88-.03,1.66-.48,2.12-1.17-1.51-.08-2.99-.17-4.46-.27,.43,.86,1.32,1.44,2.34,1.44Z"/>
  <path class="cls-2" d="M173.12,252.27c.48,.03,.97,.06,1.46,.09-.28-.1-.57-.16-.88-.16-.2,0-.39,.02-.57,.06Z"/>
  <circle class="cls-2" cx="166.31" cy="247.45" r="2.62"/>
  <path class="cls-2" d="M151.55,220.53c.55,0,1.07-.17,1.49-.47-1.32-.25-2.56-.51-3.72-.78,.46,.75,1.29,1.25,2.23,1.25Z"/>
  <path class="cls-2" d="M156.31,240.06h0c.04,1.42,1.19,2.55,2.62,2.55h0c1.34-.04,2.42-1.07,2.54-2.39-1.77-.22-3.47-.46-5.1-.72-.04,.18-.06,.36-.06,.55Z"/>
  <path class="cls-2" d="M151.55,230.06c-.41,0-.8,.1-1.15,.27,.94,.23,2,.47,3.19,.7-.48-.59-1.21-.97-2.04-.97Z"/>
  <path class="cls-2" d="M154.17,247.45c0-1.45-1.17-2.62-2.62-2.62s-2.62,1.17-2.62,2.62c0,.56,.17,1.07,.47,1.49,.99,.26,2.12,.53,3.41,.8,.81-.45,1.36-1.31,1.36-2.3Z"/>
  <path class="cls-2" d="M144.16,227.85h0c1.39-.04,2.51-1.16,2.55-2.55h.07c0-1.45-1.17-2.62-2.62-2.62-.37,0-.73,.08-1.05,.22v4.42c.02,.11,.03,.22,.04,.33,.31,.13,.65,.2,1.01,.2Z"/>
  <path class="cls-2" d="M144.16,242.61h0c1.39-.04,2.51-1.16,2.55-2.55h.07c0-1.45-1.17-2.62-2.62-2.62-.37,0-.73,.08-1.05,.22v4.73c.32,.14,.68,.22,1.05,.22Z"/>
  <path class="cls-1" d="M105.99,142.42c-9.67-1.83-22.47-2.83-36.05-2.83s-26.38,1.01-36.05,2.83c-12.33,2.33-17.83,5.58-17.83,10.53v18.43c0,.07,0,.14,0,.2,0,.08,0,.16,0,.24h0v18.43c0,.07,0,.14,0,.2,0,.08,0,.16,0,.24v18.43c0,.07,0,.14,0,.2,0,.08,0,.16,0,.24v18.43c0,.07,0,.14,0,.2,0,.08,0,.16,0,.24v18.43c0,.07,0,.14,0,.2,0,.08,0,.16,0,.24,0,4.95,5.5,8.2,17.83,10.53,9.67,1.83,22.47,2.83,36.05,2.83s26.38-1.01,36.05-2.83c12.33-2.33,17.83-5.58,17.83-10.53,0-.08,0-.16,0-.24,0-.07,0-.13,0-.2v-18.43c0-.08,0-.16,0-.24,0-.07,0-.13,0-.2v-18.43c0-.08,0-.16,0-.24,0-.07,0-.13,0-.2v-18.43c0-.08,0-.16,0-.24,0-.07,0-.13,0-.2v-18.43h0c0-.08,0-.16,0-.24,0-.07,0-.13,0-.2v-18.43c0-4.95-5.5-8.2-17.83-10.53Zm-67.93,7.25c8.84-1.43,20.16-2.22,31.88-2.22s23.05,.79,31.88,2.22c7.15,1.16,10.86,2.42,12.72,3.28,0,0-.01,0-.02,0-.1,.05-.22,.1-.33,.15-.02,.01-.05,.02-.07,.03-.1,.04-.2,.08-.3,.13-.03,.01-.07,.03-.1,.04-.13,.05-.27,.11-.41,.16,0,0,0,0,0,0-.15,.06-.3,.11-.46,.17-.04,.02-.09,.03-.13,.05-.13,.05-.27,.09-.4,.14-.04,.01-.08,.03-.13,.04-.18,.06-.36,.12-.56,.18-.03,.01-.07,.02-.1,.03-.17,.05-.34,.1-.51,.16-.06,.02-.12,.03-.18,.05-.19,.05-.38,.11-.58,.17-.03,0-.06,.02-.09,.02-.23,.06-.47,.13-.72,.19-.06,.02-.13,.03-.19,.05-.2,.05-.4,.1-.61,.15-.07,.02-.14,.03-.21,.05-.27,.07-.55,.13-.84,.2-.03,0-.06,.01-.09,.02-.26,.06-.53,.12-.81,.18-.09,.02-.17,.04-.26,.06-.26,.05-.52,.11-.79,.16-.07,.01-.13,.03-.2,.04-.33,.07-.67,.13-1.02,.2-.08,.02-.17,.03-.25,.05-.28,.05-.57,.1-.86,.16-.11,.02-.21,.04-.32,.06-.38,.07-.77,.13-1.17,.2-8.84,1.43-20.16,2.22-31.88,2.22,0,0,0,0,0,0h0c-11.72,0-23.05-.79-31.88-2.22-.4-.07-.79-.13-1.17-.2-.11-.02-.21-.04-.32-.06-.29-.05-.58-.1-.86-.16-.08-.02-.17-.03-.25-.05-.35-.07-.69-.13-1.02-.2-.07-.01-.13-.03-.2-.04-.27-.05-.53-.11-.79-.16-.09-.02-.18-.04-.26-.06-.28-.06-.54-.12-.81-.18-.03,0-.06-.01-.09-.02-.29-.07-.57-.13-.84-.2-.07-.02-.14-.03-.21-.05-.21-.05-.41-.1-.61-.15-.06-.02-.13-.03-.19-.05-.25-.06-.49-.13-.72-.19-.03,0-.06-.02-.09-.02-.2-.06-.39-.11-.58-.17-.06-.02-.12-.03-.18-.05-.18-.05-.35-.1-.51-.16-.03,0-.07-.02-.1-.03-.19-.06-.38-.12-.56-.18-.04-.01-.08-.03-.13-.04-.14-.05-.27-.09-.4-.14-.04-.02-.09-.03-.13-.05-.16-.06-.32-.11-.46-.17,0,0,0,0,0,0-.14-.06-.28-.11-.41-.16-.04-.01-.07-.03-.1-.04-.11-.04-.21-.09-.3-.13-.02-.01-.05-.02-.07-.03-.12-.05-.23-.1-.33-.15,0,0-.01,0-.02,0,1.86-.86,5.56-2.12,12.72-3.28Zm77.91,96.51c-.02,.11-.03,.22-.04,.34-.97,.67-4.3,2.46-14.09,4.04-8.84,1.43-20.16,2.22-31.88,2.22h0c-.41,0-.82,0-1.23,0-4.12-.02-8.17-.13-12.08-.34-.62-.03-1.24-.07-1.85-.1-6.11-.37-11.8-.97-16.73-1.77-1.36-.22-2.58-.44-3.7-.67-1.02-.2-1.95-.41-2.8-.61-4.89-1.17-6.88-2.27-7.59-2.76,0-.11-.02-.22-.04-.34v-9.85s.1,.04,.15,.05c.22,.08,.45,.17,.69,.25,.08,.03,.16,.06,.24,.09,.31,.11,.63,.21,.96,.32,.08,.03,.17,.05,.25,.08,.26,.08,.52,.16,.79,.24,.12,.03,.24,.07,.37,.1,.25,.07,.51,.14,.78,.21,.11,.03,.22,.06,.34,.09,.37,.1,.75,.19,1.14,.29,.07,.02,.14,.03,.21,.05,.33,.08,.66,.16,1.01,.23,.14,.03,.28,.06,.42,.09,.29,.06,.59,.13,.9,.19,.14,.03,.28,.06,.42,.09,.41,.08,.82,.16,1.25,.25,.03,0,.05,.01,.08,.02,.6,.11,1.22,.23,1.85,.33,.81,.14,1.64,.27,2.48,.4,1.26,.19,2.55,.37,3.88,.53,.41,.05,.82,.1,1.23,.15,3.14,.37,6.47,.67,9.94,.89,1.44,.09,2.9,.18,4.38,.25,3.49,.16,7.09,.26,10.76,.28,.51,0,1.02,0,1.53,0h0c.28,0,.56,0,.83,0,7.34-.02,14.44-.34,20.92-.92,.23-.02,.46-.04,.69-.07,.51-.05,1.02-.09,1.53-.15,.73-.07,1.45-.15,2.16-.23,0,0,0,0,0,0,2.14-.24,4.19-.52,6.14-.82,1.3-.2,2.56-.42,3.77-.65,.03,0,.06-.01,.1-.02,.42-.08,.82-.16,1.23-.24,.14-.03,.28-.06,.43-.09,.3-.06,.6-.13,.89-.19,.14-.03,.28-.06,.42-.09,.34-.08,.68-.15,1.01-.23,.07-.02,.14-.03,.2-.05,.39-.09,.77-.19,1.14-.29,.11-.03,.22-.06,.33-.09,.27-.07,.53-.14,.79-.22,.12-.03,.24-.07,.35-.1,.27-.08,.54-.16,.8-.24,.08-.02,.16-.05,.24-.07,.33-.1,.65-.21,.97-.32,.08-.03,.16-.06,.24-.08,.23-.08,.46-.16,.69-.25,.05-.02,.1-.04,.15-.05v9.85Zm0-18.87c-.02,.11-.03,.22-.04,.34-.97,.67-4.3,2.46-14.09,4.04-8.84,1.43-20.16,2.22-31.88,2.22h0c-1.56,0-3.11-.01-4.66-.04-1.59-.03-3.17-.07-4.72-.13-3.37-.12-6.66-.31-9.8-.56-1.78-.14-3.51-.31-5.19-.49-2.65-.29-5.17-.62-7.51-1-.86-.14-1.66-.28-2.43-.42-1.37-.25-2.59-.51-3.68-.76-5.18-1.21-7.26-2.35-7.99-2.86,0-.11-.02-.22-.04-.34v-9.85s.1,.04,.15,.05c.22,.08,.45,.17,.69,.25,.08,.03,.16,.06,.24,.09,.31,.11,.63,.21,.96,.32,.08,.03,.17,.05,.25,.08,.26,.08,.52,.16,.79,.24,.12,.03,.24,.07,.37,.1,.25,.07,.51,.14,.78,.21,.11,.03,.22,.06,.34,.09,.37,.1,.75,.19,1.14,.29,.07,.02,.14,.03,.21,.05,.33,.08,.66,.16,1.01,.23,.14,.03,.28,.06,.42,.09,.05,.01,.1,.02,.15,.03,.25,.05,.5,.11,.75,.16,.14,.03,.28,.06,.42,.09,.41,.08,.82,.16,1.25,.25,.03,0,.05,.01,.08,.02,.26,.05,.52,.09,.78,.14,.35,.06,.7,.13,1.07,.19,2.01,.34,4.13,.65,6.36,.93,8.04,1,17.39,1.54,27.17,1.57,.22,0,.45,0,.67,0h0c.28,0,.56,0,.83,0,7.34-.02,14.44-.34,20.92-.92,.23-.02,.46-.04,.69-.07,.51-.05,1.02-.09,1.53-.15,.73-.07,1.45-.15,2.16-.23,0,0,0,0,0,0,2.14-.24,4.19-.52,6.14-.82,1.3-.2,2.56-.42,3.77-.65,.03,0,.06-.01,.1-.02,.42-.08,.82-.16,1.23-.24,.14-.03,.28-.06,.43-.09,.3-.06,.6-.13,.89-.19,.14-.03,.28-.06,.42-.09,.34-.08,.68-.15,1.01-.23,.07-.02,.14-.03,.2-.05,.39-.09,.77-.19,1.14-.29,.11-.03,.22-.06,.33-.09,.27-.07,.53-.14,.79-.22,.12-.03,.24-.07,.35-.1,.27-.08,.54-.16,.8-.24,.08-.02,.16-.05,.24-.07,.33-.1,.65-.21,.97-.32,.08-.03,.16-.06,.24-.08,.23-.08,.46-.16,.69-.25,.05-.02,.1-.04,.15-.05v9.85Zm0-18.87c-.02,.11-.03,.22-.04,.34-.97,.67-4.3,2.46-14.09,4.04-8.84,1.43-20.16,2.22-31.88,2.22h0c-11.72,0-23.05-.79-31.88-2.22-4.28-.69-7.32-1.42-9.48-2.08-2.65-.81-3.95-1.51-4.53-1.9-.03-.02-.06-.04-.08-.05,0-.11-.02-.22-.04-.34v-9.85s.09,.03,.14,.05c.23,.09,.47,.17,.71,.26,.07,.03,.15,.05,.22,.08,.32,.11,.64,.21,.98,.32,.07,.02,.14,.04,.21,.06,.27,.08,.55,.17,.83,.25,.11,.03,.22,.06,.34,.1,.27,.08,.54,.15,.82,.22,.1,.03,.2,.05,.3,.08,.38,.1,.76,.2,1.16,.29,.05,.01,.1,.02,.15,.03,.35,.08,.71,.17,1.07,.25,.12,.03,.25,.06,.38,.08,.3,.07,.61,.13,.92,.2,.01,0,.02,0,.03,0,.12,.03,.24,.05,.37,.08,.44,.09,.89,.18,1.35,.26,.51,.1,1.03,.19,1.56,.28,3.11,.54,6.51,1,10.13,1.38,1.69,.18,3.43,.33,5.21,.47,3.1,.24,6.33,.42,9.64,.54,1.64,.06,3.31,.1,4.99,.13,1.49,.02,3,.04,4.51,.04h0c.28,0,.56,0,.83,0,13.27-.04,25.74-1.04,35.21-2.83,.46-.09,.9-.17,1.34-.26,.13-.03,.25-.05,.38-.08,.32-.07,.64-.13,.95-.2,.13-.03,.25-.06,.38-.08,.37-.08,.73-.17,1.08-.25,.05-.01,.09-.02,.14-.03,.4-.1,.78-.19,1.16-.29,.1-.03,.19-.05,.29-.08,.28-.07,.56-.15,.83-.23,.11-.03,.22-.06,.33-.09,.29-.08,.57-.17,.84-.25,.07-.02,.14-.04,.2-.06,.34-.11,.66-.21,.98-.32,.07-.03,.15-.05,.22-.08,.24-.08,.48-.17,.71-.26,.05-.02,.1-.03,.14-.05v9.85Zm0-18.87c-.02,.11-.03,.22-.04,.34-.97,.67-4.3,2.46-14.09,4.04-8.84,1.43-20.16,2.22-31.88,2.22h0c-.73,0-1.45,0-2.18,0-3.27-.03-6.5-.12-9.65-.27-1.75-.08-3.47-.18-5.15-.3-3.42-.24-6.7-.55-9.77-.92-1.52-.19-2.98-.39-4.39-.61-.25-.04-.5-.08-.75-.12-9.79-1.59-13.13-3.37-14.09-4.04,0-.11-.02-.22-.04-.34v-9.85s.1,.04,.15,.05c.22,.08,.45,.16,.68,.24,.08,.03,.17,.06,.25,.09,.31,.11,.63,.21,.96,.31,.08,.03,.17,.05,.25,.08,.26,.08,.52,.16,.78,.23,.12,.04,.25,.07,.37,.1,.25,.07,.51,.14,.77,.21,.11,.03,.23,.06,.34,.09,.03,0,.07,.02,.1,.03,.34,.09,.68,.17,1.03,.26,.07,.02,.15,.03,.22,.05,.33,.08,.66,.15,1,.23,.14,.03,.28,.06,.42,.09,.29,.06,.59,.13,.9,.19,.14,.03,.28,.06,.42,.09,.41,.08,.82,.16,1.25,.25,.03,0,.05,.01,.08,.02,1.81,.34,3.74,.65,5.76,.94,.53,.07,1.06,.15,1.61,.22,2.21,.29,4.52,.54,6.92,.75,.13,.01,.26,.02,.39,.03,.62,.05,1.25,.11,1.88,.16,.14,.01,.29,.02,.44,.03,.62,.05,1.24,.09,1.88,.14,.19,.01,.39,.02,.58,.04,.59,.04,1.18,.08,1.78,.11,.2,.01,.4,.02,.6,.03,.6,.03,1.19,.07,1.79,.09,.22,.01,.44,.02,.66,.03,.59,.03,1.17,.05,1.76,.08,.3,.01,.6,.02,.9,.03,.52,.02,1.04,.04,1.56,.05,.29,0,.59,.01,.89,.02,.53,.01,1.06,.03,1.6,.04,.33,0,.65,0,.98,.01,.51,0,1.02,.02,1.53,.02,.39,0,.79,0,1.19,0,.44,0,.88,0,1.33,0,.01,0,.02,0,.04,0h0s.02,0,.03,0c.44,0,.89,0,1.33,0,.4,0,.79,0,1.19,0,.51,0,1.02-.01,1.53-.02,.33,0,.66,0,.98-.01,.54-.01,1.07-.02,1.6-.04,.29,0,.59-.01,.88-.02,.53-.01,1.05-.03,1.58-.05,.29-.01,.59-.02,.88-.03,.6-.02,1.19-.05,1.79-.08,.21,0,.43-.02,.64-.03,.61-.03,1.22-.06,1.83-.1,.19-.01,.38-.02,.57-.03,.61-.04,1.22-.07,1.82-.11,.18-.01,.35-.02,.53-.03,.66-.04,1.31-.09,1.96-.14,.12,0,.24-.02,.35-.03,.67-.05,1.34-.11,2-.17,.09,0,.18-.01,.27-.02,5.23-.47,10.06-1.11,14.29-1.91,.03,0,.06-.01,.1-.02,.42-.08,.82-.16,1.23-.24,.14-.03,.28-.06,.43-.09,.3-.06,.6-.13,.89-.19,.14-.03,.28-.06,.42-.09,.34-.08,.67-.15,1-.23,.07-.02,.14-.03,.21-.05,.39-.09,.77-.19,1.14-.29,.11-.03,.22-.06,.33-.09,.27-.07,.53-.14,.79-.21,.12-.03,.24-.07,.36-.1,.27-.08,.53-.16,.79-.24,.08-.02,.16-.05,.24-.07,.33-.1,.65-.21,.96-.32,.08-.03,.17-.06,.25-.09,.23-.08,.46-.16,.68-.24,.05-.02,.1-.04,.15-.05v9.85Zm0-18.87c-.02,.11-.03,.22-.04,.34-.97,.67-4.3,2.46-14.09,4.04-8.84,1.43-20.16,2.22-31.88,2.22h0c-11.72,0-23.05-.79-31.88-2.22-.79-.13-1.54-.26-2.25-.39-1.96-.36-3.61-.72-5-1.08-4.35-1.1-6.17-2.11-6.84-2.58,0-.11-.02-.22-.04-.34v-9.85c2.62,.99,5.93,1.85,9.97,2.61,1.62,.31,3.34,.59,5.13,.85,1.3,.19,2.64,.36,4.01,.53,3.15,.37,6.49,.68,9.97,.91,1.7,.11,3.43,.21,5.19,.29,3.11,.14,6.3,.22,9.54,.25,.72,0,1.45,.01,2.18,.01,.01,0,.02,0,.04,0h0s.02,0,.03,0c13.57,0,26.36-1.01,36.01-2.83,4.04-.76,7.35-1.63,9.97-2.61v9.85Z"/>
  <path class="cls-1" d="M225.18,199.01c-9.67-1.83-22.47-2.83-36.05-2.83s-26.38,1.01-36.05,2.83c-12.33,2.33-17.83,5.58-17.83,10.53v18.43c0,.07,0,.14,0,.2,0,.08,0,.16,0,.24v18.43c0,.07,0,.14,0,.2,0,.08,0,.16,0,.24,0,4.95,5.5,8.2,17.83,10.53,9.67,1.83,22.47,2.83,36.05,2.83s26.38-1.01,36.05-2.83c12.33-2.33,17.83-5.58,17.83-10.53,0-.08,0-.16,0-.24,0-.07,0-.13,0-.2v-18.43c0-.08,0-.16,0-.24,0-.07,0-.13,0-.2v-18.43c0-4.95-5.5-8.2-17.83-10.53Zm-36.05,5.03c11.72,0,23.05,.79,31.88,2.22,7.15,1.16,10.86,2.42,12.72,3.28,0,0-.01,0-.02,0-.1,.05-.22,.1-.33,.15-.02,.01-.05,.02-.07,.03-.1,.04-.2,.08-.3,.13-.04,.01-.07,.03-.11,.04-.13,.05-.26,.1-.4,.16,0,0,0,0-.01,0-.15,.06-.3,.11-.46,.17-.04,.02-.09,.03-.13,.05-.13,.05-.26,.09-.4,.14-.04,.01-.09,.03-.13,.04-.18,.06-.36,.12-.55,.18-.04,.01-.07,.02-.11,.03-.16,.05-.33,.1-.5,.15-.06,.02-.12,.04-.19,.06-.18,.05-.37,.11-.56,.16-.04,.01-.07,.02-.11,.03-.23,.06-.46,.13-.7,.19-.07,.02-.14,.04-.21,.05-.19,.05-.38,.1-.58,.15-.08,.02-.15,.04-.23,.06-.27,.06-.54,.13-.82,.19-.04,0-.08,.02-.12,.03-.25,.06-.51,.11-.77,.17-.09,.02-.19,.04-.28,.06-.25,.05-.5,.1-.75,.16-.07,.02-.15,.03-.22,.05-.33,.06-.66,.13-1.01,.19-.09,.02-.18,.03-.27,.05-.28,.05-.56,.1-.84,.15-.11,.02-.22,.04-.33,.06-.38,.07-.76,.13-1.16,.2-.55,.09-1.11,.18-1.69,.26-8.57,1.27-19.21,1.96-30.21,1.96-11.72,0-23.05-.79-31.88-2.22-.4-.06-.79-.13-1.16-.2-.11-.02-.22-.04-.33-.06-.29-.05-.57-.1-.84-.15-.09-.02-.18-.03-.27-.05-.35-.06-.68-.13-1.01-.19-.08-.02-.15-.03-.22-.05-.26-.05-.51-.1-.75-.16-.1-.02-.19-.04-.28-.06-.26-.06-.52-.11-.77-.17-.04,0-.08-.02-.12-.03-.28-.06-.56-.13-.82-.19-.08-.02-.16-.04-.23-.06-.2-.05-.39-.1-.58-.15-.07-.02-.14-.04-.21-.05-.24-.06-.48-.13-.7-.19-.04-.01-.07-.02-.11-.03-.19-.05-.38-.11-.56-.16-.06-.02-.13-.04-.19-.06-.17-.05-.34-.1-.5-.15-.04-.01-.07-.02-.11-.03-.19-.06-.38-.12-.55-.18-.04-.01-.09-.03-.13-.04-.14-.05-.27-.09-.4-.14-.04-.02-.09-.03-.13-.05-.16-.06-.31-.11-.46-.17,0,0,0,0-.01,0-.14-.05-.28-.11-.4-.16-.04-.01-.07-.03-.11-.04-.1-.04-.21-.09-.3-.13-.02-.01-.05-.02-.07-.03-.12-.05-.23-.1-.33-.15,0,0-.01,0-.02,0,1.86-.86,5.56-2.12,12.72-3.28,8.84-1.43,20.16-2.22,31.89-2.22Zm46.02,42.14c-.02,.11-.03,.22-.04,.34-.97,.67-4.3,2.46-14.09,4.04-8.84,1.43-20.16,2.22-31.88,2.22h-.01c-.76,0-1.52,0-2.28-.01-4.19-.04-8.31-.18-12.27-.41-.49-.03-.97-.06-1.46-.09-5.78-.38-11.18-.95-15.87-1.71-1.66-.27-3.13-.54-4.44-.82-1.29-.27-2.42-.54-3.41-.8-3.91-1.04-5.6-1.97-6.24-2.42,0-.11-.02-.23-.04-.34v-9.85s.1,.04,.15,.05c.22,.08,.45,.17,.69,.25,.08,.03,.16,.06,.24,.09,.31,.11,.63,.21,.96,.32,.08,.03,.17,.05,.25,.08,.26,.08,.52,.16,.79,.24,.12,.03,.24,.07,.37,.1,.25,.07,.51,.14,.78,.21,.11,.03,.22,.06,.34,.09,.37,.1,.75,.19,1.14,.29,.07,.02,.14,.03,.21,.05,.33,.08,.66,.16,1.01,.23,.14,.03,.28,.06,.42,.09,.29,.06,.59,.13,.9,.19,.14,.03,.28,.06,.42,.09,.41,.08,.82,.16,1.25,.25,.03,0,.05,.01,.08,.02,.6,.11,1.22,.23,1.85,.33,.47,.08,.95,.16,1.44,.23,1.63,.26,3.33,.5,5.1,.72,.5,.06,1.01,.12,1.52,.18,2.67,.3,5.46,.56,8.36,.76,1.46,.1,2.95,.19,4.46,.27,3.47,.18,7.06,.29,10.72,.32,.86,0,1.73,.01,2.6,.01h.02c.27,0,.53,0,.8,0,8.2-.02,16.1-.41,23.17-1.13,.4-.04,.8-.09,1.2-.13,.32-.03,.65-.07,.97-.1,2.14-.24,4.19-.52,6.14-.82,1.3-.2,2.56-.42,3.77-.65,.03,0,.05-.01,.08-.02,.43-.08,.84-.16,1.25-.25,.14-.03,.28-.06,.42-.09,.31-.06,.61-.13,.9-.19,.14-.03,.27-.06,.41-.09,.35-.08,.69-.16,1.03-.24,.06-.01,.13-.03,.19-.04,.39-.09,.77-.19,1.15-.29,.11-.03,.21-.06,.32-.09,.27-.07,.54-.14,.8-.22,.12-.03,.23-.07,.35-.1,.28-.08,.55-.16,.81-.24,.07-.02,.15-.05,.23-.07,.33-.1,.66-.21,.97-.32,.08-.03,.16-.05,.23-.08,.24-.08,.47-.17,.7-.25,.05-.02,.1-.03,.15-.05v9.85Zm0-18.87c-.02,.11-.03,.22-.04,.34-.97,.67-4.3,2.46-14.09,4.04-8.84,1.43-20.16,2.22-31.88,2.22h-.01c-1.92,0-3.82-.02-5.71-.07-1.6-.04-3.19-.08-4.76-.15-3.37-.14-6.64-.34-9.77-.61-1.78-.15-3.52-.32-5.2-.52-2.26-.26-4.42-.55-6.45-.88-1.34-.22-2.56-.44-3.67-.66-1.18-.24-2.24-.47-3.19-.7-4.63-1.14-6.55-2.19-7.24-2.68,0,0,0,0,0,0,0-.11-.02-.22-.04-.33v-9.85c1.75,.66,3.82,1.26,6.2,1.82,1.16,.27,2.4,.53,3.72,.78,.02,0,.03,0,.05,0,.6,.11,1.22,.23,1.85,.33,8.99,1.54,20.38,2.41,32.47,2.49,.57,0,1.15,0,1.72,0,0,0,.01,0,.02,0,11.88,0,23.17-.77,32.28-2.19,1.3-.2,2.56-.42,3.77-.65,4.04-.76,7.35-1.63,9.97-2.61v9.85Z"/>
  <path class="cls-1" d="M112.92,112.22c3.26,0,5.89-2.64,5.89-5.9v-6.37c3.82-.46,7.28-1.4,10.36-2.79,4.71-2.14,8.36-5.17,10.84-9.01,2.48-3.84,3.74-8.22,3.74-13.01,0-3.99-.74-7.46-2.21-10.3-1.47-2.84-3.54-5.22-6.16-7.08-2.47-1.75-5.47-3.25-8.93-4.45-2.34-.82-4.9-1.59-7.64-2.31v-11.9c1.44,1.23,2.72,2.98,3.8,5.23l.05,.1c1.14,2.14,2.22,3.68,3.29,4.71,1.38,1.33,3.28,2,5.64,2,2.58,0,4.85-1.03,6.57-2.98,1.66-1.88,2.5-4.04,2.5-6.42s-.58-4.62-1.73-6.95c-1.13-2.29-2.9-4.47-5.26-6.49-2.34-2-5.3-3.62-8.78-4.8-1.84-.63-3.88-1.08-6.08-1.38v-6.41c0-3.26-2.64-5.89-5.89-5.89s-5.89,2.64-5.89,5.89v6.34c-3.47,.4-6.64,1.17-9.48,2.31-4.5,1.82-8.01,4.49-10.43,7.94-2.44,3.48-3.68,7.5-3.68,11.95s1.19,8.65,3.54,11.87c2.28,3.11,5.37,5.6,9.21,7.38,3,1.4,6.64,2.65,10.84,3.74v16.21c-.24-.09-.46-.19-.68-.3-1.48-.77-2.63-1.73-3.41-2.86-.92-1.33-1.81-3.05-2.62-5.08-.9-2.31-2.01-4.05-3.37-5.31-1.56-1.44-3.48-2.18-5.7-2.18-2.59,0-4.86,.93-6.57,2.69-1.72,1.76-2.59,3.91-2.59,6.38,0,3.51,1.16,7.11,3.44,10.71,2.23,3.52,5.18,6.38,8.77,8.5,3.56,2.07,7.83,3.4,12.72,3.99v6.36c0,3.26,2.64,5.9,5.89,5.9Zm5.89-41.81c1.61,.61,2.94,1.45,3.95,2.48,.92,.94,1.36,2.18,1.36,3.79,0,2.08-.91,3.73-2.87,5.19-.72,.54-1.54,.98-2.44,1.34v-12.81Zm-13.71-23.57c-1-.55-1.77-1.18-2.3-1.89-.41-.55-.61-1.19-.61-2.01,0-.86,.23-2.18,2.25-3.62,.74-.53,1.61-.94,2.58-1.26v9.7c-.64-.27-1.28-.57-1.92-.92Z"/>
  <path class="cls-1" d="M204.36,139.99c-1.06-2.05-2.55-3.77-4.44-5.11-1.78-1.26-3.94-2.34-6.44-3.21-1.69-.59-3.53-1.14-5.51-1.66v-8.58c1.04,.89,1.96,2.15,2.74,3.77l.04,.07c.82,1.54,1.6,2.65,2.37,3.4,.99,.96,2.36,1.44,4.07,1.44,1.86,0,3.5-.74,4.74-2.15,1.19-1.35,1.8-2.91,1.8-4.63s-.42-3.33-1.25-5.01c-.81-1.65-2.09-3.23-3.79-4.68-1.69-1.44-3.82-2.61-6.33-3.46-1.33-.45-2.8-.78-4.38-.99v-4.62c0-2.35-1.9-4.25-4.25-4.25s-4.25,1.9-4.25,4.25v4.57c-2.5,.29-4.79,.84-6.83,1.67-3.24,1.31-5.77,3.24-7.52,5.72-1.76,2.51-2.65,5.41-2.65,8.61s.86,6.24,2.55,8.56c1.64,2.25,3.88,4.04,6.64,5.32,2.17,1.01,4.79,1.91,7.81,2.7v11.69c-.17-.07-.33-.14-.49-.22-1.07-.55-1.9-1.25-2.46-2.06-.67-.96-1.3-2.2-1.89-3.66-.65-1.67-1.45-2.92-2.43-3.83-1.13-1.04-2.51-1.57-4.11-1.57-1.87,0-3.51,.67-4.74,1.94-1.24,1.27-1.87,2.82-1.87,4.6,0,2.53,.83,5.13,2.48,7.72,1.61,2.54,3.74,4.6,6.33,6.13,2.57,1.49,5.65,2.45,9.17,2.87v4.59c0,2.35,1.9,4.25,4.25,4.25s4.25-1.9,4.25-4.25v-4.59c2.75-.33,5.25-1.01,7.47-2.01,3.4-1.54,6.03-3.73,7.82-6.5,1.79-2.77,2.7-5.93,2.7-9.38,0-2.88-.54-5.38-1.59-7.43Zm-24.89-12.32c-.46-.19-.93-.41-1.38-.66-.72-.39-1.28-.85-1.66-1.36-.3-.4-.44-.86-.44-1.45,0-.62,.17-1.57,1.62-2.61,.53-.38,1.16-.68,1.86-.91v6.99Zm10.26,24.6c-.52,.39-1.11,.71-1.76,.97v-9.24c1.16,.44,2.12,1.04,2.85,1.79,.66,.68,.98,1.57,.98,2.73,0,1.5-.66,2.69-2.07,3.75Z"/>
</svg>