<?xml version="1.0" encoding="UTF-8"?>
<svg xmlns="http://www.w3.org/2000/svg" viewBox="0 0 465.87 442.86">
  <defs>
    <style>
      .cls-1, .cls-2, .cls-3, .cls-4, .cls-5, .cls-6, .cls-7, .cls-8 {
        fill: #fff;
      }

      .cls-2 {
        opacity: .9;
      }

      .cls-9 {
        fill: #248f59;
      }

      .cls-3, .cls-4, .cls-10, .cls-6, .cls-11, .cls-7, .cls-8 {
        isolation: isolate;
      }

      .cls-3, .cls-12 {
        opacity: .3;
      }

      .cls-4 {
        opacity: .5;
      }

      .cls-13 {
        opacity: .8;
      }

      .cls-5 {
        opacity: .7;
      }

      .cls-14 {
        fill: #7ccea2;
      }

      .cls-10, .cls-7 {
        opacity: .2;
      }

      .cls-15 {
        fill: #72c197;
      }

      .cls-16 {
        fill: #407bff;
      }

      .cls-6 {
        opacity: .4;
      }

      .cls-11 {
        opacity: .1;
      }

      .cls-17 {
        fill: #263238;
      }

      .cls-8 {
        opacity: .6;
      }
    </style>
  </defs>
  <g id="Background_simple" data-name="Background simple">
    <g>
      <path class="cls-16" d="M354.94,277.75c18.91-26.16,33.11-55.34,40.69-86.16,8.93-36.32,10.76-80.6-23.78-100.93-63.77-37.53-124.95,22.87-147.35-23.2C199.12,15.27,144.24-20.38,70.37,29.35-69.94,123.81-68.96,405.61,48.16,441.82c72.91,22.54,206.38-25.17,306.78-164.07Z"/>
      <path class="cls-2" d="M354.94,277.75c18.91-26.16,33.11-55.34,40.69-86.16,8.93-36.32,10.76-80.6-23.78-100.93-63.77-37.53-124.95,22.87-147.35-23.2C199.12,15.27,144.24-20.38,70.37,29.35-69.94,123.81-68.96,405.61,48.16,441.82c72.91,22.54,206.38-25.17,306.78-164.07Z"/>
    </g>
  </g>
  <g id="Clouds">
    <g>
      <path class="cls-9" d="M377.46,132.58c-4-3.03-9.85-3.37-14.18-.83-5.75-11.62-21.77-16.74-33.19-10.62-2.98-12.52-15.31-22.14-28.18-21.99-12.87,.15-24.97,10.07-27.65,22.66-.43,2-.71,4.19-2.14,5.65-2.32,2.37-6.2,1.58-9.52,1.32-10.42-.81-20.91,6.5-23.74,16.56l143.51-.52c1.26-4.86-.91-9.2-4.91-12.23Z"/>
      <g class="cls-13">
        <path class="cls-1" d="M377.46,132.58c-4-3.03-9.85-3.37-14.18-.83-5.75-11.62-21.77-16.74-33.19-10.62-2.98-12.52-15.31-22.14-28.18-21.99-12.87,.15-24.97,10.07-27.65,22.66-.43,2-.71,4.19-2.14,5.65-2.32,2.37-6.2,1.58-9.52,1.32-10.42-.81-20.91,6.5-23.74,16.56l143.51-.52c1.26-4.86-.91-9.2-4.91-12.23Z"/>
      </g>
    </g>
    <g>
      <path class="cls-9" d="M458.92,180.38c-1.84-1.39-4.52-1.55-6.5-.38-2.64-5.33-9.99-7.68-15.23-4.87-1.37-5.74-7.03-10.16-12.93-10.09-5.9,.07-11.45,4.62-12.68,10.39-.2,.92-.32,1.92-.98,2.59-1.07,1.09-2.85,.72-4.37,.6-4.78-.37-9.59,2.98-10.89,7.6l65.83-.24c.58-2.23-.42-4.22-2.25-5.61Z"/>
      <g class="cls-13">
        <path class="cls-1" d="M458.92,180.38c-1.84-1.39-4.52-1.55-6.5-.38-2.64-5.33-9.99-7.68-15.23-4.87-1.37-5.74-7.03-10.16-12.93-10.09-5.9,.07-11.45,4.62-12.68,10.39-.2,.92-.32,1.92-.98,2.59-1.07,1.09-2.85,.72-4.37,.6-4.78-.37-9.59,2.98-10.89,7.6l65.83-.24c.58-2.23-.42-4.22-2.25-5.61Z"/>
      </g>
    </g>
    <g>
      <path class="cls-9" d="M264.66,47.67c-1.91-1.44-4.69-1.6-6.75-.4-2.74-5.53-10.36-7.97-15.8-5.06-1.42-5.96-7.29-10.54-13.41-10.46-6.12,.07-11.88,4.79-13.16,10.78-.2,.95-.34,1.99-1.02,2.69-1.11,1.13-2.95,.75-4.53,.63-4.96-.39-9.95,3.09-11.3,7.88l68.29-.25c.6-2.31-.43-4.38-2.34-5.82Z"/>
      <g class="cls-13">
        <path class="cls-1" d="M264.66,47.67c-1.91-1.44-4.69-1.6-6.75-.4-2.74-5.53-10.36-7.97-15.8-5.06-1.42-5.96-7.29-10.54-13.41-10.46-6.12,.07-11.88,4.79-13.16,10.78-.2,.95-.34,1.99-1.02,2.69-1.11,1.13-2.95,.75-4.53,.63-4.96-.39-9.95,3.09-11.3,7.88l68.29-.25c.6-2.31-.43-4.38-2.34-5.82Z"/>
      </g>
    </g>
    <g>
      <path class="cls-9" d="M439.99,79.76c-1.09-.82-2.67-.91-3.85-.23-1.56-3.15-5.91-4.54-9.01-2.88-.81-3.4-4.16-6.01-7.65-5.97-3.49,.04-6.77,2.73-7.5,6.15-.12,.54-.19,1.14-.58,1.53-.63,.64-1.68,.43-2.58,.36-2.83-.22-5.67,1.76-6.44,4.49l38.94-.14c.34-1.32-.25-2.5-1.33-3.32Z"/>
      <g class="cls-13">
        <path class="cls-1" d="M439.99,79.76c-1.09-.82-2.67-.91-3.85-.23-1.56-3.15-5.91-4.54-9.01-2.88-.81-3.4-4.16-6.01-7.65-5.97-3.49,.04-6.77,2.73-7.5,6.15-.12,.54-.19,1.14-.58,1.53-.63,.64-1.68,.43-2.58,.36-2.83-.22-5.67,1.76-6.44,4.49l38.94-.14c.34-1.32-.25-2.5-1.33-3.32Z"/>
      </g>
    </g>
    <g>
      <path class="cls-9" d="M55.49,236.05c-1.09-.82-2.67-.91-3.85-.23-1.56-3.15-5.91-4.54-9.01-2.88-.81-3.4-4.16-6.01-7.65-5.97-3.49,.04-6.77,2.73-7.5,6.15-.12,.54-.19,1.14-.58,1.53-.63,.64-1.68,.43-2.58,.36-2.83-.22-5.67,1.76-6.44,4.49l38.94-.14c.34-1.32-.25-2.5-1.33-3.32Z"/>
      <g class="cls-13">
        <path class="cls-1" d="M55.49,236.05c-1.09-.82-2.67-.91-3.85-.23-1.56-3.15-5.91-4.54-9.01-2.88-.81-3.4-4.16-6.01-7.65-5.97-3.49,.04-6.77,2.73-7.5,6.15-.12,.54-.19,1.14-.58,1.53-.63,.64-1.68,.43-2.58,.36-2.83-.22-5.67,1.76-6.44,4.49l38.94-.14c.34-1.32-.25-2.5-1.33-3.32Z"/>
      </g>
    </g>
    <g>
      <path class="cls-9" d="M92.75,88.23c-1.94-1.46-4.76-1.63-6.85-.4-2.78-5.62-10.52-8.09-16.05-5.14-1.44-6.05-7.4-10.7-13.62-10.63-6.22,.07-12.07,4.87-13.36,10.95-.21,.97-.34,2.03-1.03,2.73-1.12,1.15-3,.76-4.6,.64-5.04-.39-10.11,3.14-11.48,8.01l69.37-.25c.61-2.35-.44-4.45-2.37-5.91Z"/>
      <g class="cls-13">
        <path class="cls-1" d="M92.75,88.23c-1.94-1.46-4.76-1.63-6.85-.4-2.78-5.62-10.52-8.09-16.05-5.14-1.44-6.05-7.4-10.7-13.62-10.63-6.22,.07-12.07,4.87-13.36,10.95-.21,.97-.34,2.03-1.03,2.73-1.12,1.15-3,.76-4.6,.64-5.04-.39-10.11,3.14-11.48,8.01l69.37-.25c.61-2.35-.44-4.45-2.37-5.91Z"/>
      </g>
    </g>
  </g>
  <g id="Buildings">
    <g>
      <rect class="cls-9" x="286.8" y="267.84" width="36.28" height="88.28"/>
      <rect class="cls-6" x="286.8" y="267.84" width="27.6" height="88.28"/>
      <rect class="cls-9" x="285.09" y="265.23" width="39.68" height="2.82"/>
      <rect class="cls-10" x="314.4" y="265.23" width="10.37" height="2.82"/>
      <rect class="cls-3" x="314.4" y="268.05" width="8.68" height="88.08"/>
      <rect class="cls-9" x="290.5" y="271.36" width="4.69" height="7.11"/>
      <rect class="cls-7" x="290.5" y="271.83" width="4.69" height="6.63"/>
      <rect class="cls-9" x="297.89" y="271.36" width="4.69" height="7.11"/>
      <rect class="cls-7" x="297.89" y="271.83" width="4.69" height="6.63"/>
      <rect class="cls-9" x="297.89" y="271.36" width=".67" height="7.11"/>
      <rect class="cls-9" x="305.28" y="271.36" width="4.69" height="7.11"/>
      <rect class="cls-7" x="305.28" y="271.83" width="4.69" height="6.63"/>
      <rect class="cls-9" x="305.28" y="271.36" width=".67" height="7.11"/>
      <rect class="cls-9" x="290.5" y="282.07" width="4.69" height="7.11"/>
      <rect class="cls-7" x="290.5" y="282.53" width="4.69" height="6.63"/>
      <rect class="cls-9" x="297.89" y="282.07" width="4.69" height="7.11"/>
      <rect class="cls-7" x="297.89" y="282.53" width="4.69" height="6.63"/>
      <rect class="cls-9" x="297.89" y="282.07" width=".67" height="7.11"/>
      <rect class="cls-9" x="305.28" y="282.07" width="4.69" height="7.11"/>
      <rect class="cls-7" x="305.28" y="282.53" width="4.69" height="6.63"/>
      <rect class="cls-9" x="305.28" y="282.07" width=".67" height="7.11"/>
      <rect class="cls-9" x="290.5" y="292.76" width="4.69" height="7.11"/>
      <rect class="cls-7" x="290.5" y="293.23" width="4.69" height="6.63"/>
      <rect class="cls-9" x="297.89" y="292.76" width="4.69" height="7.11"/>
      <rect class="cls-7" x="297.89" y="293.23" width="4.69" height="6.63"/>
      <rect class="cls-9" x="297.89" y="292.76" width=".67" height="7.11"/>
      <rect class="cls-9" x="305.28" y="292.76" width="4.69" height="7.11"/>
      <rect class="cls-7" x="305.28" y="293.23" width="4.69" height="6.63"/>
      <rect class="cls-9" x="305.28" y="292.76" width=".67" height="7.11"/>
      <rect class="cls-9" x="290.5" y="303.46" width="4.69" height="7.11"/>
      <rect class="cls-7" x="290.5" y="303.94" width="4.69" height="6.63"/>
      <rect class="cls-9" x="297.89" y="303.46" width="4.69" height="7.11"/>
      <rect class="cls-7" x="297.89" y="303.94" width="4.69" height="6.63"/>
      <rect class="cls-9" x="297.89" y="303.46" width=".67" height="7.11"/>
      <rect class="cls-9" x="305.28" y="303.46" width="4.69" height="7.11"/>
      <rect class="cls-7" x="305.28" y="303.94" width="4.69" height="6.63"/>
      <rect class="cls-9" x="305.28" y="303.46" width=".67" height="7.11"/>
      <rect class="cls-9" x="290.5" y="314.16" width="4.69" height="7.11"/>
      <rect class="cls-7" x="290.5" y="314.63" width="4.69" height="6.63"/>
      <rect class="cls-9" x="297.89" y="314.16" width="4.69" height="7.11"/>
      <rect class="cls-7" x="297.89" y="314.63" width="4.69" height="6.63"/>
      <rect class="cls-9" x="297.89" y="314.16" width=".67" height="7.11"/>
      <rect class="cls-9" x="305.28" y="314.16" width="4.69" height="7.11"/>
      <rect class="cls-7" x="305.28" y="314.63" width="4.69" height="6.63"/>
      <rect class="cls-9" x="305.28" y="314.16" width=".67" height="7.11"/>
      <rect class="cls-9" x="290.5" y="324.86" width="4.69" height="7.11"/>
      <rect class="cls-7" x="290.5" y="325.33" width="4.69" height="6.63"/>
      <rect class="cls-9" x="297.89" y="324.86" width="4.69" height="7.11"/>
      <rect class="cls-7" x="297.89" y="325.33" width="4.69" height="6.63"/>
      <rect class="cls-9" x="297.89" y="324.86" width=".67" height="7.11"/>
      <rect class="cls-9" x="305.28" y="324.86" width="4.69" height="7.11"/>
      <rect class="cls-7" x="305.28" y="325.33" width="4.69" height="6.63"/>
      <rect class="cls-9" x="305.28" y="324.86" width=".67" height="7.11"/>
      <rect class="cls-9" x="290.5" y="335.56" width="4.69" height="7.11"/>
      <rect class="cls-7" x="290.5" y="336.03" width="4.69" height="6.63"/>
      <rect class="cls-9" x="297.89" y="335.56" width="4.69" height="7.11"/>
      <rect class="cls-7" x="297.89" y="336.03" width="4.69" height="6.63"/>
      <rect class="cls-9" x="297.89" y="335.56" width=".67" height="7.11"/>
      <rect class="cls-9" x="305.28" y="335.56" width="4.69" height="7.11"/>
      <rect class="cls-7" x="305.28" y="336.03" width="4.69" height="6.63"/>
      <rect class="cls-9" x="305.28" y="335.56" width=".67" height="7.11"/>
      <rect class="cls-9" x="290.5" y="346.26" width="4.69" height="7.11"/>
      <rect class="cls-7" x="290.5" y="346.73" width="4.69" height="6.63"/>
      <rect class="cls-9" x="297.89" y="346.26" width="4.69" height="7.11"/>
      <rect class="cls-7" x="297.89" y="346.73" width="4.69" height="6.63"/>
      <rect class="cls-9" x="297.89" y="346.26" width=".67" height="7.11"/>
      <rect class="cls-9" x="305.28" y="346.26" width="4.69" height="7.11"/>
      <rect class="cls-7" x="305.28" y="346.73" width="4.69" height="6.63"/>
      <rect class="cls-9" x="305.28" y="346.26" width=".67" height="7.11"/>
    </g>
    <g>
      <rect class="cls-9" x="261.78" y="328.56" width="23.35" height="56.82"/>
      <rect class="cls-6" x="261.78" y="328.56" width="17.76" height="56.82"/>
      <rect class="cls-9" x="260.69" y="326.88" width="25.54" height="1.81"/>
      <rect class="cls-10" x="279.55" y="326.88" width="6.68" height="1.81"/>
      <rect class="cls-3" x="279.55" y="328.69" width="5.59" height="56.69"/>
      <rect class="cls-9" x="264.17" y="330.83" width="3.02" height="4.57"/>
      <rect class="cls-7" x="264.17" y="331.13" width="3.02" height="4.27"/>
      <rect class="cls-9" x="268.92" y="330.83" width="3.02" height="4.57"/>
      <rect class="cls-7" x="268.92" y="331.13" width="3.02" height="4.27"/>
      <rect class="cls-9" x="268.92" y="330.83" width=".43" height="4.57"/>
      <rect class="cls-9" x="273.68" y="330.83" width="3.02" height="4.57"/>
      <rect class="cls-7" x="273.68" y="331.13" width="3.02" height="4.27"/>
      <rect class="cls-9" x="273.68" y="330.83" width=".43" height="4.57"/>
      <rect class="cls-9" x="264.17" y="337.71" width="3.02" height="4.57"/>
      <rect class="cls-7" x="264.17" y="338.01" width="3.02" height="4.27"/>
      <rect class="cls-9" x="268.92" y="337.71" width="3.02" height="4.57"/>
      <rect class="cls-7" x="268.92" y="338.01" width="3.02" height="4.27"/>
      <rect class="cls-9" x="268.92" y="337.71" width=".43" height="4.57"/>
      <rect class="cls-9" x="273.68" y="337.71" width="3.02" height="4.57"/>
      <rect class="cls-7" x="273.68" y="338.01" width="3.02" height="4.27"/>
      <rect class="cls-9" x="273.68" y="337.71" width=".43" height="4.57"/>
      <rect class="cls-9" x="264.17" y="344.6" width="3.02" height="4.57"/>
      <rect class="cls-7" x="264.17" y="344.9" width="3.02" height="4.27"/>
      <rect class="cls-9" x="268.92" y="344.6" width="3.02" height="4.57"/>
      <rect class="cls-7" x="268.92" y="344.9" width="3.02" height="4.27"/>
      <rect class="cls-9" x="268.92" y="344.6" width=".43" height="4.57"/>
      <rect class="cls-9" x="273.68" y="344.6" width="3.02" height="4.57"/>
      <rect class="cls-7" x="273.68" y="344.9" width="3.02" height="4.27"/>
      <rect class="cls-9" x="273.68" y="344.6" width=".43" height="4.57"/>
      <rect class="cls-9" x="264.17" y="351.48" width="3.02" height="4.57"/>
      <rect class="cls-7" x="264.17" y="351.79" width="3.02" height="4.27"/>
      <rect class="cls-9" x="268.92" y="351.48" width="3.02" height="4.57"/>
      <rect class="cls-7" x="268.92" y="351.79" width="3.02" height="4.27"/>
      <rect class="cls-9" x="268.92" y="351.48" width=".43" height="4.57"/>
      <rect class="cls-9" x="273.68" y="351.48" width="3.02" height="4.57"/>
      <rect class="cls-7" x="273.68" y="351.79" width="3.02" height="4.27"/>
      <rect class="cls-9" x="273.68" y="351.48" width=".43" height="4.57"/>
      <rect class="cls-9" x="264.17" y="358.37" width="3.02" height="4.57"/>
      <rect class="cls-7" x="264.17" y="358.67" width="3.02" height="4.27"/>
      <rect class="cls-9" x="268.92" y="358.37" width="3.02" height="4.57"/>
      <rect class="cls-7" x="268.92" y="358.67" width="3.02" height="4.27"/>
      <rect class="cls-9" x="268.92" y="358.37" width=".43" height="4.57"/>
      <rect class="cls-9" x="273.68" y="358.37" width="3.02" height="4.57"/>
      <rect class="cls-7" x="273.68" y="358.67" width="3.02" height="4.27"/>
      <rect class="cls-9" x="273.68" y="358.37" width=".43" height="4.57"/>
      <rect class="cls-9" x="264.17" y="365.26" width="3.02" height="4.57"/>
      <rect class="cls-7" x="264.17" y="365.56" width="3.02" height="4.27"/>
      <rect class="cls-9" x="268.92" y="365.26" width="3.02" height="4.57"/>
      <rect class="cls-7" x="268.92" y="365.56" width="3.02" height="4.27"/>
      <rect class="cls-9" x="268.92" y="365.26" width=".43" height="4.57"/>
      <rect class="cls-9" x="273.68" y="365.26" width="3.02" height="4.57"/>
      <rect class="cls-7" x="273.68" y="365.56" width="3.02" height="4.27"/>
      <rect class="cls-9" x="273.68" y="365.26" width=".43" height="4.57"/>
      <rect class="cls-9" x="264.17" y="372.14" width="3.02" height="4.57"/>
      <rect class="cls-7" x="264.17" y="372.45" width="3.02" height="4.27"/>
      <rect class="cls-9" x="268.92" y="372.14" width="3.02" height="4.57"/>
      <rect class="cls-7" x="268.92" y="372.45" width="3.02" height="4.27"/>
      <rect class="cls-9" x="268.92" y="372.14" width=".43" height="4.57"/>
      <rect class="cls-9" x="273.68" y="372.14" width="3.02" height="4.57"/>
      <rect class="cls-7" x="273.68" y="372.45" width="3.02" height="4.27"/>
      <rect class="cls-9" x="273.68" y="372.14" width=".43" height="4.57"/>
      <rect class="cls-9" x="264.17" y="379.03" width="3.02" height="4.57"/>
      <rect class="cls-7" x="264.17" y="379.33" width="3.02" height="4.27"/>
      <rect class="cls-9" x="268.92" y="379.03" width="3.02" height="4.57"/>
      <rect class="cls-7" x="268.92" y="379.33" width="3.02" height="4.27"/>
      <rect class="cls-9" x="268.92" y="379.03" width=".43" height="4.57"/>
      <rect class="cls-9" x="273.68" y="379.03" width="3.02" height="4.57"/>
      <rect class="cls-7" x="273.68" y="379.33" width="3.02" height="4.27"/>
      <rect class="cls-9" x="273.68" y="379.03" width=".43" height="4.57"/>
    </g>
    <g>
      <rect class="cls-9" x="278.58" y="317.16" width="44.4" height="68.23"/>
      <rect class="cls-8" x="278.58" y="317.15" width="36.91" height="68.23"/>
      <rect class="cls-3" x="315.49" y="317.15" width="7.5" height="68.23"/>
      <rect class="cls-9" x="281.75" y="320.62" width="8.05" height="8.05"/>
      <rect class="cls-9" x="293.01" y="320.62" width="8.05" height="8.05"/>
      <rect class="cls-9" x="304.26" y="320.62" width="8.05" height="8.05"/>
      <rect class="cls-9" x="281.75" y="331.11" width="8.05" height="8.05"/>
      <rect class="cls-9" x="293.01" y="331.11" width="8.05" height="8.05"/>
      <rect class="cls-9" x="304.26" y="331.11" width="8.05" height="8.05"/>
      <rect class="cls-9" x="281.75" y="341.6" width="8.05" height="8.05"/>
      <rect class="cls-9" x="293.01" y="341.6" width="8.05" height="8.05"/>
      <rect class="cls-9" x="304.26" y="341.6" width="8.05" height="8.05"/>
      <rect class="cls-9" x="281.75" y="352.1" width="8.05" height="8.05"/>
      <rect class="cls-9" x="293.01" y="352.1" width="8.05" height="8.05"/>
      <rect class="cls-9" x="304.26" y="352.1" width="8.05" height="8.05"/>
      <rect class="cls-9" x="281.75" y="362.59" width="8.05" height="8.05"/>
      <rect class="cls-9" x="293.01" y="362.59" width="8.05" height="8.05"/>
      <rect class="cls-9" x="304.26" y="362.59" width="8.05" height="8.05"/>
      <rect class="cls-9" x="281.75" y="375.87" width="8.05" height="9.52"/>
      <rect class="cls-9" x="293.01" y="373.08" width="8.05" height="12.3"/>
      <rect class="cls-9" x="304.26" y="375.87" width="8.05" height="9.52"/>
      <rect class="cls-6" x="282.42" y="320.62" width="7.39" height="8.05"/>
      <rect class="cls-6" x="293.68" y="320.62" width="7.39" height="8.05"/>
      <rect class="cls-6" x="304.93" y="320.62" width="7.39" height="8.05"/>
      <rect class="cls-6" x="282.42" y="331.11" width="7.39" height="8.05"/>
      <rect class="cls-6" x="293.68" y="331.11" width="7.39" height="8.05"/>
      <rect class="cls-6" x="304.93" y="331.11" width="7.39" height="8.05"/>
      <rect class="cls-6" x="282.42" y="341.6" width="7.39" height="8.05"/>
      <rect class="cls-6" x="293.68" y="341.6" width="7.39" height="8.05"/>
      <rect class="cls-6" x="304.93" y="341.6" width="7.39" height="8.05"/>
      <rect class="cls-6" x="282.42" y="352.1" width="7.39" height="8.05"/>
      <rect class="cls-6" x="293.68" y="352.1" width="7.39" height="8.05"/>
      <rect class="cls-6" x="304.93" y="352.1" width="7.39" height="8.05"/>
      <rect class="cls-6" x="282.42" y="362.59" width="7.39" height="8.05"/>
      <rect class="cls-6" x="293.68" y="362.59" width="7.39" height="8.05"/>
      <rect class="cls-6" x="304.93" y="362.59" width="7.39" height="8.05"/>
      <rect class="cls-6" x="282.42" y="375.87" width="7.39" height="9.52"/>
      <rect class="cls-6" x="293.68" y="373.08" width="7.39" height="12.3"/>
      <rect class="cls-6" x="304.93" y="375.87" width="7.39" height="9.52"/>
      <polygon class="cls-9" points="277.33 314.2 330.59 314.2 328.97 317.67 277.52 317.67 277.33 314.2"/>
      <polygon class="cls-10" points="316.3 314.2 330.59 314.2 328.97 317.67 315.52 317.67 316.3 314.2"/>
    </g>
    <rect class="cls-9" x="398.82" y="280.69" width=".83" height="8.78"/>
    <rect class="cls-9" x="398.82" y="293.91" width=".83" height="8.78"/>
    <rect class="cls-9" x="398.82" y="307.12" width=".83" height="8.78"/>
    <rect class="cls-9" x="398.82" y="320.34" width=".83" height="8.78"/>
    <rect class="cls-9" x="398.82" y="333.55" width=".83" height="8.78"/>
    <rect class="cls-9" x="398.82" y="346.76" width=".83" height="8.78"/>
    <rect class="cls-9" x="398.82" y="359.98" width=".83" height="8.78"/>
    <rect class="cls-9" x="398.82" y="373.2" width=".83" height="8.78"/>
    <g>
      <rect class="cls-9" x="394.25" y="276.34" width="44.81" height="109.04"/>
      <rect class="cls-6" x="394.25" y="276.34" width="34.09" height="109.04"/>
      <rect class="cls-9" x="392.14" y="273.11" width="49.01" height="3.48"/>
      <rect class="cls-10" x="428.34" y="273.11" width="12.81" height="3.48"/>
      <rect class="cls-3" x="428.34" y="276.59" width="10.72" height="108.79"/>
      <rect class="cls-9" x="398.82" y="280.69" width="5.79" height="8.78"/>
      <rect class="cls-7" x="398.82" y="281.27" width="5.79" height="8.19"/>
      <rect class="cls-9" x="407.95" y="280.69" width="5.79" height="8.78"/>
      <rect class="cls-7" x="407.95" y="281.27" width="5.79" height="8.19"/>
      <rect class="cls-9" x="407.95" y="280.69" width=".83" height="8.78"/>
      <rect class="cls-9" x="417.07" y="280.69" width="5.79" height="8.78"/>
      <rect class="cls-7" x="417.07" y="281.27" width="5.79" height="8.19"/>
      <rect class="cls-9" x="417.07" y="280.69" width=".83" height="8.78"/>
      <rect class="cls-9" x="398.82" y="293.91" width="5.79" height="8.78"/>
      <rect class="cls-7" x="398.82" y="294.49" width="5.79" height="8.19"/>
      <rect class="cls-9" x="407.95" y="293.91" width="5.79" height="8.78"/>
      <rect class="cls-7" x="407.95" y="294.49" width="5.79" height="8.19"/>
      <rect class="cls-9" x="407.95" y="293.91" width=".83" height="8.78"/>
      <rect class="cls-9" x="417.07" y="293.91" width="5.79" height="8.78"/>
      <rect class="cls-7" x="417.07" y="294.49" width="5.79" height="8.19"/>
      <rect class="cls-9" x="417.07" y="293.91" width=".83" height="8.78"/>
      <rect class="cls-9" x="398.82" y="307.12" width="5.79" height="8.78"/>
      <rect class="cls-7" x="398.82" y="307.7" width="5.79" height="8.19"/>
      <rect class="cls-9" x="407.95" y="307.12" width="5.79" height="8.78"/>
      <rect class="cls-7" x="407.95" y="307.7" width="5.79" height="8.19"/>
      <rect class="cls-9" x="407.95" y="307.12" width=".83" height="8.78"/>
      <rect class="cls-9" x="417.07" y="307.12" width="5.79" height="8.78"/>
      <rect class="cls-7" x="417.07" y="307.7" width="5.79" height="8.19"/>
      <rect class="cls-9" x="417.07" y="307.12" width=".83" height="8.78"/>
      <rect class="cls-9" x="398.82" y="320.34" width="5.79" height="8.78"/>
      <rect class="cls-7" x="398.82" y="320.92" width="5.79" height="8.19"/>
      <rect class="cls-9" x="407.95" y="320.34" width="5.79" height="8.78"/>
      <rect class="cls-7" x="407.95" y="320.92" width="5.79" height="8.19"/>
      <rect class="cls-9" x="407.95" y="320.34" width=".83" height="8.78"/>
      <rect class="cls-9" x="417.07" y="320.34" width="5.79" height="8.78"/>
      <rect class="cls-7" x="417.07" y="320.92" width="5.79" height="8.19"/>
      <rect class="cls-9" x="417.07" y="320.34" width=".83" height="8.78"/>
      <rect class="cls-9" x="398.82" y="333.55" width="5.79" height="8.78"/>
      <rect class="cls-7" x="398.82" y="334.13" width="5.79" height="8.19"/>
      <rect class="cls-9" x="407.95" y="333.55" width="5.79" height="8.78"/>
      <rect class="cls-7" x="407.95" y="334.13" width="5.79" height="8.19"/>
      <rect class="cls-9" x="407.95" y="333.55" width=".83" height="8.78"/>
      <rect class="cls-9" x="417.07" y="333.55" width="5.79" height="8.78"/>
      <rect class="cls-7" x="417.07" y="334.13" width="5.79" height="8.19"/>
      <rect class="cls-9" x="417.07" y="333.55" width=".83" height="8.78"/>
      <rect class="cls-9" x="398.82" y="346.76" width="5.79" height="8.78"/>
      <rect class="cls-7" x="398.82" y="347.35" width="5.79" height="8.19"/>
      <rect class="cls-9" x="407.95" y="346.76" width="5.79" height="8.78"/>
      <rect class="cls-7" x="407.95" y="347.35" width="5.79" height="8.19"/>
      <rect class="cls-9" x="407.95" y="346.76" width=".83" height="8.78"/>
      <rect class="cls-9" x="417.07" y="346.76" width="5.79" height="8.78"/>
      <rect class="cls-7" x="417.07" y="347.35" width="5.79" height="8.19"/>
      <rect class="cls-9" x="417.07" y="346.76" width=".83" height="8.78"/>
      <rect class="cls-9" x="398.82" y="359.98" width="5.79" height="8.78"/>
      <rect class="cls-7" x="398.82" y="360.57" width="5.79" height="8.19"/>
      <rect class="cls-9" x="407.95" y="359.98" width="5.79" height="8.78"/>
      <rect class="cls-7" x="407.95" y="360.57" width="5.79" height="8.19"/>
      <rect class="cls-9" x="407.95" y="359.98" width=".83" height="8.78"/>
      <rect class="cls-9" x="417.07" y="359.98" width="5.79" height="8.78"/>
      <rect class="cls-7" x="417.07" y="360.57" width="5.79" height="8.19"/>
      <rect class="cls-9" x="417.07" y="359.98" width=".83" height="8.78"/>
      <rect class="cls-9" x="398.82" y="373.2" width="5.79" height="8.78"/>
      <rect class="cls-7" x="398.82" y="373.78" width="5.79" height="8.19"/>
      <rect class="cls-9" x="407.95" y="373.2" width="5.79" height="8.78"/>
      <rect class="cls-7" x="407.95" y="373.78" width="5.79" height="8.19"/>
      <rect class="cls-9" x="407.95" y="373.2" width=".83" height="8.78"/>
      <rect class="cls-9" x="417.07" y="373.2" width="5.79" height="8.78"/>
      <rect class="cls-7" x="417.07" y="373.78" width="5.79" height="8.19"/>
      <rect class="cls-9" x="417.07" y="373.2" width=".83" height="8.78"/>
    </g>
    <rect class="cls-4" x="326.97" y="222.09" width="1.69" height="8.51"/>
    <rect class="cls-4" x="326.97" y="269.63" width="1.69" height="6.97"/>
    <rect class="cls-4" x="326.97" y="281.81" width="1.69" height="6.97"/>
    <rect class="cls-4" x="326.97" y="294.01" width="1.69" height="6.97"/>
    <rect class="cls-4" x="326.97" y="306.19" width="1.69" height="6.97"/>
    <rect class="cls-4" x="326.97" y="318.38" width="1.69" height="6.97"/>
    <rect class="cls-4" x="326.97" y="331.81" width="1.69" height="6.97"/>
    <rect class="cls-4" x="326.97" y="345.24" width="1.69" height="6.97"/>
    <rect class="cls-4" x="326.97" y="358.67" width="1.69" height="6.97"/>
    <rect class="cls-4" x="326.97" y="372.1" width="1.69" height="6.97"/>
    <rect class="cls-9" x="341.87" y="210.75" width="52.62" height="174.63"/>
    <rect class="cls-9" x="322.38" y="210.75" width="52.62" height="174.63"/>
    <rect class="cls-3" x="375.01" y="213.15" width="19.48" height="172.24"/>
    <rect class="cls-4" x="322.38" y="210.75" width="52.62" height="174.63"/>
    <rect class="cls-9" x="363.56" y="218.39" width="6.46" height="162.82"/>
    <rect class="cls-9" x="351.12" y="218.39" width="6.46" height="162.82"/>
    <rect class="cls-9" x="338.69" y="218.39" width="6.46" height="162.82"/>
    <rect class="cls-9" x="326.24" y="218.39" width="6.46" height="162.82"/>
    <rect class="cls-7" x="363.56" y="220.45" width="6.46" height="160.76"/>
    <rect class="cls-7" x="351.12" y="220.45" width="6.46" height="160.76"/>
    <rect class="cls-7" x="338.69" y="220.45" width="6.46" height="160.76"/>
    <rect class="cls-7" x="326.24" y="220.45" width="6.46" height="160.76"/>
    <rect class="cls-9" x="389.54" y="218.39" width="2.7" height="162.82"/>
    <rect class="cls-9" x="384.32" y="218.39" width="2.7" height="162.82"/>
    <rect class="cls-9" x="379.1" y="218.39" width="2.7" height="162.82"/>
    <g class="cls-12">
      <rect class="cls-6" x="389.54" y="220.45" width="2.7" height="160.76"/>
      <rect class="cls-6" x="384.32" y="220.45" width="2.7" height="160.76"/>
      <rect class="cls-6" x="379.1" y="220.45" width="2.7" height="160.76"/>
    </g>
    <rect class="cls-9" x="375.01" y="205.79" width="18.35" height="3.28"/>
    <rect class="cls-1" x="322.38" y="204.99" width="70.99" height="4.08"/>
    <rect class="cls-9" x="320.89" y="209.08" width="74.96" height="4.08"/>
    <rect class="cls-9" x="320.89" y="201.72" width="74.96" height="4.08"/>
    <rect class="cls-11" x="320.89" y="209.08" width="74.96" height="4.08"/>
    <rect class="cls-11" x="320.89" y="201.72" width="74.96" height="4.08"/>
    <rect class="cls-10" x="375.01" y="209.08" width="20.84" height="4.08"/>
    <rect class="cls-10" x="375.01" y="201.72" width="20.84" height="4.08"/>
    <g>
      <rect class="cls-9" x="432.01" y="337.46" width="28.83" height="48.31"/>
      <rect class="cls-8" x="432.01" y="337.45" width="23.96" height="48.31"/>
      <rect class="cls-3" x="455.97" y="337.45" width="4.87" height="48.31"/>
      <rect class="cls-9" x="434.07" y="339.91" width="5.23" height="5.7"/>
      <rect class="cls-9" x="441.37" y="339.91" width="5.23" height="5.7"/>
      <rect class="cls-9" x="448.68" y="339.91" width="5.23" height="5.7"/>
      <rect class="cls-9" x="434.07" y="347.34" width="5.23" height="5.7"/>
      <rect class="cls-9" x="441.37" y="347.34" width="5.23" height="5.7"/>
      <rect class="cls-9" x="448.68" y="347.34" width="5.23" height="5.7"/>
      <rect class="cls-9" x="434.07" y="354.77" width="5.23" height="5.7"/>
      <rect class="cls-9" x="441.37" y="354.77" width="5.23" height="5.7"/>
      <rect class="cls-9" x="448.68" y="354.77" width="5.23" height="5.7"/>
      <rect class="cls-9" x="434.07" y="362.2" width="5.23" height="5.7"/>
      <rect class="cls-9" x="441.37" y="362.2" width="5.23" height="5.7"/>
      <rect class="cls-9" x="448.68" y="362.2" width="5.23" height="5.7"/>
      <rect class="cls-9" x="434.07" y="369.63" width="5.23" height="5.7"/>
      <rect class="cls-9" x="441.37" y="369.63" width="5.23" height="5.7"/>
      <rect class="cls-9" x="448.68" y="369.63" width="5.23" height="5.7"/>
      <rect class="cls-9" x="434.07" y="379.03" width="5.23" height="6.74"/>
      <rect class="cls-9" x="441.37" y="377.05" width="5.23" height="8.71"/>
      <rect class="cls-9" x="448.68" y="379.03" width="5.23" height="6.74"/>
      <rect class="cls-6" x="434.5" y="339.91" width="4.8" height="5.7"/>
      <rect class="cls-6" x="441.81" y="339.91" width="4.8" height="5.7"/>
      <rect class="cls-6" x="449.12" y="339.91" width="4.8" height="5.7"/>
      <rect class="cls-6" x="434.5" y="347.34" width="4.8" height="5.7"/>
      <rect class="cls-6" x="441.81" y="347.34" width="4.8" height="5.7"/>
      <rect class="cls-6" x="449.12" y="347.34" width="4.8" height="5.7"/>
      <rect class="cls-6" x="434.5" y="354.77" width="4.8" height="5.7"/>
      <rect class="cls-6" x="441.81" y="354.77" width="4.8" height="5.7"/>
      <rect class="cls-6" x="449.12" y="354.77" width="4.8" height="5.7"/>
      <rect class="cls-6" x="434.5" y="362.2" width="4.8" height="5.7"/>
      <rect class="cls-6" x="441.81" y="362.2" width="4.8" height="5.7"/>
      <rect class="cls-6" x="449.12" y="362.2" width="4.8" height="5.7"/>
      <rect class="cls-6" x="434.5" y="369.63" width="4.8" height="5.7"/>
      <rect class="cls-6" x="441.81" y="369.63" width="4.8" height="5.7"/>
      <rect class="cls-6" x="449.12" y="369.63" width="4.8" height="5.7"/>
      <rect class="cls-6" x="434.5" y="379.03" width="4.8" height="6.74"/>
      <rect class="cls-6" x="441.81" y="377.05" width="4.8" height="8.71"/>
      <rect class="cls-6" x="449.12" y="379.03" width="4.8" height="6.74"/>
      <polygon class="cls-9" points="431.19 335.37 461.89 335.37 460.84 337.82 431.32 337.82 431.19 335.37"/>
      <polygon class="cls-10" points="456.5 335.37 461.89 335.37 460.84 337.82 455.99 337.82 456.5 335.37"/>
    </g>
  </g>
  <g id="Floor">
    <path class="cls-14" d="M196.94,395.64c-22.63,4.15-53.73,11.21-84.56,18.61,.18-1.47-.2-3.04-1.12-4.21-1.76-2.24-4.89-3.04-7.71-2.66-2.82,.38-5.4,1.78-7.81,3.28,.68-2.36,1.37-4.83,.94-7.25-.43-2.42-2.32-4.78-4.78-4.86-1.82-.06-3.45,1.08-4.81,2.29-4.41,3.91-7.68,9.09-9.32,14.75-2.74-4.06-10.19-3.05-11.76,1.59-4.3-3.88-9.54-6.71-15.14-8.18-1.89-.49-3.94-.82-5.74-.08-2.88,1.2-4.07,4.84-3.48,7.9,.59,3.06,2.52,5.67,4.39,8.16-2.14-.72-4.36-1.45-6.6-1.18-2.24,.26-4.5,1.83-4.79,4.06-.26,2.05,1.2,4,3.03,4.96-22.96,5.89-38.45,10-38.45,10l466.98,.79v-64.3c-68.34-7.08-197.92,3.21-269.27,16.31Z"/>
  </g>
  <g id="Wind_turbines" data-name="Wind turbines">
    <g>
      <polygon class="cls-9" points="215.31 182.86 207.52 403.66 225.71 403.66 219.61 182.86 215.31 182.86"/>
      <polygon class="cls-5" points="215.31 182.86 207.52 403.66 225.71 403.66 219.61 182.86 215.31 182.86"/>
      <g>
        <path class="cls-9" d="M212.82,180.03s10.03,16.11,22.12,19.11c12.08,3,70.84-4.64,72.1-5.52,1.25-.88,3.23-2.55,1-3.45-2.23-.9-95.21-10.14-95.21-10.14Z"/>
        <path class="cls-5" d="M212.82,180.03s10.03,16.11,22.12,19.11c12.08,3,70.84-4.64,72.1-5.52,1.25-.88,3.23-2.55,1-3.45-2.23-.9-95.21-10.14-95.21-10.14Z"/>
        <path class="cls-9" d="M285.11,196.91c12.29-1.41,22.05-2.85,22.56-3.2,1.25-.88,3.23-2.55,1-3.45-.74-.3-11.46-1.51-25.45-3l1.9,9.65Z"/>
      </g>
      <g>
        <path class="cls-9" d="M219.35,185.43s-18.74,2.97-26.21,12.93c-7.47,9.96-23.3,67.06-22.97,68.56,.33,1.5,1.09,3.97,2.79,2.26,1.69-1.71,46.4-83.76,46.4-83.76Z"/>
        <path class="cls-5" d="M219.35,185.43s-18.74,2.97-26.21,12.93c-7.47,9.96-23.3,67.06-22.97,68.56,.33,1.5,1.09,3.97,2.79,2.26,1.69-1.71,46.4-83.76,46.4-83.76Z"/>
        <path class="cls-9" d="M176,244.9c-3.49,11.87-5.96,21.42-5.83,22.02,.33,1.5,1.09,3.97,2.79,2.26,.56-.57,5.85-9.97,12.67-22.28l-9.63-2.01Z"/>
      </g>
      <g>
        <path class="cls-9" d="M215.55,188.75s7.94-17.23,3.81-28.98c-4.13-11.75-42.81-56.64-44.24-57.2-1.43-.56-3.91-1.3-3.43,1.06,.48,2.36,43.86,85.12,43.86,85.12Z"/>
        <path class="cls-5" d="M215.55,188.75s7.94-17.23,3.81-28.98c-4.13-11.75-42.81-56.64-44.24-57.2-1.43-.56-3.91-1.3-3.43,1.06,.48,2.36,43.86,85.12,43.86,85.12Z"/>
        <path class="cls-9" d="M190.19,119.66c-7.93-9.49-14.5-16.86-15.07-17.08-1.43-.56-3.91-1.3-3.43,1.06,.16,.78,5.03,10.4,11.48,22.92l7.02-6.89Z"/>
      </g>
      <path class="cls-9" d="M210.83,182.98c1.09-3.67,4.95-5.77,8.62-4.68,3.67,1.09,5.77,4.95,4.68,8.62-1.09,3.67-4.95,5.77-8.62,4.68s-5.77-4.95-4.68-8.62Z"/>
    </g>
    <g>
      <g>
        <polygon class="cls-9" points="116.67 165.56 106.7 428.16 129.85 428.16 122.15 165.56 116.67 165.56"/>
        <polygon class="cls-5" points="116.67 165.56 106.7 428.16 129.85 428.16 122.15 165.56 116.67 165.56"/>
        <path class="cls-12" d="M116.46,171.41l-.5,13.86s2.35,12.43,7.26,16.85l-.17-11.28-2.97-19.43h-3.63Z"/>
        <g>
          <path class="cls-9" d="M125.74,167.09s-18.06-16.03-33.89-15.33c-15.83,.7-84.78,31.25-85.99,32.78-1.21,1.53-3.02,4.28,.03,4.57s119.86-22.01,119.86-22.01Z"/>
          <path class="cls-5" d="M125.74,167.09s-18.06-16.03-33.89-15.33c-15.83,.7-84.78,31.25-85.99,32.78-1.21,1.53-3.02,4.28,.03,4.57s119.86-22.01,119.86-22.01Z"/>
          <path class="cls-9" d="M31.42,172.59c-14.49,6.15-25.88,11.44-26.37,12.05-1.21,1.53-3.02,4.28,.03,4.57,1.01,.1,14.53-2.29,32.15-5.53l-5.81-11.09Z"/>
        </g>
        <g>
          <path class="cls-9" d="M115.82,162.86s21.8-10.39,27.32-25.25c5.52-14.86,4.21-90.26,3.27-91.97-.94-1.71-2.77-4.45-4.22-1.75-1.45,2.7-26.37,118.97-26.37,118.97Z"/>
          <path class="cls-5" d="M115.82,162.86s21.8-10.39,27.32-25.25c5.52-14.86,4.21-90.26,3.27-91.97-.94-1.71-2.77-4.45-4.22-1.75-1.45,2.7-26.37,118.97-26.37,118.97Z"/>
          <path class="cls-9" d="M147.25,74.62c-.03-15.74-.46-28.3-.84-28.98-.94-1.71-2.77-4.45-4.22-1.75-.48,.89-3.54,14.28-7.42,31.77l12.48-1.03Z"/>
        </g>
        <g>
          <path class="cls-9" d="M119.26,157.43s-3.47,23.9,5.82,36.74c9.29,12.84,72.7,53.66,74.64,53.83s5.24,.17,3.8-2.53-84.26-88.04-84.26-88.04Z"/>
          <path class="cls-5" d="M119.26,157.43s-3.47,23.9,5.82,36.74c9.29,12.84,72.7,53.66,74.64,53.83s5.24,.17,3.8-2.53-84.26-88.04-84.26-88.04Z"/>
          <path class="cls-9" d="M175.16,232.59c13.1,8.72,23.78,15.34,24.56,15.41,1.94,.17,5.24,.17,3.8-2.53-.48-.9-9.9-10.88-22.29-23.82l-6.08,10.95Z"/>
        </g>
        <circle class="cls-9" cx="118.27" cy="162.76" r="8.83" transform="translate(-80.45 131.3) rotate(-45)"/>
        <circle class="cls-9" cx="118.27" cy="162.76" r="8.83" transform="translate(-80.45 131.3) rotate(-45)"/>
      </g>
      <path d="M168.99,228.78c.79,.83,1.95,1.44,2.9,2.06,2.12,1.42,4.27,2.8,6.42,4.18,5.34,3.43,10.7,6.82,16.05,10.21,1.76,1.11,3.61,2.75,5.67,3.23,2.02,.46,4.8,.03,4.31-2.63-.28-1.49-2.05-2.79-3.07-3.85-1.32-1.37-2.64-2.74-3.96-4.12-7.56-7.86-15.12-15.72-22.68-23.58-8.72-9.06-17.43-18.13-26.16-27.18-6.52-6.77-13.05-13.54-19.61-20.28-.5-.51-1-1.02-1.5-1.53-.34-.35-.87,.18-.53,.53,5.77,5.9,11.49,11.84,17.22,17.78,8.28,8.58,16.55,17.18,24.81,25.77,7.81,8.12,15.62,16.24,23.43,24.36,2.8,2.91,5.59,5.81,8.39,8.72,1,1.04,3.59,2.99,2.88,4.61-.55,1.24-2.7,.86-3.73,.57-.85-.24-1.56-.81-2.3-1.28-5.09-3.23-10.19-6.44-15.27-9.69-3.97-2.53-7.99-5.01-11.84-7.72-.31-.22-.65-.42-.91-.7-.33-.35-.86,.18-.53,.53h0Z"/>
    </g>
    <path class="cls-15" d="M207.44,410.11h23.69c.89-3.66,1.79-7.32,2.68-10.97,.36-1.48,.43-3.53-1.02-3.99-.85-.27-1.74,.23-2.46,.76-2.32,1.7-4.28,3.87-5.75,6.34,.27-1.3-.68-2.93-2.09-3.04-1.82-.14-3.33,1.99-2.78,3.74-.81-2.57-1.63-5.13-2.44-7.69-.26-.82-.61-1.73-1.4-2.04-1.2-.47-2.38,.76-2.95,1.92-1.56,3.21-1.71,7.07-.4,10.39-1.86-1.89-3.8-3.7-5.81-5.42-.62-.53-1.28-1.07-2.07-1.29-.79-.22-1.75-.03-2.21,.65-.61,.92-.05,2.14,.52,3.09,1.5,2.52,3,5.04,4.5,7.56Z"/>
    <path class="cls-15" d="M104.51,429.17h35.87c.25-2.53,.49-5.06,.74-7.59,.09-.92,.13-1.98-.55-2.62-.7-.66-1.82-.51-2.75-.27-4.56,1.2-8.76,3.76-11.93,7.26,.69-4.63,1.11-9.31,1.27-13.99,.04-1.12,0-2.4-.85-3.14-1.3-1.14-3.31-.14-4.63,.97-4.44,3.74-7.76,8.79-9.45,14.34,.5-1.71-1.14-3.54-2.92-3.61-1.78-.07-3.41,1.23-4.18,2.84-.77,1.61-.82,3.47-.68,5.25,.01,.19,.04,.38,.06,.57Z"/>
  </g>
  <g id="Grass">
    <g>
      <path class="cls-17" d="M297.78,407.59c.94-2.37,1.97-4.69,3.28-6.88,1.32-2.19,2.85-4.26,4.33-6.35,.56-.79-.74-1.54-1.3-.76-1.51,2.13-3.07,4.24-4.41,6.49-1.34,2.25-2.39,4.66-3.35,7.1-.35,.9,1.1,1.29,1.45,.4h0Z"/>
      <path class="cls-17" d="M304.53,408.25c1.47-3.56,3.57-6.86,5.87-9.93,2.17-2.9,4.59-5.65,7.28-8.08,.72-.65-.35-1.71-1.06-1.06-2.79,2.52-5.26,5.38-7.51,8.39-2.38,3.19-4.5,6.6-6.02,10.29-.37,.89,1.08,1.28,1.45,.4h0Z"/>
      <path class="cls-17" d="M311.45,407.69c1.88-3.23,4.18-6.18,6.87-8.78,.69-.67-.37-1.73-1.06-1.06-2.77,2.68-5.16,5.75-7.1,9.08-.49,.84,.81,1.59,1.3,.76h0Z"/>
    </g>
    <g>
      <path class="cls-17" d="M386.31,428.03c.94-2.37,1.97-4.69,3.28-6.88,1.32-2.19,2.85-4.26,4.33-6.35,.56-.79-.74-1.54-1.3-.76-1.51,2.13-3.07,4.24-4.41,6.49-1.34,2.25-2.39,4.66-3.35,7.1-.35,.9,1.1,1.29,1.45,.4h0Z"/>
      <path class="cls-17" d="M393.06,428.69c1.47-3.56,3.57-6.86,5.87-9.93,2.17-2.9,4.59-5.65,7.28-8.08,.72-.65-.35-1.71-1.06-1.06-2.79,2.52-5.26,5.38-7.51,8.39-2.38,3.19-4.5,6.6-6.02,10.29-.37,.89,1.08,1.28,1.45,.4h0Z"/>
      <path class="cls-17" d="M399.98,428.13c1.88-3.23,4.18-6.18,6.87-8.78,.69-.67-.37-1.73-1.06-1.06-2.77,2.68-5.16,5.75-7.1,9.08-.49,.84,.81,1.59,1.3,.76h0Z"/>
    </g>
    <g>
      <path class="cls-17" d="M179.85,430.34c.94-2.37,1.97-4.69,3.28-6.88,1.32-2.19,2.85-4.26,4.33-6.35,.56-.79-.74-1.54-1.3-.76-1.51,2.13-3.07,4.24-4.41,6.49-1.34,2.25-2.39,4.66-3.35,7.1-.35,.9,1.1,1.29,1.45,.4h0Z"/>
      <path class="cls-17" d="M186.59,431c1.47-3.56,3.57-6.86,5.87-9.93,2.17-2.9,4.59-5.65,7.28-8.08,.72-.65-.35-1.71-1.06-1.06-2.79,2.52-5.26,5.38-7.51,8.39-2.38,3.19-4.5,6.6-6.02,10.29-.37,.89,1.08,1.28,1.45,.4h0Z"/>
      <path class="cls-17" d="M193.51,430.43c1.88-3.23,4.18-6.18,6.87-8.78,.69-.67-.37-1.73-1.06-1.06-2.77,2.68-5.16,5.75-7.1,9.08-.49,.84,.81,1.59,1.3,.76h0Z"/>
    </g>
    <g>
      <path class="cls-17" d="M73.83,435.26c.75-1.91,1.59-3.78,2.65-5.54,1.07-1.78,2.31-3.45,3.5-5.15,.56-.79-.74-1.54-1.3-.76-1.22,1.73-2.49,3.44-3.57,5.26-1.09,1.84-1.95,3.8-2.73,5.78-.35,.9,1.1,1.29,1.45,.4h0Z"/>
      <path class="cls-17" d="M79.29,435.8c1.18-2.87,2.89-5.53,4.74-8.01,1.75-2.34,3.7-4.56,5.87-6.52,.72-.65-.35-1.71-1.06-1.06-2.27,2.05-4.28,4.38-6.11,6.82-1.94,2.6-3.66,5.37-4.89,8.37-.37,.89,1.08,1.28,1.45,.4h0Z"/>
      <path class="cls-17" d="M84.88,435.38c1.52-2.61,3.38-4.98,5.54-7.08,.69-.67-.37-1.73-1.06-1.06-2.25,2.18-4.2,4.68-5.77,7.39-.49,.84,.81,1.59,1.3,.76h0Z"/>
    </g>
  </g>
</svg>