<?xml version="1.0" encoding="UTF-8"?>
<svg xmlns="http://www.w3.org/2000/svg" viewBox="0 0 169 159.5">
  <defs>
    <style>
      .cls-1 {
        fill: #129643;
        mix-blend-mode: screen;
      }

      .cls-2 {
        isolation: isolate;
      }
    </style>
  </defs>
  <g class="cls-2">
    <g id="Layer_1" data-name="Layer 1">
      <g>
        <path class="cls-1" d="M86.85,77.06c8.35-10,20.08-18.8,34.48-25.27-7.18-15.78-18.67-31.48-34.48-45.41-15.81,13.93-27.3,29.63-34.48,45.41,14.4,6.47,26.12,15.26,34.48,25.27Z"/>
        <path class="cls-1" d="M52.94,124c-12.46-18.98-12.61-45.71-.56-72.2-7.96-3.58-16.73-6.45-26.22-8.4-15.59,45.66-2.88,87.64,24.74,101.69,4.58,2.33,16.62,7.48,35.87,4.32,.03-.03,.05-.07,.08-.1-.04-.05-.07-.09-.11-.14-21.29-7.97-30.51-20.15-33.8-25.17Z"/>
        <path class="cls-1" d="M52.94,124c3.29,5.01,12.51,17.2,33.8,25.17-12.3-14.89-13.96-27.77-14.28-32.87-.83-13.49,4.36-27.22,14.39-39.24-8.35-10-20.08-18.8-34.48-25.27-12.04,26.49-11.9,53.22,.56,72.2Z"/>
        <path class="cls-1" d="M52.94,124c3.29,5.01,12.51,17.2,33.8,25.17-12.3-14.89-13.96-27.77-14.28-32.87-.83-13.49,4.36-27.22,14.39-39.24-8.35-10-20.08-18.8-34.48-25.27-12.04,26.49-11.9,53.22,.56,72.2Z"/>
        <path class="cls-1" d="M147.55,43.4c-9.49,1.95-18.26,4.83-26.22,8.4,12.04,26.49,11.9,53.22-.56,72.2-3.29,5.01-12.51,17.2-33.8,25.17-.04,.05-.07,.09-.11,.14,.03,.03,.05,.07,.08,.1,19.25,3.15,31.29-1.99,35.87-4.32,27.62-14.05,40.33-56.03,24.74-101.69Z"/>
        <path class="cls-1" d="M86.85,77.06c10.03,12.01,15.22,25.75,14.39,39.24-.31,5.1-1.98,17.98-14.28,32.87,21.29-7.97,30.51-20.15,33.8-25.17,12.46-18.98,12.61-45.71,.56-72.2-14.4,6.47-26.12,15.26-34.48,25.27Z"/>
        <path class="cls-1" d="M86.85,77.06c10.03,12.01,15.22,25.75,14.39,39.24-.31,5.1-1.98,17.98-14.28,32.87,21.29-7.97,30.51-20.15,33.8-25.17,12.46-18.98,12.61-45.71,.56-72.2-14.4,6.47-26.12,15.26-34.48,25.27Z"/>
        <path class="cls-1" d="M86.85,149.21s-.07-.03-.11-.04c.04,.05,.07,.09,.11,.14,.04-.05,.07-.09,.11-.14-.04,.01-.07,.03-.11,.04Z"/>
        <path class="cls-1" d="M86.85,149.21s-.07-.03-.11-.04c.04,.05,.07,.09,.11,.14,.04-.05,.07-.09,.11-.14-.04,.01-.07,.03-.11,.04Z"/>
        <path class="cls-1" d="M86.85,77.06c-10.03,12.01-15.22,25.75-14.39,39.24,.31,5.1,1.98,17.98,14.28,32.87,.04,.01,.07,.03,.11,.04,.04-.01,.07-.03,.11-.04,12.3-14.89,13.96-27.77,14.28-32.87,.83-13.49-4.36-27.22-14.39-39.24Z"/>
        <path class="cls-1" d="M86.85,77.06c-10.03,12.01-15.22,25.75-14.39,39.24,.31,5.1,1.98,17.98,14.28,32.87,.04,.01,.07,.03,.11,.04,.04-.01,.07-.03,.11-.04,12.3-14.89,13.96-27.77,14.28-32.87,.83-13.49-4.36-27.22-14.39-39.24Z"/>
        <path class="cls-1" d="M86.85,77.06c-10.03,12.01-15.22,25.75-14.39,39.24,.31,5.1,1.98,17.98,14.28,32.87,.04,.01,.07,.03,.11,.04,.04-.01,.07-.03,.11-.04,12.3-14.89,13.96-27.77,14.28-32.87,.83-13.49-4.36-27.22-14.39-39.24Z"/>
      </g>
    </g>
  </g>
</svg>