<?xml version="1.0" encoding="UTF-8"?>
<svg id="object" xmlns="http://www.w3.org/2000/svg" viewBox="0 0 178.8 263.38">
  <defs>
    <style>
      .cls-1 {
        fill: #88ba7d;
      }
    </style>
  </defs>
  <path class="cls-1" d="M149.96,212.36c-12.44,22.12-36.47,36.34-61.84,36.45-25.38-.11-49.4-14.32-61.84-36.45-6.97-12.38-9.11-24.47-8.22-36.45,1.11-15.17,7.04-30.18,14.1-45.39,.11-.26,48-103.41,48-103.41,1.59-3.42,4.75-5.19,7.97-5.34,3.22,.15,6.38,1.92,7.97,5.34,0,0,47.89,103.15,48,103.41,7.06,15.21,12.99,30.22,14.1,45.39,.89,11.98-1.26,24.06-8.22,36.45Z"/>
</svg>